G04 #@! TF.GenerationSoftware,KiCad,Pcbnew,10.0.6*
G04 #@! TF.CreationDate,2026-09-21T18:58:02-05:00*
G04 #@! TF.ProjectId,muscle-bioamp-biscute,6d757363-6c65-42d6-9269-6f616d702d62,v0.1*
G04 #@! TF.SameCoordinates,Original*
G04 #@! TF.FileFunction,Copper,L2,Bot*
G04 #@! TF.FilePolarity,Positive*
%FSLAX46Y46*%
G04 Gerber Fmt 4.6, Leading zero omitted, Abs format (unit mm)*
G04 Created by KiCad (PCBNEW 10.0.6) date 2026-09-21 18:58:02*
%MOMM*%
%LPD*%
G01*
G04 APERTURE LIST*
G04 Aperture macros list*
%AMRoundRect*
0 Rectangle with rounded corners*
0 $1 Rounding radius*
0 $2 $3 $4 $5 $6 $7 $8 $9 X,Y pos of 4 corners*
0 Add a 4 corners polygon primitive as box body*
4,1,4,$2,$3,$4,$5,$6,$7,$8,$9,$2,$3,0*
0 Add four circle primitives for the rounded corners*
1,1,$1+$1,$2,$3*
1,1,$1+$1,$4,$5*
1,1,$1+$1,$6,$7*
1,1,$1+$1,$8,$9*
0 Add four rect primitives between the rounded corners*
20,1,$1+$1,$2,$3,$4,$5,0*
20,1,$1+$1,$4,$5,$6,$7,0*
20,1,$1+$1,$6,$7,$8,$9,0*
20,1,$1+$1,$8,$9,$2,$3,0*%
G04 Aperture macros list end*
%ADD10C,0.150000*%
G04 #@! TA.AperFunction,NonConductor*
%ADD11C,0.150000*%
G04 #@! TD*
%ADD12C,0.200000*%
G04 #@! TA.AperFunction,NonConductor*
%ADD13C,0.200000*%
G04 #@! TD*
G04 #@! TA.AperFunction,EtchedComponent*
%ADD14C,0.010000*%
G04 #@! TD*
G04 #@! TA.AperFunction,ComponentPad*
%ADD15C,1.600000*%
G04 #@! TD*
G04 #@! TA.AperFunction,ComponentPad*
%ADD16R,1.600000X1.600000*%
G04 #@! TD*
G04 #@! TA.AperFunction,ComponentPad*
%ADD17R,1.700000X1.700000*%
G04 #@! TD*
G04 #@! TA.AperFunction,ComponentPad*
%ADD18O,1.700000X1.700000*%
G04 #@! TD*
G04 #@! TA.AperFunction,ComponentPad*
%ADD19RoundRect,0.250000X-0.625000X0.350000X-0.625000X-0.350000X0.625000X-0.350000X0.625000X0.350000X0*%
G04 #@! TD*
G04 #@! TA.AperFunction,ComponentPad*
%ADD20O,1.750000X1.200000*%
G04 #@! TD*
G04 #@! TA.AperFunction,ComponentPad*
%ADD21O,1.600000X1.600000*%
G04 #@! TD*
G04 #@! TA.AperFunction,ComponentPad*
%ADD22R,2.400000X1.600000*%
G04 #@! TD*
G04 #@! TA.AperFunction,ComponentPad*
%ADD23O,2.400000X1.600000*%
G04 #@! TD*
G04 #@! TA.AperFunction,ComponentPad*
%ADD24RoundRect,0.250000X0.625000X-0.350000X0.625000X0.350000X-0.625000X0.350000X-0.625000X-0.350000X0*%
G04 #@! TD*
G04 #@! TA.AperFunction,Conductor*
%ADD25C,0.400000*%
G04 #@! TD*
G04 #@! TA.AperFunction,Conductor*
%ADD26C,0.250000*%
G04 #@! TD*
G04 APERTURE END LIST*
D10*
D11*
X154236006Y-79517295D02*
X154236006Y-78717295D01*
X154236006Y-78717295D02*
X153969340Y-79288723D01*
X153969340Y-79288723D02*
X153702673Y-78717295D01*
X153702673Y-78717295D02*
X153702673Y-79517295D01*
X153321720Y-78717295D02*
X153321720Y-79364914D01*
X153321720Y-79364914D02*
X153283625Y-79441104D01*
X153283625Y-79441104D02*
X153245530Y-79479200D01*
X153245530Y-79479200D02*
X153169339Y-79517295D01*
X153169339Y-79517295D02*
X153016958Y-79517295D01*
X153016958Y-79517295D02*
X152940768Y-79479200D01*
X152940768Y-79479200D02*
X152902673Y-79441104D01*
X152902673Y-79441104D02*
X152864577Y-79364914D01*
X152864577Y-79364914D02*
X152864577Y-78717295D01*
X152521721Y-79479200D02*
X152407435Y-79517295D01*
X152407435Y-79517295D02*
X152216959Y-79517295D01*
X152216959Y-79517295D02*
X152140768Y-79479200D01*
X152140768Y-79479200D02*
X152102673Y-79441104D01*
X152102673Y-79441104D02*
X152064578Y-79364914D01*
X152064578Y-79364914D02*
X152064578Y-79288723D01*
X152064578Y-79288723D02*
X152102673Y-79212533D01*
X152102673Y-79212533D02*
X152140768Y-79174438D01*
X152140768Y-79174438D02*
X152216959Y-79136342D01*
X152216959Y-79136342D02*
X152369340Y-79098247D01*
X152369340Y-79098247D02*
X152445530Y-79060152D01*
X152445530Y-79060152D02*
X152483625Y-79022057D01*
X152483625Y-79022057D02*
X152521721Y-78945866D01*
X152521721Y-78945866D02*
X152521721Y-78869676D01*
X152521721Y-78869676D02*
X152483625Y-78793485D01*
X152483625Y-78793485D02*
X152445530Y-78755390D01*
X152445530Y-78755390D02*
X152369340Y-78717295D01*
X152369340Y-78717295D02*
X152178863Y-78717295D01*
X152178863Y-78717295D02*
X152064578Y-78755390D01*
X151264577Y-79441104D02*
X151302673Y-79479200D01*
X151302673Y-79479200D02*
X151416958Y-79517295D01*
X151416958Y-79517295D02*
X151493149Y-79517295D01*
X151493149Y-79517295D02*
X151607435Y-79479200D01*
X151607435Y-79479200D02*
X151683625Y-79403009D01*
X151683625Y-79403009D02*
X151721720Y-79326819D01*
X151721720Y-79326819D02*
X151759816Y-79174438D01*
X151759816Y-79174438D02*
X151759816Y-79060152D01*
X151759816Y-79060152D02*
X151721720Y-78907771D01*
X151721720Y-78907771D02*
X151683625Y-78831580D01*
X151683625Y-78831580D02*
X151607435Y-78755390D01*
X151607435Y-78755390D02*
X151493149Y-78717295D01*
X151493149Y-78717295D02*
X151416958Y-78717295D01*
X151416958Y-78717295D02*
X151302673Y-78755390D01*
X151302673Y-78755390D02*
X151264577Y-78793485D01*
X150540768Y-79517295D02*
X150921720Y-79517295D01*
X150921720Y-79517295D02*
X150921720Y-78717295D01*
X150274101Y-79098247D02*
X150007435Y-79098247D01*
X149893149Y-79517295D02*
X150274101Y-79517295D01*
X150274101Y-79517295D02*
X150274101Y-78717295D01*
X150274101Y-78717295D02*
X149893149Y-78717295D01*
X148674101Y-79098247D02*
X148559815Y-79136342D01*
X148559815Y-79136342D02*
X148521720Y-79174438D01*
X148521720Y-79174438D02*
X148483624Y-79250628D01*
X148483624Y-79250628D02*
X148483624Y-79364914D01*
X148483624Y-79364914D02*
X148521720Y-79441104D01*
X148521720Y-79441104D02*
X148559815Y-79479200D01*
X148559815Y-79479200D02*
X148636005Y-79517295D01*
X148636005Y-79517295D02*
X148940767Y-79517295D01*
X148940767Y-79517295D02*
X148940767Y-78717295D01*
X148940767Y-78717295D02*
X148674101Y-78717295D01*
X148674101Y-78717295D02*
X148597910Y-78755390D01*
X148597910Y-78755390D02*
X148559815Y-78793485D01*
X148559815Y-78793485D02*
X148521720Y-78869676D01*
X148521720Y-78869676D02*
X148521720Y-78945866D01*
X148521720Y-78945866D02*
X148559815Y-79022057D01*
X148559815Y-79022057D02*
X148597910Y-79060152D01*
X148597910Y-79060152D02*
X148674101Y-79098247D01*
X148674101Y-79098247D02*
X148940767Y-79098247D01*
X148140767Y-79517295D02*
X148140767Y-78717295D01*
X147607434Y-78717295D02*
X147455053Y-78717295D01*
X147455053Y-78717295D02*
X147378863Y-78755390D01*
X147378863Y-78755390D02*
X147302672Y-78831580D01*
X147302672Y-78831580D02*
X147264577Y-78983961D01*
X147264577Y-78983961D02*
X147264577Y-79250628D01*
X147264577Y-79250628D02*
X147302672Y-79403009D01*
X147302672Y-79403009D02*
X147378863Y-79479200D01*
X147378863Y-79479200D02*
X147455053Y-79517295D01*
X147455053Y-79517295D02*
X147607434Y-79517295D01*
X147607434Y-79517295D02*
X147683625Y-79479200D01*
X147683625Y-79479200D02*
X147759815Y-79403009D01*
X147759815Y-79403009D02*
X147797911Y-79250628D01*
X147797911Y-79250628D02*
X147797911Y-78983961D01*
X147797911Y-78983961D02*
X147759815Y-78831580D01*
X147759815Y-78831580D02*
X147683625Y-78755390D01*
X147683625Y-78755390D02*
X147607434Y-78717295D01*
X146959816Y-79288723D02*
X146578863Y-79288723D01*
X147036006Y-79517295D02*
X146769339Y-78717295D01*
X146769339Y-78717295D02*
X146502673Y-79517295D01*
X146236006Y-79517295D02*
X146236006Y-78717295D01*
X146236006Y-78717295D02*
X145969340Y-79288723D01*
X145969340Y-79288723D02*
X145702673Y-78717295D01*
X145702673Y-78717295D02*
X145702673Y-79517295D01*
X145321720Y-79517295D02*
X145321720Y-78717295D01*
X145321720Y-78717295D02*
X145016958Y-78717295D01*
X145016958Y-78717295D02*
X144940768Y-78755390D01*
X144940768Y-78755390D02*
X144902673Y-78793485D01*
X144902673Y-78793485D02*
X144864577Y-78869676D01*
X144864577Y-78869676D02*
X144864577Y-78983961D01*
X144864577Y-78983961D02*
X144902673Y-79060152D01*
X144902673Y-79060152D02*
X144940768Y-79098247D01*
X144940768Y-79098247D02*
X145016958Y-79136342D01*
X145016958Y-79136342D02*
X145321720Y-79136342D01*
X143645530Y-79098247D02*
X143531244Y-79136342D01*
X143531244Y-79136342D02*
X143493149Y-79174438D01*
X143493149Y-79174438D02*
X143455053Y-79250628D01*
X143455053Y-79250628D02*
X143455053Y-79364914D01*
X143455053Y-79364914D02*
X143493149Y-79441104D01*
X143493149Y-79441104D02*
X143531244Y-79479200D01*
X143531244Y-79479200D02*
X143607434Y-79517295D01*
X143607434Y-79517295D02*
X143912196Y-79517295D01*
X143912196Y-79517295D02*
X143912196Y-78717295D01*
X143912196Y-78717295D02*
X143645530Y-78717295D01*
X143645530Y-78717295D02*
X143569339Y-78755390D01*
X143569339Y-78755390D02*
X143531244Y-78793485D01*
X143531244Y-78793485D02*
X143493149Y-78869676D01*
X143493149Y-78869676D02*
X143493149Y-78945866D01*
X143493149Y-78945866D02*
X143531244Y-79022057D01*
X143531244Y-79022057D02*
X143569339Y-79060152D01*
X143569339Y-79060152D02*
X143645530Y-79098247D01*
X143645530Y-79098247D02*
X143912196Y-79098247D01*
X143112196Y-79517295D02*
X143112196Y-78717295D01*
X142769340Y-79479200D02*
X142655054Y-79517295D01*
X142655054Y-79517295D02*
X142464578Y-79517295D01*
X142464578Y-79517295D02*
X142388387Y-79479200D01*
X142388387Y-79479200D02*
X142350292Y-79441104D01*
X142350292Y-79441104D02*
X142312197Y-79364914D01*
X142312197Y-79364914D02*
X142312197Y-79288723D01*
X142312197Y-79288723D02*
X142350292Y-79212533D01*
X142350292Y-79212533D02*
X142388387Y-79174438D01*
X142388387Y-79174438D02*
X142464578Y-79136342D01*
X142464578Y-79136342D02*
X142616959Y-79098247D01*
X142616959Y-79098247D02*
X142693149Y-79060152D01*
X142693149Y-79060152D02*
X142731244Y-79022057D01*
X142731244Y-79022057D02*
X142769340Y-78945866D01*
X142769340Y-78945866D02*
X142769340Y-78869676D01*
X142769340Y-78869676D02*
X142731244Y-78793485D01*
X142731244Y-78793485D02*
X142693149Y-78755390D01*
X142693149Y-78755390D02*
X142616959Y-78717295D01*
X142616959Y-78717295D02*
X142426482Y-78717295D01*
X142426482Y-78717295D02*
X142312197Y-78755390D01*
X141512196Y-79441104D02*
X141550292Y-79479200D01*
X141550292Y-79479200D02*
X141664577Y-79517295D01*
X141664577Y-79517295D02*
X141740768Y-79517295D01*
X141740768Y-79517295D02*
X141855054Y-79479200D01*
X141855054Y-79479200D02*
X141931244Y-79403009D01*
X141931244Y-79403009D02*
X141969339Y-79326819D01*
X141969339Y-79326819D02*
X142007435Y-79174438D01*
X142007435Y-79174438D02*
X142007435Y-79060152D01*
X142007435Y-79060152D02*
X141969339Y-78907771D01*
X141969339Y-78907771D02*
X141931244Y-78831580D01*
X141931244Y-78831580D02*
X141855054Y-78755390D01*
X141855054Y-78755390D02*
X141740768Y-78717295D01*
X141740768Y-78717295D02*
X141664577Y-78717295D01*
X141664577Y-78717295D02*
X141550292Y-78755390D01*
X141550292Y-78755390D02*
X141512196Y-78793485D01*
X141169339Y-78717295D02*
X141169339Y-79364914D01*
X141169339Y-79364914D02*
X141131244Y-79441104D01*
X141131244Y-79441104D02*
X141093149Y-79479200D01*
X141093149Y-79479200D02*
X141016958Y-79517295D01*
X141016958Y-79517295D02*
X140864577Y-79517295D01*
X140864577Y-79517295D02*
X140788387Y-79479200D01*
X140788387Y-79479200D02*
X140750292Y-79441104D01*
X140750292Y-79441104D02*
X140712196Y-79364914D01*
X140712196Y-79364914D02*
X140712196Y-78717295D01*
X140445530Y-78717295D02*
X139988387Y-78717295D01*
X140216959Y-79517295D02*
X140216959Y-78717295D01*
X139721720Y-79098247D02*
X139455054Y-79098247D01*
X139340768Y-79517295D02*
X139721720Y-79517295D01*
X139721720Y-79517295D02*
X139721720Y-78717295D01*
X139721720Y-78717295D02*
X139340768Y-78717295D01*
X138388386Y-79212533D02*
X137778863Y-79212533D01*
X136788386Y-79517295D02*
X136788386Y-78717295D01*
X136788386Y-78717295D02*
X136521720Y-79288723D01*
X136521720Y-79288723D02*
X136255053Y-78717295D01*
X136255053Y-78717295D02*
X136255053Y-79517295D01*
X135912196Y-79288723D02*
X135531243Y-79288723D01*
X135988386Y-79517295D02*
X135721719Y-78717295D01*
X135721719Y-78717295D02*
X135455053Y-79517295D01*
X135188386Y-79517295D02*
X135188386Y-78717295D01*
X135188386Y-78717295D02*
X134997910Y-78717295D01*
X134997910Y-78717295D02*
X134883624Y-78755390D01*
X134883624Y-78755390D02*
X134807434Y-78831580D01*
X134807434Y-78831580D02*
X134769339Y-78907771D01*
X134769339Y-78907771D02*
X134731243Y-79060152D01*
X134731243Y-79060152D02*
X134731243Y-79174438D01*
X134731243Y-79174438D02*
X134769339Y-79326819D01*
X134769339Y-79326819D02*
X134807434Y-79403009D01*
X134807434Y-79403009D02*
X134883624Y-79479200D01*
X134883624Y-79479200D02*
X134997910Y-79517295D01*
X134997910Y-79517295D02*
X135188386Y-79517295D01*
X134388386Y-79098247D02*
X134121720Y-79098247D01*
X134007434Y-79517295D02*
X134388386Y-79517295D01*
X134388386Y-79517295D02*
X134388386Y-78717295D01*
X134388386Y-78717295D02*
X134007434Y-78717295D01*
X133055052Y-79517295D02*
X133055052Y-78717295D01*
X132674100Y-79517295D02*
X132674100Y-78717295D01*
X132674100Y-78717295D02*
X132216957Y-79517295D01*
X132216957Y-79517295D02*
X132216957Y-78717295D01*
X131226481Y-79517295D02*
X131226481Y-78717295D01*
X130845529Y-79517295D02*
X130845529Y-78717295D01*
X130845529Y-78717295D02*
X130388386Y-79517295D01*
X130388386Y-79517295D02*
X130388386Y-78717295D01*
X130007434Y-79517295D02*
X130007434Y-78717295D01*
X130007434Y-78717295D02*
X129816958Y-78717295D01*
X129816958Y-78717295D02*
X129702672Y-78755390D01*
X129702672Y-78755390D02*
X129626482Y-78831580D01*
X129626482Y-78831580D02*
X129588387Y-78907771D01*
X129588387Y-78907771D02*
X129550291Y-79060152D01*
X129550291Y-79060152D02*
X129550291Y-79174438D01*
X129550291Y-79174438D02*
X129588387Y-79326819D01*
X129588387Y-79326819D02*
X129626482Y-79403009D01*
X129626482Y-79403009D02*
X129702672Y-79479200D01*
X129702672Y-79479200D02*
X129816958Y-79517295D01*
X129816958Y-79517295D02*
X130007434Y-79517295D01*
X129207434Y-79517295D02*
X129207434Y-78717295D01*
X128864578Y-79288723D02*
X128483625Y-79288723D01*
X128940768Y-79517295D02*
X128674101Y-78717295D01*
X128674101Y-78717295D02*
X128407435Y-79517295D01*
D10*
D11*
X199193993Y-105759848D02*
X199193993Y-106559848D01*
X199193993Y-106559848D02*
X199460659Y-105988420D01*
X199460659Y-105988420D02*
X199727326Y-106559848D01*
X199727326Y-106559848D02*
X199727326Y-105759848D01*
X200108279Y-106559848D02*
X200108279Y-105912229D01*
X200108279Y-105912229D02*
X200146374Y-105836039D01*
X200146374Y-105836039D02*
X200184469Y-105797944D01*
X200184469Y-105797944D02*
X200260660Y-105759848D01*
X200260660Y-105759848D02*
X200413041Y-105759848D01*
X200413041Y-105759848D02*
X200489231Y-105797944D01*
X200489231Y-105797944D02*
X200527326Y-105836039D01*
X200527326Y-105836039D02*
X200565422Y-105912229D01*
X200565422Y-105912229D02*
X200565422Y-106559848D01*
X200908278Y-105797944D02*
X201022564Y-105759848D01*
X201022564Y-105759848D02*
X201213040Y-105759848D01*
X201213040Y-105759848D02*
X201289231Y-105797944D01*
X201289231Y-105797944D02*
X201327326Y-105836039D01*
X201327326Y-105836039D02*
X201365421Y-105912229D01*
X201365421Y-105912229D02*
X201365421Y-105988420D01*
X201365421Y-105988420D02*
X201327326Y-106064610D01*
X201327326Y-106064610D02*
X201289231Y-106102705D01*
X201289231Y-106102705D02*
X201213040Y-106140801D01*
X201213040Y-106140801D02*
X201060659Y-106178896D01*
X201060659Y-106178896D02*
X200984469Y-106216991D01*
X200984469Y-106216991D02*
X200946374Y-106255086D01*
X200946374Y-106255086D02*
X200908278Y-106331277D01*
X200908278Y-106331277D02*
X200908278Y-106407467D01*
X200908278Y-106407467D02*
X200946374Y-106483658D01*
X200946374Y-106483658D02*
X200984469Y-106521753D01*
X200984469Y-106521753D02*
X201060659Y-106559848D01*
X201060659Y-106559848D02*
X201251136Y-106559848D01*
X201251136Y-106559848D02*
X201365421Y-106521753D01*
X202165422Y-105836039D02*
X202127326Y-105797944D01*
X202127326Y-105797944D02*
X202013041Y-105759848D01*
X202013041Y-105759848D02*
X201936850Y-105759848D01*
X201936850Y-105759848D02*
X201822564Y-105797944D01*
X201822564Y-105797944D02*
X201746374Y-105874134D01*
X201746374Y-105874134D02*
X201708279Y-105950324D01*
X201708279Y-105950324D02*
X201670183Y-106102705D01*
X201670183Y-106102705D02*
X201670183Y-106216991D01*
X201670183Y-106216991D02*
X201708279Y-106369372D01*
X201708279Y-106369372D02*
X201746374Y-106445563D01*
X201746374Y-106445563D02*
X201822564Y-106521753D01*
X201822564Y-106521753D02*
X201936850Y-106559848D01*
X201936850Y-106559848D02*
X202013041Y-106559848D01*
X202013041Y-106559848D02*
X202127326Y-106521753D01*
X202127326Y-106521753D02*
X202165422Y-106483658D01*
X202889231Y-105759848D02*
X202508279Y-105759848D01*
X202508279Y-105759848D02*
X202508279Y-106559848D01*
X203155898Y-106178896D02*
X203422564Y-106178896D01*
X203536850Y-105759848D02*
X203155898Y-105759848D01*
X203155898Y-105759848D02*
X203155898Y-106559848D01*
X203155898Y-106559848D02*
X203536850Y-106559848D01*
X204755898Y-106178896D02*
X204870184Y-106140801D01*
X204870184Y-106140801D02*
X204908279Y-106102705D01*
X204908279Y-106102705D02*
X204946375Y-106026515D01*
X204946375Y-106026515D02*
X204946375Y-105912229D01*
X204946375Y-105912229D02*
X204908279Y-105836039D01*
X204908279Y-105836039D02*
X204870184Y-105797944D01*
X204870184Y-105797944D02*
X204793994Y-105759848D01*
X204793994Y-105759848D02*
X204489232Y-105759848D01*
X204489232Y-105759848D02*
X204489232Y-106559848D01*
X204489232Y-106559848D02*
X204755898Y-106559848D01*
X204755898Y-106559848D02*
X204832089Y-106521753D01*
X204832089Y-106521753D02*
X204870184Y-106483658D01*
X204870184Y-106483658D02*
X204908279Y-106407467D01*
X204908279Y-106407467D02*
X204908279Y-106331277D01*
X204908279Y-106331277D02*
X204870184Y-106255086D01*
X204870184Y-106255086D02*
X204832089Y-106216991D01*
X204832089Y-106216991D02*
X204755898Y-106178896D01*
X204755898Y-106178896D02*
X204489232Y-106178896D01*
X205289232Y-105759848D02*
X205289232Y-106559848D01*
X205822565Y-106559848D02*
X205974946Y-106559848D01*
X205974946Y-106559848D02*
X206051136Y-106521753D01*
X206051136Y-106521753D02*
X206127327Y-106445563D01*
X206127327Y-106445563D02*
X206165422Y-106293182D01*
X206165422Y-106293182D02*
X206165422Y-106026515D01*
X206165422Y-106026515D02*
X206127327Y-105874134D01*
X206127327Y-105874134D02*
X206051136Y-105797944D01*
X206051136Y-105797944D02*
X205974946Y-105759848D01*
X205974946Y-105759848D02*
X205822565Y-105759848D01*
X205822565Y-105759848D02*
X205746374Y-105797944D01*
X205746374Y-105797944D02*
X205670184Y-105874134D01*
X205670184Y-105874134D02*
X205632088Y-106026515D01*
X205632088Y-106026515D02*
X205632088Y-106293182D01*
X205632088Y-106293182D02*
X205670184Y-106445563D01*
X205670184Y-106445563D02*
X205746374Y-106521753D01*
X205746374Y-106521753D02*
X205822565Y-106559848D01*
X206470183Y-105988420D02*
X206851136Y-105988420D01*
X206393993Y-105759848D02*
X206660660Y-106559848D01*
X206660660Y-106559848D02*
X206927326Y-105759848D01*
X207193993Y-105759848D02*
X207193993Y-106559848D01*
X207193993Y-106559848D02*
X207460659Y-105988420D01*
X207460659Y-105988420D02*
X207727326Y-106559848D01*
X207727326Y-106559848D02*
X207727326Y-105759848D01*
X208108279Y-105759848D02*
X208108279Y-106559848D01*
X208108279Y-106559848D02*
X208413041Y-106559848D01*
X208413041Y-106559848D02*
X208489231Y-106521753D01*
X208489231Y-106521753D02*
X208527326Y-106483658D01*
X208527326Y-106483658D02*
X208565422Y-106407467D01*
X208565422Y-106407467D02*
X208565422Y-106293182D01*
X208565422Y-106293182D02*
X208527326Y-106216991D01*
X208527326Y-106216991D02*
X208489231Y-106178896D01*
X208489231Y-106178896D02*
X208413041Y-106140801D01*
X208413041Y-106140801D02*
X208108279Y-106140801D01*
X209784469Y-106178896D02*
X209898755Y-106140801D01*
X209898755Y-106140801D02*
X209936850Y-106102705D01*
X209936850Y-106102705D02*
X209974946Y-106026515D01*
X209974946Y-106026515D02*
X209974946Y-105912229D01*
X209974946Y-105912229D02*
X209936850Y-105836039D01*
X209936850Y-105836039D02*
X209898755Y-105797944D01*
X209898755Y-105797944D02*
X209822565Y-105759848D01*
X209822565Y-105759848D02*
X209517803Y-105759848D01*
X209517803Y-105759848D02*
X209517803Y-106559848D01*
X209517803Y-106559848D02*
X209784469Y-106559848D01*
X209784469Y-106559848D02*
X209860660Y-106521753D01*
X209860660Y-106521753D02*
X209898755Y-106483658D01*
X209898755Y-106483658D02*
X209936850Y-106407467D01*
X209936850Y-106407467D02*
X209936850Y-106331277D01*
X209936850Y-106331277D02*
X209898755Y-106255086D01*
X209898755Y-106255086D02*
X209860660Y-106216991D01*
X209860660Y-106216991D02*
X209784469Y-106178896D01*
X209784469Y-106178896D02*
X209517803Y-106178896D01*
X210317803Y-105759848D02*
X210317803Y-106559848D01*
X210660659Y-105797944D02*
X210774945Y-105759848D01*
X210774945Y-105759848D02*
X210965421Y-105759848D01*
X210965421Y-105759848D02*
X211041612Y-105797944D01*
X211041612Y-105797944D02*
X211079707Y-105836039D01*
X211079707Y-105836039D02*
X211117802Y-105912229D01*
X211117802Y-105912229D02*
X211117802Y-105988420D01*
X211117802Y-105988420D02*
X211079707Y-106064610D01*
X211079707Y-106064610D02*
X211041612Y-106102705D01*
X211041612Y-106102705D02*
X210965421Y-106140801D01*
X210965421Y-106140801D02*
X210813040Y-106178896D01*
X210813040Y-106178896D02*
X210736850Y-106216991D01*
X210736850Y-106216991D02*
X210698755Y-106255086D01*
X210698755Y-106255086D02*
X210660659Y-106331277D01*
X210660659Y-106331277D02*
X210660659Y-106407467D01*
X210660659Y-106407467D02*
X210698755Y-106483658D01*
X210698755Y-106483658D02*
X210736850Y-106521753D01*
X210736850Y-106521753D02*
X210813040Y-106559848D01*
X210813040Y-106559848D02*
X211003517Y-106559848D01*
X211003517Y-106559848D02*
X211117802Y-106521753D01*
X211917803Y-105836039D02*
X211879707Y-105797944D01*
X211879707Y-105797944D02*
X211765422Y-105759848D01*
X211765422Y-105759848D02*
X211689231Y-105759848D01*
X211689231Y-105759848D02*
X211574945Y-105797944D01*
X211574945Y-105797944D02*
X211498755Y-105874134D01*
X211498755Y-105874134D02*
X211460660Y-105950324D01*
X211460660Y-105950324D02*
X211422564Y-106102705D01*
X211422564Y-106102705D02*
X211422564Y-106216991D01*
X211422564Y-106216991D02*
X211460660Y-106369372D01*
X211460660Y-106369372D02*
X211498755Y-106445563D01*
X211498755Y-106445563D02*
X211574945Y-106521753D01*
X211574945Y-106521753D02*
X211689231Y-106559848D01*
X211689231Y-106559848D02*
X211765422Y-106559848D01*
X211765422Y-106559848D02*
X211879707Y-106521753D01*
X211879707Y-106521753D02*
X211917803Y-106483658D01*
X212260660Y-106559848D02*
X212260660Y-105912229D01*
X212260660Y-105912229D02*
X212298755Y-105836039D01*
X212298755Y-105836039D02*
X212336850Y-105797944D01*
X212336850Y-105797944D02*
X212413041Y-105759848D01*
X212413041Y-105759848D02*
X212565422Y-105759848D01*
X212565422Y-105759848D02*
X212641612Y-105797944D01*
X212641612Y-105797944D02*
X212679707Y-105836039D01*
X212679707Y-105836039D02*
X212717803Y-105912229D01*
X212717803Y-105912229D02*
X212717803Y-106559848D01*
X212984469Y-106559848D02*
X213441612Y-106559848D01*
X213213040Y-105759848D02*
X213213040Y-106559848D01*
X213708279Y-106178896D02*
X213974945Y-106178896D01*
X214089231Y-105759848D02*
X213708279Y-105759848D01*
X213708279Y-105759848D02*
X213708279Y-106559848D01*
X213708279Y-106559848D02*
X214089231Y-106559848D01*
X215041613Y-106064610D02*
X215651137Y-106064610D01*
X216641613Y-105759848D02*
X216641613Y-106559848D01*
X216641613Y-106559848D02*
X216908279Y-105988420D01*
X216908279Y-105988420D02*
X217174946Y-106559848D01*
X217174946Y-106559848D02*
X217174946Y-105759848D01*
X217517803Y-105988420D02*
X217898756Y-105988420D01*
X217441613Y-105759848D02*
X217708280Y-106559848D01*
X217708280Y-106559848D02*
X217974946Y-105759848D01*
X218241613Y-105759848D02*
X218241613Y-106559848D01*
X218241613Y-106559848D02*
X218432089Y-106559848D01*
X218432089Y-106559848D02*
X218546375Y-106521753D01*
X218546375Y-106521753D02*
X218622565Y-106445563D01*
X218622565Y-106445563D02*
X218660660Y-106369372D01*
X218660660Y-106369372D02*
X218698756Y-106216991D01*
X218698756Y-106216991D02*
X218698756Y-106102705D01*
X218698756Y-106102705D02*
X218660660Y-105950324D01*
X218660660Y-105950324D02*
X218622565Y-105874134D01*
X218622565Y-105874134D02*
X218546375Y-105797944D01*
X218546375Y-105797944D02*
X218432089Y-105759848D01*
X218432089Y-105759848D02*
X218241613Y-105759848D01*
X219041613Y-106178896D02*
X219308279Y-106178896D01*
X219422565Y-105759848D02*
X219041613Y-105759848D01*
X219041613Y-105759848D02*
X219041613Y-106559848D01*
X219041613Y-106559848D02*
X219422565Y-106559848D01*
X220374947Y-105759848D02*
X220374947Y-106559848D01*
X220755899Y-105759848D02*
X220755899Y-106559848D01*
X220755899Y-106559848D02*
X221213042Y-105759848D01*
X221213042Y-105759848D02*
X221213042Y-106559848D01*
X222203518Y-105759848D02*
X222203518Y-106559848D01*
X222584470Y-105759848D02*
X222584470Y-106559848D01*
X222584470Y-106559848D02*
X223041613Y-105759848D01*
X223041613Y-105759848D02*
X223041613Y-106559848D01*
X223422565Y-105759848D02*
X223422565Y-106559848D01*
X223422565Y-106559848D02*
X223613041Y-106559848D01*
X223613041Y-106559848D02*
X223727327Y-106521753D01*
X223727327Y-106521753D02*
X223803517Y-106445563D01*
X223803517Y-106445563D02*
X223841612Y-106369372D01*
X223841612Y-106369372D02*
X223879708Y-106216991D01*
X223879708Y-106216991D02*
X223879708Y-106102705D01*
X223879708Y-106102705D02*
X223841612Y-105950324D01*
X223841612Y-105950324D02*
X223803517Y-105874134D01*
X223803517Y-105874134D02*
X223727327Y-105797944D01*
X223727327Y-105797944D02*
X223613041Y-105759848D01*
X223613041Y-105759848D02*
X223422565Y-105759848D01*
X224222565Y-105759848D02*
X224222565Y-106559848D01*
X224565421Y-105988420D02*
X224946374Y-105988420D01*
X224489231Y-105759848D02*
X224755898Y-106559848D01*
X224755898Y-106559848D02*
X225022564Y-105759848D01*
D12*
D13*
X127594285Y-85499742D02*
X127308571Y-86299742D01*
X127308571Y-86299742D02*
X127022856Y-85499742D01*
X126337142Y-85099742D02*
X126222856Y-85099742D01*
X126222856Y-85099742D02*
X126108570Y-85156885D01*
X126108570Y-85156885D02*
X126051428Y-85214028D01*
X126051428Y-85214028D02*
X125994285Y-85328314D01*
X125994285Y-85328314D02*
X125937142Y-85556885D01*
X125937142Y-85556885D02*
X125937142Y-85842600D01*
X125937142Y-85842600D02*
X125994285Y-86071171D01*
X125994285Y-86071171D02*
X126051428Y-86185457D01*
X126051428Y-86185457D02*
X126108570Y-86242600D01*
X126108570Y-86242600D02*
X126222856Y-86299742D01*
X126222856Y-86299742D02*
X126337142Y-86299742D01*
X126337142Y-86299742D02*
X126451428Y-86242600D01*
X126451428Y-86242600D02*
X126508570Y-86185457D01*
X126508570Y-86185457D02*
X126565713Y-86071171D01*
X126565713Y-86071171D02*
X126622856Y-85842600D01*
X126622856Y-85842600D02*
X126622856Y-85556885D01*
X126622856Y-85556885D02*
X126565713Y-85328314D01*
X126565713Y-85328314D02*
X126508570Y-85214028D01*
X126508570Y-85214028D02*
X126451428Y-85156885D01*
X126451428Y-85156885D02*
X126337142Y-85099742D01*
X125422856Y-86185457D02*
X125365713Y-86242600D01*
X125365713Y-86242600D02*
X125422856Y-86299742D01*
X125422856Y-86299742D02*
X125479999Y-86242600D01*
X125479999Y-86242600D02*
X125422856Y-86185457D01*
X125422856Y-86185457D02*
X125422856Y-86299742D01*
X124222856Y-86299742D02*
X124908570Y-86299742D01*
X124565713Y-86299742D02*
X124565713Y-85099742D01*
X124565713Y-85099742D02*
X124679999Y-85271171D01*
X124679999Y-85271171D02*
X124794284Y-85385457D01*
X124794284Y-85385457D02*
X124908570Y-85442600D01*
D12*
D13*
X225835714Y-99777401D02*
X226121428Y-98977401D01*
X226121428Y-98977401D02*
X226407143Y-99777401D01*
X227092857Y-100177401D02*
X227207143Y-100177401D01*
X227207143Y-100177401D02*
X227321429Y-100120258D01*
X227321429Y-100120258D02*
X227378572Y-100063115D01*
X227378572Y-100063115D02*
X227435714Y-99948829D01*
X227435714Y-99948829D02*
X227492857Y-99720258D01*
X227492857Y-99720258D02*
X227492857Y-99434544D01*
X227492857Y-99434544D02*
X227435714Y-99205972D01*
X227435714Y-99205972D02*
X227378572Y-99091686D01*
X227378572Y-99091686D02*
X227321429Y-99034544D01*
X227321429Y-99034544D02*
X227207143Y-98977401D01*
X227207143Y-98977401D02*
X227092857Y-98977401D01*
X227092857Y-98977401D02*
X226978572Y-99034544D01*
X226978572Y-99034544D02*
X226921429Y-99091686D01*
X226921429Y-99091686D02*
X226864286Y-99205972D01*
X226864286Y-99205972D02*
X226807143Y-99434544D01*
X226807143Y-99434544D02*
X226807143Y-99720258D01*
X226807143Y-99720258D02*
X226864286Y-99948829D01*
X226864286Y-99948829D02*
X226921429Y-100063115D01*
X226921429Y-100063115D02*
X226978572Y-100120258D01*
X226978572Y-100120258D02*
X227092857Y-100177401D01*
X228007143Y-99091686D02*
X228064286Y-99034544D01*
X228064286Y-99034544D02*
X228007143Y-98977401D01*
X228007143Y-98977401D02*
X227950000Y-99034544D01*
X227950000Y-99034544D02*
X228007143Y-99091686D01*
X228007143Y-99091686D02*
X228007143Y-98977401D01*
X229207143Y-98977401D02*
X228521429Y-98977401D01*
X228864286Y-98977401D02*
X228864286Y-100177401D01*
X228864286Y-100177401D02*
X228750000Y-100005972D01*
X228750000Y-100005972D02*
X228635715Y-99891686D01*
X228635715Y-99891686D02*
X228521429Y-99834544D01*
D14*
G04 #@! TO.C,REF\u002A\u002A*
X156480540Y-100613030D02*
X156437289Y-100626245D01*
X156409442Y-100642941D01*
X156400371Y-100656145D01*
X156402868Y-100671797D01*
X156419069Y-100696385D01*
X156432768Y-100713800D01*
X156461008Y-100745283D01*
X156482225Y-100758529D01*
X156500312Y-100757664D01*
X156553965Y-100744010D01*
X156593370Y-100744630D01*
X156625368Y-100760104D01*
X156636110Y-100769161D01*
X156670495Y-100801027D01*
X156670495Y-101217179D01*
X156808812Y-101217179D01*
X156808812Y-100613614D01*
X156739653Y-100613614D01*
X156698131Y-100615256D01*
X156676709Y-100621087D01*
X156670498Y-100632461D01*
X156670495Y-100632798D01*
X156667561Y-100644713D01*
X156654296Y-100643159D01*
X156635916Y-100634563D01*
X156597954Y-100618568D01*
X156567128Y-100608945D01*
X156527464Y-100606478D01*
X156480540Y-100613030D01*
G04 #@! TA.AperFunction,EtchedComponent*
G36*
X156567128Y-100608945D02*
G01*
X156597954Y-100618568D01*
X156635916Y-100634563D01*
X156654296Y-100643159D01*
X156667561Y-100644713D01*
X156670495Y-100632798D01*
X156670498Y-100632461D01*
X156676709Y-100621087D01*
X156698131Y-100615256D01*
X156739653Y-100613614D01*
X156808812Y-100613614D01*
X156808812Y-101217179D01*
X156670495Y-101217179D01*
X156670495Y-100801027D01*
X156636110Y-100769161D01*
X156625368Y-100760104D01*
X156593370Y-100744630D01*
X156553965Y-100744010D01*
X156500312Y-100757664D01*
X156482225Y-100758529D01*
X156461008Y-100745283D01*
X156432768Y-100713800D01*
X156419069Y-100696385D01*
X156402868Y-100671797D01*
X156400371Y-100656145D01*
X156409442Y-100642941D01*
X156437289Y-100626245D01*
X156480540Y-100613030D01*
X156527464Y-100606478D01*
X156567128Y-100608945D01*
G37*
G04 #@! TD.AperFunction*
X156644745Y-101556486D02*
X156596405Y-101566015D01*
X156568886Y-101580125D01*
X156539936Y-101603568D01*
X156581124Y-101655571D01*
X156606518Y-101687064D01*
X156623762Y-101702428D01*
X156640898Y-101704776D01*
X156665973Y-101697217D01*
X156677743Y-101692941D01*
X156725730Y-101686631D01*
X156769676Y-101700156D01*
X156801940Y-101730710D01*
X156807181Y-101740452D01*
X156812888Y-101766258D01*
X156817294Y-101813817D01*
X156820189Y-101879758D01*
X156821369Y-101960710D01*
X156821386Y-101972226D01*
X156821386Y-102172822D01*
X156959703Y-102172822D01*
X156959703Y-101556683D01*
X156890544Y-101556683D01*
X156850667Y-101557725D01*
X156829893Y-101562358D01*
X156822211Y-101572849D01*
X156821386Y-101582745D01*
X156821386Y-101608806D01*
X156788255Y-101582745D01*
X156750265Y-101564965D01*
X156699230Y-101556174D01*
X156644745Y-101556486D01*
G04 #@! TA.AperFunction,EtchedComponent*
G36*
X156750265Y-101564965D02*
G01*
X156788255Y-101582745D01*
X156821386Y-101608806D01*
X156821386Y-101582745D01*
X156822211Y-101572849D01*
X156829893Y-101562358D01*
X156850667Y-101557725D01*
X156890544Y-101556683D01*
X156959703Y-101556683D01*
X156959703Y-102172822D01*
X156821386Y-102172822D01*
X156821386Y-101972226D01*
X156821369Y-101960710D01*
X156820189Y-101879758D01*
X156817294Y-101813817D01*
X156812888Y-101766258D01*
X156807181Y-101740452D01*
X156801940Y-101730710D01*
X156769676Y-101700156D01*
X156725730Y-101686631D01*
X156677743Y-101692941D01*
X156665973Y-101697217D01*
X156640898Y-101704776D01*
X156623762Y-101702428D01*
X156606518Y-101687064D01*
X156581124Y-101655571D01*
X156539936Y-101603568D01*
X156568886Y-101580125D01*
X156596405Y-101566015D01*
X156644745Y-101556486D01*
X156699230Y-101556174D01*
X156750265Y-101564965D01*
G37*
G04 #@! TD.AperFunction*
X159273356Y-101558020D02*
X159254539Y-101563660D01*
X159248473Y-101576053D01*
X159248218Y-101581647D01*
X159247129Y-101597230D01*
X159239632Y-101599676D01*
X159219381Y-101588993D01*
X159207351Y-101581694D01*
X159169400Y-101566063D01*
X159124072Y-101558334D01*
X159076544Y-101557740D01*
X159031995Y-101563513D01*
X158995602Y-101574884D01*
X158972543Y-101591088D01*
X158967996Y-101611355D01*
X158970291Y-101616843D01*
X158987020Y-101639626D01*
X159012963Y-101667647D01*
X159017655Y-101672177D01*
X159042383Y-101693005D01*
X159063718Y-101699735D01*
X159093555Y-101695038D01*
X159105508Y-101691917D01*
X159142705Y-101684421D01*
X159168859Y-101687792D01*
X159190946Y-101699681D01*
X159211178Y-101715635D01*
X159226079Y-101735700D01*
X159236434Y-101763702D01*
X159243029Y-101803467D01*
X159246649Y-101858823D01*
X159248078Y-101933594D01*
X159248218Y-101978740D01*
X159248218Y-102172822D01*
X159373960Y-102172822D01*
X159373960Y-101556683D01*
X159311089Y-101556683D01*
X159273356Y-101558020D01*
G04 #@! TA.AperFunction,EtchedComponent*
G36*
X159373960Y-102172822D02*
G01*
X159248218Y-102172822D01*
X159248218Y-101978740D01*
X159248078Y-101933594D01*
X159246649Y-101858823D01*
X159243029Y-101803467D01*
X159236434Y-101763702D01*
X159226079Y-101735700D01*
X159211178Y-101715635D01*
X159190946Y-101699681D01*
X159168859Y-101687792D01*
X159142705Y-101684421D01*
X159105508Y-101691917D01*
X159093555Y-101695038D01*
X159063718Y-101699735D01*
X159042383Y-101693005D01*
X159017655Y-101672177D01*
X159012963Y-101667647D01*
X158987020Y-101639626D01*
X158970291Y-101616843D01*
X158967996Y-101611355D01*
X158972543Y-101591088D01*
X158995602Y-101574884D01*
X159031995Y-101563513D01*
X159076544Y-101557740D01*
X159124072Y-101558334D01*
X159169400Y-101566063D01*
X159207351Y-101581694D01*
X159219381Y-101588993D01*
X159239632Y-101599676D01*
X159247129Y-101597230D01*
X159248218Y-101581647D01*
X159248473Y-101576053D01*
X159254539Y-101563660D01*
X159273356Y-101558020D01*
X159311089Y-101556683D01*
X159373960Y-101556683D01*
X159373960Y-102172822D01*
G37*
G04 #@! TD.AperFunction*
X157286633Y-100809342D02*
X157285445Y-100901563D01*
X157281103Y-100971610D01*
X157272442Y-101022381D01*
X157258296Y-101056772D01*
X157237500Y-101077679D01*
X157208890Y-101088000D01*
X157173465Y-101090636D01*
X157136364Y-101087682D01*
X157108182Y-101076889D01*
X157087757Y-101055360D01*
X157073921Y-101020199D01*
X157065509Y-100968510D01*
X157061357Y-100897394D01*
X157060297Y-100809342D01*
X157060297Y-100613614D01*
X156921980Y-100613614D01*
X156921980Y-101217179D01*
X156991138Y-101217179D01*
X157032830Y-101215489D01*
X157054299Y-101209556D01*
X157060297Y-101198293D01*
X157063909Y-101188261D01*
X157078286Y-101190383D01*
X157107264Y-101204580D01*
X157173681Y-101226480D01*
X157244125Y-101224928D01*
X157311623Y-101201147D01*
X157343767Y-101182362D01*
X157368285Y-101162022D01*
X157386196Y-101136573D01*
X157398521Y-101102458D01*
X157406277Y-101056121D01*
X157410484Y-100994007D01*
X157412160Y-100912561D01*
X157412376Y-100849578D01*
X157412376Y-100613614D01*
X157286633Y-100613614D01*
X157286633Y-100809342D01*
G04 #@! TA.AperFunction,EtchedComponent*
G36*
X157060297Y-100809342D02*
G01*
X157061357Y-100897394D01*
X157065509Y-100968510D01*
X157073921Y-101020199D01*
X157087757Y-101055360D01*
X157108182Y-101076889D01*
X157136364Y-101087682D01*
X157173465Y-101090636D01*
X157208890Y-101088000D01*
X157237500Y-101077679D01*
X157258296Y-101056772D01*
X157272442Y-101022381D01*
X157281103Y-100971610D01*
X157285445Y-100901563D01*
X157286633Y-100809342D01*
X157286633Y-100613614D01*
X157412376Y-100613614D01*
X157412376Y-100849578D01*
X157412160Y-100912561D01*
X157410484Y-100994007D01*
X157406277Y-101056121D01*
X157398521Y-101102458D01*
X157386196Y-101136573D01*
X157368285Y-101162022D01*
X157343767Y-101182362D01*
X157311623Y-101201147D01*
X157244125Y-101224928D01*
X157173681Y-101226480D01*
X157107264Y-101204580D01*
X157078286Y-101190383D01*
X157063909Y-101188261D01*
X157060297Y-101198293D01*
X157054299Y-101209556D01*
X157032830Y-101215489D01*
X156991138Y-101217179D01*
X156921980Y-101217179D01*
X156921980Y-100613614D01*
X157060297Y-100613614D01*
X157060297Y-100809342D01*
G37*
G04 #@! TD.AperFunction*
X159034012Y-100624002D02*
X159002717Y-100638950D01*
X158972409Y-100660541D01*
X158949318Y-100685391D01*
X158932500Y-100717087D01*
X158921006Y-100759214D01*
X158913891Y-100815358D01*
X158910207Y-100889106D01*
X158909008Y-100984044D01*
X158908989Y-100993985D01*
X158908713Y-101217179D01*
X159047030Y-101217179D01*
X159047030Y-101011418D01*
X159047128Y-100935189D01*
X159047809Y-100879939D01*
X159049651Y-100841501D01*
X159053233Y-100815706D01*
X159059132Y-100798384D01*
X159067927Y-100785368D01*
X159080180Y-100772507D01*
X159123047Y-100744873D01*
X159169843Y-100739745D01*
X159214424Y-100757217D01*
X159229928Y-100770221D01*
X159241310Y-100782447D01*
X159249481Y-100795540D01*
X159254974Y-100813615D01*
X159258320Y-100840787D01*
X159260051Y-100881170D01*
X159260697Y-100938879D01*
X159260792Y-101009132D01*
X159260792Y-101217179D01*
X159399109Y-101217179D01*
X159399109Y-100613614D01*
X159329950Y-100613614D01*
X159288428Y-100615256D01*
X159267006Y-100621087D01*
X159260795Y-100632461D01*
X159260792Y-100632798D01*
X159257910Y-100643938D01*
X159245199Y-100642674D01*
X159219926Y-100630434D01*
X159162605Y-100612424D01*
X159097037Y-100610421D01*
X159034012Y-100624002D01*
G04 #@! TA.AperFunction,EtchedComponent*
G36*
X159162605Y-100612424D02*
G01*
X159219926Y-100630434D01*
X159245199Y-100642674D01*
X159257910Y-100643938D01*
X159260792Y-100632798D01*
X159260795Y-100632461D01*
X159267006Y-100621087D01*
X159288428Y-100615256D01*
X159329950Y-100613614D01*
X159399109Y-100613614D01*
X159399109Y-101217179D01*
X159260792Y-101217179D01*
X159260792Y-101009132D01*
X159260697Y-100938879D01*
X159260051Y-100881170D01*
X159258320Y-100840787D01*
X159254974Y-100813615D01*
X159249481Y-100795540D01*
X159241310Y-100782447D01*
X159229928Y-100770221D01*
X159214424Y-100757217D01*
X159169843Y-100739745D01*
X159123047Y-100744873D01*
X159080180Y-100772507D01*
X159067927Y-100785368D01*
X159059132Y-100798384D01*
X159053233Y-100815706D01*
X159049651Y-100841501D01*
X159047809Y-100879939D01*
X159047128Y-100935189D01*
X159047030Y-101011418D01*
X159047030Y-101217179D01*
X158908713Y-101217179D01*
X158908989Y-100993985D01*
X158909008Y-100984044D01*
X158910207Y-100889106D01*
X158913891Y-100815358D01*
X158921006Y-100759214D01*
X158932500Y-100717087D01*
X158949318Y-100685391D01*
X158972409Y-100660541D01*
X159002717Y-100638950D01*
X159034012Y-100624002D01*
X159097037Y-100610421D01*
X159162605Y-100612424D01*
G37*
G04 #@! TD.AperFunction*
X156062774Y-100618880D02*
X155989920Y-100649830D01*
X155966973Y-100664895D01*
X155937646Y-100688048D01*
X155919236Y-100706253D01*
X155916039Y-100712183D01*
X155925065Y-100725340D01*
X155948163Y-100747667D01*
X155966656Y-100763250D01*
X156017272Y-100803926D01*
X156057240Y-100770295D01*
X156088126Y-100748584D01*
X156118241Y-100741090D01*
X156152708Y-100742920D01*
X156207439Y-100756528D01*
X156245114Y-100784772D01*
X156268009Y-100830433D01*
X156278403Y-100896289D01*
X156278405Y-100896331D01*
X156277506Y-100969939D01*
X156263537Y-101023946D01*
X156235672Y-101060716D01*
X156216675Y-101073168D01*
X156166224Y-101088673D01*
X156112337Y-101088683D01*
X156065454Y-101073638D01*
X156054356Y-101066287D01*
X156026524Y-101047511D01*
X156004764Y-101044434D01*
X155981296Y-101058409D01*
X155955351Y-101083510D01*
X155914284Y-101125880D01*
X155959879Y-101163464D01*
X156030326Y-101205882D01*
X156109767Y-101226785D01*
X156192785Y-101225272D01*
X156247306Y-101211411D01*
X156311030Y-101177135D01*
X156361995Y-101123212D01*
X156385149Y-101085149D01*
X156403901Y-101030536D01*
X156413285Y-100961369D01*
X156413357Y-100886407D01*
X156404176Y-100814409D01*
X156385801Y-100754137D01*
X156382907Y-100747958D01*
X156340048Y-100687351D01*
X156282021Y-100643224D01*
X156213409Y-100616493D01*
X156138799Y-100608073D01*
X156062774Y-100618880D01*
G04 #@! TA.AperFunction,EtchedComponent*
G36*
X156213409Y-100616493D02*
G01*
X156282021Y-100643224D01*
X156340048Y-100687351D01*
X156382907Y-100747958D01*
X156385801Y-100754137D01*
X156404176Y-100814409D01*
X156413357Y-100886407D01*
X156413285Y-100961369D01*
X156403901Y-101030536D01*
X156385149Y-101085149D01*
X156361995Y-101123212D01*
X156311030Y-101177135D01*
X156247306Y-101211411D01*
X156192785Y-101225272D01*
X156109767Y-101226785D01*
X156030326Y-101205882D01*
X155959879Y-101163464D01*
X155914284Y-101125880D01*
X155955351Y-101083510D01*
X155981296Y-101058409D01*
X156004764Y-101044434D01*
X156026524Y-101047511D01*
X156054356Y-101066287D01*
X156065454Y-101073638D01*
X156112337Y-101088683D01*
X156166224Y-101088673D01*
X156216675Y-101073168D01*
X156235672Y-101060716D01*
X156263537Y-101023946D01*
X156277506Y-100969939D01*
X156278405Y-100896331D01*
X156278403Y-100896289D01*
X156268009Y-100830433D01*
X156245114Y-100784772D01*
X156207439Y-100756528D01*
X156152708Y-100742920D01*
X156118241Y-100741090D01*
X156088126Y-100748584D01*
X156057240Y-100770295D01*
X156017272Y-100803926D01*
X155966656Y-100763250D01*
X155948163Y-100747667D01*
X155925065Y-100725340D01*
X155916039Y-100712183D01*
X155919236Y-100706253D01*
X155937646Y-100688048D01*
X155966973Y-100664895D01*
X155989920Y-100649830D01*
X156062774Y-100618880D01*
X156138799Y-100608073D01*
X156213409Y-100616493D01*
G37*
G04 #@! TD.AperFunction*
X157669238Y-100621055D02*
X157605637Y-100655692D01*
X157555877Y-100710372D01*
X157532432Y-100754842D01*
X157522366Y-100794121D01*
X157515844Y-100850116D01*
X157513049Y-100914621D01*
X157514164Y-100979429D01*
X157519374Y-101036334D01*
X157525459Y-101066727D01*
X157545986Y-101108306D01*
X157581537Y-101152468D01*
X157624381Y-101191087D01*
X157666789Y-101216034D01*
X157667823Y-101216430D01*
X157720447Y-101227331D01*
X157782812Y-101227601D01*
X157842076Y-101217676D01*
X157864960Y-101209722D01*
X157923898Y-101176300D01*
X157966110Y-101132511D01*
X157993844Y-101074538D01*
X158009349Y-100998565D01*
X158012857Y-100958771D01*
X158012410Y-100908766D01*
X157877624Y-100908766D01*
X157873083Y-100981732D01*
X157860014Y-101037334D01*
X157839244Y-101072861D01*
X157824448Y-101083020D01*
X157786536Y-101090104D01*
X157741473Y-101088007D01*
X157702513Y-101077812D01*
X157692296Y-101072204D01*
X157665341Y-101039538D01*
X157647549Y-100989545D01*
X157639976Y-100928705D01*
X157643675Y-100863497D01*
X157651943Y-100824253D01*
X157675680Y-100778805D01*
X157713151Y-100750396D01*
X157758280Y-100740573D01*
X157804989Y-100750887D01*
X157840868Y-100776112D01*
X157859723Y-100796925D01*
X157870728Y-100817439D01*
X157875974Y-100845203D01*
X157877551Y-100887762D01*
X157877624Y-100908766D01*
X158012410Y-100908766D01*
X158011906Y-100852580D01*
X157994612Y-100765501D01*
X157960971Y-100697530D01*
X157910982Y-100648664D01*
X157844644Y-100618899D01*
X157830399Y-100615448D01*
X157744790Y-100607345D01*
X157669238Y-100621055D01*
G04 #@! TA.AperFunction,EtchedComponent*
G36*
X158012857Y-100958771D02*
G01*
X158009349Y-100998565D01*
X157993844Y-101074538D01*
X157966110Y-101132511D01*
X157923898Y-101176300D01*
X157864960Y-101209722D01*
X157842076Y-101217676D01*
X157782812Y-101227601D01*
X157720447Y-101227331D01*
X157667823Y-101216430D01*
X157666789Y-101216034D01*
X157624381Y-101191087D01*
X157581537Y-101152468D01*
X157545986Y-101108306D01*
X157525459Y-101066727D01*
X157519374Y-101036334D01*
X157514164Y-100979429D01*
X157513291Y-100928705D01*
X157639976Y-100928705D01*
X157647549Y-100989545D01*
X157665341Y-101039538D01*
X157692296Y-101072204D01*
X157702513Y-101077812D01*
X157741473Y-101088007D01*
X157786536Y-101090104D01*
X157824448Y-101083020D01*
X157839244Y-101072861D01*
X157860014Y-101037334D01*
X157873083Y-100981732D01*
X157877624Y-100908766D01*
X157877551Y-100887762D01*
X157875974Y-100845203D01*
X157870728Y-100817439D01*
X157859723Y-100796925D01*
X157840868Y-100776112D01*
X157804989Y-100750887D01*
X157758280Y-100740573D01*
X157713151Y-100750396D01*
X157675680Y-100778805D01*
X157651943Y-100824253D01*
X157643675Y-100863497D01*
X157639976Y-100928705D01*
X157513291Y-100928705D01*
X157513049Y-100914621D01*
X157515844Y-100850116D01*
X157522366Y-100794121D01*
X157532432Y-100754842D01*
X157555877Y-100710372D01*
X157605637Y-100655692D01*
X157669238Y-100621055D01*
X157744790Y-100607345D01*
X157830399Y-100615448D01*
X157844644Y-100618899D01*
X157910982Y-100648664D01*
X157960971Y-100697530D01*
X157994612Y-100765501D01*
X158011906Y-100852580D01*
X158012410Y-100908766D01*
X158012857Y-100958771D01*
G37*
G04 #@! TD.AperFunction*
X157998476Y-101559237D02*
X157948745Y-101562971D01*
X157818709Y-101952773D01*
X157798322Y-101883614D01*
X157786054Y-101840874D01*
X157769915Y-101783115D01*
X157752488Y-101719625D01*
X157743274Y-101685570D01*
X157708612Y-101556683D01*
X157565609Y-101556683D01*
X157608354Y-101691857D01*
X157629404Y-101758342D01*
X157654833Y-101838539D01*
X157681390Y-101922193D01*
X157705098Y-101996782D01*
X157759098Y-102166535D01*
X157817402Y-102170328D01*
X157875705Y-102174122D01*
X157907321Y-102069734D01*
X157926818Y-102004889D01*
X157948096Y-101933400D01*
X157966692Y-101870263D01*
X157967426Y-101867750D01*
X157981316Y-101824969D01*
X157993571Y-101795779D01*
X158002154Y-101784741D01*
X158003918Y-101786018D01*
X158010109Y-101803130D01*
X158021872Y-101839787D01*
X158037775Y-101891378D01*
X158056386Y-101953294D01*
X158066457Y-101987352D01*
X158120993Y-102172822D01*
X158236736Y-102172822D01*
X158329263Y-101880471D01*
X158355256Y-101798462D01*
X158378934Y-101723987D01*
X158399180Y-101660544D01*
X158414874Y-101611632D01*
X158424898Y-101580749D01*
X158427945Y-101571726D01*
X158425533Y-101562487D01*
X158406592Y-101558441D01*
X158367177Y-101558846D01*
X158361007Y-101559152D01*
X158287914Y-101562971D01*
X158240043Y-101739010D01*
X158222447Y-101803211D01*
X158206723Y-101859649D01*
X158194254Y-101903422D01*
X158186426Y-101929630D01*
X158184980Y-101933903D01*
X158178986Y-101928990D01*
X158166899Y-101903532D01*
X158150107Y-101860997D01*
X158129997Y-101804850D01*
X158112997Y-101754130D01*
X158048206Y-101555504D01*
X157998476Y-101559237D01*
G04 #@! TA.AperFunction,EtchedComponent*
G36*
X158112997Y-101754130D02*
G01*
X158129997Y-101804850D01*
X158150107Y-101860997D01*
X158166899Y-101903532D01*
X158178986Y-101928990D01*
X158184980Y-101933903D01*
X158186426Y-101929630D01*
X158194254Y-101903422D01*
X158206723Y-101859649D01*
X158222447Y-101803211D01*
X158240043Y-101739010D01*
X158287914Y-101562971D01*
X158361007Y-101559152D01*
X158367177Y-101558846D01*
X158406592Y-101558441D01*
X158425533Y-101562487D01*
X158427945Y-101571726D01*
X158424898Y-101580749D01*
X158414874Y-101611632D01*
X158399180Y-101660544D01*
X158378934Y-101723987D01*
X158355256Y-101798462D01*
X158329263Y-101880471D01*
X158236736Y-102172822D01*
X158120993Y-102172822D01*
X158066457Y-101987352D01*
X158056386Y-101953294D01*
X158037775Y-101891378D01*
X158021872Y-101839787D01*
X158010109Y-101803130D01*
X158003918Y-101786018D01*
X158002154Y-101784741D01*
X157993571Y-101795779D01*
X157981316Y-101824969D01*
X157967426Y-101867750D01*
X157966692Y-101870263D01*
X157948096Y-101933400D01*
X157926818Y-102004889D01*
X157907321Y-102069734D01*
X157875705Y-102174122D01*
X157817402Y-102170328D01*
X157759098Y-102166535D01*
X157705098Y-101996782D01*
X157681390Y-101922193D01*
X157654833Y-101838539D01*
X157629404Y-101758342D01*
X157608354Y-101691857D01*
X157565609Y-101556683D01*
X157708612Y-101556683D01*
X157743274Y-101685570D01*
X157752488Y-101719625D01*
X157769915Y-101783115D01*
X157786054Y-101840874D01*
X157798322Y-101883614D01*
X157818709Y-101952773D01*
X157948745Y-101562971D01*
X157998476Y-101559237D01*
X158048206Y-101555504D01*
X158112997Y-101754130D01*
G37*
G04 #@! TD.AperFunction*
X158481188Y-102172822D02*
X158550346Y-102172822D01*
X158590488Y-102171645D01*
X158611394Y-102166772D01*
X158618922Y-102156186D01*
X158619505Y-102149029D01*
X158620774Y-102134676D01*
X158628779Y-102131923D01*
X158649815Y-102140771D01*
X158666173Y-102149029D01*
X158728977Y-102168597D01*
X158797248Y-102169729D01*
X158852752Y-102155135D01*
X158904438Y-102119877D01*
X158943838Y-102067835D01*
X158965413Y-102006450D01*
X158965962Y-102003018D01*
X158969167Y-101965571D01*
X158970761Y-101911813D01*
X158970633Y-101871155D01*
X158833279Y-101871155D01*
X158830097Y-101925194D01*
X158822859Y-101969735D01*
X158813060Y-101994888D01*
X158775989Y-102029260D01*
X158731974Y-102041582D01*
X158686584Y-102031618D01*
X158647797Y-102001895D01*
X158633108Y-101981905D01*
X158624519Y-101958050D01*
X158620496Y-101923230D01*
X158619505Y-101870930D01*
X158621278Y-101819139D01*
X158625963Y-101773634D01*
X158632603Y-101743181D01*
X158633710Y-101740452D01*
X158660491Y-101708000D01*
X158699579Y-101690183D01*
X158743315Y-101687306D01*
X158784038Y-101699674D01*
X158814087Y-101727593D01*
X158817204Y-101733148D01*
X158826961Y-101767022D01*
X158832277Y-101815728D01*
X158833279Y-101871155D01*
X158970633Y-101871155D01*
X158970568Y-101850540D01*
X158969664Y-101817563D01*
X158963514Y-101735981D01*
X158950733Y-101674730D01*
X158929471Y-101629449D01*
X158897878Y-101595779D01*
X158867207Y-101576014D01*
X158824354Y-101562120D01*
X158771056Y-101557354D01*
X158716480Y-101561236D01*
X158669792Y-101573282D01*
X158645124Y-101587693D01*
X158619505Y-101610878D01*
X158619505Y-101317773D01*
X158481188Y-101317773D01*
X158481188Y-102172822D01*
G04 #@! TA.AperFunction,EtchedComponent*
G36*
X158970761Y-101911813D02*
G01*
X158969167Y-101965571D01*
X158965962Y-102003018D01*
X158965413Y-102006450D01*
X158943838Y-102067835D01*
X158904438Y-102119877D01*
X158852752Y-102155135D01*
X158797248Y-102169729D01*
X158728977Y-102168597D01*
X158666173Y-102149029D01*
X158649815Y-102140771D01*
X158628779Y-102131923D01*
X158620774Y-102134676D01*
X158619505Y-102149029D01*
X158618922Y-102156186D01*
X158611394Y-102166772D01*
X158590488Y-102171645D01*
X158550346Y-102172822D01*
X158481188Y-102172822D01*
X158481188Y-101870930D01*
X158619505Y-101870930D01*
X158620496Y-101923230D01*
X158624519Y-101958050D01*
X158633108Y-101981905D01*
X158647797Y-102001895D01*
X158686584Y-102031618D01*
X158731974Y-102041582D01*
X158775989Y-102029260D01*
X158813060Y-101994888D01*
X158822859Y-101969735D01*
X158830097Y-101925194D01*
X158833279Y-101871155D01*
X158832277Y-101815728D01*
X158826961Y-101767022D01*
X158817204Y-101733148D01*
X158814087Y-101727593D01*
X158784038Y-101699674D01*
X158743315Y-101687306D01*
X158699579Y-101690183D01*
X158660491Y-101708000D01*
X158633710Y-101740452D01*
X158632603Y-101743181D01*
X158625963Y-101773634D01*
X158621278Y-101819139D01*
X158619505Y-101870930D01*
X158481188Y-101870930D01*
X158481188Y-101317773D01*
X158619505Y-101317773D01*
X158619505Y-101610878D01*
X158645124Y-101587693D01*
X158669792Y-101573282D01*
X158716480Y-101561236D01*
X158771056Y-101557354D01*
X158824354Y-101562120D01*
X158867207Y-101576014D01*
X158897878Y-101595779D01*
X158929471Y-101629449D01*
X158950733Y-101674730D01*
X158963514Y-101735981D01*
X158969664Y-101817563D01*
X158970568Y-101850540D01*
X158970633Y-101871155D01*
X158970761Y-101911813D01*
G37*
G04 #@! TD.AperFunction*
X160818261Y-100620148D02*
X160752479Y-100649231D01*
X160702540Y-100697793D01*
X160668374Y-100765908D01*
X160649907Y-100853651D01*
X160648583Y-100867351D01*
X160647546Y-100963939D01*
X160660993Y-101048602D01*
X160688108Y-101117221D01*
X160702627Y-101139294D01*
X160753201Y-101186011D01*
X160817609Y-101216268D01*
X160889666Y-101228824D01*
X160963185Y-101222439D01*
X161019072Y-101202772D01*
X161067132Y-101169629D01*
X161106412Y-101126175D01*
X161107092Y-101125158D01*
X161123044Y-101098338D01*
X161133410Y-101071368D01*
X161139688Y-101037332D01*
X161143373Y-100989310D01*
X161144997Y-100949931D01*
X161145672Y-100914219D01*
X161019955Y-100914219D01*
X161018726Y-100949770D01*
X161014266Y-100997094D01*
X161006397Y-101027465D01*
X160992207Y-101049072D01*
X160978917Y-101061694D01*
X160931802Y-101088122D01*
X160882505Y-101091653D01*
X160836593Y-101072639D01*
X160813638Y-101051331D01*
X160797096Y-101029859D01*
X160787421Y-101009313D01*
X160783174Y-100982574D01*
X160782920Y-100942523D01*
X160784228Y-100905638D01*
X160787043Y-100852947D01*
X160791505Y-100818772D01*
X160799548Y-100796480D01*
X160813103Y-100779442D01*
X160823845Y-100769703D01*
X160868777Y-100744123D01*
X160917249Y-100742847D01*
X160957894Y-100757999D01*
X160992567Y-100789642D01*
X161013224Y-100841620D01*
X161019955Y-100914219D01*
X161145672Y-100914219D01*
X161146479Y-100871621D01*
X161143948Y-100813056D01*
X161136362Y-100769007D01*
X161122681Y-100734248D01*
X161101865Y-100703551D01*
X161094147Y-100694436D01*
X161045889Y-100649021D01*
X160994128Y-100622493D01*
X160930828Y-100611379D01*
X160899961Y-100610471D01*
X160818261Y-100620148D01*
G04 #@! TA.AperFunction,EtchedComponent*
G36*
X161144997Y-100949931D02*
G01*
X161143373Y-100989310D01*
X161139688Y-101037332D01*
X161133410Y-101071368D01*
X161123044Y-101098338D01*
X161107092Y-101125158D01*
X161106412Y-101126175D01*
X161067132Y-101169629D01*
X161019072Y-101202772D01*
X160963185Y-101222439D01*
X160889666Y-101228824D01*
X160817609Y-101216268D01*
X160753201Y-101186011D01*
X160702627Y-101139294D01*
X160688108Y-101117221D01*
X160660993Y-101048602D01*
X160647546Y-100963939D01*
X160647776Y-100942523D01*
X160782920Y-100942523D01*
X160783174Y-100982574D01*
X160787421Y-101009313D01*
X160797096Y-101029859D01*
X160813638Y-101051331D01*
X160836593Y-101072639D01*
X160882505Y-101091653D01*
X160931802Y-101088122D01*
X160978917Y-101061694D01*
X160992207Y-101049072D01*
X161006397Y-101027465D01*
X161014266Y-100997094D01*
X161018726Y-100949770D01*
X161019955Y-100914219D01*
X161013224Y-100841620D01*
X160992567Y-100789642D01*
X160957894Y-100757999D01*
X160917249Y-100742847D01*
X160868777Y-100744123D01*
X160823845Y-100769703D01*
X160813103Y-100779442D01*
X160799548Y-100796480D01*
X160791505Y-100818772D01*
X160787043Y-100852947D01*
X160784228Y-100905638D01*
X160782920Y-100942523D01*
X160647776Y-100942523D01*
X160648583Y-100867351D01*
X160649907Y-100853651D01*
X160668374Y-100765908D01*
X160702540Y-100697793D01*
X160752479Y-100649231D01*
X160818261Y-100620148D01*
X160899961Y-100610471D01*
X160930828Y-100611379D01*
X160994128Y-100622493D01*
X161045889Y-100649021D01*
X161094147Y-100694436D01*
X161101865Y-100703551D01*
X161122681Y-100734248D01*
X161136362Y-100769007D01*
X161143948Y-100813056D01*
X161146479Y-100871621D01*
X161145672Y-100914219D01*
X161144997Y-100949931D01*
G37*
G04 #@! TD.AperFunction*
X155602102Y-100611457D02*
X155569904Y-100619279D01*
X155508175Y-100647921D01*
X155455390Y-100691667D01*
X155418859Y-100744117D01*
X155413840Y-100755893D01*
X155406955Y-100786740D01*
X155402136Y-100832371D01*
X155400495Y-100878492D01*
X155400495Y-100965693D01*
X155582822Y-100965693D01*
X155658021Y-100965978D01*
X155710997Y-100967704D01*
X155744675Y-100972181D01*
X155761980Y-100980720D01*
X155765837Y-100994630D01*
X155759171Y-101015222D01*
X155747230Y-101039315D01*
X155713920Y-101079525D01*
X155667632Y-101099558D01*
X155611056Y-101098905D01*
X155546969Y-101077101D01*
X155491583Y-101050193D01*
X155445625Y-101086532D01*
X155399667Y-101122872D01*
X155442904Y-101162819D01*
X155500626Y-101200563D01*
X155571614Y-101223320D01*
X155647971Y-101229688D01*
X155721801Y-101218268D01*
X155733713Y-101214393D01*
X155798601Y-101180506D01*
X155846870Y-101129986D01*
X155879535Y-101061325D01*
X155897615Y-100973014D01*
X155897825Y-100971121D01*
X155899444Y-100874878D01*
X155892900Y-100840542D01*
X155765148Y-100840542D01*
X155753416Y-100845822D01*
X155721562Y-100849867D01*
X155674603Y-100852176D01*
X155644846Y-100852525D01*
X155589352Y-100852306D01*
X155554654Y-100850916D01*
X155536399Y-100847251D01*
X155530234Y-100840210D01*
X155531805Y-100828690D01*
X155533122Y-100824233D01*
X155555618Y-100782355D01*
X155590997Y-100748604D01*
X155622220Y-100733773D01*
X155663699Y-100734668D01*
X155705731Y-100753164D01*
X155740988Y-100783786D01*
X155762146Y-100821062D01*
X155765148Y-100840542D01*
X155892900Y-100840542D01*
X155883310Y-100790229D01*
X155851302Y-100719191D01*
X155805299Y-100663779D01*
X155747179Y-100626009D01*
X155678820Y-100607896D01*
X155602102Y-100611457D01*
G04 #@! TA.AperFunction,EtchedComponent*
G36*
X155899444Y-100874878D02*
G01*
X155897825Y-100971121D01*
X155897615Y-100973014D01*
X155879535Y-101061325D01*
X155846870Y-101129986D01*
X155798601Y-101180506D01*
X155733713Y-101214393D01*
X155721801Y-101218268D01*
X155647971Y-101229688D01*
X155571614Y-101223320D01*
X155500626Y-101200563D01*
X155442904Y-101162819D01*
X155399667Y-101122872D01*
X155445625Y-101086532D01*
X155491583Y-101050193D01*
X155546969Y-101077101D01*
X155611056Y-101098905D01*
X155667632Y-101099558D01*
X155713920Y-101079525D01*
X155747230Y-101039315D01*
X155759171Y-101015222D01*
X155765837Y-100994630D01*
X155761980Y-100980720D01*
X155744675Y-100972181D01*
X155710997Y-100967704D01*
X155658021Y-100965978D01*
X155582822Y-100965693D01*
X155400495Y-100965693D01*
X155400495Y-100878492D01*
X155401857Y-100840210D01*
X155530234Y-100840210D01*
X155536399Y-100847251D01*
X155554654Y-100850916D01*
X155589352Y-100852306D01*
X155644846Y-100852525D01*
X155674603Y-100852176D01*
X155721562Y-100849867D01*
X155753416Y-100845822D01*
X155765148Y-100840542D01*
X155762146Y-100821062D01*
X155740988Y-100783786D01*
X155705731Y-100753164D01*
X155663699Y-100734668D01*
X155622220Y-100733773D01*
X155590997Y-100748604D01*
X155555618Y-100782355D01*
X155533122Y-100824233D01*
X155531805Y-100828690D01*
X155530234Y-100840210D01*
X155401857Y-100840210D01*
X155402136Y-100832371D01*
X155406955Y-100786740D01*
X155413840Y-100755893D01*
X155418859Y-100744117D01*
X155455390Y-100691667D01*
X155508175Y-100647921D01*
X155569904Y-100619279D01*
X155602102Y-100611457D01*
X155678820Y-100607896D01*
X155747179Y-100626009D01*
X155805299Y-100663779D01*
X155851302Y-100719191D01*
X155883310Y-100790229D01*
X155892900Y-100840542D01*
X155899444Y-100874878D01*
G37*
G04 #@! TD.AperFunction*
X158265983Y-100611452D02*
X158218366Y-100620482D01*
X158168966Y-100639370D01*
X158163688Y-100641777D01*
X158126226Y-100661476D01*
X158100283Y-100679781D01*
X158091897Y-100691508D01*
X158099883Y-100710632D01*
X158119280Y-100738850D01*
X158127890Y-100749384D01*
X158163372Y-100790847D01*
X158209115Y-100763858D01*
X158252650Y-100745878D01*
X158302950Y-100736267D01*
X158351188Y-100735660D01*
X158388533Y-100744691D01*
X158397495Y-100750327D01*
X158414563Y-100776171D01*
X158416637Y-100805941D01*
X158403866Y-100829197D01*
X158396312Y-100833708D01*
X158373675Y-100839309D01*
X158333885Y-100845892D01*
X158284834Y-100852183D01*
X158275785Y-100853170D01*
X158197004Y-100866798D01*
X158139864Y-100889946D01*
X158101970Y-100924752D01*
X158080921Y-100973354D01*
X158074365Y-101032718D01*
X158083423Y-101100198D01*
X158112836Y-101153188D01*
X158162722Y-101191783D01*
X158233200Y-101216081D01*
X158311435Y-101225667D01*
X158375234Y-101225552D01*
X158426984Y-101216845D01*
X158462327Y-101204825D01*
X158506983Y-101183880D01*
X158548253Y-101159574D01*
X158562921Y-101148876D01*
X158600643Y-101118084D01*
X158555148Y-101072049D01*
X158509653Y-101026013D01*
X158457928Y-101060243D01*
X158406048Y-101085952D01*
X158350649Y-101099399D01*
X158297395Y-101100818D01*
X158251951Y-101090443D01*
X158219984Y-101068507D01*
X158209662Y-101049998D01*
X158211211Y-101020314D01*
X158236860Y-100997615D01*
X158286540Y-100981940D01*
X158340969Y-100974695D01*
X158424736Y-100960873D01*
X158486967Y-100934796D01*
X158528493Y-100895699D01*
X158550147Y-100842820D01*
X158553147Y-100780126D01*
X158538329Y-100714642D01*
X158504546Y-100665144D01*
X158451495Y-100631408D01*
X158378874Y-100613207D01*
X158325072Y-100609639D01*
X158265983Y-100611452D01*
G04 #@! TA.AperFunction,EtchedComponent*
G36*
X158378874Y-100613207D02*
G01*
X158451495Y-100631408D01*
X158504546Y-100665144D01*
X158538329Y-100714642D01*
X158553147Y-100780126D01*
X158550147Y-100842820D01*
X158528493Y-100895699D01*
X158486967Y-100934796D01*
X158424736Y-100960873D01*
X158340969Y-100974695D01*
X158286540Y-100981940D01*
X158236860Y-100997615D01*
X158211211Y-101020314D01*
X158209662Y-101049998D01*
X158219984Y-101068507D01*
X158251951Y-101090443D01*
X158297395Y-101100818D01*
X158350649Y-101099399D01*
X158406048Y-101085952D01*
X158457928Y-101060243D01*
X158509653Y-101026013D01*
X158555148Y-101072049D01*
X158600643Y-101118084D01*
X158562921Y-101148876D01*
X158548253Y-101159574D01*
X158506983Y-101183880D01*
X158462327Y-101204825D01*
X158426984Y-101216845D01*
X158375234Y-101225552D01*
X158311435Y-101225667D01*
X158233200Y-101216081D01*
X158162722Y-101191783D01*
X158112836Y-101153188D01*
X158083423Y-101100198D01*
X158074365Y-101032718D01*
X158080921Y-100973354D01*
X158101970Y-100924752D01*
X158139864Y-100889946D01*
X158197004Y-100866798D01*
X158275785Y-100853170D01*
X158284834Y-100852183D01*
X158333885Y-100845892D01*
X158373675Y-100839309D01*
X158396312Y-100833708D01*
X158403866Y-100829197D01*
X158416637Y-100805941D01*
X158414563Y-100776171D01*
X158397495Y-100750327D01*
X158388533Y-100744691D01*
X158351188Y-100735660D01*
X158302950Y-100736267D01*
X158252650Y-100745878D01*
X158209115Y-100763858D01*
X158163372Y-100790847D01*
X158127890Y-100749384D01*
X158119280Y-100738850D01*
X158099883Y-100710632D01*
X158091897Y-100691508D01*
X158100283Y-100679781D01*
X158126226Y-100661476D01*
X158163688Y-100641777D01*
X158168966Y-100639370D01*
X158218366Y-100620482D01*
X158265983Y-100611452D01*
X158325072Y-100609639D01*
X158378874Y-100613207D01*
G37*
G04 #@! TD.AperFunction*
X156247419Y-101559970D02*
X156187315Y-101575597D01*
X156136979Y-101607848D01*
X156112607Y-101631940D01*
X156072655Y-101688895D01*
X156049758Y-101754965D01*
X156041892Y-101836182D01*
X156041852Y-101842748D01*
X156041782Y-101908763D01*
X156421736Y-101908763D01*
X156413637Y-101943342D01*
X156399013Y-101974659D01*
X156373419Y-102007291D01*
X156368065Y-102012500D01*
X156322057Y-102040694D01*
X156269590Y-102045475D01*
X156209197Y-102026926D01*
X156198960Y-102021931D01*
X156167561Y-102006745D01*
X156146530Y-101998094D01*
X156142861Y-101997293D01*
X156130052Y-102005063D01*
X156105622Y-102024072D01*
X156093221Y-102034460D01*
X156067524Y-102058321D01*
X156059085Y-102074077D01*
X156064942Y-102088571D01*
X156068072Y-102092534D01*
X156089275Y-102109879D01*
X156124262Y-102130959D01*
X156148663Y-102143265D01*
X156217928Y-102164946D01*
X156294612Y-102171971D01*
X156367235Y-102163647D01*
X156387574Y-102157686D01*
X156450524Y-102123952D01*
X156497185Y-102072045D01*
X156527827Y-102001459D01*
X156542718Y-101911692D01*
X156544353Y-101864753D01*
X156539579Y-101796413D01*
X156419010Y-101796413D01*
X156407348Y-101801465D01*
X156376002Y-101805429D01*
X156330429Y-101807768D01*
X156299554Y-101808169D01*
X156244019Y-101807783D01*
X156208967Y-101805975D01*
X156189738Y-101801773D01*
X156181670Y-101794203D01*
X156180099Y-101783218D01*
X156190879Y-101749381D01*
X156218020Y-101715940D01*
X156253723Y-101690272D01*
X156289440Y-101679772D01*
X156337952Y-101689086D01*
X156379947Y-101716013D01*
X156409064Y-101754827D01*
X156419010Y-101796413D01*
X156539579Y-101796413D01*
X156537401Y-101765236D01*
X156515945Y-101685949D01*
X156479530Y-101626263D01*
X156427703Y-101585549D01*
X156360010Y-101563179D01*
X156323338Y-101558871D01*
X156247419Y-101559970D01*
G04 #@! TA.AperFunction,EtchedComponent*
G36*
X156544353Y-101864753D02*
G01*
X156542718Y-101911692D01*
X156527827Y-102001459D01*
X156497185Y-102072045D01*
X156450524Y-102123952D01*
X156387574Y-102157686D01*
X156367235Y-102163647D01*
X156294612Y-102171971D01*
X156217928Y-102164946D01*
X156148663Y-102143265D01*
X156124262Y-102130959D01*
X156089275Y-102109879D01*
X156068072Y-102092534D01*
X156064942Y-102088571D01*
X156059085Y-102074077D01*
X156067524Y-102058321D01*
X156093221Y-102034460D01*
X156105622Y-102024072D01*
X156130052Y-102005063D01*
X156142861Y-101997293D01*
X156146530Y-101998094D01*
X156167561Y-102006745D01*
X156198960Y-102021931D01*
X156209197Y-102026926D01*
X156269590Y-102045475D01*
X156322057Y-102040694D01*
X156368065Y-102012500D01*
X156373419Y-102007291D01*
X156399013Y-101974659D01*
X156413637Y-101943342D01*
X156421736Y-101908763D01*
X156041782Y-101908763D01*
X156041852Y-101842748D01*
X156041892Y-101836182D01*
X156047022Y-101783218D01*
X156180099Y-101783218D01*
X156181670Y-101794203D01*
X156189738Y-101801773D01*
X156208967Y-101805975D01*
X156244019Y-101807783D01*
X156299554Y-101808169D01*
X156330429Y-101807768D01*
X156376002Y-101805429D01*
X156407348Y-101801465D01*
X156419010Y-101796413D01*
X156409064Y-101754827D01*
X156379947Y-101716013D01*
X156337952Y-101689086D01*
X156289440Y-101679772D01*
X156253723Y-101690272D01*
X156218020Y-101715940D01*
X156190879Y-101749381D01*
X156180099Y-101783218D01*
X156047022Y-101783218D01*
X156049758Y-101754965D01*
X156072655Y-101688895D01*
X156112607Y-101631940D01*
X156136979Y-101607848D01*
X156187315Y-101575597D01*
X156247419Y-101559970D01*
X156323338Y-101558871D01*
X156360010Y-101563179D01*
X156427703Y-101585549D01*
X156479530Y-101626263D01*
X156515945Y-101685949D01*
X156537401Y-101765236D01*
X156539579Y-101796413D01*
X156544353Y-101864753D01*
G37*
G04 #@! TD.AperFunction*
X159636699Y-100627614D02*
X159624168Y-100633514D01*
X159580799Y-100665283D01*
X159539790Y-100711646D01*
X159509168Y-100762696D01*
X159500459Y-100786166D01*
X159492512Y-100828091D01*
X159487774Y-100878757D01*
X159487199Y-100899679D01*
X159487129Y-100965693D01*
X159867083Y-100965693D01*
X159858983Y-101000273D01*
X159839104Y-101041170D01*
X159804347Y-101076514D01*
X159762998Y-101099282D01*
X159736649Y-101104010D01*
X159700916Y-101098273D01*
X159658282Y-101083882D01*
X159643799Y-101077262D01*
X159590240Y-101050513D01*
X159544533Y-101085376D01*
X159518158Y-101108955D01*
X159504124Y-101128417D01*
X159503414Y-101134129D01*
X159515951Y-101147973D01*
X159543428Y-101169012D01*
X159568366Y-101185425D01*
X159635664Y-101214930D01*
X159711110Y-101228284D01*
X159785888Y-101224812D01*
X159845495Y-101206663D01*
X159906941Y-101167784D01*
X159950608Y-101116595D01*
X159977926Y-101050367D01*
X159990322Y-100966371D01*
X159991421Y-100927936D01*
X159987022Y-100839861D01*
X159986482Y-100837299D01*
X159860582Y-100837299D01*
X159857115Y-100845558D01*
X159842863Y-100850113D01*
X159813470Y-100852065D01*
X159764575Y-100852517D01*
X159745748Y-100852525D01*
X159688467Y-100851843D01*
X159652141Y-100849364D01*
X159632604Y-100844443D01*
X159625690Y-100836434D01*
X159625445Y-100833862D01*
X159633336Y-100813423D01*
X159653085Y-100784789D01*
X159661575Y-100774763D01*
X159693094Y-100746408D01*
X159725949Y-100735259D01*
X159743651Y-100734327D01*
X159791539Y-100745981D01*
X159831699Y-100777285D01*
X159857173Y-100822752D01*
X159857625Y-100824233D01*
X159860582Y-100837299D01*
X159986482Y-100837299D01*
X159972392Y-100770510D01*
X159946038Y-100715025D01*
X159913807Y-100675639D01*
X159854217Y-100632931D01*
X159784168Y-100610109D01*
X159709661Y-100608046D01*
X159636699Y-100627614D01*
G04 #@! TA.AperFunction,EtchedComponent*
G36*
X159987022Y-100839861D02*
G01*
X159991421Y-100927936D01*
X159990322Y-100966371D01*
X159977926Y-101050367D01*
X159950608Y-101116595D01*
X159906941Y-101167784D01*
X159845495Y-101206663D01*
X159785888Y-101224812D01*
X159711110Y-101228284D01*
X159635664Y-101214930D01*
X159568366Y-101185425D01*
X159543428Y-101169012D01*
X159515951Y-101147973D01*
X159503414Y-101134129D01*
X159504124Y-101128417D01*
X159518158Y-101108955D01*
X159544533Y-101085376D01*
X159590240Y-101050513D01*
X159643799Y-101077262D01*
X159658282Y-101083882D01*
X159700916Y-101098273D01*
X159736649Y-101104010D01*
X159762998Y-101099282D01*
X159804347Y-101076514D01*
X159839104Y-101041170D01*
X159858983Y-101000273D01*
X159867083Y-100965693D01*
X159487129Y-100965693D01*
X159487199Y-100899679D01*
X159487774Y-100878757D01*
X159491972Y-100833862D01*
X159625445Y-100833862D01*
X159625690Y-100836434D01*
X159632604Y-100844443D01*
X159652141Y-100849364D01*
X159688467Y-100851843D01*
X159745748Y-100852525D01*
X159764575Y-100852517D01*
X159813470Y-100852065D01*
X159842863Y-100850113D01*
X159857115Y-100845558D01*
X159860582Y-100837299D01*
X159857625Y-100824233D01*
X159857173Y-100822752D01*
X159831699Y-100777285D01*
X159791539Y-100745981D01*
X159743651Y-100734327D01*
X159725949Y-100735259D01*
X159693094Y-100746408D01*
X159661575Y-100774763D01*
X159653085Y-100784789D01*
X159633336Y-100813423D01*
X159625445Y-100833862D01*
X159491972Y-100833862D01*
X159492512Y-100828091D01*
X159500459Y-100786166D01*
X159509168Y-100762696D01*
X159539790Y-100711646D01*
X159580799Y-100665283D01*
X159624168Y-100633514D01*
X159636699Y-100627614D01*
X159709661Y-100608046D01*
X159784168Y-100610109D01*
X159854217Y-100632931D01*
X159913807Y-100675639D01*
X159946038Y-100715025D01*
X159972392Y-100770510D01*
X159986482Y-100837299D01*
X159987022Y-100839861D01*
G37*
G04 #@! TD.AperFunction*
X157241589Y-101560417D02*
X157188589Y-101573290D01*
X157173269Y-101580110D01*
X157143572Y-101597974D01*
X157120780Y-101618093D01*
X157103917Y-101643962D01*
X157092002Y-101679073D01*
X157084058Y-101726920D01*
X157079106Y-101790996D01*
X157076169Y-101874794D01*
X157075053Y-101930768D01*
X157070948Y-102172822D01*
X157141068Y-102172822D01*
X157183607Y-102171038D01*
X157205524Y-102164942D01*
X157211188Y-102154706D01*
X157214179Y-102143637D01*
X157227549Y-102145754D01*
X157245767Y-102154629D01*
X157291376Y-102168233D01*
X157349993Y-102171899D01*
X157411646Y-102165903D01*
X157466362Y-102150521D01*
X157471270Y-102148386D01*
X157521277Y-102113255D01*
X157554244Y-102064419D01*
X157569413Y-102007333D01*
X157568254Y-101986824D01*
X157444492Y-101986824D01*
X157433587Y-102014425D01*
X157401255Y-102034204D01*
X157349090Y-102044819D01*
X157321213Y-102046228D01*
X157274753Y-102042620D01*
X157243871Y-102028597D01*
X157236336Y-102021931D01*
X157215924Y-101985666D01*
X157211188Y-101952773D01*
X157211188Y-101908763D01*
X157272487Y-101908763D01*
X157343744Y-101912395D01*
X157393724Y-101923818D01*
X157425304Y-101943824D01*
X157432374Y-101952743D01*
X157444492Y-101986824D01*
X157568254Y-101986824D01*
X157566029Y-101947456D01*
X157543337Y-101890244D01*
X157512376Y-101851580D01*
X157493624Y-101834864D01*
X157475267Y-101823878D01*
X157451381Y-101817180D01*
X157416043Y-101813326D01*
X157363331Y-101810873D01*
X157342423Y-101810168D01*
X157211188Y-101805879D01*
X157211380Y-101766158D01*
X157216463Y-101724405D01*
X157234838Y-101699158D01*
X157271961Y-101683030D01*
X157272957Y-101682742D01*
X157325590Y-101676400D01*
X157377094Y-101684684D01*
X157415370Y-101704827D01*
X157430728Y-101714773D01*
X157447270Y-101713397D01*
X157472725Y-101698987D01*
X157487672Y-101688817D01*
X157516909Y-101667088D01*
X157535020Y-101650800D01*
X157537926Y-101646137D01*
X157525960Y-101622005D01*
X157490604Y-101593185D01*
X157475247Y-101583461D01*
X157431099Y-101566714D01*
X157371602Y-101557227D01*
X157305513Y-101555095D01*
X157241589Y-101560417D01*
G04 #@! TA.AperFunction,EtchedComponent*
G36*
X157569413Y-102007333D02*
G01*
X157554244Y-102064419D01*
X157521277Y-102113255D01*
X157471270Y-102148386D01*
X157466362Y-102150521D01*
X157411646Y-102165903D01*
X157349993Y-102171899D01*
X157291376Y-102168233D01*
X157245767Y-102154629D01*
X157227549Y-102145754D01*
X157214179Y-102143637D01*
X157211188Y-102154706D01*
X157205524Y-102164942D01*
X157183607Y-102171038D01*
X157141068Y-102172822D01*
X157070948Y-102172822D01*
X157075053Y-101930768D01*
X157075492Y-101908763D01*
X157211188Y-101908763D01*
X157211188Y-101952773D01*
X157215924Y-101985666D01*
X157236336Y-102021931D01*
X157243871Y-102028597D01*
X157274753Y-102042620D01*
X157321213Y-102046228D01*
X157349090Y-102044819D01*
X157401255Y-102034204D01*
X157433587Y-102014425D01*
X157444492Y-101986824D01*
X157432374Y-101952743D01*
X157425304Y-101943824D01*
X157393724Y-101923818D01*
X157343744Y-101912395D01*
X157272487Y-101908763D01*
X157211188Y-101908763D01*
X157075492Y-101908763D01*
X157076169Y-101874794D01*
X157079106Y-101790996D01*
X157084058Y-101726920D01*
X157092002Y-101679073D01*
X157103917Y-101643962D01*
X157120780Y-101618093D01*
X157143572Y-101597974D01*
X157173269Y-101580110D01*
X157188589Y-101573290D01*
X157241589Y-101560417D01*
X157305513Y-101555095D01*
X157371602Y-101557227D01*
X157431099Y-101566714D01*
X157475247Y-101583461D01*
X157490604Y-101593185D01*
X157525960Y-101622005D01*
X157537926Y-101646137D01*
X157535020Y-101650800D01*
X157516909Y-101667088D01*
X157487672Y-101688817D01*
X157472725Y-101698987D01*
X157447270Y-101713397D01*
X157430728Y-101714773D01*
X157415370Y-101704827D01*
X157377094Y-101684684D01*
X157325590Y-101676400D01*
X157272957Y-101682742D01*
X157271961Y-101683030D01*
X157234838Y-101699158D01*
X157216463Y-101724405D01*
X157211380Y-101766158D01*
X157211188Y-101805879D01*
X157342423Y-101810168D01*
X157363331Y-101810873D01*
X157416043Y-101813326D01*
X157451381Y-101817180D01*
X157475267Y-101823878D01*
X157493624Y-101834864D01*
X157512376Y-101851580D01*
X157543337Y-101890244D01*
X157566029Y-101947456D01*
X157568254Y-101986824D01*
X157569413Y-102007333D01*
G37*
G04 #@! TD.AperFunction*
X159664210Y-101561555D02*
X159605055Y-101577339D01*
X159560023Y-101605948D01*
X159528246Y-101643419D01*
X159518366Y-101659411D01*
X159511073Y-101676163D01*
X159505974Y-101697592D01*
X159502679Y-101727616D01*
X159500797Y-101770154D01*
X159499937Y-101829122D01*
X159499707Y-101908440D01*
X159499703Y-101929484D01*
X159499703Y-102172822D01*
X159560059Y-102172822D01*
X159598557Y-102170126D01*
X159627023Y-102163295D01*
X159634155Y-102159083D01*
X159653652Y-102151813D01*
X159673566Y-102159083D01*
X159706353Y-102168160D01*
X159753978Y-102171813D01*
X159806764Y-102170228D01*
X159855036Y-102163589D01*
X159883218Y-102155072D01*
X159937753Y-102120063D01*
X159971835Y-102071479D01*
X159987157Y-102006882D01*
X159987299Y-102005223D01*
X159985955Y-101976566D01*
X159864356Y-101976566D01*
X159853726Y-102009161D01*
X159836410Y-102027505D01*
X159801652Y-102041379D01*
X159755773Y-102046917D01*
X159708988Y-102044191D01*
X159671514Y-102033274D01*
X159661015Y-102026269D01*
X159642668Y-101993904D01*
X159638020Y-101957111D01*
X159638020Y-101908763D01*
X159707582Y-101908763D01*
X159773667Y-101913850D01*
X159823764Y-101928263D01*
X159854929Y-101950729D01*
X159864356Y-101976566D01*
X159985955Y-101976566D01*
X159983987Y-101934647D01*
X159960710Y-101878845D01*
X159916948Y-101836647D01*
X159910899Y-101832808D01*
X159884907Y-101820309D01*
X159852735Y-101812740D01*
X159807760Y-101809061D01*
X159754331Y-101808216D01*
X159638020Y-101808169D01*
X159638020Y-101759411D01*
X159642953Y-101721581D01*
X159655543Y-101696236D01*
X159657017Y-101694887D01*
X159685034Y-101683800D01*
X159727326Y-101679503D01*
X159774064Y-101681615D01*
X159815418Y-101689756D01*
X159839957Y-101701965D01*
X159853253Y-101711746D01*
X159867294Y-101713613D01*
X159886671Y-101705600D01*
X159915976Y-101685739D01*
X159959803Y-101652063D01*
X159963825Y-101648909D01*
X159961764Y-101637236D01*
X159944568Y-101617822D01*
X159918433Y-101596248D01*
X159889552Y-101578096D01*
X159880478Y-101573809D01*
X159847380Y-101565256D01*
X159798880Y-101559155D01*
X159744695Y-101556708D01*
X159742161Y-101556703D01*
X159664210Y-101561555D01*
G04 #@! TA.AperFunction,EtchedComponent*
G36*
X159987299Y-102005223D02*
G01*
X159987157Y-102006882D01*
X159971835Y-102071479D01*
X159937753Y-102120063D01*
X159883218Y-102155072D01*
X159855036Y-102163589D01*
X159806764Y-102170228D01*
X159753978Y-102171813D01*
X159706353Y-102168160D01*
X159673566Y-102159083D01*
X159653652Y-102151813D01*
X159634155Y-102159083D01*
X159627023Y-102163295D01*
X159598557Y-102170126D01*
X159560059Y-102172822D01*
X159499703Y-102172822D01*
X159499703Y-101929484D01*
X159499707Y-101908763D01*
X159638020Y-101908763D01*
X159638020Y-101957111D01*
X159642668Y-101993904D01*
X159661015Y-102026269D01*
X159671514Y-102033274D01*
X159708988Y-102044191D01*
X159755773Y-102046917D01*
X159801652Y-102041379D01*
X159836410Y-102027505D01*
X159853726Y-102009161D01*
X159864356Y-101976566D01*
X159854929Y-101950729D01*
X159823764Y-101928263D01*
X159773667Y-101913850D01*
X159707582Y-101908763D01*
X159638020Y-101908763D01*
X159499707Y-101908763D01*
X159499707Y-101908440D01*
X159499937Y-101829122D01*
X159500797Y-101770154D01*
X159502679Y-101727616D01*
X159505974Y-101697592D01*
X159511073Y-101676163D01*
X159518366Y-101659411D01*
X159528246Y-101643419D01*
X159560023Y-101605948D01*
X159605055Y-101577339D01*
X159664210Y-101561555D01*
X159742161Y-101556703D01*
X159744695Y-101556708D01*
X159798880Y-101559155D01*
X159847380Y-101565256D01*
X159880478Y-101573809D01*
X159889552Y-101578096D01*
X159918433Y-101596248D01*
X159944568Y-101617822D01*
X159961764Y-101637236D01*
X159963825Y-101648909D01*
X159959803Y-101652063D01*
X159915976Y-101685739D01*
X159886671Y-101705600D01*
X159867294Y-101713613D01*
X159853253Y-101711746D01*
X159839957Y-101701965D01*
X159815418Y-101689756D01*
X159774064Y-101681615D01*
X159727326Y-101679503D01*
X159685034Y-101683800D01*
X159657017Y-101694887D01*
X159655543Y-101696236D01*
X159642953Y-101721581D01*
X159638020Y-101759411D01*
X159638020Y-101808169D01*
X159754331Y-101808216D01*
X159807760Y-101809061D01*
X159852735Y-101812740D01*
X159884907Y-101820309D01*
X159910899Y-101832808D01*
X159916948Y-101836647D01*
X159960710Y-101878845D01*
X159983987Y-101934647D01*
X159985955Y-101976566D01*
X159987299Y-102005223D01*
G37*
G04 #@! TD.AperFunction*
X160188759Y-100624184D02*
X160162247Y-100637282D01*
X160129553Y-100660106D01*
X160105725Y-100684996D01*
X160089406Y-100716249D01*
X160079240Y-100758166D01*
X160073872Y-100815044D01*
X160071944Y-100891184D01*
X160071831Y-100923917D01*
X160072161Y-100995656D01*
X160073527Y-101046927D01*
X160076500Y-101082404D01*
X160081649Y-101106763D01*
X160089543Y-101124680D01*
X160097757Y-101136902D01*
X160150187Y-101188905D01*
X160211930Y-101220184D01*
X160278536Y-101229592D01*
X160345558Y-101215980D01*
X160366792Y-101206354D01*
X160417624Y-101179859D01*
X160417624Y-101595052D01*
X160380525Y-101575868D01*
X160331643Y-101561025D01*
X160271561Y-101557222D01*
X160211564Y-101564243D01*
X160166256Y-101580013D01*
X160128675Y-101610047D01*
X160096564Y-101653024D01*
X160094150Y-101657436D01*
X160083967Y-101678221D01*
X160076530Y-101699170D01*
X160071411Y-101724548D01*
X160068181Y-101758618D01*
X160066413Y-101805641D01*
X160065677Y-101869882D01*
X160065544Y-101942176D01*
X160065544Y-102172822D01*
X160203861Y-102172822D01*
X160203861Y-101747533D01*
X160242549Y-101714979D01*
X160282738Y-101688940D01*
X160320797Y-101684205D01*
X160359066Y-101696389D01*
X160379462Y-101708320D01*
X160394642Y-101725313D01*
X160405438Y-101750995D01*
X160412683Y-101788991D01*
X160417208Y-101842926D01*
X160419844Y-101916425D01*
X160420772Y-101965347D01*
X160423911Y-102166535D01*
X160489926Y-102170336D01*
X160555940Y-102174136D01*
X160555940Y-100925650D01*
X160417624Y-100925650D01*
X160414097Y-100995254D01*
X160402215Y-101043569D01*
X160380020Y-101073631D01*
X160345559Y-101088471D01*
X160310742Y-101091436D01*
X160271329Y-101088028D01*
X160245171Y-101074617D01*
X160228814Y-101056896D01*
X160215937Y-101037835D01*
X160208272Y-101016601D01*
X160204861Y-100986849D01*
X160204749Y-100942236D01*
X160205897Y-100904880D01*
X160208532Y-100848604D01*
X160212456Y-100811658D01*
X160219063Y-100788223D01*
X160229749Y-100772480D01*
X160239833Y-100763380D01*
X160281970Y-100743537D01*
X160331840Y-100740332D01*
X160360476Y-100747168D01*
X160388828Y-100771464D01*
X160407609Y-100818728D01*
X160416712Y-100888624D01*
X160417624Y-100925650D01*
X160555940Y-100925650D01*
X160555940Y-100613614D01*
X160486782Y-100613614D01*
X160445260Y-100615256D01*
X160423838Y-100621087D01*
X160417626Y-100632461D01*
X160417624Y-100632798D01*
X160414742Y-100643938D01*
X160402030Y-100642673D01*
X160376757Y-100630433D01*
X160317869Y-100611707D01*
X160251615Y-100609739D01*
X160188759Y-100624184D01*
G04 #@! TA.AperFunction,EtchedComponent*
G36*
X160555940Y-102174136D02*
G01*
X160489926Y-102170336D01*
X160423911Y-102166535D01*
X160420772Y-101965347D01*
X160419844Y-101916425D01*
X160417208Y-101842926D01*
X160412683Y-101788991D01*
X160405438Y-101750995D01*
X160394642Y-101725313D01*
X160379462Y-101708320D01*
X160359066Y-101696389D01*
X160320797Y-101684205D01*
X160282738Y-101688940D01*
X160242549Y-101714979D01*
X160203861Y-101747533D01*
X160203861Y-102172822D01*
X160065544Y-102172822D01*
X160065544Y-101942176D01*
X160065677Y-101869882D01*
X160066413Y-101805641D01*
X160068181Y-101758618D01*
X160071411Y-101724548D01*
X160076530Y-101699170D01*
X160083967Y-101678221D01*
X160094150Y-101657436D01*
X160096564Y-101653024D01*
X160128675Y-101610047D01*
X160166256Y-101580013D01*
X160211564Y-101564243D01*
X160271561Y-101557222D01*
X160331643Y-101561025D01*
X160380525Y-101575868D01*
X160417624Y-101595052D01*
X160417624Y-101179859D01*
X160366792Y-101206354D01*
X160345558Y-101215980D01*
X160278536Y-101229592D01*
X160211930Y-101220184D01*
X160150187Y-101188905D01*
X160097757Y-101136902D01*
X160089543Y-101124680D01*
X160081649Y-101106763D01*
X160076500Y-101082404D01*
X160073527Y-101046927D01*
X160072161Y-100995656D01*
X160071915Y-100942236D01*
X160204749Y-100942236D01*
X160204861Y-100986849D01*
X160208272Y-101016601D01*
X160215937Y-101037835D01*
X160228814Y-101056896D01*
X160245171Y-101074617D01*
X160271329Y-101088028D01*
X160310742Y-101091436D01*
X160345559Y-101088471D01*
X160380020Y-101073631D01*
X160402215Y-101043569D01*
X160414097Y-100995254D01*
X160417624Y-100925650D01*
X160416712Y-100888624D01*
X160407609Y-100818728D01*
X160388828Y-100771464D01*
X160360476Y-100747168D01*
X160331840Y-100740332D01*
X160281970Y-100743537D01*
X160239833Y-100763380D01*
X160229749Y-100772480D01*
X160219063Y-100788223D01*
X160212456Y-100811658D01*
X160208532Y-100848604D01*
X160205897Y-100904880D01*
X160204749Y-100942236D01*
X160071915Y-100942236D01*
X160071831Y-100923917D01*
X160071944Y-100891184D01*
X160073872Y-100815044D01*
X160079240Y-100758166D01*
X160089406Y-100716249D01*
X160105725Y-100684996D01*
X160129553Y-100660106D01*
X160162247Y-100637282D01*
X160188759Y-100624184D01*
X160251615Y-100609739D01*
X160317869Y-100611707D01*
X160376757Y-100630433D01*
X160402030Y-100642673D01*
X160414742Y-100643938D01*
X160417624Y-100632798D01*
X160417626Y-100632461D01*
X160423838Y-100621087D01*
X160445260Y-100615256D01*
X160486782Y-100613614D01*
X160555940Y-100613614D01*
X160555940Y-100925650D01*
X160555940Y-102174136D01*
G37*
G04 #@! TD.AperFunction*
X157903036Y-96445018D02*
X157846188Y-96746570D01*
X157426662Y-96919512D01*
X157175016Y-96748395D01*
X157104542Y-96700750D01*
X157040837Y-96658210D01*
X156986874Y-96622715D01*
X156945627Y-96596210D01*
X156920066Y-96580636D01*
X156913105Y-96577278D01*
X156900565Y-96585914D01*
X156873769Y-96609792D01*
X156835720Y-96645859D01*
X156789421Y-96691067D01*
X156737877Y-96742364D01*
X156684091Y-96796701D01*
X156631065Y-96851028D01*
X156581805Y-96902295D01*
X156539313Y-96947451D01*
X156506593Y-96983446D01*
X156486649Y-97007230D01*
X156481881Y-97015190D01*
X156488743Y-97029865D01*
X156507980Y-97062014D01*
X156537570Y-97108492D01*
X156575490Y-97166156D01*
X156619718Y-97231860D01*
X156645346Y-97269336D01*
X156692059Y-97337768D01*
X156733568Y-97399520D01*
X156767860Y-97451519D01*
X156792920Y-97490692D01*
X156806736Y-97513965D01*
X156808812Y-97518855D01*
X156804105Y-97532755D01*
X156791277Y-97565150D01*
X156772262Y-97611485D01*
X156748997Y-97667206D01*
X156723416Y-97727758D01*
X156697455Y-97788586D01*
X156673050Y-97845136D01*
X156652137Y-97892852D01*
X156636651Y-97927181D01*
X156628528Y-97943568D01*
X156628048Y-97944212D01*
X156615293Y-97947341D01*
X156581323Y-97954321D01*
X156529660Y-97964467D01*
X156463824Y-97977092D01*
X156387336Y-97991509D01*
X156342710Y-97999823D01*
X156260979Y-98015384D01*
X156187157Y-98030192D01*
X156124979Y-98043436D01*
X156078178Y-98054305D01*
X156050491Y-98061989D01*
X156044926Y-98064427D01*
X156039474Y-98080930D01*
X156035076Y-98118200D01*
X156031728Y-98171880D01*
X156029426Y-98237612D01*
X156028168Y-98311037D01*
X156027952Y-98387796D01*
X156028773Y-98463532D01*
X156030629Y-98533886D01*
X156033518Y-98594500D01*
X156037435Y-98641016D01*
X156042378Y-98669075D01*
X156045343Y-98674916D01*
X156063066Y-98681917D01*
X156100619Y-98691927D01*
X156153036Y-98703769D01*
X156215348Y-98716267D01*
X156237100Y-98720310D01*
X156341976Y-98739520D01*
X156424820Y-98754991D01*
X156488370Y-98767337D01*
X156535363Y-98777173D01*
X156568537Y-98785114D01*
X156590629Y-98791776D01*
X156604376Y-98797773D01*
X156612516Y-98803719D01*
X156613655Y-98804894D01*
X156625023Y-98823826D01*
X156642365Y-98860669D01*
X156663950Y-98910913D01*
X156688046Y-98970046D01*
X156712921Y-99033556D01*
X156736843Y-99096932D01*
X156758081Y-99155662D01*
X156774903Y-99205235D01*
X156785578Y-99241139D01*
X156788373Y-99258862D01*
X156788140Y-99259483D01*
X156778669Y-99273970D01*
X156757182Y-99305844D01*
X156725937Y-99351789D01*
X156687193Y-99408485D01*
X156643207Y-99472617D01*
X156630681Y-99490842D01*
X156586016Y-99556914D01*
X156546712Y-99617200D01*
X156514912Y-99668235D01*
X156492755Y-99706560D01*
X156482383Y-99728711D01*
X156481881Y-99731432D01*
X156490595Y-99745736D01*
X156514675Y-99774072D01*
X156551024Y-99813396D01*
X156596547Y-99860661D01*
X156648148Y-99912823D01*
X156702733Y-99966835D01*
X156757206Y-100019653D01*
X156808471Y-100068231D01*
X156853433Y-100109523D01*
X156888996Y-100140485D01*
X156912065Y-100158070D01*
X156918446Y-100160941D01*
X156933301Y-100154178D01*
X156963714Y-100135939D01*
X157004732Y-100109297D01*
X157036291Y-100087852D01*
X157093475Y-100048503D01*
X157161194Y-100002171D01*
X157229120Y-99955913D01*
X157265639Y-99931155D01*
X157389248Y-99847547D01*
X157493009Y-99903650D01*
X157540280Y-99928228D01*
X157580477Y-99947331D01*
X157607674Y-99958227D01*
X157614598Y-99959743D01*
X157622923Y-99948549D01*
X157639346Y-99916917D01*
X157662643Y-99867765D01*
X157691586Y-99804010D01*
X157724950Y-99728571D01*
X157761509Y-99644364D01*
X157800036Y-99554308D01*
X157839306Y-99461321D01*
X157878092Y-99368320D01*
X157915170Y-99278223D01*
X157949311Y-99193948D01*
X157979292Y-99118413D01*
X158003884Y-99054534D01*
X158021864Y-99005231D01*
X158032003Y-98973421D01*
X158033634Y-98962496D01*
X158020709Y-98948561D01*
X157992411Y-98925940D01*
X157954654Y-98899333D01*
X157951485Y-98897228D01*
X157853900Y-98819114D01*
X157775214Y-98727982D01*
X157716109Y-98626745D01*
X157677268Y-98518318D01*
X157659372Y-98405614D01*
X157663103Y-98291548D01*
X157689143Y-98179034D01*
X157738175Y-98070985D01*
X157752600Y-98047345D01*
X157827631Y-97951887D01*
X157916270Y-97875232D01*
X158015451Y-97817780D01*
X158122105Y-97779929D01*
X158233164Y-97762078D01*
X158345561Y-97764625D01*
X158456227Y-97787970D01*
X158562094Y-97832510D01*
X158660095Y-97898645D01*
X158690410Y-97925487D01*
X158767562Y-98009512D01*
X158823782Y-98097966D01*
X158862347Y-98197115D01*
X158883826Y-98295303D01*
X158889128Y-98405697D01*
X158871448Y-98516640D01*
X158832581Y-98624381D01*
X158774323Y-98725169D01*
X158698469Y-98815256D01*
X158606817Y-98890892D01*
X158594772Y-98898864D01*
X158556611Y-98924974D01*
X158527601Y-98947595D01*
X158513732Y-98962039D01*
X158513531Y-98962496D01*
X158516508Y-98978121D01*
X158528311Y-99013582D01*
X158547714Y-99065962D01*
X158573488Y-99132345D01*
X158604409Y-99209814D01*
X158639249Y-99295450D01*
X158676783Y-99386337D01*
X158715783Y-99479559D01*
X158755023Y-99572197D01*
X158793276Y-99661335D01*
X158829317Y-99744055D01*
X158861917Y-99817441D01*
X158889852Y-99878575D01*
X158911895Y-99924541D01*
X158926818Y-99952421D01*
X158932828Y-99959743D01*
X158951191Y-99954041D01*
X158985552Y-99938749D01*
X159029984Y-99916599D01*
X159054417Y-99903650D01*
X159158178Y-99847547D01*
X159281787Y-99931155D01*
X159344886Y-99973987D01*
X159413970Y-100021122D01*
X159478707Y-100065503D01*
X159511134Y-100087852D01*
X159556741Y-100118477D01*
X159595360Y-100142747D01*
X159621952Y-100157587D01*
X159630590Y-100160724D01*
X159643161Y-100152261D01*
X159670984Y-100128636D01*
X159711361Y-100092302D01*
X159761595Y-100045711D01*
X159818988Y-99991317D01*
X159855286Y-99956392D01*
X159918790Y-99893996D01*
X159973673Y-99838188D01*
X160017714Y-99791354D01*
X160048695Y-99755882D01*
X160064398Y-99734161D01*
X160065905Y-99729752D01*
X160058914Y-99712985D01*
X160039594Y-99679082D01*
X160010091Y-99631476D01*
X159972545Y-99573599D01*
X159929100Y-99508884D01*
X159916745Y-99490842D01*
X159871727Y-99425267D01*
X159831340Y-99366228D01*
X159797840Y-99317042D01*
X159773486Y-99281028D01*
X159760536Y-99261502D01*
X159759285Y-99259483D01*
X159761156Y-99243922D01*
X159771087Y-99209709D01*
X159787347Y-99161355D01*
X159808205Y-99103371D01*
X159831927Y-99040270D01*
X159856784Y-98976563D01*
X159881042Y-98916761D01*
X159902971Y-98865376D01*
X159920838Y-98826919D01*
X159932913Y-98805902D01*
X159933771Y-98804894D01*
X159941154Y-98798888D01*
X159953625Y-98792948D01*
X159973920Y-98786460D01*
X160004778Y-98778809D01*
X160048934Y-98769380D01*
X160109126Y-98757559D01*
X160188093Y-98742729D01*
X160288570Y-98724277D01*
X160310325Y-98720310D01*
X160374802Y-98707853D01*
X160431011Y-98695666D01*
X160473987Y-98684926D01*
X160498760Y-98676809D01*
X160502082Y-98674916D01*
X160507556Y-98658138D01*
X160512006Y-98620645D01*
X160515428Y-98566794D01*
X160517819Y-98500944D01*
X160519177Y-98427453D01*
X160519499Y-98350680D01*
X160518781Y-98274983D01*
X160517021Y-98204720D01*
X160514216Y-98144250D01*
X160510362Y-98097930D01*
X160505457Y-98070119D01*
X160502500Y-98064427D01*
X160486037Y-98058686D01*
X160448551Y-98049345D01*
X160393775Y-98037215D01*
X160325445Y-98023107D01*
X160247294Y-98007830D01*
X160204716Y-97999823D01*
X160123929Y-97984721D01*
X160051887Y-97971040D01*
X159992111Y-97959467D01*
X159948121Y-97950687D01*
X159923439Y-97945387D01*
X159919377Y-97944212D01*
X159912511Y-97930965D01*
X159897998Y-97899057D01*
X159877771Y-97853047D01*
X159853766Y-97797492D01*
X159827918Y-97736953D01*
X159802160Y-97675986D01*
X159778427Y-97619151D01*
X159758654Y-97571006D01*
X159744776Y-97536110D01*
X159738726Y-97519021D01*
X159738614Y-97518274D01*
X159745472Y-97504793D01*
X159764698Y-97473770D01*
X159794272Y-97428289D01*
X159832173Y-97371432D01*
X159876380Y-97306283D01*
X159902079Y-97268862D01*
X159948907Y-97200247D01*
X159990499Y-97137952D01*
X160024825Y-97085129D01*
X160049857Y-97044927D01*
X160063565Y-97020500D01*
X160065544Y-97015024D01*
X160057034Y-97002278D01*
X160033507Y-96975063D01*
X159997968Y-96936428D01*
X159953423Y-96889423D01*
X159902877Y-96837095D01*
X159849336Y-96782495D01*
X159795805Y-96728670D01*
X159745289Y-96678670D01*
X159700794Y-96635543D01*
X159665325Y-96602339D01*
X159641887Y-96582106D01*
X159634046Y-96577278D01*
X159621280Y-96584067D01*
X159590744Y-96603142D01*
X159545410Y-96632561D01*
X159488244Y-96670381D01*
X159422216Y-96714661D01*
X159372410Y-96748395D01*
X159120764Y-96919512D01*
X158911001Y-96833041D01*
X158701237Y-96746570D01*
X158644389Y-96445018D01*
X158587540Y-96143466D01*
X157959885Y-96143466D01*
X157903036Y-96445018D01*
G04 #@! TA.AperFunction,EtchedComponent*
G36*
X158644389Y-96445018D02*
G01*
X158701237Y-96746570D01*
X158911001Y-96833041D01*
X159120764Y-96919512D01*
X159372410Y-96748395D01*
X159422216Y-96714661D01*
X159488244Y-96670381D01*
X159545410Y-96632561D01*
X159590744Y-96603142D01*
X159621280Y-96584067D01*
X159634046Y-96577278D01*
X159641887Y-96582106D01*
X159665325Y-96602339D01*
X159700794Y-96635543D01*
X159745289Y-96678670D01*
X159795805Y-96728670D01*
X159849336Y-96782495D01*
X159902877Y-96837095D01*
X159953423Y-96889423D01*
X159997968Y-96936428D01*
X160033507Y-96975063D01*
X160057034Y-97002278D01*
X160065544Y-97015024D01*
X160063565Y-97020500D01*
X160049857Y-97044927D01*
X160024825Y-97085129D01*
X159990499Y-97137952D01*
X159948907Y-97200247D01*
X159902079Y-97268862D01*
X159876380Y-97306283D01*
X159832173Y-97371432D01*
X159794272Y-97428289D01*
X159764698Y-97473770D01*
X159745472Y-97504793D01*
X159738614Y-97518274D01*
X159738726Y-97519021D01*
X159744776Y-97536110D01*
X159758654Y-97571006D01*
X159778427Y-97619151D01*
X159802160Y-97675986D01*
X159827918Y-97736953D01*
X159853766Y-97797492D01*
X159877771Y-97853047D01*
X159897998Y-97899057D01*
X159912511Y-97930965D01*
X159919377Y-97944212D01*
X159923439Y-97945387D01*
X159948121Y-97950687D01*
X159992111Y-97959467D01*
X160051887Y-97971040D01*
X160123929Y-97984721D01*
X160204716Y-97999823D01*
X160247294Y-98007830D01*
X160325445Y-98023107D01*
X160393775Y-98037215D01*
X160448551Y-98049345D01*
X160486037Y-98058686D01*
X160502500Y-98064427D01*
X160505457Y-98070119D01*
X160510362Y-98097930D01*
X160514216Y-98144250D01*
X160517021Y-98204720D01*
X160518781Y-98274983D01*
X160519499Y-98350680D01*
X160519177Y-98427453D01*
X160517819Y-98500944D01*
X160515428Y-98566794D01*
X160512006Y-98620645D01*
X160507556Y-98658138D01*
X160502082Y-98674916D01*
X160498760Y-98676809D01*
X160473987Y-98684926D01*
X160431011Y-98695666D01*
X160374802Y-98707853D01*
X160310325Y-98720310D01*
X160288570Y-98724277D01*
X160188093Y-98742729D01*
X160109126Y-98757559D01*
X160048934Y-98769380D01*
X160004778Y-98778809D01*
X159973920Y-98786460D01*
X159953625Y-98792948D01*
X159941154Y-98798888D01*
X159933771Y-98804894D01*
X159932913Y-98805902D01*
X159920838Y-98826919D01*
X159902971Y-98865376D01*
X159881042Y-98916761D01*
X159856784Y-98976563D01*
X159831927Y-99040270D01*
X159808205Y-99103371D01*
X159787347Y-99161355D01*
X159771087Y-99209709D01*
X159761156Y-99243922D01*
X159759285Y-99259483D01*
X159760536Y-99261502D01*
X159773486Y-99281028D01*
X159797840Y-99317042D01*
X159831340Y-99366228D01*
X159871727Y-99425267D01*
X159916745Y-99490842D01*
X159929100Y-99508884D01*
X159972545Y-99573599D01*
X160010091Y-99631476D01*
X160039594Y-99679082D01*
X160058914Y-99712985D01*
X160065905Y-99729752D01*
X160064398Y-99734161D01*
X160048695Y-99755882D01*
X160017714Y-99791354D01*
X159973673Y-99838188D01*
X159918790Y-99893996D01*
X159855286Y-99956392D01*
X159818988Y-99991317D01*
X159761595Y-100045711D01*
X159711361Y-100092302D01*
X159670984Y-100128636D01*
X159643161Y-100152261D01*
X159630590Y-100160724D01*
X159621952Y-100157587D01*
X159595360Y-100142747D01*
X159556741Y-100118477D01*
X159511134Y-100087852D01*
X159478707Y-100065503D01*
X159413970Y-100021122D01*
X159344886Y-99973987D01*
X159281787Y-99931155D01*
X159158178Y-99847547D01*
X159054417Y-99903650D01*
X159029984Y-99916599D01*
X158985552Y-99938749D01*
X158951191Y-99954041D01*
X158932828Y-99959743D01*
X158926818Y-99952421D01*
X158911895Y-99924541D01*
X158889852Y-99878575D01*
X158861917Y-99817441D01*
X158829317Y-99744055D01*
X158793276Y-99661335D01*
X158755023Y-99572197D01*
X158715783Y-99479559D01*
X158676783Y-99386337D01*
X158639249Y-99295450D01*
X158604409Y-99209814D01*
X158573488Y-99132345D01*
X158547714Y-99065962D01*
X158528311Y-99013582D01*
X158516508Y-98978121D01*
X158513531Y-98962496D01*
X158513732Y-98962039D01*
X158527601Y-98947595D01*
X158556611Y-98924974D01*
X158594772Y-98898864D01*
X158606817Y-98890892D01*
X158698469Y-98815256D01*
X158774323Y-98725169D01*
X158832581Y-98624381D01*
X158871448Y-98516640D01*
X158889128Y-98405697D01*
X158883826Y-98295303D01*
X158862347Y-98197115D01*
X158823782Y-98097966D01*
X158767562Y-98009512D01*
X158690410Y-97925487D01*
X158660095Y-97898645D01*
X158562094Y-97832510D01*
X158456227Y-97787970D01*
X158345561Y-97764625D01*
X158233164Y-97762078D01*
X158122105Y-97779929D01*
X158015451Y-97817780D01*
X157916270Y-97875232D01*
X157827631Y-97951887D01*
X157752600Y-98047345D01*
X157738175Y-98070985D01*
X157689143Y-98179034D01*
X157663103Y-98291548D01*
X157659372Y-98405614D01*
X157677268Y-98518318D01*
X157716109Y-98626745D01*
X157775214Y-98727982D01*
X157853900Y-98819114D01*
X157951485Y-98897228D01*
X157954654Y-98899333D01*
X157992411Y-98925940D01*
X158020709Y-98948561D01*
X158033634Y-98962496D01*
X158032003Y-98973421D01*
X158021864Y-99005231D01*
X158003884Y-99054534D01*
X157979292Y-99118413D01*
X157949311Y-99193948D01*
X157915170Y-99278223D01*
X157878092Y-99368320D01*
X157839306Y-99461321D01*
X157800036Y-99554308D01*
X157761509Y-99644364D01*
X157724950Y-99728571D01*
X157691586Y-99804010D01*
X157662643Y-99867765D01*
X157639346Y-99916917D01*
X157622923Y-99948549D01*
X157614598Y-99959743D01*
X157607674Y-99958227D01*
X157580477Y-99947331D01*
X157540280Y-99928228D01*
X157493009Y-99903650D01*
X157389248Y-99847547D01*
X157265639Y-99931155D01*
X157229120Y-99955913D01*
X157161194Y-100002171D01*
X157093475Y-100048503D01*
X157036291Y-100087852D01*
X157004732Y-100109297D01*
X156963714Y-100135939D01*
X156933301Y-100154178D01*
X156918446Y-100160941D01*
X156912065Y-100158070D01*
X156888996Y-100140485D01*
X156853433Y-100109523D01*
X156808471Y-100068231D01*
X156757206Y-100019653D01*
X156702733Y-99966835D01*
X156648148Y-99912823D01*
X156596547Y-99860661D01*
X156551024Y-99813396D01*
X156514675Y-99774072D01*
X156490595Y-99745736D01*
X156481881Y-99731432D01*
X156482383Y-99728711D01*
X156492755Y-99706560D01*
X156514912Y-99668235D01*
X156546712Y-99617200D01*
X156586016Y-99556914D01*
X156630681Y-99490842D01*
X156643207Y-99472617D01*
X156687193Y-99408485D01*
X156725937Y-99351789D01*
X156757182Y-99305844D01*
X156778669Y-99273970D01*
X156788140Y-99259483D01*
X156788373Y-99258862D01*
X156785578Y-99241139D01*
X156774903Y-99205235D01*
X156758081Y-99155662D01*
X156736843Y-99096932D01*
X156712921Y-99033556D01*
X156688046Y-98970046D01*
X156663950Y-98910913D01*
X156642365Y-98860669D01*
X156625023Y-98823826D01*
X156613655Y-98804894D01*
X156612516Y-98803719D01*
X156604376Y-98797773D01*
X156590629Y-98791776D01*
X156568537Y-98785114D01*
X156535363Y-98777173D01*
X156488370Y-98767337D01*
X156424820Y-98754991D01*
X156341976Y-98739520D01*
X156237100Y-98720310D01*
X156215348Y-98716267D01*
X156153036Y-98703769D01*
X156100619Y-98691927D01*
X156063066Y-98681917D01*
X156045343Y-98674916D01*
X156042378Y-98669075D01*
X156037435Y-98641016D01*
X156033518Y-98594500D01*
X156030629Y-98533886D01*
X156028773Y-98463532D01*
X156027952Y-98387796D01*
X156028168Y-98311037D01*
X156029426Y-98237612D01*
X156031728Y-98171880D01*
X156035076Y-98118200D01*
X156039474Y-98080930D01*
X156044926Y-98064427D01*
X156050491Y-98061989D01*
X156078178Y-98054305D01*
X156124979Y-98043436D01*
X156187157Y-98030192D01*
X156260979Y-98015384D01*
X156342710Y-97999823D01*
X156387336Y-97991509D01*
X156463824Y-97977092D01*
X156529660Y-97964467D01*
X156581323Y-97954321D01*
X156615293Y-97947341D01*
X156628048Y-97944212D01*
X156628528Y-97943568D01*
X156636651Y-97927181D01*
X156652137Y-97892852D01*
X156673050Y-97845136D01*
X156697455Y-97788586D01*
X156723416Y-97727758D01*
X156748997Y-97667206D01*
X156772262Y-97611485D01*
X156791277Y-97565150D01*
X156804105Y-97532755D01*
X156808812Y-97518855D01*
X156806736Y-97513965D01*
X156792920Y-97490692D01*
X156767860Y-97451519D01*
X156733568Y-97399520D01*
X156692059Y-97337768D01*
X156645346Y-97269336D01*
X156619718Y-97231860D01*
X156575490Y-97166156D01*
X156537570Y-97108492D01*
X156507980Y-97062014D01*
X156488743Y-97029865D01*
X156481881Y-97015190D01*
X156486649Y-97007230D01*
X156506593Y-96983446D01*
X156539313Y-96947451D01*
X156581805Y-96902295D01*
X156631065Y-96851028D01*
X156684091Y-96796701D01*
X156737877Y-96742364D01*
X156789421Y-96691067D01*
X156835720Y-96645859D01*
X156873769Y-96609792D01*
X156900565Y-96585914D01*
X156913105Y-96577278D01*
X156920066Y-96580636D01*
X156945627Y-96596210D01*
X156986874Y-96622715D01*
X157040837Y-96658210D01*
X157104542Y-96700750D01*
X157175016Y-96748395D01*
X157426662Y-96919512D01*
X157846188Y-96746570D01*
X157903036Y-96445018D01*
X157959885Y-96143466D01*
X158587540Y-96143466D01*
X158644389Y-96445018D01*
G37*
G04 #@! TD.AperFunction*
G04 #@! TO.C,G\u002A\u002A\u002A*
X156154337Y-85026933D02*
X156132045Y-85027506D01*
X156113002Y-85029332D01*
X156096358Y-85032609D01*
X156081262Y-85037534D01*
X156066865Y-85044308D01*
X156058124Y-85049394D01*
X156039942Y-85063133D01*
X156024424Y-85080108D01*
X156011665Y-85100185D01*
X156001763Y-85123233D01*
X156000031Y-85128517D01*
X155997980Y-85135717D01*
X155996576Y-85142533D01*
X155995703Y-85150055D01*
X155995246Y-85159367D01*
X155995090Y-85171558D01*
X155995084Y-85175084D01*
X155995380Y-85192011D01*
X155996443Y-85205936D01*
X155998527Y-85218055D01*
X156001885Y-85229569D01*
X156006772Y-85241674D01*
X156011119Y-85250900D01*
X156023201Y-85270892D01*
X156038415Y-85288088D01*
X156056602Y-85302350D01*
X156077601Y-85313542D01*
X156090308Y-85318345D01*
X156097030Y-85320424D01*
X156103276Y-85321957D01*
X156109950Y-85323052D01*
X156117958Y-85323817D01*
X156128203Y-85324361D01*
X156141592Y-85324792D01*
X156144812Y-85324877D01*
X156182383Y-85325839D01*
X156182383Y-85026917D01*
X156154337Y-85026933D01*
G04 #@! TA.AperFunction,EtchedComponent*
G36*
X156182383Y-85325839D02*
G01*
X156144812Y-85324877D01*
X156141592Y-85324792D01*
X156128203Y-85324361D01*
X156117958Y-85323817D01*
X156109950Y-85323052D01*
X156103276Y-85321957D01*
X156097030Y-85320424D01*
X156090308Y-85318345D01*
X156077601Y-85313542D01*
X156056602Y-85302350D01*
X156038415Y-85288088D01*
X156023201Y-85270892D01*
X156011119Y-85250900D01*
X156006772Y-85241674D01*
X156001885Y-85229569D01*
X155998527Y-85218055D01*
X155996443Y-85205936D01*
X155995380Y-85192011D01*
X155995084Y-85175084D01*
X155995090Y-85171558D01*
X155995246Y-85159367D01*
X155995703Y-85150055D01*
X155996576Y-85142533D01*
X155997980Y-85135717D01*
X156000031Y-85128517D01*
X156001763Y-85123233D01*
X156011665Y-85100185D01*
X156024424Y-85080108D01*
X156039942Y-85063133D01*
X156058124Y-85049394D01*
X156066865Y-85044308D01*
X156081262Y-85037534D01*
X156096358Y-85032609D01*
X156113002Y-85029332D01*
X156132045Y-85027506D01*
X156154337Y-85026933D01*
X156182383Y-85026917D01*
X156182383Y-85325839D01*
G37*
G04 #@! TD.AperFunction*
X155441096Y-86377998D02*
X155428137Y-86386253D01*
X155418421Y-86396352D01*
X155412034Y-86407739D01*
X155409058Y-86419856D01*
X155409577Y-86432148D01*
X155413677Y-86444055D01*
X155421440Y-86455023D01*
X155428515Y-86461402D01*
X155431529Y-86463708D01*
X155434329Y-86465730D01*
X155437198Y-86467489D01*
X155440419Y-86469002D01*
X155444275Y-86470287D01*
X155449050Y-86471363D01*
X155455025Y-86472248D01*
X155462486Y-86472961D01*
X155471714Y-86473520D01*
X155482992Y-86473942D01*
X155496605Y-86474247D01*
X155512834Y-86474453D01*
X155531963Y-86474578D01*
X155554276Y-86474641D01*
X155580055Y-86474659D01*
X155609583Y-86474651D01*
X155632963Y-86474640D01*
X155664194Y-86474623D01*
X155691480Y-86474597D01*
X155715108Y-86474554D01*
X155735366Y-86474490D01*
X155752542Y-86474396D01*
X155766923Y-86474267D01*
X155778798Y-86474097D01*
X155788454Y-86473878D01*
X155796179Y-86473605D01*
X155802261Y-86473270D01*
X155806988Y-86472868D01*
X155810647Y-86472392D01*
X155813526Y-86471836D01*
X155815913Y-86471192D01*
X155818015Y-86470485D01*
X155832538Y-86463625D01*
X155843432Y-86454721D01*
X155850871Y-86443591D01*
X155854674Y-86431919D01*
X155855394Y-86418606D01*
X155852103Y-86406086D01*
X155845001Y-86394697D01*
X155834287Y-86384775D01*
X155822852Y-86377926D01*
X155810908Y-86372058D01*
X155453191Y-86372058D01*
X155441096Y-86377998D01*
G04 #@! TA.AperFunction,EtchedComponent*
G36*
X155822852Y-86377926D02*
G01*
X155834287Y-86384775D01*
X155845001Y-86394697D01*
X155852103Y-86406086D01*
X155855394Y-86418606D01*
X155854674Y-86431919D01*
X155850871Y-86443591D01*
X155843432Y-86454721D01*
X155832538Y-86463625D01*
X155818015Y-86470485D01*
X155815913Y-86471192D01*
X155813526Y-86471836D01*
X155810647Y-86472392D01*
X155806988Y-86472868D01*
X155802261Y-86473270D01*
X155796179Y-86473605D01*
X155788454Y-86473878D01*
X155778798Y-86474097D01*
X155766923Y-86474267D01*
X155752542Y-86474396D01*
X155735366Y-86474490D01*
X155715108Y-86474554D01*
X155691480Y-86474597D01*
X155664194Y-86474623D01*
X155632963Y-86474640D01*
X155609583Y-86474651D01*
X155580055Y-86474659D01*
X155554276Y-86474641D01*
X155531963Y-86474578D01*
X155512834Y-86474453D01*
X155496605Y-86474247D01*
X155482992Y-86473942D01*
X155471714Y-86473520D01*
X155462486Y-86472961D01*
X155455025Y-86472248D01*
X155449050Y-86471363D01*
X155444275Y-86470287D01*
X155440419Y-86469002D01*
X155437198Y-86467489D01*
X155434329Y-86465730D01*
X155431529Y-86463708D01*
X155428515Y-86461402D01*
X155421440Y-86455023D01*
X155413677Y-86444055D01*
X155409577Y-86432148D01*
X155409058Y-86419856D01*
X155412034Y-86407739D01*
X155418421Y-86396352D01*
X155428137Y-86386253D01*
X155441096Y-86377998D01*
X155453191Y-86372058D01*
X155810908Y-86372058D01*
X155822852Y-86377926D01*
G37*
G04 #@! TD.AperFunction*
X155621975Y-84037340D02*
X155609526Y-84041916D01*
X155601614Y-84047236D01*
X155597447Y-84050802D01*
X155594072Y-84054241D01*
X155591405Y-84058028D01*
X155589363Y-84062637D01*
X155587861Y-84068543D01*
X155586817Y-84076220D01*
X155586145Y-84086142D01*
X155585764Y-84098783D01*
X155585587Y-84114618D01*
X155585533Y-84134121D01*
X155585530Y-84138316D01*
X155585483Y-84205391D01*
X155515104Y-84206050D01*
X155495939Y-84206239D01*
X155480528Y-84206431D01*
X155468392Y-84206659D01*
X155459052Y-84206954D01*
X155452029Y-84207349D01*
X155446845Y-84207877D01*
X155443020Y-84208570D01*
X155440075Y-84209460D01*
X155437532Y-84210580D01*
X155435956Y-84211398D01*
X155425005Y-84219267D01*
X155416324Y-84229528D01*
X155410764Y-84241094D01*
X155409819Y-84244714D01*
X155408690Y-84251521D01*
X155408300Y-84256888D01*
X155408491Y-84258730D01*
X155409644Y-84262981D01*
X155410768Y-84267746D01*
X155412888Y-84272402D01*
X155417098Y-84278564D01*
X155421823Y-84284155D01*
X155425971Y-84288423D01*
X155429956Y-84291897D01*
X155434252Y-84294659D01*
X155439330Y-84296790D01*
X155445666Y-84298373D01*
X155453731Y-84299488D01*
X155464000Y-84300216D01*
X155476945Y-84300640D01*
X155493040Y-84300840D01*
X155512758Y-84300898D01*
X155519192Y-84300900D01*
X155585483Y-84300900D01*
X155585483Y-84368718D01*
X155585502Y-84388659D01*
X155585607Y-84404849D01*
X155585877Y-84417769D01*
X155586386Y-84427902D01*
X155587211Y-84435729D01*
X155588428Y-84441733D01*
X155590113Y-84446395D01*
X155592342Y-84450198D01*
X155595191Y-84453622D01*
X155598737Y-84457151D01*
X155599577Y-84457950D01*
X155610181Y-84465238D01*
X155622741Y-84469392D01*
X155636233Y-84470286D01*
X155649634Y-84467793D01*
X155656505Y-84464978D01*
X155667483Y-84457222D01*
X155675327Y-84446687D01*
X155678674Y-84438282D01*
X155679191Y-84434398D01*
X155679660Y-84426867D01*
X155680065Y-84416277D01*
X155680388Y-84403215D01*
X155680614Y-84388267D01*
X155680724Y-84372020D01*
X155680733Y-84366002D01*
X155680733Y-84300900D01*
X155747024Y-84300900D01*
X155767889Y-84300860D01*
X155784989Y-84300693D01*
X155798793Y-84300327D01*
X155809770Y-84299692D01*
X155818388Y-84298717D01*
X155825115Y-84297331D01*
X155830420Y-84295463D01*
X155834772Y-84293042D01*
X155838639Y-84289997D01*
X155842274Y-84286477D01*
X155849079Y-84277204D01*
X155854027Y-84265952D01*
X155856331Y-84254625D01*
X155856405Y-84252410D01*
X155854344Y-84239655D01*
X155848548Y-84227840D01*
X155839512Y-84217739D01*
X155830159Y-84211346D01*
X155827642Y-84210083D01*
X155824997Y-84209066D01*
X155821745Y-84208263D01*
X155817407Y-84207644D01*
X155811506Y-84207174D01*
X155803562Y-84206823D01*
X155793097Y-84206559D01*
X155779633Y-84206349D01*
X155762691Y-84206161D01*
X155751112Y-84206050D01*
X155680733Y-84205391D01*
X155680687Y-84139375D01*
X155680654Y-84120668D01*
X155680569Y-84105699D01*
X155680404Y-84093972D01*
X155680133Y-84084992D01*
X155679729Y-84078263D01*
X155679167Y-84073290D01*
X155678420Y-84069578D01*
X155677460Y-84066630D01*
X155676712Y-84064892D01*
X155669190Y-84053227D01*
X155659228Y-84044469D01*
X155647553Y-84038787D01*
X155634893Y-84036354D01*
X155621975Y-84037340D01*
G04 #@! TA.AperFunction,EtchedComponent*
G36*
X155647553Y-84038787D02*
G01*
X155659228Y-84044469D01*
X155669190Y-84053227D01*
X155676712Y-84064892D01*
X155677460Y-84066630D01*
X155678420Y-84069578D01*
X155679167Y-84073290D01*
X155679729Y-84078263D01*
X155680133Y-84084992D01*
X155680404Y-84093972D01*
X155680569Y-84105699D01*
X155680654Y-84120668D01*
X155680687Y-84139375D01*
X155680733Y-84205391D01*
X155751112Y-84206050D01*
X155762691Y-84206161D01*
X155779633Y-84206349D01*
X155793097Y-84206559D01*
X155803562Y-84206823D01*
X155811506Y-84207174D01*
X155817407Y-84207644D01*
X155821745Y-84208263D01*
X155824997Y-84209066D01*
X155827642Y-84210083D01*
X155830159Y-84211346D01*
X155839512Y-84217739D01*
X155848548Y-84227840D01*
X155854344Y-84239655D01*
X155856405Y-84252410D01*
X155856331Y-84254625D01*
X155854027Y-84265952D01*
X155849079Y-84277204D01*
X155842274Y-84286477D01*
X155838639Y-84289997D01*
X155834772Y-84293042D01*
X155830420Y-84295463D01*
X155825115Y-84297331D01*
X155818388Y-84298717D01*
X155809770Y-84299692D01*
X155798793Y-84300327D01*
X155784989Y-84300693D01*
X155767889Y-84300860D01*
X155747024Y-84300900D01*
X155680733Y-84300900D01*
X155680733Y-84366002D01*
X155680724Y-84372020D01*
X155680614Y-84388267D01*
X155680388Y-84403215D01*
X155680065Y-84416277D01*
X155679660Y-84426867D01*
X155679191Y-84434398D01*
X155678674Y-84438282D01*
X155675327Y-84446687D01*
X155667483Y-84457222D01*
X155656505Y-84464978D01*
X155649634Y-84467793D01*
X155636233Y-84470286D01*
X155622741Y-84469392D01*
X155610181Y-84465238D01*
X155599577Y-84457950D01*
X155598737Y-84457151D01*
X155595191Y-84453622D01*
X155592342Y-84450198D01*
X155590113Y-84446395D01*
X155588428Y-84441733D01*
X155587211Y-84435729D01*
X155586386Y-84427902D01*
X155585877Y-84417769D01*
X155585607Y-84404849D01*
X155585502Y-84388659D01*
X155585483Y-84368718D01*
X155585483Y-84300900D01*
X155519192Y-84300900D01*
X155512758Y-84300898D01*
X155493040Y-84300840D01*
X155476945Y-84300640D01*
X155464000Y-84300216D01*
X155453731Y-84299488D01*
X155445666Y-84298373D01*
X155439330Y-84296790D01*
X155434252Y-84294659D01*
X155429956Y-84291897D01*
X155425971Y-84288423D01*
X155421823Y-84284155D01*
X155417098Y-84278564D01*
X155412888Y-84272402D01*
X155410768Y-84267746D01*
X155409644Y-84262981D01*
X155408491Y-84258730D01*
X155408300Y-84256888D01*
X155408690Y-84251521D01*
X155409819Y-84244714D01*
X155410764Y-84241094D01*
X155416324Y-84229528D01*
X155425005Y-84219267D01*
X155435956Y-84211398D01*
X155437532Y-84210580D01*
X155440075Y-84209460D01*
X155443020Y-84208570D01*
X155446845Y-84207877D01*
X155452029Y-84207349D01*
X155459052Y-84206954D01*
X155468392Y-84206659D01*
X155480528Y-84206431D01*
X155495939Y-84206239D01*
X155515104Y-84206050D01*
X155585483Y-84205391D01*
X155585530Y-84138316D01*
X155585533Y-84134121D01*
X155585587Y-84114618D01*
X155585764Y-84098783D01*
X155586145Y-84086142D01*
X155586817Y-84076220D01*
X155587861Y-84068543D01*
X155589363Y-84062637D01*
X155591405Y-84058028D01*
X155594072Y-84054241D01*
X155597447Y-84050802D01*
X155601614Y-84047236D01*
X155609526Y-84041916D01*
X155621975Y-84037340D01*
X155634893Y-84036354D01*
X155647553Y-84038787D01*
G37*
G04 #@! TD.AperFunction*
X156080298Y-82916160D02*
X156065762Y-82925390D01*
X156054217Y-82937441D01*
X156046397Y-82950307D01*
X156041625Y-82959992D01*
X156041088Y-83808228D01*
X156040551Y-84656463D01*
X155686501Y-84657011D01*
X155332452Y-84657558D01*
X155318118Y-84664615D01*
X155304238Y-84673510D01*
X155293395Y-84684746D01*
X155285832Y-84697778D01*
X155281793Y-84712058D01*
X155281522Y-84727038D01*
X155284503Y-84740108D01*
X155285903Y-84742700D01*
X155289473Y-84748741D01*
X155295131Y-84758096D01*
X155302793Y-84770632D01*
X155312375Y-84786215D01*
X155323793Y-84804710D01*
X155336965Y-84825984D01*
X155351806Y-84849902D01*
X155368234Y-84876331D01*
X155386163Y-84905136D01*
X155405512Y-84936182D01*
X155426195Y-84969337D01*
X155448131Y-85004466D01*
X155471234Y-85041435D01*
X155495422Y-85080109D01*
X155520610Y-85120355D01*
X155546716Y-85162038D01*
X155573656Y-85205025D01*
X155601346Y-85249182D01*
X155629703Y-85294373D01*
X155658642Y-85340466D01*
X155665434Y-85351279D01*
X155694441Y-85397462D01*
X155722865Y-85442722D01*
X155750624Y-85486930D01*
X155777635Y-85529952D01*
X155803816Y-85571658D01*
X155829084Y-85611917D01*
X155853358Y-85650597D01*
X155876554Y-85687567D01*
X155898591Y-85722695D01*
X155919386Y-85755850D01*
X155938857Y-85786901D01*
X155956921Y-85815716D01*
X155973496Y-85842164D01*
X155988500Y-85866114D01*
X156001849Y-85887433D01*
X156013463Y-85905992D01*
X156023258Y-85921657D01*
X156031152Y-85934299D01*
X156037062Y-85943785D01*
X156040907Y-85949985D01*
X156042604Y-85952766D01*
X156042683Y-85952914D01*
X156040602Y-85953026D01*
X156034499Y-85953142D01*
X156024586Y-85953259D01*
X156011074Y-85953377D01*
X155994176Y-85953495D01*
X155974103Y-85953613D01*
X155951067Y-85953728D01*
X155925278Y-85953841D01*
X155896950Y-85953951D01*
X155866293Y-85954056D01*
X155833520Y-85954155D01*
X155798842Y-85954249D01*
X155762470Y-85954335D01*
X155724616Y-85954414D01*
X155685493Y-85954483D01*
X155663271Y-85954518D01*
X155615314Y-85954580D01*
X155571406Y-85954625D01*
X155531360Y-85954663D01*
X155494991Y-85954704D01*
X155462114Y-85954758D01*
X155432543Y-85954833D01*
X155406094Y-85954941D01*
X155382580Y-85955089D01*
X155361817Y-85955289D01*
X155343618Y-85955549D01*
X155327799Y-85955880D01*
X155314175Y-85956290D01*
X155302559Y-85956790D01*
X155292767Y-85957390D01*
X155284613Y-85958099D01*
X155277912Y-85958926D01*
X155272478Y-85959882D01*
X155268127Y-85960975D01*
X155264672Y-85962217D01*
X155261928Y-85963615D01*
X155259711Y-85965181D01*
X155257834Y-85966923D01*
X155256112Y-85968852D01*
X155254361Y-85970977D01*
X155252394Y-85973307D01*
X155250026Y-85975853D01*
X155249804Y-85976075D01*
X155242774Y-85983555D01*
X155237489Y-85990581D01*
X155233709Y-85997945D01*
X155231192Y-86006436D01*
X155229700Y-86016844D01*
X155228991Y-86029959D01*
X155228825Y-86045034D01*
X155228865Y-86057682D01*
X155229059Y-86066967D01*
X155229515Y-86073759D01*
X155230342Y-86078929D01*
X155231648Y-86083345D01*
X155233541Y-86087878D01*
X155234403Y-86089738D01*
X155243764Y-86105227D01*
X155255721Y-86117400D01*
X155270163Y-86126170D01*
X155286978Y-86131450D01*
X155287951Y-86131634D01*
X155291443Y-86131960D01*
X155298253Y-86132260D01*
X155308452Y-86132533D01*
X155322108Y-86132781D01*
X155339293Y-86133003D01*
X155360075Y-86133201D01*
X155384525Y-86133374D01*
X155412711Y-86133523D01*
X155444705Y-86133648D01*
X155480574Y-86133750D01*
X155520391Y-86133829D01*
X155564223Y-86133886D01*
X155612140Y-86133920D01*
X155664214Y-86133933D01*
X155670530Y-86133934D01*
X156040550Y-86133934D01*
X156041087Y-86943029D01*
X156041625Y-87752125D01*
X156046397Y-87761810D01*
X156055722Y-87776614D01*
X156067676Y-87788232D01*
X156080296Y-87795957D01*
X156085796Y-87798602D01*
X156090414Y-87800487D01*
X156095045Y-87801754D01*
X156100584Y-87802545D01*
X156107926Y-87803003D01*
X156117965Y-87803268D01*
X156127303Y-87803420D01*
X156144669Y-87803428D01*
X156158063Y-87802873D01*
X156167392Y-87801760D01*
X156169833Y-87801198D01*
X156185764Y-87794721D01*
X156199524Y-87785082D01*
X156210535Y-87772796D01*
X156218222Y-87758374D01*
X156218350Y-87758035D01*
X156218716Y-87757024D01*
X156219060Y-87755925D01*
X156219384Y-87754609D01*
X156219687Y-87752950D01*
X156219970Y-87750821D01*
X156220235Y-87748095D01*
X156220481Y-87744644D01*
X156220709Y-87740343D01*
X156220921Y-87735063D01*
X156221116Y-87728678D01*
X156221295Y-87721061D01*
X156221459Y-87712085D01*
X156221609Y-87701623D01*
X156221745Y-87689548D01*
X156221868Y-87675732D01*
X156221979Y-87660049D01*
X156222078Y-87642373D01*
X156222166Y-87622575D01*
X156222243Y-87600529D01*
X156222310Y-87576107D01*
X156222369Y-87549184D01*
X156222419Y-87519632D01*
X156222461Y-87487323D01*
X156222496Y-87452131D01*
X156222525Y-87413929D01*
X156222548Y-87372591D01*
X156222565Y-87327987D01*
X156222578Y-87279993D01*
X156222588Y-87228481D01*
X156222594Y-87173324D01*
X156222597Y-87114394D01*
X156222599Y-87051565D01*
X156222600Y-86984711D01*
X156222600Y-86134012D01*
X156600954Y-86133444D01*
X156979308Y-86132875D01*
X156991046Y-86127369D01*
X157006586Y-86118199D01*
X157018640Y-86106774D01*
X157027489Y-86092771D01*
X157032321Y-86079941D01*
X157033840Y-86073607D01*
X157034784Y-86066528D01*
X157035214Y-86057736D01*
X157035192Y-86046263D01*
X157034993Y-86037885D01*
X157034578Y-86025699D01*
X157034047Y-86016788D01*
X157033249Y-86010193D01*
X157032031Y-86004956D01*
X157030241Y-86000118D01*
X157028321Y-85995948D01*
X157021463Y-85985039D01*
X157012051Y-85974537D01*
X157001319Y-85965611D01*
X156990499Y-85959434D01*
X156989437Y-85959004D01*
X156988055Y-85958517D01*
X156986399Y-85958072D01*
X156984285Y-85957664D01*
X156981525Y-85957293D01*
X156977933Y-85956955D01*
X156973322Y-85956648D01*
X156967505Y-85956370D01*
X156960296Y-85956119D01*
X156951508Y-85955891D01*
X156940955Y-85955686D01*
X156928450Y-85955500D01*
X156913805Y-85955330D01*
X156896836Y-85955176D01*
X156877354Y-85955033D01*
X156855173Y-85954900D01*
X156830107Y-85954775D01*
X156801968Y-85954655D01*
X156770572Y-85954537D01*
X156735729Y-85954420D01*
X156697255Y-85954301D01*
X156654962Y-85954177D01*
X156608663Y-85954047D01*
X156597850Y-85954017D01*
X156216393Y-85952959D01*
X156595734Y-85352829D01*
X156624922Y-85306647D01*
X156653541Y-85261356D01*
X156681506Y-85217091D01*
X156708733Y-85173982D01*
X156735140Y-85132163D01*
X156760643Y-85091766D01*
X156785157Y-85052924D01*
X156808601Y-85015770D01*
X156830889Y-84980435D01*
X156851939Y-84947053D01*
X156854299Y-84943308D01*
X156331608Y-84943308D01*
X156331608Y-85408975D01*
X156325636Y-85420617D01*
X156317315Y-85434110D01*
X156307397Y-85444601D01*
X156294923Y-85452953D01*
X156284211Y-85457967D01*
X156281037Y-85459229D01*
X156277962Y-85460252D01*
X156274522Y-85461063D01*
X156270255Y-85461686D01*
X156264697Y-85462146D01*
X156257385Y-85462470D01*
X156247856Y-85462681D01*
X156235648Y-85462805D01*
X156220297Y-85462868D01*
X156201340Y-85462895D01*
X156193649Y-85462900D01*
X156175004Y-85462853D01*
X156157016Y-85462696D01*
X156140290Y-85462442D01*
X156125429Y-85462107D01*
X156113039Y-85461701D01*
X156103723Y-85461240D01*
X156098399Y-85460780D01*
X156062546Y-85454167D01*
X156028886Y-85444067D01*
X155997552Y-85430572D01*
X155968678Y-85413778D01*
X155942399Y-85393780D01*
X155918848Y-85370670D01*
X155898159Y-85344545D01*
X155880466Y-85315498D01*
X155874055Y-85302651D01*
X155862841Y-85275102D01*
X155854833Y-85246803D01*
X155849870Y-85216977D01*
X155847789Y-85184849D01*
X155847701Y-85176142D01*
X155849254Y-85141579D01*
X155854018Y-85109418D01*
X155862145Y-85079127D01*
X155873790Y-85050180D01*
X155889107Y-85022047D01*
X155895408Y-85012229D01*
X155915441Y-84985946D01*
X155938489Y-84962512D01*
X155964310Y-84942070D01*
X155992662Y-84924767D01*
X156023303Y-84910746D01*
X156055990Y-84900154D01*
X156090482Y-84893133D01*
X156095817Y-84892395D01*
X156104043Y-84891465D01*
X156113138Y-84890739D01*
X156123632Y-84890204D01*
X156136053Y-84889847D01*
X156150931Y-84889653D01*
X156168794Y-84889609D01*
X156190173Y-84889702D01*
X156198713Y-84889765D01*
X156276575Y-84890392D01*
X156288471Y-84895970D01*
X156303580Y-84905046D01*
X156315729Y-84916899D01*
X156324413Y-84930041D01*
X156331608Y-84943308D01*
X156854299Y-84943308D01*
X156871666Y-84915756D01*
X156889988Y-84886678D01*
X156906820Y-84859949D01*
X156922079Y-84835704D01*
X156935682Y-84814074D01*
X156947545Y-84795192D01*
X156957585Y-84779191D01*
X156965717Y-84766203D01*
X156971858Y-84756362D01*
X156975925Y-84749799D01*
X156977834Y-84746647D01*
X156977966Y-84746404D01*
X156979743Y-84740764D01*
X156981238Y-84732952D01*
X156981880Y-84727408D01*
X156981042Y-84712435D01*
X156976356Y-84698061D01*
X156968209Y-84684912D01*
X156956986Y-84673614D01*
X156943325Y-84664914D01*
X156932741Y-84659705D01*
X156808916Y-84658363D01*
X156788960Y-84658169D01*
X156765274Y-84657979D01*
X156738361Y-84657793D01*
X156708725Y-84657616D01*
X156676870Y-84657448D01*
X156643298Y-84657293D01*
X156608514Y-84657152D01*
X156573020Y-84657027D01*
X156537320Y-84656922D01*
X156501918Y-84656838D01*
X156467316Y-84656777D01*
X156453846Y-84656760D01*
X156222600Y-84656500D01*
X156222600Y-83739793D01*
X156222599Y-83672724D01*
X156222597Y-83609640D01*
X156222593Y-83550418D01*
X156222587Y-83494933D01*
X156222577Y-83443062D01*
X156222564Y-83394680D01*
X156222546Y-83349664D01*
X156222524Y-83307890D01*
X156222495Y-83269234D01*
X156222461Y-83233571D01*
X156222420Y-83200778D01*
X156222371Y-83170731D01*
X156222314Y-83143306D01*
X156222248Y-83118379D01*
X156222173Y-83095826D01*
X156222088Y-83075523D01*
X156221992Y-83057347D01*
X156221886Y-83041172D01*
X156221767Y-83026876D01*
X156221636Y-83014334D01*
X156221492Y-83003422D01*
X156221334Y-82994017D01*
X156221162Y-82985994D01*
X156220974Y-82979229D01*
X156220772Y-82973599D01*
X156220553Y-82968980D01*
X156220317Y-82965247D01*
X156220064Y-82962276D01*
X156219792Y-82959945D01*
X156219502Y-82958128D01*
X156219193Y-82956702D01*
X156218864Y-82955543D01*
X156218514Y-82954526D01*
X156218296Y-82953939D01*
X156210671Y-82939488D01*
X156199553Y-82927185D01*
X156185293Y-82917405D01*
X156182845Y-82916149D01*
X156168714Y-82909192D01*
X156094452Y-82909192D01*
X156080298Y-82916160D01*
G04 #@! TA.AperFunction,EtchedComponent*
G36*
X156851939Y-84947053D02*
G01*
X156830889Y-84980435D01*
X156808601Y-85015770D01*
X156785157Y-85052924D01*
X156760643Y-85091766D01*
X156735140Y-85132163D01*
X156708733Y-85173982D01*
X156681506Y-85217091D01*
X156653541Y-85261356D01*
X156624922Y-85306647D01*
X156595734Y-85352829D01*
X156216393Y-85952959D01*
X156597850Y-85954017D01*
X156608663Y-85954047D01*
X156654962Y-85954177D01*
X156697255Y-85954301D01*
X156735729Y-85954420D01*
X156770572Y-85954537D01*
X156801968Y-85954655D01*
X156830107Y-85954775D01*
X156855173Y-85954900D01*
X156877354Y-85955033D01*
X156896836Y-85955176D01*
X156913805Y-85955330D01*
X156928450Y-85955500D01*
X156940955Y-85955686D01*
X156951508Y-85955891D01*
X156960296Y-85956119D01*
X156967505Y-85956370D01*
X156973322Y-85956648D01*
X156977933Y-85956955D01*
X156981525Y-85957293D01*
X156984285Y-85957664D01*
X156986399Y-85958072D01*
X156988055Y-85958517D01*
X156989437Y-85959004D01*
X156990499Y-85959434D01*
X157001319Y-85965611D01*
X157012051Y-85974537D01*
X157021463Y-85985039D01*
X157028321Y-85995948D01*
X157030241Y-86000118D01*
X157032031Y-86004956D01*
X157033249Y-86010193D01*
X157034047Y-86016788D01*
X157034578Y-86025699D01*
X157034993Y-86037885D01*
X157035192Y-86046263D01*
X157035214Y-86057736D01*
X157034784Y-86066528D01*
X157033840Y-86073607D01*
X157032321Y-86079941D01*
X157027489Y-86092771D01*
X157018640Y-86106774D01*
X157006586Y-86118199D01*
X156991046Y-86127369D01*
X156979308Y-86132875D01*
X156600954Y-86133444D01*
X156222600Y-86134012D01*
X156222600Y-86984711D01*
X156222599Y-87051565D01*
X156222597Y-87114394D01*
X156222594Y-87173324D01*
X156222588Y-87228481D01*
X156222578Y-87279993D01*
X156222565Y-87327987D01*
X156222548Y-87372591D01*
X156222525Y-87413929D01*
X156222496Y-87452131D01*
X156222461Y-87487323D01*
X156222419Y-87519632D01*
X156222369Y-87549184D01*
X156222310Y-87576107D01*
X156222243Y-87600529D01*
X156222166Y-87622575D01*
X156222078Y-87642373D01*
X156221979Y-87660049D01*
X156221868Y-87675732D01*
X156221745Y-87689548D01*
X156221609Y-87701623D01*
X156221459Y-87712085D01*
X156221295Y-87721061D01*
X156221116Y-87728678D01*
X156220921Y-87735063D01*
X156220709Y-87740343D01*
X156220481Y-87744644D01*
X156220235Y-87748095D01*
X156219970Y-87750821D01*
X156219687Y-87752950D01*
X156219384Y-87754609D01*
X156219060Y-87755925D01*
X156218716Y-87757024D01*
X156218350Y-87758035D01*
X156218222Y-87758374D01*
X156210535Y-87772796D01*
X156199524Y-87785082D01*
X156185764Y-87794721D01*
X156169833Y-87801198D01*
X156167392Y-87801760D01*
X156158063Y-87802873D01*
X156144669Y-87803428D01*
X156127303Y-87803420D01*
X156117965Y-87803268D01*
X156107926Y-87803003D01*
X156100584Y-87802545D01*
X156095045Y-87801754D01*
X156090414Y-87800487D01*
X156085796Y-87798602D01*
X156080296Y-87795957D01*
X156067676Y-87788232D01*
X156055722Y-87776614D01*
X156046397Y-87761810D01*
X156041625Y-87752125D01*
X156041087Y-86943029D01*
X156040550Y-86133934D01*
X155670530Y-86133934D01*
X155664214Y-86133933D01*
X155612140Y-86133920D01*
X155564223Y-86133886D01*
X155520391Y-86133829D01*
X155480574Y-86133750D01*
X155444705Y-86133648D01*
X155412711Y-86133523D01*
X155384525Y-86133374D01*
X155360075Y-86133201D01*
X155339293Y-86133003D01*
X155322108Y-86132781D01*
X155308452Y-86132533D01*
X155298253Y-86132260D01*
X155291443Y-86131960D01*
X155287951Y-86131634D01*
X155286978Y-86131450D01*
X155270163Y-86126170D01*
X155255721Y-86117400D01*
X155243764Y-86105227D01*
X155234403Y-86089738D01*
X155233541Y-86087878D01*
X155231648Y-86083345D01*
X155230342Y-86078929D01*
X155229515Y-86073759D01*
X155229059Y-86066967D01*
X155228865Y-86057682D01*
X155228825Y-86045034D01*
X155228991Y-86029959D01*
X155229700Y-86016844D01*
X155231192Y-86006436D01*
X155233709Y-85997945D01*
X155237489Y-85990581D01*
X155242774Y-85983555D01*
X155249804Y-85976075D01*
X155250026Y-85975853D01*
X155252394Y-85973307D01*
X155254361Y-85970977D01*
X155256112Y-85968852D01*
X155257834Y-85966923D01*
X155259711Y-85965181D01*
X155261928Y-85963615D01*
X155264672Y-85962217D01*
X155268127Y-85960975D01*
X155272478Y-85959882D01*
X155277912Y-85958926D01*
X155284613Y-85958099D01*
X155292767Y-85957390D01*
X155302559Y-85956790D01*
X155314175Y-85956290D01*
X155327799Y-85955880D01*
X155343618Y-85955549D01*
X155361817Y-85955289D01*
X155382580Y-85955089D01*
X155406094Y-85954941D01*
X155432543Y-85954833D01*
X155462114Y-85954758D01*
X155494991Y-85954704D01*
X155531360Y-85954663D01*
X155571406Y-85954625D01*
X155615314Y-85954580D01*
X155663271Y-85954518D01*
X155685493Y-85954483D01*
X155724616Y-85954414D01*
X155762470Y-85954335D01*
X155798842Y-85954249D01*
X155833520Y-85954155D01*
X155866293Y-85954056D01*
X155896950Y-85953951D01*
X155925278Y-85953841D01*
X155951067Y-85953728D01*
X155974103Y-85953613D01*
X155994176Y-85953495D01*
X156011074Y-85953377D01*
X156024586Y-85953259D01*
X156034499Y-85953142D01*
X156040602Y-85953026D01*
X156042683Y-85952914D01*
X156042604Y-85952766D01*
X156040907Y-85949985D01*
X156037062Y-85943785D01*
X156031152Y-85934299D01*
X156023258Y-85921657D01*
X156013463Y-85905992D01*
X156001849Y-85887433D01*
X155988500Y-85866114D01*
X155973496Y-85842164D01*
X155956921Y-85815716D01*
X155938857Y-85786901D01*
X155919386Y-85755850D01*
X155898591Y-85722695D01*
X155876554Y-85687567D01*
X155853358Y-85650597D01*
X155829084Y-85611917D01*
X155803816Y-85571658D01*
X155777635Y-85529952D01*
X155750624Y-85486930D01*
X155722865Y-85442722D01*
X155694441Y-85397462D01*
X155665434Y-85351279D01*
X155658642Y-85340466D01*
X155629703Y-85294373D01*
X155601346Y-85249182D01*
X155573656Y-85205025D01*
X155555555Y-85176142D01*
X155847701Y-85176142D01*
X155847789Y-85184849D01*
X155849870Y-85216977D01*
X155854833Y-85246803D01*
X155862841Y-85275102D01*
X155874055Y-85302651D01*
X155880466Y-85315498D01*
X155898159Y-85344545D01*
X155918848Y-85370670D01*
X155942399Y-85393780D01*
X155968678Y-85413778D01*
X155997552Y-85430572D01*
X156028886Y-85444067D01*
X156062546Y-85454167D01*
X156098399Y-85460780D01*
X156103723Y-85461240D01*
X156113039Y-85461701D01*
X156125429Y-85462107D01*
X156140290Y-85462442D01*
X156157016Y-85462696D01*
X156175004Y-85462853D01*
X156193649Y-85462900D01*
X156201340Y-85462895D01*
X156220297Y-85462868D01*
X156235648Y-85462805D01*
X156247856Y-85462681D01*
X156257385Y-85462470D01*
X156264697Y-85462146D01*
X156270255Y-85461686D01*
X156274522Y-85461063D01*
X156277962Y-85460252D01*
X156281037Y-85459229D01*
X156284211Y-85457967D01*
X156294923Y-85452953D01*
X156307397Y-85444601D01*
X156317315Y-85434110D01*
X156325636Y-85420617D01*
X156331608Y-85408975D01*
X156331608Y-84943308D01*
X156324413Y-84930041D01*
X156315729Y-84916899D01*
X156303580Y-84905046D01*
X156288471Y-84895970D01*
X156276575Y-84890392D01*
X156198713Y-84889765D01*
X156190173Y-84889702D01*
X156168794Y-84889609D01*
X156150931Y-84889653D01*
X156136053Y-84889847D01*
X156123632Y-84890204D01*
X156113138Y-84890739D01*
X156104043Y-84891465D01*
X156095817Y-84892395D01*
X156090482Y-84893133D01*
X156055990Y-84900154D01*
X156023303Y-84910746D01*
X155992662Y-84924767D01*
X155964310Y-84942070D01*
X155938489Y-84962512D01*
X155915441Y-84985946D01*
X155895408Y-85012229D01*
X155889107Y-85022047D01*
X155873790Y-85050180D01*
X155862145Y-85079127D01*
X155854018Y-85109418D01*
X155849254Y-85141579D01*
X155847701Y-85176142D01*
X155555555Y-85176142D01*
X155546716Y-85162038D01*
X155520610Y-85120355D01*
X155495422Y-85080109D01*
X155471234Y-85041435D01*
X155448131Y-85004466D01*
X155426195Y-84969337D01*
X155405512Y-84936182D01*
X155386163Y-84905136D01*
X155368234Y-84876331D01*
X155351806Y-84849902D01*
X155336965Y-84825984D01*
X155323793Y-84804710D01*
X155312375Y-84786215D01*
X155302793Y-84770632D01*
X155295131Y-84758096D01*
X155289473Y-84748741D01*
X155285903Y-84742700D01*
X155284503Y-84740108D01*
X155281522Y-84727038D01*
X155281793Y-84712058D01*
X155285832Y-84697778D01*
X155293395Y-84684746D01*
X155304238Y-84673510D01*
X155318118Y-84664615D01*
X155332452Y-84657558D01*
X155686501Y-84657011D01*
X156040551Y-84656463D01*
X156041088Y-83808228D01*
X156041625Y-82959992D01*
X156046397Y-82950307D01*
X156054217Y-82937441D01*
X156065762Y-82925390D01*
X156080298Y-82916160D01*
X156094452Y-82909192D01*
X156168714Y-82909192D01*
X156182845Y-82916149D01*
X156185293Y-82917405D01*
X156199553Y-82927185D01*
X156210671Y-82939488D01*
X156218296Y-82953939D01*
X156218514Y-82954526D01*
X156218864Y-82955543D01*
X156219193Y-82956702D01*
X156219502Y-82958128D01*
X156219792Y-82959945D01*
X156220064Y-82962276D01*
X156220317Y-82965247D01*
X156220553Y-82968980D01*
X156220772Y-82973599D01*
X156220974Y-82979229D01*
X156221162Y-82985994D01*
X156221334Y-82994017D01*
X156221492Y-83003422D01*
X156221636Y-83014334D01*
X156221767Y-83026876D01*
X156221886Y-83041172D01*
X156221992Y-83057347D01*
X156222088Y-83075523D01*
X156222173Y-83095826D01*
X156222248Y-83118379D01*
X156222314Y-83143306D01*
X156222371Y-83170731D01*
X156222420Y-83200778D01*
X156222461Y-83233571D01*
X156222495Y-83269234D01*
X156222524Y-83307890D01*
X156222546Y-83349664D01*
X156222564Y-83394680D01*
X156222577Y-83443062D01*
X156222587Y-83494933D01*
X156222593Y-83550418D01*
X156222597Y-83609640D01*
X156222599Y-83672724D01*
X156222600Y-83739793D01*
X156222600Y-84656500D01*
X156453846Y-84656760D01*
X156467316Y-84656777D01*
X156501918Y-84656838D01*
X156537320Y-84656922D01*
X156573020Y-84657027D01*
X156608514Y-84657152D01*
X156643298Y-84657293D01*
X156676870Y-84657448D01*
X156708725Y-84657616D01*
X156738361Y-84657793D01*
X156765274Y-84657979D01*
X156788960Y-84658169D01*
X156808916Y-84658363D01*
X156932741Y-84659705D01*
X156943325Y-84664914D01*
X156956986Y-84673614D01*
X156968209Y-84684912D01*
X156976356Y-84698061D01*
X156981042Y-84712435D01*
X156981880Y-84727408D01*
X156981238Y-84732952D01*
X156979743Y-84740764D01*
X156977966Y-84746404D01*
X156977834Y-84746647D01*
X156975925Y-84749799D01*
X156971858Y-84756362D01*
X156965717Y-84766203D01*
X156957585Y-84779191D01*
X156947545Y-84795192D01*
X156935682Y-84814074D01*
X156922079Y-84835704D01*
X156906820Y-84859949D01*
X156889988Y-84886678D01*
X156871666Y-84915756D01*
X156854299Y-84943308D01*
X156851939Y-84947053D01*
G37*
G04 #@! TD.AperFunction*
X159427956Y-82908460D02*
X159413171Y-82908772D01*
X159402233Y-82909344D01*
X159395014Y-82910178D01*
X159394500Y-82910275D01*
X159376520Y-82915839D01*
X159360838Y-82924920D01*
X159347674Y-82937344D01*
X159337249Y-82952941D01*
X159335527Y-82956392D01*
X159328808Y-82970575D01*
X159328252Y-83370129D01*
X159327696Y-83769682D01*
X159320632Y-83779704D01*
X159319004Y-83782301D01*
X159315285Y-83788428D01*
X159309539Y-83797979D01*
X159301829Y-83810848D01*
X159292218Y-83826927D01*
X159280768Y-83846111D01*
X159267543Y-83868293D01*
X159252606Y-83893366D01*
X159236020Y-83921226D01*
X159217849Y-83951764D01*
X159198154Y-83984876D01*
X159176999Y-84020454D01*
X159154448Y-84058392D01*
X159130562Y-84098584D01*
X159105407Y-84140923D01*
X159079043Y-84185303D01*
X159051535Y-84231618D01*
X159022945Y-84279762D01*
X158993337Y-84329627D01*
X158962774Y-84381108D01*
X158931318Y-84434099D01*
X158899033Y-84488492D01*
X158865982Y-84544182D01*
X158832228Y-84601062D01*
X158797833Y-84659027D01*
X158762862Y-84717969D01*
X158727376Y-84777782D01*
X158691440Y-84838360D01*
X158655115Y-84899596D01*
X158618466Y-84961385D01*
X158581555Y-85023620D01*
X158544446Y-85086194D01*
X158507201Y-85149001D01*
X158469883Y-85211935D01*
X158432556Y-85274889D01*
X158395282Y-85337758D01*
X158358125Y-85400434D01*
X158321148Y-85462812D01*
X158284413Y-85524784D01*
X158247984Y-85586246D01*
X158211924Y-85647089D01*
X158176296Y-85707209D01*
X158141163Y-85766498D01*
X158106588Y-85824851D01*
X158072634Y-85882160D01*
X158039364Y-85938321D01*
X158006841Y-85993225D01*
X157975128Y-86046767D01*
X157944289Y-86098841D01*
X157914386Y-86149340D01*
X157885483Y-86198158D01*
X157857642Y-86245188D01*
X157830927Y-86290325D01*
X157805400Y-86333461D01*
X157781125Y-86374491D01*
X157758164Y-86413307D01*
X157736582Y-86449805D01*
X157716440Y-86483877D01*
X157697802Y-86515417D01*
X157680731Y-86544319D01*
X157665290Y-86570476D01*
X157651543Y-86593782D01*
X157639551Y-86614130D01*
X157629378Y-86631415D01*
X157621088Y-86645530D01*
X157614743Y-86656369D01*
X157610407Y-86663825D01*
X157608142Y-86667791D01*
X157607823Y-86668392D01*
X157599435Y-86691681D01*
X157594989Y-86716417D01*
X157594200Y-86732950D01*
X157595216Y-86752297D01*
X157598494Y-86770338D01*
X157604378Y-86788501D01*
X157611483Y-86804684D01*
X157616758Y-86815158D01*
X157621612Y-86823375D01*
X157627015Y-86830691D01*
X157633936Y-86838459D01*
X157640420Y-86845110D01*
X157656512Y-86859837D01*
X157672730Y-86871438D01*
X157690487Y-86880799D01*
X157708500Y-86887888D01*
X157728608Y-86894875D01*
X158040262Y-86895445D01*
X158351915Y-86896015D01*
X158352470Y-87318779D01*
X158353025Y-87741542D01*
X158359744Y-87755725D01*
X158369358Y-87771783D01*
X158381494Y-87784508D01*
X158396369Y-87794075D01*
X158414199Y-87800663D01*
X158414788Y-87800819D01*
X158420541Y-87801731D01*
X158429797Y-87802505D01*
X158441828Y-87803135D01*
X158455905Y-87803615D01*
X158471300Y-87803939D01*
X158487284Y-87804101D01*
X158503130Y-87804096D01*
X158518109Y-87803916D01*
X158531493Y-87803556D01*
X158542553Y-87803011D01*
X158550562Y-87802274D01*
X158552604Y-87801951D01*
X158570083Y-87796555D01*
X158585735Y-87787552D01*
X158599010Y-87775357D01*
X158609360Y-87760389D01*
X158610664Y-87757853D01*
X158617608Y-87743748D01*
X158618666Y-87320370D01*
X158619725Y-86896992D01*
X160301417Y-86895928D01*
X160301417Y-87309350D01*
X160301425Y-87364460D01*
X160301453Y-87415415D01*
X160301499Y-87462290D01*
X160301564Y-87505165D01*
X160301648Y-87544116D01*
X160301753Y-87579221D01*
X160301878Y-87610558D01*
X160302024Y-87638203D01*
X160302191Y-87662234D01*
X160302379Y-87682728D01*
X160302590Y-87699764D01*
X160302823Y-87713418D01*
X160303079Y-87723768D01*
X160303359Y-87730891D01*
X160303662Y-87734865D01*
X160303733Y-87735332D01*
X160308861Y-87752380D01*
X160317408Y-87768018D01*
X160328818Y-87781546D01*
X160342534Y-87792268D01*
X160353731Y-87797942D01*
X160357338Y-87799321D01*
X160360856Y-87800420D01*
X160364810Y-87801274D01*
X160369726Y-87801920D01*
X160376130Y-87802395D01*
X160384547Y-87802734D01*
X160395504Y-87802976D01*
X160409526Y-87803155D01*
X160427138Y-87803308D01*
X160431592Y-87803342D01*
X160451171Y-87803453D01*
X160467010Y-87803445D01*
X160479604Y-87803301D01*
X160489445Y-87803004D01*
X160497026Y-87802536D01*
X160502840Y-87801881D01*
X160507379Y-87801022D01*
X160508799Y-87800659D01*
X160526189Y-87793795D01*
X160541164Y-87783589D01*
X160553378Y-87770392D01*
X160562485Y-87754556D01*
X160566948Y-87741626D01*
X160567341Y-87739779D01*
X160567702Y-87737266D01*
X160568033Y-87733914D01*
X160568333Y-87729545D01*
X160568606Y-87723986D01*
X160568852Y-87717060D01*
X160569072Y-87708592D01*
X160569268Y-87698407D01*
X160569441Y-87686329D01*
X160569593Y-87672183D01*
X160569725Y-87655792D01*
X160569838Y-87636983D01*
X160569934Y-87615579D01*
X160570013Y-87591405D01*
X160570078Y-87564285D01*
X160570130Y-87534044D01*
X160570169Y-87500507D01*
X160570198Y-87463497D01*
X160570217Y-87422841D01*
X160570228Y-87378361D01*
X160570233Y-87329884D01*
X160570233Y-86895933D01*
X160745387Y-86895690D01*
X160776804Y-86895627D01*
X160810368Y-86895528D01*
X160845337Y-86895395D01*
X160880971Y-86895232D01*
X160916526Y-86895044D01*
X160951261Y-86894835D01*
X160984436Y-86894609D01*
X161015307Y-86894370D01*
X161043134Y-86894121D01*
X161058125Y-86893969D01*
X161085643Y-86893671D01*
X161109264Y-86893403D01*
X161129325Y-86893150D01*
X161146162Y-86892899D01*
X161160112Y-86892635D01*
X161171510Y-86892345D01*
X161180693Y-86892015D01*
X161187998Y-86891630D01*
X161193760Y-86891177D01*
X161198317Y-86890641D01*
X161202004Y-86890008D01*
X161205158Y-86889266D01*
X161208116Y-86888398D01*
X161210525Y-86887619D01*
X161236313Y-86877117D01*
X161259371Y-86863571D01*
X161279518Y-86847182D01*
X161296572Y-86828153D01*
X161310353Y-86806684D01*
X161320680Y-86782977D01*
X161327350Y-86757358D01*
X161329369Y-86736540D01*
X161328400Y-86714495D01*
X161324634Y-86692578D01*
X161318262Y-86672138D01*
X161313902Y-86662383D01*
X161312644Y-86660211D01*
X161309285Y-86654507D01*
X161303888Y-86645377D01*
X161296516Y-86632927D01*
X161287234Y-86617264D01*
X161276103Y-86598493D01*
X161263187Y-86576722D01*
X161248549Y-86552055D01*
X161247312Y-86549970D01*
X160658911Y-86549970D01*
X160656359Y-86563393D01*
X160654121Y-86568908D01*
X160649467Y-86577511D01*
X160644320Y-86583481D01*
X160637279Y-86588189D01*
X160631578Y-86590971D01*
X160628749Y-86592155D01*
X160625720Y-86593100D01*
X160622002Y-86593835D01*
X160617106Y-86594385D01*
X160610542Y-86594777D01*
X160601820Y-86595040D01*
X160590452Y-86595199D01*
X160575946Y-86595282D01*
X160557814Y-86595316D01*
X160552877Y-86595320D01*
X160483662Y-86595367D01*
X160483027Y-86665746D01*
X160482847Y-86684867D01*
X160482668Y-86700227D01*
X160482456Y-86712299D01*
X160482178Y-86721555D01*
X160481800Y-86728468D01*
X160481288Y-86733509D01*
X160480610Y-86737151D01*
X160479732Y-86739867D01*
X160478619Y-86742130D01*
X160477480Y-86744025D01*
X160468913Y-86754033D01*
X160457973Y-86761081D01*
X160445487Y-86764977D01*
X160432283Y-86765531D01*
X160419189Y-86762551D01*
X160411965Y-86759126D01*
X160401677Y-86750785D01*
X160394340Y-86739515D01*
X160390353Y-86726791D01*
X160389787Y-86721694D01*
X160389277Y-86713039D01*
X160388843Y-86701500D01*
X160388505Y-86687753D01*
X160388284Y-86672471D01*
X160388200Y-86656329D01*
X160388200Y-86595367D01*
X160320399Y-86595367D01*
X160300584Y-86595349D01*
X160284501Y-86595250D01*
X160271652Y-86595005D01*
X160261534Y-86594547D01*
X160253648Y-86593810D01*
X160247494Y-86592728D01*
X160242570Y-86591233D01*
X160238377Y-86589261D01*
X160234413Y-86586745D01*
X160230180Y-86583618D01*
X160229865Y-86583378D01*
X160224358Y-86577641D01*
X160219111Y-86569643D01*
X160214955Y-86560945D01*
X160212722Y-86553107D01*
X160212549Y-86550917D01*
X160212946Y-86548542D01*
X158708155Y-86548542D01*
X158708150Y-86560484D01*
X158704622Y-86572087D01*
X158697518Y-86582829D01*
X158686780Y-86592185D01*
X158683247Y-86594407D01*
X158679801Y-86596382D01*
X158676443Y-86598111D01*
X158672882Y-86599612D01*
X158668830Y-86600899D01*
X158663998Y-86601987D01*
X158658095Y-86602893D01*
X158650833Y-86603631D01*
X158641922Y-86604216D01*
X158631073Y-86604665D01*
X158617996Y-86604993D01*
X158602402Y-86605215D01*
X158584001Y-86605346D01*
X158562504Y-86605401D01*
X158537622Y-86605398D01*
X158509065Y-86605349D01*
X158478966Y-86605278D01*
X158448081Y-86605195D01*
X158421142Y-86605106D01*
X158397864Y-86605004D01*
X158377961Y-86604883D01*
X158361146Y-86604737D01*
X158347132Y-86604559D01*
X158335634Y-86604342D01*
X158326365Y-86604080D01*
X158319038Y-86603766D01*
X158313369Y-86603395D01*
X158309069Y-86602959D01*
X158305853Y-86602452D01*
X158303435Y-86601867D01*
X158301672Y-86601257D01*
X158286639Y-86593525D01*
X158275343Y-86583835D01*
X158268569Y-86573828D01*
X158263970Y-86560507D01*
X158263533Y-86547619D01*
X158267193Y-86535425D01*
X158274882Y-86524184D01*
X158283329Y-86516476D01*
X158286547Y-86513991D01*
X158289485Y-86511811D01*
X158292426Y-86509915D01*
X158295654Y-86508286D01*
X158299453Y-86506904D01*
X158304106Y-86505750D01*
X158309896Y-86504806D01*
X158317108Y-86504052D01*
X158326026Y-86503470D01*
X158336932Y-86503041D01*
X158350111Y-86502746D01*
X158365846Y-86502565D01*
X158384421Y-86502481D01*
X158406120Y-86502474D01*
X158431227Y-86502524D01*
X158460024Y-86502614D01*
X158489727Y-86502715D01*
X158520945Y-86502819D01*
X158548214Y-86502918D01*
X158571819Y-86503020D01*
X158592044Y-86503132D01*
X158609175Y-86503262D01*
X158623495Y-86503418D01*
X158635289Y-86503609D01*
X158644842Y-86503841D01*
X158652439Y-86504124D01*
X158658363Y-86504464D01*
X158662901Y-86504871D01*
X158666335Y-86505352D01*
X158668951Y-86505914D01*
X158671034Y-86506567D01*
X158672867Y-86507317D01*
X158674072Y-86507866D01*
X158687598Y-86515924D01*
X158697824Y-86525738D01*
X158704695Y-86536785D01*
X158708155Y-86548542D01*
X160212946Y-86548542D01*
X160214480Y-86539393D01*
X160219798Y-86528051D01*
X160227731Y-86517867D01*
X160237507Y-86509818D01*
X160248355Y-86504881D01*
X160249026Y-86504705D01*
X160254796Y-86503863D01*
X160264676Y-86503192D01*
X160278543Y-86502694D01*
X160296277Y-86502375D01*
X160317755Y-86502239D01*
X160323363Y-86502233D01*
X160387885Y-86502233D01*
X160388571Y-86435029D01*
X160388775Y-86416317D01*
X160388983Y-86401346D01*
X160389231Y-86389626D01*
X160389552Y-86380666D01*
X160389981Y-86373973D01*
X160390551Y-86369058D01*
X160391297Y-86365428D01*
X160392253Y-86362593D01*
X160393453Y-86360061D01*
X160393827Y-86359358D01*
X160402427Y-86347305D01*
X160413199Y-86338803D01*
X160425915Y-86333996D01*
X160436573Y-86332900D01*
X160448683Y-86334829D01*
X160460584Y-86340150D01*
X160470967Y-86348169D01*
X160475750Y-86353742D01*
X160482392Y-86362943D01*
X160483614Y-86502233D01*
X160549270Y-86502233D01*
X160569742Y-86502315D01*
X160587515Y-86502551D01*
X160602259Y-86502934D01*
X160613644Y-86503451D01*
X160621342Y-86504092D01*
X160624205Y-86504570D01*
X160631384Y-86507414D01*
X160639069Y-86511977D01*
X160642363Y-86514506D01*
X160651818Y-86525085D01*
X160657365Y-86537054D01*
X160658911Y-86549970D01*
X161247312Y-86549970D01*
X161232253Y-86524600D01*
X161214361Y-86494463D01*
X161194936Y-86461750D01*
X161174043Y-86426567D01*
X161151743Y-86389021D01*
X161128100Y-86349217D01*
X161103178Y-86307263D01*
X161077039Y-86263263D01*
X161049747Y-86217325D01*
X161021364Y-86169554D01*
X160991954Y-86120058D01*
X160961581Y-86068942D01*
X160947400Y-86045077D01*
X160002205Y-86045077D01*
X160002039Y-86061952D01*
X159998255Y-86079098D01*
X159991229Y-86095387D01*
X159981338Y-86109687D01*
X159980315Y-86110843D01*
X159967622Y-86121845D01*
X159952333Y-86130038D01*
X159935143Y-86135281D01*
X159916746Y-86137431D01*
X159897835Y-86136346D01*
X159879104Y-86131882D01*
X159878670Y-86131735D01*
X159860023Y-86123383D01*
X159842817Y-86111835D01*
X159827828Y-86097759D01*
X159815833Y-86081824D01*
X159811362Y-86073705D01*
X159809971Y-86070637D01*
X159808563Y-86067018D01*
X159807073Y-86062562D01*
X159805437Y-86056988D01*
X159803590Y-86050012D01*
X159801467Y-86041351D01*
X159799005Y-86030722D01*
X159796138Y-86017842D01*
X159792802Y-86002428D01*
X159788932Y-85984197D01*
X159784465Y-85962865D01*
X159779334Y-85938150D01*
X159773477Y-85909769D01*
X159768863Y-85887342D01*
X159763453Y-85861055D01*
X159758279Y-85835978D01*
X159753407Y-85812418D01*
X159748899Y-85790684D01*
X159744820Y-85771082D01*
X159741234Y-85753918D01*
X159738205Y-85739502D01*
X159735797Y-85728139D01*
X159734075Y-85720137D01*
X159733102Y-85715803D01*
X159732909Y-85715092D01*
X159731117Y-85715993D01*
X159727073Y-85719115D01*
X159721626Y-85723799D01*
X159721227Y-85724157D01*
X159696802Y-85743329D01*
X159669384Y-85759711D01*
X159639259Y-85773196D01*
X159606711Y-85783674D01*
X159572024Y-85791036D01*
X159535744Y-85795156D01*
X159493386Y-85795900D01*
X159451241Y-85792478D01*
X159409593Y-85784958D01*
X159368726Y-85773406D01*
X159328924Y-85757890D01*
X159290471Y-85738478D01*
X159286669Y-85736300D01*
X159278829Y-85731826D01*
X159272519Y-85728350D01*
X159268516Y-85726293D01*
X159267497Y-85725928D01*
X159266494Y-85727958D01*
X159264136Y-85732811D01*
X159260905Y-85739495D01*
X159260424Y-85740493D01*
X159250978Y-85755579D01*
X159238410Y-85767962D01*
X159222507Y-85777847D01*
X159220480Y-85778821D01*
X159212211Y-85782303D01*
X159204474Y-85784478D01*
X159195521Y-85785741D01*
X159187291Y-85786309D01*
X159164867Y-85785756D01*
X159144475Y-85781557D01*
X159125809Y-85773598D01*
X159108566Y-85761763D01*
X159098867Y-85752845D01*
X159095775Y-85749799D01*
X159092965Y-85747108D01*
X159090390Y-85744586D01*
X159088002Y-85742047D01*
X159085754Y-85739305D01*
X159083597Y-85736172D01*
X159081485Y-85732463D01*
X159079370Y-85727992D01*
X159077203Y-85722573D01*
X159074938Y-85716018D01*
X159072527Y-85708142D01*
X159069921Y-85698759D01*
X159067074Y-85687681D01*
X159063939Y-85674724D01*
X159060466Y-85659700D01*
X159056609Y-85642424D01*
X159052319Y-85622708D01*
X159047550Y-85600368D01*
X159042254Y-85575216D01*
X159036383Y-85547066D01*
X159029889Y-85515732D01*
X159022725Y-85481028D01*
X159014844Y-85442767D01*
X159006196Y-85400763D01*
X158996736Y-85354830D01*
X158995244Y-85347592D01*
X158985882Y-85302160D01*
X158977342Y-85260682D01*
X158969585Y-85222970D01*
X158962575Y-85188831D01*
X158956275Y-85158076D01*
X158950647Y-85130514D01*
X158945656Y-85105955D01*
X158941264Y-85084208D01*
X158937434Y-85065083D01*
X158934129Y-85048388D01*
X158931312Y-85033935D01*
X158928946Y-85021532D01*
X158926994Y-85010989D01*
X158925420Y-85002115D01*
X158924185Y-84994720D01*
X158923254Y-84988614D01*
X158922588Y-84983605D01*
X158922152Y-84979504D01*
X158921908Y-84976120D01*
X158921820Y-84973262D01*
X158921849Y-84970740D01*
X158921887Y-84969767D01*
X158923159Y-84956146D01*
X158925740Y-84945452D01*
X158927354Y-84941360D01*
X158936577Y-84925541D01*
X158948521Y-84912536D01*
X158962698Y-84902395D01*
X158978622Y-84895168D01*
X158995807Y-84890905D01*
X159013766Y-84889658D01*
X159032012Y-84891476D01*
X159050059Y-84896408D01*
X159067420Y-84904506D01*
X159083609Y-84915820D01*
X159092680Y-84924300D01*
X159095978Y-84927708D01*
X159098945Y-84930832D01*
X159101644Y-84933908D01*
X159104139Y-84937174D01*
X159106495Y-84940866D01*
X159108775Y-84945222D01*
X159111041Y-84950478D01*
X159113359Y-84956870D01*
X159115792Y-84964636D01*
X159118403Y-84974013D01*
X159121257Y-84985237D01*
X159124416Y-84998545D01*
X159127945Y-85014173D01*
X159131907Y-85032360D01*
X159136366Y-85053340D01*
X159141385Y-85077352D01*
X159147029Y-85104632D01*
X159153360Y-85135417D01*
X159160444Y-85169944D01*
X159165911Y-85196602D01*
X159172272Y-85227545D01*
X159178459Y-85257528D01*
X159184413Y-85286266D01*
X159190074Y-85313475D01*
X159195382Y-85338869D01*
X159200276Y-85362164D01*
X159204696Y-85383074D01*
X159208583Y-85401315D01*
X159211876Y-85416601D01*
X159214515Y-85428647D01*
X159216440Y-85437170D01*
X159217591Y-85441883D01*
X159217717Y-85442322D01*
X159227210Y-85466562D01*
X159240533Y-85489759D01*
X159257355Y-85511644D01*
X159277343Y-85531952D01*
X159300167Y-85550414D01*
X159325496Y-85566764D01*
X159352997Y-85580734D01*
X159382339Y-85592057D01*
X159413190Y-85600465D01*
X159414112Y-85600665D01*
X159427064Y-85602840D01*
X159442955Y-85604572D01*
X159460622Y-85605817D01*
X159478901Y-85606533D01*
X159496627Y-85606675D01*
X159512638Y-85606200D01*
X159525769Y-85605064D01*
X159527004Y-85604895D01*
X159542084Y-85601991D01*
X159558205Y-85597646D01*
X159573890Y-85592335D01*
X159587667Y-85586536D01*
X159594105Y-85583192D01*
X159611633Y-85570925D01*
X159627822Y-85555223D01*
X159642137Y-85536808D01*
X159654044Y-85516401D01*
X159663006Y-85494725D01*
X159665282Y-85487216D01*
X159667297Y-85477176D01*
X159668831Y-85464196D01*
X159669830Y-85449548D01*
X159670240Y-85434504D01*
X159670008Y-85420335D01*
X159669079Y-85408313D01*
X159668733Y-85405800D01*
X159667960Y-85401470D01*
X159666393Y-85393305D01*
X159664096Y-85381620D01*
X159661132Y-85366725D01*
X159657564Y-85348934D01*
X159653455Y-85328559D01*
X159648867Y-85305911D01*
X159643865Y-85281303D01*
X159638510Y-85255048D01*
X159632867Y-85227458D01*
X159626997Y-85198844D01*
X159624960Y-85188930D01*
X159617763Y-85153914D01*
X159611383Y-85122788D01*
X159605781Y-85095294D01*
X159600918Y-85071177D01*
X159596754Y-85050180D01*
X159593251Y-85032046D01*
X159590371Y-85016520D01*
X159588074Y-85003343D01*
X159586322Y-84992261D01*
X159585076Y-84983016D01*
X159584297Y-84975352D01*
X159583946Y-84969012D01*
X159583984Y-84963740D01*
X159584373Y-84959279D01*
X159585074Y-84955373D01*
X159586048Y-84951766D01*
X159587256Y-84948200D01*
X159588160Y-84945750D01*
X159596550Y-84929080D01*
X159608099Y-84915035D01*
X159622472Y-84903851D01*
X159639332Y-84895765D01*
X159658345Y-84891013D01*
X159667383Y-84890034D01*
X159688122Y-84890621D01*
X159708083Y-84894989D01*
X159726762Y-84902803D01*
X159743656Y-84913731D01*
X159758264Y-84927439D01*
X159770083Y-84943592D01*
X159778611Y-84961857D01*
X159779485Y-84964475D01*
X159780237Y-84967564D01*
X159781793Y-84974586D01*
X159784110Y-84985328D01*
X159787143Y-84999576D01*
X159790849Y-85017116D01*
X159795183Y-85037733D01*
X159800102Y-85061216D01*
X159805560Y-85087348D01*
X159811515Y-85115917D01*
X159817921Y-85146709D01*
X159824736Y-85179509D01*
X159831914Y-85214105D01*
X159839412Y-85250281D01*
X159847186Y-85287825D01*
X159855192Y-85326522D01*
X159863385Y-85366159D01*
X159871722Y-85406522D01*
X159880157Y-85447396D01*
X159888649Y-85488568D01*
X159897151Y-85529824D01*
X159905621Y-85570951D01*
X159914014Y-85611734D01*
X159922285Y-85651960D01*
X159930392Y-85691414D01*
X159938290Y-85729883D01*
X159945934Y-85767153D01*
X159953281Y-85803010D01*
X159960286Y-85837241D01*
X159966907Y-85869631D01*
X159973097Y-85899966D01*
X159978814Y-85928033D01*
X159984014Y-85953618D01*
X159988651Y-85976507D01*
X159992683Y-85996486D01*
X159996065Y-86013342D01*
X159998752Y-86026860D01*
X160000702Y-86036826D01*
X160001870Y-86043027D01*
X160002205Y-86045077D01*
X160947400Y-86045077D01*
X160930306Y-86016312D01*
X160898194Y-85962275D01*
X160865308Y-85906936D01*
X160831710Y-85850403D01*
X160797464Y-85792781D01*
X160762633Y-85734177D01*
X160727280Y-85674697D01*
X160691468Y-85614447D01*
X160655261Y-85553533D01*
X160618722Y-85492062D01*
X160581913Y-85430139D01*
X160544899Y-85367872D01*
X160507741Y-85305366D01*
X160470504Y-85242728D01*
X160433250Y-85180063D01*
X160396043Y-85117479D01*
X160358946Y-85055081D01*
X160322021Y-84992975D01*
X160285333Y-84931268D01*
X160248943Y-84870067D01*
X160212917Y-84809476D01*
X160177315Y-84749603D01*
X160142203Y-84690554D01*
X160107642Y-84632435D01*
X160073697Y-84575352D01*
X160040429Y-84519412D01*
X160007903Y-84464720D01*
X159976182Y-84411383D01*
X159945328Y-84359508D01*
X159915405Y-84309200D01*
X159886476Y-84260566D01*
X159858604Y-84213711D01*
X159831852Y-84168743D01*
X159806284Y-84125768D01*
X159781962Y-84084891D01*
X159758951Y-84046219D01*
X159737312Y-84009858D01*
X159717109Y-83975915D01*
X159698406Y-83944495D01*
X159681265Y-83915705D01*
X159665749Y-83889651D01*
X159651923Y-83866440D01*
X159639848Y-83846177D01*
X159629588Y-83828969D01*
X159621207Y-83814923D01*
X159614767Y-83804143D01*
X159611077Y-83797981D01*
X159594450Y-83770254D01*
X159594450Y-82973909D01*
X159590039Y-82962120D01*
X159581897Y-82946199D01*
X159570379Y-82932188D01*
X159556162Y-82920774D01*
X159542138Y-82913496D01*
X159538799Y-82912303D01*
X159535019Y-82911349D01*
X159530272Y-82910598D01*
X159524031Y-82910016D01*
X159515769Y-82909567D01*
X159504960Y-82909214D01*
X159491078Y-82908924D01*
X159473595Y-82908659D01*
X159469571Y-82908606D01*
X159446714Y-82908406D01*
X159427956Y-82908460D01*
G04 #@! TA.AperFunction,EtchedComponent*
G36*
X160961581Y-86068942D02*
G01*
X160991954Y-86120058D01*
X161021364Y-86169554D01*
X161049747Y-86217325D01*
X161077039Y-86263263D01*
X161103178Y-86307263D01*
X161128100Y-86349217D01*
X161151743Y-86389021D01*
X161174043Y-86426567D01*
X161194936Y-86461750D01*
X161214361Y-86494463D01*
X161232253Y-86524600D01*
X161247312Y-86549970D01*
X161248549Y-86552055D01*
X161263187Y-86576722D01*
X161276103Y-86598493D01*
X161287234Y-86617264D01*
X161296516Y-86632927D01*
X161303888Y-86645377D01*
X161309285Y-86654507D01*
X161312644Y-86660211D01*
X161313902Y-86662383D01*
X161318262Y-86672138D01*
X161324634Y-86692578D01*
X161328400Y-86714495D01*
X161329369Y-86736540D01*
X161327350Y-86757358D01*
X161320680Y-86782977D01*
X161310353Y-86806684D01*
X161296572Y-86828153D01*
X161279518Y-86847182D01*
X161259371Y-86863571D01*
X161236313Y-86877117D01*
X161210525Y-86887619D01*
X161208116Y-86888398D01*
X161205158Y-86889266D01*
X161202004Y-86890008D01*
X161198317Y-86890641D01*
X161193760Y-86891177D01*
X161187998Y-86891630D01*
X161180693Y-86892015D01*
X161171510Y-86892345D01*
X161160112Y-86892635D01*
X161146162Y-86892899D01*
X161129325Y-86893150D01*
X161109264Y-86893403D01*
X161085643Y-86893671D01*
X161058125Y-86893969D01*
X161043134Y-86894121D01*
X161015307Y-86894370D01*
X160984436Y-86894609D01*
X160951261Y-86894835D01*
X160916526Y-86895044D01*
X160880971Y-86895232D01*
X160845337Y-86895395D01*
X160810368Y-86895528D01*
X160776804Y-86895627D01*
X160745387Y-86895690D01*
X160570233Y-86895933D01*
X160570233Y-87329884D01*
X160570228Y-87378361D01*
X160570217Y-87422841D01*
X160570198Y-87463497D01*
X160570169Y-87500507D01*
X160570130Y-87534044D01*
X160570078Y-87564285D01*
X160570013Y-87591405D01*
X160569934Y-87615579D01*
X160569838Y-87636983D01*
X160569725Y-87655792D01*
X160569593Y-87672183D01*
X160569441Y-87686329D01*
X160569268Y-87698407D01*
X160569072Y-87708592D01*
X160568852Y-87717060D01*
X160568606Y-87723986D01*
X160568333Y-87729545D01*
X160568033Y-87733914D01*
X160567702Y-87737266D01*
X160567341Y-87739779D01*
X160566948Y-87741626D01*
X160562485Y-87754556D01*
X160553378Y-87770392D01*
X160541164Y-87783589D01*
X160526189Y-87793795D01*
X160508799Y-87800659D01*
X160507379Y-87801022D01*
X160502840Y-87801881D01*
X160497026Y-87802536D01*
X160489445Y-87803004D01*
X160479604Y-87803301D01*
X160467010Y-87803445D01*
X160451171Y-87803453D01*
X160431592Y-87803342D01*
X160427138Y-87803308D01*
X160409526Y-87803155D01*
X160395504Y-87802976D01*
X160384547Y-87802734D01*
X160376130Y-87802395D01*
X160369726Y-87801920D01*
X160364810Y-87801274D01*
X160360856Y-87800420D01*
X160357338Y-87799321D01*
X160353731Y-87797942D01*
X160342534Y-87792268D01*
X160328818Y-87781546D01*
X160317408Y-87768018D01*
X160308861Y-87752380D01*
X160303733Y-87735332D01*
X160303662Y-87734865D01*
X160303359Y-87730891D01*
X160303079Y-87723768D01*
X160302823Y-87713418D01*
X160302590Y-87699764D01*
X160302379Y-87682728D01*
X160302191Y-87662234D01*
X160302024Y-87638203D01*
X160301878Y-87610558D01*
X160301753Y-87579221D01*
X160301648Y-87544116D01*
X160301564Y-87505165D01*
X160301499Y-87462290D01*
X160301453Y-87415415D01*
X160301425Y-87364460D01*
X160301417Y-87309350D01*
X160301417Y-86895928D01*
X158619725Y-86896992D01*
X158618666Y-87320370D01*
X158617608Y-87743748D01*
X158610664Y-87757853D01*
X158609360Y-87760389D01*
X158599010Y-87775357D01*
X158585735Y-87787552D01*
X158570083Y-87796555D01*
X158552604Y-87801951D01*
X158550562Y-87802274D01*
X158542553Y-87803011D01*
X158531493Y-87803556D01*
X158518109Y-87803916D01*
X158503130Y-87804096D01*
X158487284Y-87804101D01*
X158471300Y-87803939D01*
X158455905Y-87803615D01*
X158441828Y-87803135D01*
X158429797Y-87802505D01*
X158420541Y-87801731D01*
X158414788Y-87800819D01*
X158414199Y-87800663D01*
X158396369Y-87794075D01*
X158381494Y-87784508D01*
X158369358Y-87771783D01*
X158359744Y-87755725D01*
X158353025Y-87741542D01*
X158352470Y-87318779D01*
X158351915Y-86896015D01*
X158040262Y-86895445D01*
X157728608Y-86894875D01*
X157708500Y-86887888D01*
X157690487Y-86880799D01*
X157672730Y-86871438D01*
X157656512Y-86859837D01*
X157640420Y-86845110D01*
X157633936Y-86838459D01*
X157627015Y-86830691D01*
X157621612Y-86823375D01*
X157616758Y-86815158D01*
X157611483Y-86804684D01*
X157604378Y-86788501D01*
X157598494Y-86770338D01*
X157595216Y-86752297D01*
X157594200Y-86732950D01*
X157594989Y-86716417D01*
X157599435Y-86691681D01*
X157607823Y-86668392D01*
X157608142Y-86667791D01*
X157610407Y-86663825D01*
X157614743Y-86656369D01*
X157621088Y-86645530D01*
X157629378Y-86631415D01*
X157639551Y-86614130D01*
X157651543Y-86593782D01*
X157665290Y-86570476D01*
X157678783Y-86547619D01*
X158263533Y-86547619D01*
X158263970Y-86560507D01*
X158268569Y-86573828D01*
X158275343Y-86583835D01*
X158286639Y-86593525D01*
X158301672Y-86601257D01*
X158303435Y-86601867D01*
X158305853Y-86602452D01*
X158309069Y-86602959D01*
X158313369Y-86603395D01*
X158319038Y-86603766D01*
X158326365Y-86604080D01*
X158335634Y-86604342D01*
X158347132Y-86604559D01*
X158361146Y-86604737D01*
X158377961Y-86604883D01*
X158397864Y-86605004D01*
X158421142Y-86605106D01*
X158448081Y-86605195D01*
X158478966Y-86605278D01*
X158509065Y-86605349D01*
X158537622Y-86605398D01*
X158562504Y-86605401D01*
X158584001Y-86605346D01*
X158602402Y-86605215D01*
X158617996Y-86604993D01*
X158631073Y-86604665D01*
X158641922Y-86604216D01*
X158650833Y-86603631D01*
X158658095Y-86602893D01*
X158663998Y-86601987D01*
X158668830Y-86600899D01*
X158672882Y-86599612D01*
X158676443Y-86598111D01*
X158679801Y-86596382D01*
X158683247Y-86594407D01*
X158686780Y-86592185D01*
X158697518Y-86582829D01*
X158704622Y-86572087D01*
X158708150Y-86560484D01*
X158708154Y-86550917D01*
X160212549Y-86550917D01*
X160212722Y-86553107D01*
X160214955Y-86560945D01*
X160219111Y-86569643D01*
X160224358Y-86577641D01*
X160229865Y-86583378D01*
X160230180Y-86583618D01*
X160234413Y-86586745D01*
X160238377Y-86589261D01*
X160242570Y-86591233D01*
X160247494Y-86592728D01*
X160253648Y-86593810D01*
X160261534Y-86594547D01*
X160271652Y-86595005D01*
X160284501Y-86595250D01*
X160300584Y-86595349D01*
X160320399Y-86595367D01*
X160388200Y-86595367D01*
X160388200Y-86656329D01*
X160388284Y-86672471D01*
X160388505Y-86687753D01*
X160388843Y-86701500D01*
X160389277Y-86713039D01*
X160389787Y-86721694D01*
X160390353Y-86726791D01*
X160394340Y-86739515D01*
X160401677Y-86750785D01*
X160411965Y-86759126D01*
X160419189Y-86762551D01*
X160432283Y-86765531D01*
X160445487Y-86764977D01*
X160457973Y-86761081D01*
X160468913Y-86754033D01*
X160477480Y-86744025D01*
X160478619Y-86742130D01*
X160479732Y-86739867D01*
X160480610Y-86737151D01*
X160481288Y-86733509D01*
X160481800Y-86728468D01*
X160482178Y-86721555D01*
X160482456Y-86712299D01*
X160482668Y-86700227D01*
X160482847Y-86684867D01*
X160483027Y-86665746D01*
X160483662Y-86595367D01*
X160552877Y-86595320D01*
X160557814Y-86595316D01*
X160575946Y-86595282D01*
X160590452Y-86595199D01*
X160601820Y-86595040D01*
X160610542Y-86594777D01*
X160617106Y-86594385D01*
X160622002Y-86593835D01*
X160625720Y-86593100D01*
X160628749Y-86592155D01*
X160631578Y-86590971D01*
X160637279Y-86588189D01*
X160644320Y-86583481D01*
X160649467Y-86577511D01*
X160654121Y-86568908D01*
X160656359Y-86563393D01*
X160658911Y-86549970D01*
X160657365Y-86537054D01*
X160651818Y-86525085D01*
X160642363Y-86514506D01*
X160639069Y-86511977D01*
X160631384Y-86507414D01*
X160624205Y-86504570D01*
X160621342Y-86504092D01*
X160613644Y-86503451D01*
X160602259Y-86502934D01*
X160587515Y-86502551D01*
X160569742Y-86502315D01*
X160549270Y-86502233D01*
X160483614Y-86502233D01*
X160482392Y-86362943D01*
X160475750Y-86353742D01*
X160470967Y-86348169D01*
X160460584Y-86340150D01*
X160448683Y-86334829D01*
X160436573Y-86332900D01*
X160425915Y-86333996D01*
X160413199Y-86338803D01*
X160402427Y-86347305D01*
X160393827Y-86359358D01*
X160393453Y-86360061D01*
X160392253Y-86362593D01*
X160391297Y-86365428D01*
X160390551Y-86369058D01*
X160389981Y-86373973D01*
X160389552Y-86380666D01*
X160389231Y-86389626D01*
X160388983Y-86401346D01*
X160388775Y-86416317D01*
X160388571Y-86435029D01*
X160387885Y-86502233D01*
X160323363Y-86502233D01*
X160317755Y-86502239D01*
X160296277Y-86502375D01*
X160278543Y-86502694D01*
X160264676Y-86503192D01*
X160254796Y-86503863D01*
X160249026Y-86504705D01*
X160248355Y-86504881D01*
X160237507Y-86509818D01*
X160227731Y-86517867D01*
X160219798Y-86528051D01*
X160214480Y-86539393D01*
X160212946Y-86548542D01*
X160212549Y-86550917D01*
X158708154Y-86550917D01*
X158708155Y-86548542D01*
X158704695Y-86536785D01*
X158697824Y-86525738D01*
X158687598Y-86515924D01*
X158674072Y-86507866D01*
X158672867Y-86507317D01*
X158671034Y-86506567D01*
X158668951Y-86505914D01*
X158666335Y-86505352D01*
X158662901Y-86504871D01*
X158658363Y-86504464D01*
X158652439Y-86504124D01*
X158644842Y-86503841D01*
X158635289Y-86503609D01*
X158623495Y-86503418D01*
X158609175Y-86503262D01*
X158592044Y-86503132D01*
X158571819Y-86503020D01*
X158548214Y-86502918D01*
X158520945Y-86502819D01*
X158489727Y-86502715D01*
X158460024Y-86502614D01*
X158431227Y-86502524D01*
X158406120Y-86502474D01*
X158384421Y-86502481D01*
X158365846Y-86502565D01*
X158350111Y-86502746D01*
X158336932Y-86503041D01*
X158326026Y-86503470D01*
X158317108Y-86504052D01*
X158309896Y-86504806D01*
X158304106Y-86505750D01*
X158299453Y-86506904D01*
X158295654Y-86508286D01*
X158292426Y-86509915D01*
X158289485Y-86511811D01*
X158286547Y-86513991D01*
X158283329Y-86516476D01*
X158274882Y-86524184D01*
X158267193Y-86535425D01*
X158263533Y-86547619D01*
X157678783Y-86547619D01*
X157680731Y-86544319D01*
X157697802Y-86515417D01*
X157716440Y-86483877D01*
X157736582Y-86449805D01*
X157758164Y-86413307D01*
X157781125Y-86374491D01*
X157805400Y-86333461D01*
X157830927Y-86290325D01*
X157857642Y-86245188D01*
X157885483Y-86198158D01*
X157914386Y-86149340D01*
X157944289Y-86098841D01*
X157975128Y-86046767D01*
X158006841Y-85993225D01*
X158039364Y-85938321D01*
X158072634Y-85882160D01*
X158106588Y-85824851D01*
X158141163Y-85766498D01*
X158176296Y-85707209D01*
X158211924Y-85647089D01*
X158247984Y-85586246D01*
X158284413Y-85524784D01*
X158321148Y-85462812D01*
X158358125Y-85400434D01*
X158395282Y-85337758D01*
X158432556Y-85274889D01*
X158469883Y-85211935D01*
X158507201Y-85149001D01*
X158544446Y-85086194D01*
X158581555Y-85023620D01*
X158611422Y-84973262D01*
X158921820Y-84973262D01*
X158921908Y-84976120D01*
X158922152Y-84979504D01*
X158922588Y-84983605D01*
X158923254Y-84988614D01*
X158924185Y-84994720D01*
X158925420Y-85002115D01*
X158926994Y-85010989D01*
X158928946Y-85021532D01*
X158931312Y-85033935D01*
X158934129Y-85048388D01*
X158937434Y-85065083D01*
X158941264Y-85084208D01*
X158945656Y-85105955D01*
X158950647Y-85130514D01*
X158956275Y-85158076D01*
X158962575Y-85188831D01*
X158969585Y-85222970D01*
X158977342Y-85260682D01*
X158985882Y-85302160D01*
X158995244Y-85347592D01*
X158996736Y-85354830D01*
X159006196Y-85400763D01*
X159014844Y-85442767D01*
X159022725Y-85481028D01*
X159029889Y-85515732D01*
X159036383Y-85547066D01*
X159042254Y-85575216D01*
X159047550Y-85600368D01*
X159052319Y-85622708D01*
X159056609Y-85642424D01*
X159060466Y-85659700D01*
X159063939Y-85674724D01*
X159067074Y-85687681D01*
X159069921Y-85698759D01*
X159072527Y-85708142D01*
X159074938Y-85716018D01*
X159077203Y-85722573D01*
X159079370Y-85727992D01*
X159081485Y-85732463D01*
X159083597Y-85736172D01*
X159085754Y-85739305D01*
X159088002Y-85742047D01*
X159090390Y-85744586D01*
X159092965Y-85747108D01*
X159095775Y-85749799D01*
X159098867Y-85752845D01*
X159108566Y-85761763D01*
X159125809Y-85773598D01*
X159144475Y-85781557D01*
X159164867Y-85785756D01*
X159187291Y-85786309D01*
X159195521Y-85785741D01*
X159204474Y-85784478D01*
X159212211Y-85782303D01*
X159220480Y-85778821D01*
X159222507Y-85777847D01*
X159238410Y-85767962D01*
X159250978Y-85755579D01*
X159260424Y-85740493D01*
X159260905Y-85739495D01*
X159264136Y-85732811D01*
X159266494Y-85727958D01*
X159267497Y-85725928D01*
X159268516Y-85726293D01*
X159272519Y-85728350D01*
X159278829Y-85731826D01*
X159286669Y-85736300D01*
X159290471Y-85738478D01*
X159328924Y-85757890D01*
X159368726Y-85773406D01*
X159409593Y-85784958D01*
X159451241Y-85792478D01*
X159493386Y-85795900D01*
X159535744Y-85795156D01*
X159572024Y-85791036D01*
X159606711Y-85783674D01*
X159639259Y-85773196D01*
X159669384Y-85759711D01*
X159696802Y-85743329D01*
X159721227Y-85724157D01*
X159721626Y-85723799D01*
X159727073Y-85719115D01*
X159731117Y-85715993D01*
X159732909Y-85715092D01*
X159733102Y-85715803D01*
X159734075Y-85720137D01*
X159735797Y-85728139D01*
X159738205Y-85739502D01*
X159741234Y-85753918D01*
X159744820Y-85771082D01*
X159748899Y-85790684D01*
X159753407Y-85812418D01*
X159758279Y-85835978D01*
X159763453Y-85861055D01*
X159768863Y-85887342D01*
X159773477Y-85909769D01*
X159779334Y-85938150D01*
X159784465Y-85962865D01*
X159788932Y-85984197D01*
X159792802Y-86002428D01*
X159796138Y-86017842D01*
X159799005Y-86030722D01*
X159801467Y-86041351D01*
X159803590Y-86050012D01*
X159805437Y-86056988D01*
X159807073Y-86062562D01*
X159808563Y-86067018D01*
X159809971Y-86070637D01*
X159811362Y-86073705D01*
X159815833Y-86081824D01*
X159827828Y-86097759D01*
X159842817Y-86111835D01*
X159860023Y-86123383D01*
X159878670Y-86131735D01*
X159879104Y-86131882D01*
X159897835Y-86136346D01*
X159916746Y-86137431D01*
X159935143Y-86135281D01*
X159952333Y-86130038D01*
X159967622Y-86121845D01*
X159980315Y-86110843D01*
X159981338Y-86109687D01*
X159991229Y-86095387D01*
X159998255Y-86079098D01*
X160002039Y-86061952D01*
X160002205Y-86045077D01*
X160001870Y-86043027D01*
X160000702Y-86036826D01*
X159998752Y-86026860D01*
X159996065Y-86013342D01*
X159992683Y-85996486D01*
X159988651Y-85976507D01*
X159984014Y-85953618D01*
X159978814Y-85928033D01*
X159973097Y-85899966D01*
X159966907Y-85869631D01*
X159960286Y-85837241D01*
X159953281Y-85803010D01*
X159945934Y-85767153D01*
X159938290Y-85729883D01*
X159930392Y-85691414D01*
X159922285Y-85651960D01*
X159914014Y-85611734D01*
X159905621Y-85570951D01*
X159897151Y-85529824D01*
X159888649Y-85488568D01*
X159880157Y-85447396D01*
X159871722Y-85406522D01*
X159863385Y-85366159D01*
X159855192Y-85326522D01*
X159847186Y-85287825D01*
X159839412Y-85250281D01*
X159831914Y-85214105D01*
X159824736Y-85179509D01*
X159817921Y-85146709D01*
X159811515Y-85115917D01*
X159805560Y-85087348D01*
X159800102Y-85061216D01*
X159795183Y-85037733D01*
X159790849Y-85017116D01*
X159787143Y-84999576D01*
X159784110Y-84985328D01*
X159781793Y-84974586D01*
X159780237Y-84967564D01*
X159779485Y-84964475D01*
X159778611Y-84961857D01*
X159770083Y-84943592D01*
X159758264Y-84927439D01*
X159743656Y-84913731D01*
X159726762Y-84902803D01*
X159708083Y-84894989D01*
X159688122Y-84890621D01*
X159667383Y-84890034D01*
X159658345Y-84891013D01*
X159639332Y-84895765D01*
X159622472Y-84903851D01*
X159608099Y-84915035D01*
X159596550Y-84929080D01*
X159588160Y-84945750D01*
X159587256Y-84948200D01*
X159586048Y-84951766D01*
X159585074Y-84955373D01*
X159584373Y-84959279D01*
X159583984Y-84963740D01*
X159583946Y-84969012D01*
X159584297Y-84975352D01*
X159585076Y-84983016D01*
X159586322Y-84992261D01*
X159588074Y-85003343D01*
X159590371Y-85016520D01*
X159593251Y-85032046D01*
X159596754Y-85050180D01*
X159600918Y-85071177D01*
X159605781Y-85095294D01*
X159611383Y-85122788D01*
X159617763Y-85153914D01*
X159624960Y-85188930D01*
X159626997Y-85198844D01*
X159632867Y-85227458D01*
X159638510Y-85255048D01*
X159643865Y-85281303D01*
X159648867Y-85305911D01*
X159653455Y-85328559D01*
X159657564Y-85348934D01*
X159661132Y-85366725D01*
X159664096Y-85381620D01*
X159666393Y-85393305D01*
X159667960Y-85401470D01*
X159668733Y-85405800D01*
X159669079Y-85408313D01*
X159670008Y-85420335D01*
X159670240Y-85434504D01*
X159669830Y-85449548D01*
X159668831Y-85464196D01*
X159667297Y-85477176D01*
X159665282Y-85487216D01*
X159663006Y-85494725D01*
X159654044Y-85516401D01*
X159642137Y-85536808D01*
X159627822Y-85555223D01*
X159611633Y-85570925D01*
X159594105Y-85583192D01*
X159587667Y-85586536D01*
X159573890Y-85592335D01*
X159558205Y-85597646D01*
X159542084Y-85601991D01*
X159527004Y-85604895D01*
X159525769Y-85605064D01*
X159512638Y-85606200D01*
X159496627Y-85606675D01*
X159478901Y-85606533D01*
X159460622Y-85605817D01*
X159442955Y-85604572D01*
X159427064Y-85602840D01*
X159414112Y-85600665D01*
X159413190Y-85600465D01*
X159382339Y-85592057D01*
X159352997Y-85580734D01*
X159325496Y-85566764D01*
X159300167Y-85550414D01*
X159277343Y-85531952D01*
X159257355Y-85511644D01*
X159240533Y-85489759D01*
X159227210Y-85466562D01*
X159217717Y-85442322D01*
X159217591Y-85441883D01*
X159216440Y-85437170D01*
X159214515Y-85428647D01*
X159211876Y-85416601D01*
X159208583Y-85401315D01*
X159204696Y-85383074D01*
X159200276Y-85362164D01*
X159195382Y-85338869D01*
X159190074Y-85313475D01*
X159184413Y-85286266D01*
X159178459Y-85257528D01*
X159172272Y-85227545D01*
X159165911Y-85196602D01*
X159160444Y-85169944D01*
X159153360Y-85135417D01*
X159147029Y-85104632D01*
X159141385Y-85077352D01*
X159136366Y-85053340D01*
X159131907Y-85032360D01*
X159127945Y-85014173D01*
X159124416Y-84998545D01*
X159121257Y-84985237D01*
X159118403Y-84974013D01*
X159115792Y-84964636D01*
X159113359Y-84956870D01*
X159111041Y-84950478D01*
X159108775Y-84945222D01*
X159106495Y-84940866D01*
X159104139Y-84937174D01*
X159101644Y-84933908D01*
X159098945Y-84930832D01*
X159095978Y-84927708D01*
X159092680Y-84924300D01*
X159083609Y-84915820D01*
X159067420Y-84904506D01*
X159050059Y-84896408D01*
X159032012Y-84891476D01*
X159013766Y-84889658D01*
X158995807Y-84890905D01*
X158978622Y-84895168D01*
X158962698Y-84902395D01*
X158948521Y-84912536D01*
X158936577Y-84925541D01*
X158927354Y-84941360D01*
X158925740Y-84945452D01*
X158923159Y-84956146D01*
X158921887Y-84969767D01*
X158921849Y-84970740D01*
X158921820Y-84973262D01*
X158611422Y-84973262D01*
X158618466Y-84961385D01*
X158655115Y-84899596D01*
X158691440Y-84838360D01*
X158727376Y-84777782D01*
X158762862Y-84717969D01*
X158797833Y-84659027D01*
X158832228Y-84601062D01*
X158865982Y-84544182D01*
X158899033Y-84488492D01*
X158931318Y-84434099D01*
X158962774Y-84381108D01*
X158993337Y-84329627D01*
X159022945Y-84279762D01*
X159051535Y-84231618D01*
X159079043Y-84185303D01*
X159105407Y-84140923D01*
X159130562Y-84098584D01*
X159154448Y-84058392D01*
X159176999Y-84020454D01*
X159198154Y-83984876D01*
X159217849Y-83951764D01*
X159236020Y-83921226D01*
X159252606Y-83893366D01*
X159267543Y-83868293D01*
X159280768Y-83846111D01*
X159292218Y-83826927D01*
X159301829Y-83810848D01*
X159309539Y-83797979D01*
X159315285Y-83788428D01*
X159319004Y-83782301D01*
X159320632Y-83779704D01*
X159327696Y-83769682D01*
X159328252Y-83370129D01*
X159328808Y-82970575D01*
X159335527Y-82956392D01*
X159337249Y-82952941D01*
X159347674Y-82937344D01*
X159360838Y-82924920D01*
X159376520Y-82915839D01*
X159394500Y-82910275D01*
X159395014Y-82910178D01*
X159402233Y-82909344D01*
X159413171Y-82908772D01*
X159427956Y-82908460D01*
X159446714Y-82908406D01*
X159469571Y-82908606D01*
X159473595Y-82908659D01*
X159491078Y-82908924D01*
X159504960Y-82909214D01*
X159515769Y-82909567D01*
X159524031Y-82910016D01*
X159530272Y-82910598D01*
X159535019Y-82911349D01*
X159538799Y-82912303D01*
X159542138Y-82913496D01*
X159556162Y-82920774D01*
X159570379Y-82932188D01*
X159581897Y-82946199D01*
X159590039Y-82962120D01*
X159594450Y-82973909D01*
X159594450Y-83770254D01*
X159611077Y-83797981D01*
X159614767Y-83804143D01*
X159621207Y-83814923D01*
X159629588Y-83828969D01*
X159639848Y-83846177D01*
X159651923Y-83866440D01*
X159665749Y-83889651D01*
X159681265Y-83915705D01*
X159698406Y-83944495D01*
X159717109Y-83975915D01*
X159737312Y-84009858D01*
X159758951Y-84046219D01*
X159781962Y-84084891D01*
X159806284Y-84125768D01*
X159831852Y-84168743D01*
X159858604Y-84213711D01*
X159886476Y-84260566D01*
X159915405Y-84309200D01*
X159945328Y-84359508D01*
X159976182Y-84411383D01*
X160007903Y-84464720D01*
X160040429Y-84519412D01*
X160073697Y-84575352D01*
X160107642Y-84632435D01*
X160142203Y-84690554D01*
X160177315Y-84749603D01*
X160212917Y-84809476D01*
X160248943Y-84870067D01*
X160285333Y-84931268D01*
X160322021Y-84992975D01*
X160358946Y-85055081D01*
X160396043Y-85117479D01*
X160433250Y-85180063D01*
X160470504Y-85242728D01*
X160507741Y-85305366D01*
X160544899Y-85367872D01*
X160581913Y-85430139D01*
X160618722Y-85492062D01*
X160655261Y-85553533D01*
X160691468Y-85614447D01*
X160727280Y-85674697D01*
X160762633Y-85734177D01*
X160797464Y-85792781D01*
X160831710Y-85850403D01*
X160865308Y-85906936D01*
X160898194Y-85962275D01*
X160930306Y-86016312D01*
X160947400Y-86045077D01*
X160961581Y-86068942D01*
G37*
G04 #@! TD.AperFunction*
G04 #@! TD*
D15*
G04 #@! TO.P,C1,1*
G04 #@! TO.N,inaIN-*
X129680000Y-88805000D03*
G04 #@! TO.P,C1,2*
G04 #@! TO.N,ampRef*
X127180000Y-88805000D03*
G04 #@! TD*
G04 #@! TO.P,C2,1*
G04 #@! TO.N,inaIN+*
X128430000Y-93905000D03*
G04 #@! TO.P,C2,2*
G04 #@! TO.N,inaIN-*
X128430000Y-91405000D03*
G04 #@! TD*
G04 #@! TO.P,C3,1*
G04 #@! TO.N,ampRef*
X127180000Y-96555000D03*
G04 #@! TO.P,C3,2*
G04 #@! TO.N,inaIN+*
X129680000Y-96555000D03*
G04 #@! TD*
G04 #@! TO.P,C4,1*
G04 #@! TO.N,Net-(U1D-+)*
X149580000Y-83905000D03*
G04 #@! TO.P,C4,2*
G04 #@! TO.N,+5V*
X149580000Y-81405000D03*
G04 #@! TD*
G04 #@! TO.P,C5,1*
G04 #@! TO.N,Net-(U1C--)*
X154830000Y-103555000D03*
G04 #@! TO.P,C5,2*
G04 #@! TO.N,bpfOUT*
X152330000Y-103555000D03*
G04 #@! TD*
G04 #@! TO.P,C7,1*
G04 #@! TO.N,GND*
X149580000Y-98805000D03*
G04 #@! TO.P,C7,2*
G04 #@! TO.N,Net-(U1D-+)*
X149580000Y-96305000D03*
G04 #@! TD*
D16*
G04 #@! TO.P,C8,1*
G04 #@! TO.N,Net-(C8-Pad1)*
X146480000Y-102805000D03*
D15*
G04 #@! TO.P,C8,2*
G04 #@! TO.N,Net-(U1C--)*
X148980000Y-102805000D03*
G04 #@! TD*
G04 #@! TO.P,C9,1*
G04 #@! TO.N,GND*
X152780000Y-83905000D03*
G04 #@! TO.P,C9,2*
G04 #@! TO.N,+5V*
X152780000Y-81405000D03*
G04 #@! TD*
D16*
G04 #@! TO.P,C10,1*
G04 #@! TO.N,+5V*
X151080000Y-87605000D03*
D15*
G04 #@! TO.P,C10,2*
G04 #@! TO.N,GND*
X151080000Y-90105000D03*
G04 #@! TD*
D17*
G04 #@! TO.P,J1,1,Pin_1_1*
G04 #@! TO.N,+5V*
X160980000Y-90130000D03*
D18*
G04 #@! TO.P,J1,2,Pin_2_2*
G04 #@! TO.N,GND*
X160980000Y-92670000D03*
G04 #@! TO.P,J1,3,Pin_3_3*
G04 #@! TO.N,bpfOUT*
X160980000Y-95210000D03*
G04 #@! TD*
D19*
G04 #@! TO.P,J2,1,Pin_1_1*
G04 #@! TO.N,bioIN-*
X122380000Y-90655000D03*
D20*
G04 #@! TO.P,J2,2,Pin_2_2*
G04 #@! TO.N,bioIN+*
X122380000Y-92655000D03*
G04 #@! TO.P,J2,3,Pin_3_3*
G04 #@! TO.N,ampRef*
X122380000Y-94655000D03*
G04 #@! TD*
D15*
G04 #@! TO.P,R1,1*
G04 #@! TO.N,Net-(R1-Pad1)*
X133830000Y-81855000D03*
D21*
G04 #@! TO.P,R1,2*
G04 #@! TO.N,Net-(U1A--)*
X126210000Y-81855000D03*
G04 #@! TD*
D15*
G04 #@! TO.P,R2,1*
G04 #@! TO.N,inaOUT*
X133880000Y-103505000D03*
D21*
G04 #@! TO.P,R2,2*
G04 #@! TO.N,Net-(U1B--)*
X126260000Y-103505000D03*
G04 #@! TD*
D15*
G04 #@! TO.P,R3,1*
G04 #@! TO.N,inaIN-*
X129680000Y-85755000D03*
D21*
G04 #@! TO.P,R3,2*
G04 #@! TO.N,bioIN-*
X122060000Y-85755000D03*
G04 #@! TD*
D15*
G04 #@! TO.P,R4,1*
G04 #@! TO.N,Net-(U1A--)*
X136030000Y-81855000D03*
D21*
G04 #@! TO.P,R4,2*
G04 #@! TO.N,ampRef*
X143650000Y-81855000D03*
G04 #@! TD*
D15*
G04 #@! TO.P,R5,1*
G04 #@! TO.N,Net-(U1B--)*
X132380000Y-96415000D03*
D21*
G04 #@! TO.P,R5,2*
G04 #@! TO.N,Net-(R1-Pad1)*
X132380000Y-88795000D03*
G04 #@! TD*
D15*
G04 #@! TO.P,R6,1*
G04 #@! TO.N,inaIN+*
X129680000Y-99655000D03*
D21*
G04 #@! TO.P,R6,2*
G04 #@! TO.N,bioIN+*
X122060000Y-99655000D03*
G04 #@! TD*
D15*
G04 #@! TO.P,R7,1*
G04 #@! TO.N,Net-(U1D-+)*
X146430000Y-89005000D03*
D21*
G04 #@! TO.P,R7,2*
G04 #@! TO.N,+5V*
X146430000Y-81385000D03*
G04 #@! TD*
D15*
G04 #@! TO.P,R8,1*
G04 #@! TO.N,GND*
X146430000Y-98805000D03*
D21*
G04 #@! TO.P,R8,2*
G04 #@! TO.N,Net-(U1D-+)*
X146430000Y-91185000D03*
G04 #@! TD*
D15*
G04 #@! TO.P,R9,1*
G04 #@! TO.N,bpfOUT*
X152780000Y-100805000D03*
D21*
G04 #@! TO.P,R9,2*
G04 #@! TO.N,Net-(U1C--)*
X152780000Y-93185000D03*
G04 #@! TD*
D15*
G04 #@! TO.P,R10,1*
G04 #@! TO.N,Net-(C8-Pad1)*
X143680000Y-103505000D03*
D21*
G04 #@! TO.P,R10,2*
G04 #@! TO.N,inaOUT*
X136060000Y-103505000D03*
G04 #@! TD*
D22*
G04 #@! TO.P,U1,1*
G04 #@! TO.N,Net-(R1-Pad1)*
X135575000Y-85080000D03*
D23*
G04 #@! TO.P,U1,2,-_2*
G04 #@! TO.N,Net-(U1A--)*
X135575000Y-87620000D03*
G04 #@! TO.P,U1,3,+_3*
G04 #@! TO.N,inaIN-*
X135575000Y-90160000D03*
G04 #@! TO.P,U1,4,V+_4*
G04 #@! TO.N,+5V*
X135575000Y-92700000D03*
G04 #@! TO.P,U1,5,+_5*
G04 #@! TO.N,inaIN+*
X135575000Y-95240000D03*
G04 #@! TO.P,U1,6,-_6*
G04 #@! TO.N,Net-(U1B--)*
X135575000Y-97780000D03*
G04 #@! TO.P,U1,7*
G04 #@! TO.N,inaOUT*
X135575000Y-100320000D03*
G04 #@! TO.P,U1,8*
G04 #@! TO.N,bpfOUT*
X143195000Y-100320000D03*
G04 #@! TO.P,U1,9,-_9*
G04 #@! TO.N,Net-(U1C--)*
X143195000Y-97780000D03*
G04 #@! TO.P,U1,10,+_10*
G04 #@! TO.N,ampRef*
X143195000Y-95240000D03*
G04 #@! TO.P,U1,11,V-_11*
G04 #@! TO.N,GND*
X143195000Y-92700000D03*
G04 #@! TO.P,U1,12,+_12*
G04 #@! TO.N,Net-(U1D-+)*
X143195000Y-90160000D03*
G04 #@! TO.P,U1,13,-_13*
G04 #@! TO.N,ampRef*
X143195000Y-87620000D03*
G04 #@! TO.P,U1,14*
X143195000Y-85080000D03*
G04 #@! TD*
D15*
G04 #@! TO.P,R4,1*
G04 #@! TO.N,Net-(U1A--)*
X217400000Y-103422144D03*
D21*
G04 #@! TO.P,R4,2*
G04 #@! TO.N,ampRef*
X209780000Y-103422144D03*
G04 #@! TD*
D15*
G04 #@! TO.P,R9,1*
G04 #@! TO.N,bpfOUT*
X200650000Y-84472144D03*
D21*
G04 #@! TO.P,R9,2*
G04 #@! TO.N,Net-(U1C--)*
X200650000Y-92092144D03*
G04 #@! TD*
D15*
G04 #@! TO.P,C4,1*
G04 #@! TO.N,Net-(U1D-+)*
X203850000Y-101372144D03*
G04 #@! TO.P,C4,2*
G04 #@! TO.N,+5V*
X203850000Y-103872144D03*
G04 #@! TD*
G04 #@! TO.P,R2,1*
G04 #@! TO.N,inaOUT*
X219550000Y-81772144D03*
D21*
G04 #@! TO.P,R2,2*
G04 #@! TO.N,Net-(U1B--)*
X227170000Y-81772144D03*
G04 #@! TD*
D15*
G04 #@! TO.P,R7,1*
G04 #@! TO.N,Net-(U1D-+)*
X207000000Y-96272144D03*
D21*
G04 #@! TO.P,R7,2*
G04 #@! TO.N,+5V*
X207000000Y-103892144D03*
G04 #@! TD*
D15*
G04 #@! TO.P,C5,1*
G04 #@! TO.N,Net-(U1C--)*
X198600000Y-81722144D03*
G04 #@! TO.P,C5,2*
G04 #@! TO.N,bpfOUT*
X201100000Y-81722144D03*
G04 #@! TD*
G04 #@! TO.P,C7,1*
G04 #@! TO.N,GND*
X203850000Y-86472144D03*
G04 #@! TO.P,C7,2*
G04 #@! TO.N,Net-(U1D-+)*
X203850000Y-88972144D03*
G04 #@! TD*
G04 #@! TO.P,R5,1*
G04 #@! TO.N,Net-(U1B--)*
X221050000Y-88862144D03*
D21*
G04 #@! TO.P,R5,2*
G04 #@! TO.N,Net-(R1-Pad1)*
X221050000Y-96482144D03*
G04 #@! TD*
D24*
G04 #@! TO.P,J2,1,Pin_1_1*
G04 #@! TO.N,bioIN-*
X231050000Y-94622144D03*
D20*
G04 #@! TO.P,J2,2,Pin_2_2*
G04 #@! TO.N,bioIN+*
X231050000Y-92622144D03*
G04 #@! TO.P,J2,3,Pin_3_3*
G04 #@! TO.N,ampRef*
X231050000Y-90622144D03*
G04 #@! TD*
D15*
G04 #@! TO.P,R1,1*
G04 #@! TO.N,Net-(R1-Pad1)*
X219600000Y-103422144D03*
D21*
G04 #@! TO.P,R1,2*
G04 #@! TO.N,Net-(U1A--)*
X227220000Y-103422144D03*
G04 #@! TD*
D15*
G04 #@! TO.P,R8,1*
G04 #@! TO.N,GND*
X207000000Y-86472144D03*
D21*
G04 #@! TO.P,R8,2*
G04 #@! TO.N,Net-(U1D-+)*
X207000000Y-94092144D03*
G04 #@! TD*
D16*
G04 #@! TO.P,C8,1*
G04 #@! TO.N,Net-(C8-Pad1)*
X206950000Y-82472144D03*
D15*
G04 #@! TO.P,C8,2*
G04 #@! TO.N,Net-(U1C--)*
X204450000Y-82472144D03*
G04 #@! TD*
G04 #@! TO.P,C3,1*
G04 #@! TO.N,ampRef*
X226250000Y-88722144D03*
G04 #@! TO.P,C3,2*
G04 #@! TO.N,inaIN+*
X223750000Y-88722144D03*
G04 #@! TD*
D17*
G04 #@! TO.P,J1,1,Pin_1_1*
G04 #@! TO.N,+5V*
X192450000Y-95147144D03*
D18*
G04 #@! TO.P,J1,2,Pin_2_2*
G04 #@! TO.N,GND*
X192450000Y-92607144D03*
G04 #@! TO.P,J1,3,Pin_3_3*
G04 #@! TO.N,bpfOUT*
X192450000Y-90067144D03*
G04 #@! TD*
D15*
G04 #@! TO.P,R6,1*
G04 #@! TO.N,inaIN+*
X223750000Y-85622144D03*
D21*
G04 #@! TO.P,R6,2*
G04 #@! TO.N,bioIN+*
X231370000Y-85622144D03*
G04 #@! TD*
D15*
G04 #@! TO.P,C2,1*
G04 #@! TO.N,inaIN+*
X225000000Y-91372144D03*
G04 #@! TO.P,C2,2*
G04 #@! TO.N,inaIN-*
X225000000Y-93872144D03*
G04 #@! TD*
G04 #@! TO.P,R10,1*
G04 #@! TO.N,Net-(C8-Pad1)*
X209750000Y-81772144D03*
D21*
G04 #@! TO.P,R10,2*
G04 #@! TO.N,inaOUT*
X217370000Y-81772144D03*
G04 #@! TD*
D16*
G04 #@! TO.P,C10,1*
G04 #@! TO.N,+5V*
X202350000Y-97672144D03*
D15*
G04 #@! TO.P,C10,2*
G04 #@! TO.N,GND*
X202350000Y-95172144D03*
G04 #@! TD*
G04 #@! TO.P,C1,1*
G04 #@! TO.N,inaIN-*
X223750000Y-96472144D03*
G04 #@! TO.P,C1,2*
G04 #@! TO.N,ampRef*
X226250000Y-96472144D03*
G04 #@! TD*
D22*
G04 #@! TO.P,U1,1*
G04 #@! TO.N,Net-(R1-Pad1)*
X217855000Y-100197144D03*
D23*
G04 #@! TO.P,U1,2,-_2*
G04 #@! TO.N,Net-(U1A--)*
X217855000Y-97657144D03*
G04 #@! TO.P,U1,3,+_3*
G04 #@! TO.N,inaIN-*
X217855000Y-95117144D03*
G04 #@! TO.P,U1,4,V+_4*
G04 #@! TO.N,+5V*
X217855000Y-92577144D03*
G04 #@! TO.P,U1,5,+_5*
G04 #@! TO.N,inaIN+*
X217855000Y-90037144D03*
G04 #@! TO.P,U1,6,-_6*
G04 #@! TO.N,Net-(U1B--)*
X217855000Y-87497144D03*
G04 #@! TO.P,U1,7*
G04 #@! TO.N,inaOUT*
X217855000Y-84957144D03*
G04 #@! TO.P,U1,8*
G04 #@! TO.N,bpfOUT*
X210235000Y-84957144D03*
G04 #@! TO.P,U1,9,-_9*
G04 #@! TO.N,Net-(U1C--)*
X210235000Y-87497144D03*
G04 #@! TO.P,U1,10,+_10*
G04 #@! TO.N,ampRef*
X210235000Y-90037144D03*
G04 #@! TO.P,U1,11,V-_11*
G04 #@! TO.N,GND*
X210235000Y-92577144D03*
G04 #@! TO.P,U1,12,+_12*
G04 #@! TO.N,Net-(U1D-+)*
X210235000Y-95117144D03*
G04 #@! TO.P,U1,13,-_13*
G04 #@! TO.N,ampRef*
X210235000Y-97657144D03*
G04 #@! TO.P,U1,14*
X210235000Y-100197144D03*
G04 #@! TD*
D15*
G04 #@! TO.P,R3,1*
G04 #@! TO.N,inaIN-*
X223750000Y-99522144D03*
D21*
G04 #@! TO.P,R3,2*
G04 #@! TO.N,bioIN-*
X231370000Y-99522144D03*
G04 #@! TD*
D15*
G04 #@! TO.P,C9,1*
G04 #@! TO.N,GND*
X200650000Y-101372144D03*
G04 #@! TO.P,C9,2*
G04 #@! TO.N,+5V*
X200650000Y-103872144D03*
G04 #@! TD*
G04 #@! TO.N,ampRef*
D25*
X227350000Y-95372144D02*
X227350000Y-89822144D01*
X124880000Y-104655000D02*
X125680000Y-105455000D01*
X136780000Y-105455000D02*
X138880000Y-103355000D01*
X143200000Y-82305000D02*
X143650000Y-81855000D01*
X227350000Y-89822144D02*
X226250000Y-88722144D01*
X138880000Y-103355000D02*
X138880000Y-97055000D01*
X214550000Y-81922144D02*
X214550000Y-88222144D01*
X127180000Y-96555000D02*
X127180000Y-98555000D01*
X230350000Y-88722144D02*
X226250000Y-88722144D01*
X122380000Y-95855000D02*
X123080000Y-96555000D01*
X231050000Y-89422144D02*
X230350000Y-88722144D01*
X211265000Y-90037144D02*
X212550000Y-91322144D01*
X143200000Y-95240000D02*
X142165000Y-95240000D01*
X127180000Y-88805000D02*
X126080000Y-89905000D01*
X126080000Y-89905000D02*
X126080000Y-95455000D01*
X226250000Y-96472144D02*
X227350000Y-95372144D01*
X210230000Y-90037144D02*
X211265000Y-90037144D01*
X140880000Y-88755000D02*
X142015000Y-87620000D01*
X228550000Y-84422144D02*
X228550000Y-80622144D01*
X140880000Y-93955000D02*
X140880000Y-88755000D01*
X212550000Y-96522144D02*
X211415000Y-97657144D01*
X231050000Y-90622144D02*
X231050000Y-89422144D01*
X125680000Y-105455000D02*
X136780000Y-105455000D01*
X126080000Y-95455000D02*
X127180000Y-96555000D01*
X227750000Y-79822144D02*
X216650000Y-79822144D01*
X212550000Y-91322144D02*
X212550000Y-96522144D01*
X122380000Y-94655000D02*
X122380000Y-95855000D01*
X140695000Y-95240000D02*
X143200000Y-95240000D01*
X228550000Y-80622144D02*
X227750000Y-79822144D01*
X214550000Y-88222144D02*
X212735000Y-90037144D01*
X212735000Y-90037144D02*
X210230000Y-90037144D01*
X143200000Y-85080000D02*
X143200000Y-82305000D01*
X142165000Y-95240000D02*
X140880000Y-93955000D01*
X127180000Y-98555000D02*
X124880000Y-100855000D01*
X226250000Y-86722144D02*
X228550000Y-84422144D01*
X123080000Y-96555000D02*
X127180000Y-96555000D01*
X143200000Y-85080000D02*
X143200000Y-87620000D01*
X216650000Y-79822144D02*
X214550000Y-81922144D01*
X226250000Y-88722144D02*
X226250000Y-86722144D01*
X138880000Y-97055000D02*
X140695000Y-95240000D01*
X210230000Y-100197144D02*
X210230000Y-102972144D01*
X210230000Y-100197144D02*
X210230000Y-97657144D01*
X210230000Y-102972144D02*
X209780000Y-103422144D01*
X124880000Y-100855000D02*
X124880000Y-104655000D01*
X211415000Y-97657144D02*
X210230000Y-97657144D01*
X142015000Y-87620000D02*
X143200000Y-87620000D01*
G04 #@! TO.N,inaIN-*
X223750000Y-96472144D02*
X223750000Y-95122144D01*
X132430000Y-91405000D02*
X133675000Y-90160000D01*
X219755000Y-95117144D02*
X217850000Y-95117144D01*
X129680000Y-85755000D02*
X129680000Y-88805000D01*
X133675000Y-90160000D02*
X135580000Y-90160000D01*
X129680000Y-88805000D02*
X129680000Y-90155000D01*
X128430000Y-91405000D02*
X132430000Y-91405000D01*
X129680000Y-90155000D02*
X128430000Y-91405000D01*
X221000000Y-93872144D02*
X219755000Y-95117144D01*
X223750000Y-99522144D02*
X223750000Y-96472144D01*
X223750000Y-95122144D02*
X225000000Y-93872144D01*
X225000000Y-93872144D02*
X221000000Y-93872144D01*
G04 #@! TO.N,inaIN+*
X220600000Y-91372144D02*
X219265000Y-90037144D01*
X225000000Y-91372144D02*
X220600000Y-91372144D01*
X223750000Y-88722144D02*
X223750000Y-85622144D01*
X223750000Y-90122144D02*
X225000000Y-91372144D01*
X134165000Y-95240000D02*
X135580000Y-95240000D01*
X128430000Y-93905000D02*
X132830000Y-93905000D01*
X132830000Y-93905000D02*
X134165000Y-95240000D01*
X129680000Y-95155000D02*
X128430000Y-93905000D01*
X129680000Y-96555000D02*
X129680000Y-99655000D01*
X223750000Y-88722144D02*
X223750000Y-90122144D01*
X129680000Y-96555000D02*
X129680000Y-95155000D01*
X219265000Y-90037144D02*
X217850000Y-90037144D01*
G04 #@! TO.N,+5V*
X200000000Y-103872144D02*
X199150000Y-103022144D01*
X137335000Y-92700000D02*
X135580000Y-92700000D01*
X214350000Y-101922144D02*
X214350000Y-94322144D01*
X200670000Y-103892144D02*
X200650000Y-103872144D01*
X154280000Y-82255000D02*
X154280000Y-85255000D01*
X152780000Y-81405000D02*
X153430000Y-81405000D01*
X208230000Y-105122144D02*
X211150000Y-105122144D01*
X207000000Y-103892144D02*
X208230000Y-105122144D01*
X207000000Y-103892144D02*
X200670000Y-103892144D01*
X214350000Y-94322144D02*
X216095000Y-92577144D01*
X153430000Y-81405000D02*
X154280000Y-82255000D01*
X146430000Y-81385000D02*
X152760000Y-81385000D01*
X142280000Y-80155000D02*
X139080000Y-83355000D01*
X200650000Y-103872144D02*
X200000000Y-103872144D01*
X216095000Y-92577144D02*
X217850000Y-92577144D01*
X198500000Y-97672144D02*
X195975000Y-95147144D01*
X154280000Y-85255000D02*
X151930000Y-87605000D01*
X202350000Y-97672144D02*
X198500000Y-97672144D01*
X154930000Y-87605000D02*
X157455000Y-90130000D01*
X151080000Y-87605000D02*
X154930000Y-87605000D01*
X139080000Y-90955000D02*
X137335000Y-92700000D01*
X152760000Y-81385000D02*
X152780000Y-81405000D01*
X211150000Y-105122144D02*
X214350000Y-101922144D01*
X151930000Y-87605000D02*
X151080000Y-87605000D01*
X157455000Y-90130000D02*
X160980000Y-90130000D01*
X201500000Y-97672144D02*
X202350000Y-97672144D01*
X146430000Y-81385000D02*
X145200000Y-80155000D01*
X145200000Y-80155000D02*
X142280000Y-80155000D01*
X199150000Y-103022144D02*
X199150000Y-100022144D01*
X199150000Y-100022144D02*
X201500000Y-97672144D01*
X139080000Y-83355000D02*
X139080000Y-90955000D01*
G04 #@! TO.N,Net-(U1D-+)*
X146430000Y-94305000D02*
X146430000Y-91185000D01*
X205000000Y-88972144D02*
X207000000Y-90972144D01*
X207000000Y-94092144D02*
X209205000Y-94092144D01*
X149580000Y-83905000D02*
X148130000Y-83905000D01*
X149580000Y-96305000D02*
X148430000Y-96305000D01*
X207000000Y-90972144D02*
X207000000Y-94092144D01*
X148130000Y-83905000D02*
X146430000Y-85605000D01*
X203850000Y-101372144D02*
X205300000Y-101372144D01*
X148430000Y-96305000D02*
X146430000Y-94305000D01*
X203850000Y-88972144D02*
X205000000Y-88972144D01*
X209205000Y-94092144D02*
X210230000Y-95117144D01*
X207000000Y-99672144D02*
X207000000Y-96272144D01*
X146430000Y-89005000D02*
X146430000Y-91185000D01*
X146430000Y-85605000D02*
X146430000Y-89005000D01*
X146430000Y-91185000D02*
X144225000Y-91185000D01*
X205300000Y-101372144D02*
X207000000Y-99672144D01*
X144225000Y-91185000D02*
X143200000Y-90160000D01*
X207000000Y-96272144D02*
X207000000Y-94092144D01*
G04 #@! TO.N,bpfOUT*
X212150000Y-81122144D02*
X211150000Y-80122144D01*
D26*
X187750000Y-94767144D02*
X187750000Y-103000000D01*
D25*
X141280000Y-101355000D02*
X141280000Y-104155000D01*
X142280000Y-105155000D02*
X150730000Y-105155000D01*
D26*
X192450000Y-90067144D02*
X187750000Y-94767144D01*
X168000000Y-103750000D02*
X160980000Y-96730000D01*
D25*
X157025000Y-95210000D02*
X160980000Y-95210000D01*
X200650000Y-84472144D02*
X200650000Y-82172144D01*
D26*
X160980000Y-96730000D02*
X160980000Y-95210000D01*
D25*
X202700000Y-80122144D02*
X201100000Y-81722144D01*
X200650000Y-84472144D02*
X200650000Y-85822144D01*
X152780000Y-99455000D02*
X157025000Y-95210000D01*
X150730000Y-105155000D02*
X152330000Y-103555000D01*
X212150000Y-83922144D02*
X212150000Y-81122144D01*
X152780000Y-103105000D02*
X152330000Y-103555000D01*
X211150000Y-80122144D02*
X202700000Y-80122144D01*
D26*
X187750000Y-103000000D02*
X187000000Y-103750000D01*
D25*
X142315000Y-100320000D02*
X141280000Y-101355000D01*
X152780000Y-100805000D02*
X152780000Y-103105000D01*
D26*
X187000000Y-103750000D02*
X168000000Y-103750000D01*
D25*
X210230000Y-84957144D02*
X211115000Y-84957144D01*
X141280000Y-104155000D02*
X142280000Y-105155000D01*
X200650000Y-82172144D02*
X201100000Y-81722144D01*
X211115000Y-84957144D02*
X212150000Y-83922144D01*
X200650000Y-85822144D02*
X196405000Y-90067144D01*
X152780000Y-100805000D02*
X152780000Y-99455000D01*
X143200000Y-100320000D02*
X142315000Y-100320000D01*
G04 #@! TO.N,Net-(U1C--)*
X203300000Y-82472144D02*
X204450000Y-82472144D01*
X152230000Y-106155000D02*
X141680000Y-106155000D01*
X140280000Y-99955000D02*
X140280000Y-104755000D01*
X202450000Y-83322144D02*
X203300000Y-82472144D01*
X147880000Y-100555000D02*
X148980000Y-101655000D01*
X200650000Y-92092144D02*
X200650000Y-87422144D01*
X207350000Y-84722144D02*
X205550000Y-84722144D01*
X150980000Y-101955000D02*
X150130000Y-102805000D01*
X152780000Y-93185000D02*
X152780000Y-97855000D01*
X204450000Y-83622144D02*
X204450000Y-82472144D01*
X201200000Y-79122144D02*
X211750000Y-79122144D01*
X152780000Y-97855000D02*
X150980000Y-99655000D01*
X142455000Y-97780000D02*
X140280000Y-99955000D01*
X148980000Y-101655000D02*
X148980000Y-102805000D01*
X143305000Y-97780000D02*
X146080000Y-100555000D01*
X205550000Y-84722144D02*
X204450000Y-83622144D01*
X150980000Y-99655000D02*
X150980000Y-101955000D01*
X198600000Y-81722144D02*
X201200000Y-79122144D01*
X154830000Y-103555000D02*
X152230000Y-106155000D01*
X150130000Y-102805000D02*
X148980000Y-102805000D01*
X146080000Y-100555000D02*
X147880000Y-100555000D01*
X210125000Y-87497144D02*
X207350000Y-84722144D01*
X202450000Y-85622144D02*
X202450000Y-83322144D01*
X200650000Y-87422144D02*
X202450000Y-85622144D01*
X213150000Y-80522144D02*
X211750000Y-79122144D01*
X140280000Y-104755000D02*
X141680000Y-106155000D01*
X210230000Y-87497144D02*
X210975000Y-87497144D01*
X213150000Y-85322144D02*
X213150000Y-80522144D01*
X143200000Y-97780000D02*
X143305000Y-97780000D01*
X143200000Y-97780000D02*
X142455000Y-97780000D01*
X210230000Y-87497144D02*
X210125000Y-87497144D01*
X210975000Y-87497144D02*
X213150000Y-85322144D01*
G04 #@! TO.N,GND*
X152780000Y-83905000D02*
X151130000Y-85555000D01*
X203600000Y-95172144D02*
X202350000Y-95172144D01*
X151080000Y-90105000D02*
X151080000Y-97305000D01*
X204550000Y-98522144D02*
X204550000Y-96122144D01*
X145480000Y-93755000D02*
X145480000Y-97855000D01*
X210230000Y-92577144D02*
X209005000Y-92577144D01*
X151080000Y-90105000D02*
X154230000Y-90105000D01*
X202350000Y-95172144D02*
X202350000Y-87972144D01*
X148880000Y-89155000D02*
X149830000Y-90105000D01*
X146430000Y-98805000D02*
X149580000Y-98805000D01*
X204550000Y-96122144D02*
X203600000Y-95172144D01*
X156795000Y-92670000D02*
X160980000Y-92670000D01*
X144425000Y-92700000D02*
X145480000Y-93755000D01*
X209005000Y-92577144D02*
X207950000Y-91522144D01*
X202350000Y-95172144D02*
X199200000Y-95172144D01*
X202300000Y-99722144D02*
X203350000Y-99722144D01*
X207950000Y-87422144D02*
X207000000Y-86472144D01*
X207000000Y-86472144D02*
X203850000Y-86472144D01*
X148880000Y-86755000D02*
X148880000Y-89155000D01*
X202350000Y-87972144D02*
X203850000Y-86472144D01*
X154230000Y-90105000D02*
X156795000Y-92670000D01*
X200650000Y-101372144D02*
X202300000Y-99722144D01*
X203350000Y-99722144D02*
X204550000Y-98522144D01*
X143200000Y-92700000D02*
X144425000Y-92700000D01*
X199200000Y-95172144D02*
X196635000Y-92607144D01*
X145480000Y-97855000D02*
X146430000Y-98805000D01*
X151130000Y-85555000D02*
X150080000Y-85555000D01*
X149830000Y-90105000D02*
X151080000Y-90105000D01*
X150080000Y-85555000D02*
X148880000Y-86755000D01*
X151080000Y-97305000D02*
X149580000Y-98805000D01*
X207950000Y-91522144D02*
X207950000Y-87422144D01*
G04 #@! TO.N,Net-(C8-Pad1)*
X144380000Y-102805000D02*
X143680000Y-103505000D01*
X206950000Y-82472144D02*
X209050000Y-82472144D01*
X209050000Y-82472144D02*
X209750000Y-81772144D01*
X146480000Y-102805000D02*
X144380000Y-102805000D01*
G04 #@! TO.N,bioIN+*
X231850000Y-92622144D02*
X232950000Y-91522144D01*
X122380000Y-92655000D02*
X121580000Y-92655000D01*
X120480000Y-98075000D02*
X122060000Y-99655000D01*
X121580000Y-92655000D02*
X120480000Y-93755000D01*
X232950000Y-91522144D02*
X232950000Y-87202144D01*
X120480000Y-93755000D02*
X120480000Y-98075000D01*
X231050000Y-92622144D02*
X231850000Y-92622144D01*
X232950000Y-87202144D02*
X231370000Y-85622144D01*
G04 #@! TO.N,bioIN-*
X231370000Y-96742144D02*
X231370000Y-99522144D01*
X122380000Y-88855000D02*
X122060000Y-88535000D01*
X231050000Y-96422144D02*
X231370000Y-96742144D01*
X122060000Y-88535000D02*
X122060000Y-85755000D01*
X122380000Y-90655000D02*
X122380000Y-88855000D01*
X231050000Y-94622144D02*
X231050000Y-96422144D01*
G04 #@! TO.N,Net-(U1A--)*
X217950000Y-105122144D02*
X217400000Y-104572144D01*
X215550000Y-102722144D02*
X215550000Y-98722144D01*
X137880000Y-86555000D02*
X136815000Y-87620000D01*
X136030000Y-80705000D02*
X136030000Y-81855000D01*
X217400000Y-104572144D02*
X217400000Y-103422144D01*
X137180000Y-81855000D02*
X137880000Y-82555000D01*
X135480000Y-80155000D02*
X136030000Y-80705000D01*
X216615000Y-97657144D02*
X217850000Y-97657144D01*
X227220000Y-103422144D02*
X223450000Y-103422144D01*
X217400000Y-103422144D02*
X216250000Y-103422144D01*
X136815000Y-87620000D02*
X135580000Y-87620000D01*
X129980000Y-81855000D02*
X131680000Y-80155000D01*
X215550000Y-98722144D02*
X216615000Y-97657144D01*
X131680000Y-80155000D02*
X135480000Y-80155000D01*
X137880000Y-82555000D02*
X137880000Y-86555000D01*
X136030000Y-81855000D02*
X137180000Y-81855000D01*
X221750000Y-105122144D02*
X217950000Y-105122144D01*
X126210000Y-81855000D02*
X129980000Y-81855000D01*
X223450000Y-103422144D02*
X221750000Y-105122144D01*
X216250000Y-103422144D02*
X215550000Y-102722144D01*
G04 #@! TO.N,Net-(R1-Pad1)*
X132380000Y-88795000D02*
X132380000Y-86455000D01*
X133755000Y-85080000D02*
X135580000Y-85080000D01*
X219600000Y-103422144D02*
X219600000Y-101947144D01*
X133830000Y-83330000D02*
X135580000Y-85080000D01*
X219600000Y-101947144D02*
X217850000Y-100197144D01*
X219675000Y-100197144D02*
X217850000Y-100197144D01*
X221050000Y-96482144D02*
X221050000Y-98822144D01*
X132380000Y-86455000D02*
X133755000Y-85080000D01*
X133830000Y-81855000D02*
X133830000Y-83330000D01*
X221050000Y-98822144D02*
X219675000Y-100197144D01*
G04 #@! TO.N,Net-(U1B--)*
X132380000Y-96415000D02*
X132380000Y-97455000D01*
X135580000Y-97780000D02*
X135255000Y-97780000D01*
X221050000Y-88862144D02*
X221050000Y-87822144D01*
X217850000Y-87497144D02*
X218175000Y-87497144D01*
X220725000Y-87497144D02*
X217850000Y-87497144D01*
X132380000Y-97455000D02*
X132705000Y-97780000D01*
X223900000Y-81772144D02*
X227170000Y-81772144D01*
X221050000Y-87822144D02*
X220725000Y-87497144D01*
X218175000Y-87497144D02*
X223900000Y-81772144D01*
X135255000Y-97780000D02*
X129530000Y-103505000D01*
X129530000Y-103505000D02*
X126260000Y-103505000D01*
X132705000Y-97780000D02*
X135580000Y-97780000D01*
G04 #@! TO.N,inaOUT*
X136445000Y-100320000D02*
X137480000Y-101355000D01*
X216500000Y-81772144D02*
X217370000Y-81772144D01*
X219550000Y-81772144D02*
X217370000Y-81772144D01*
X137480000Y-102955000D02*
X136930000Y-103505000D01*
X215950000Y-83922144D02*
X215950000Y-82322144D01*
X217850000Y-84957144D02*
X216985000Y-84957144D01*
X135580000Y-100320000D02*
X136445000Y-100320000D01*
X137480000Y-101355000D02*
X137480000Y-102955000D01*
X136930000Y-103505000D02*
X136060000Y-103505000D01*
X216985000Y-84957144D02*
X215950000Y-83922144D01*
X133880000Y-103505000D02*
X136060000Y-103505000D01*
X215950000Y-82322144D02*
X216500000Y-81772144D01*
G04 #@! TD*
M02*
