G04 #@! TF.GenerationSoftware,KiCad,Pcbnew,10.0.6*
G04 #@! TF.CreationDate,2026-09-21T18:58:02-05:00*
G04 #@! TF.ProjectId,muscle-bioamp-biscute,6d757363-6c65-42d6-9269-6f616d702d62,v0.1*
G04 #@! TF.SameCoordinates,Original*
G04 #@! TF.FileFunction,Legend,Top*
G04 #@! TF.FilePolarity,Positive*
%FSLAX46Y46*%
G04 Gerber Fmt 4.6, Leading zero omitted, Abs format (unit mm)*
G04 Created by KiCad (PCBNEW 10.0.6) date 2026-09-21 18:58:02*
%MOMM*%
%LPD*%
G01*
G04 APERTURE LIST*
%ADD10C,0.150000*%
%ADD11C,0.170000*%
%ADD12C,0.200000*%
%ADD13C,0.250000*%
%ADD14C,0.106680*%
%ADD15C,0.070000*%
%ADD16C,0.120000*%
%ADD17C,0.127000*%
%ADD18C,0.100000*%
%ADD19C,0.504000*%
G04 APERTURE END LIST*
D10*
X127151430Y-106717295D02*
X127151430Y-105917295D01*
X127151430Y-105917295D02*
X127608573Y-106717295D01*
X127608573Y-106717295D02*
X127608573Y-105917295D01*
X127989525Y-106298247D02*
X128256191Y-106298247D01*
X128370477Y-106717295D02*
X127989525Y-106717295D01*
X127989525Y-106717295D02*
X127989525Y-105917295D01*
X127989525Y-105917295D02*
X128370477Y-105917295D01*
X128713335Y-105917295D02*
X128713335Y-106564914D01*
X128713335Y-106564914D02*
X128751430Y-106641104D01*
X128751430Y-106641104D02*
X128789525Y-106679200D01*
X128789525Y-106679200D02*
X128865716Y-106717295D01*
X128865716Y-106717295D02*
X129018097Y-106717295D01*
X129018097Y-106717295D02*
X129094287Y-106679200D01*
X129094287Y-106679200D02*
X129132382Y-106641104D01*
X129132382Y-106641104D02*
X129170478Y-106564914D01*
X129170478Y-106564914D02*
X129170478Y-105917295D01*
X130008573Y-106717295D02*
X129741906Y-106336342D01*
X129551430Y-106717295D02*
X129551430Y-105917295D01*
X129551430Y-105917295D02*
X129856192Y-105917295D01*
X129856192Y-105917295D02*
X129932382Y-105955390D01*
X129932382Y-105955390D02*
X129970477Y-105993485D01*
X129970477Y-105993485D02*
X130008573Y-106069676D01*
X130008573Y-106069676D02*
X130008573Y-106183961D01*
X130008573Y-106183961D02*
X129970477Y-106260152D01*
X129970477Y-106260152D02*
X129932382Y-106298247D01*
X129932382Y-106298247D02*
X129856192Y-106336342D01*
X129856192Y-106336342D02*
X129551430Y-106336342D01*
X130503811Y-105917295D02*
X130656192Y-105917295D01*
X130656192Y-105917295D02*
X130732382Y-105955390D01*
X130732382Y-105955390D02*
X130808573Y-106031580D01*
X130808573Y-106031580D02*
X130846668Y-106183961D01*
X130846668Y-106183961D02*
X130846668Y-106450628D01*
X130846668Y-106450628D02*
X130808573Y-106603009D01*
X130808573Y-106603009D02*
X130732382Y-106679200D01*
X130732382Y-106679200D02*
X130656192Y-106717295D01*
X130656192Y-106717295D02*
X130503811Y-106717295D01*
X130503811Y-106717295D02*
X130427620Y-106679200D01*
X130427620Y-106679200D02*
X130351430Y-106603009D01*
X130351430Y-106603009D02*
X130313334Y-106450628D01*
X130313334Y-106450628D02*
X130313334Y-106183961D01*
X130313334Y-106183961D02*
X130351430Y-106031580D01*
X130351430Y-106031580D02*
X130427620Y-105955390D01*
X130427620Y-105955390D02*
X130503811Y-105917295D01*
X131151429Y-106679200D02*
X131265715Y-106717295D01*
X131265715Y-106717295D02*
X131456191Y-106717295D01*
X131456191Y-106717295D02*
X131532382Y-106679200D01*
X131532382Y-106679200D02*
X131570477Y-106641104D01*
X131570477Y-106641104D02*
X131608572Y-106564914D01*
X131608572Y-106564914D02*
X131608572Y-106488723D01*
X131608572Y-106488723D02*
X131570477Y-106412533D01*
X131570477Y-106412533D02*
X131532382Y-106374438D01*
X131532382Y-106374438D02*
X131456191Y-106336342D01*
X131456191Y-106336342D02*
X131303810Y-106298247D01*
X131303810Y-106298247D02*
X131227620Y-106260152D01*
X131227620Y-106260152D02*
X131189525Y-106222057D01*
X131189525Y-106222057D02*
X131151429Y-106145866D01*
X131151429Y-106145866D02*
X131151429Y-106069676D01*
X131151429Y-106069676D02*
X131189525Y-105993485D01*
X131189525Y-105993485D02*
X131227620Y-105955390D01*
X131227620Y-105955390D02*
X131303810Y-105917295D01*
X131303810Y-105917295D02*
X131494287Y-105917295D01*
X131494287Y-105917295D02*
X131608572Y-105955390D01*
X132408573Y-106641104D02*
X132370477Y-106679200D01*
X132370477Y-106679200D02*
X132256192Y-106717295D01*
X132256192Y-106717295D02*
X132180001Y-106717295D01*
X132180001Y-106717295D02*
X132065715Y-106679200D01*
X132065715Y-106679200D02*
X131989525Y-106603009D01*
X131989525Y-106603009D02*
X131951430Y-106526819D01*
X131951430Y-106526819D02*
X131913334Y-106374438D01*
X131913334Y-106374438D02*
X131913334Y-106260152D01*
X131913334Y-106260152D02*
X131951430Y-106107771D01*
X131951430Y-106107771D02*
X131989525Y-106031580D01*
X131989525Y-106031580D02*
X132065715Y-105955390D01*
X132065715Y-105955390D02*
X132180001Y-105917295D01*
X132180001Y-105917295D02*
X132256192Y-105917295D01*
X132256192Y-105917295D02*
X132370477Y-105955390D01*
X132370477Y-105955390D02*
X132408573Y-105993485D01*
X132751430Y-106717295D02*
X132751430Y-105917295D01*
X133132382Y-106298247D02*
X133399048Y-106298247D01*
X133513334Y-106717295D02*
X133132382Y-106717295D01*
X133132382Y-106717295D02*
X133132382Y-105917295D01*
X133132382Y-105917295D02*
X133513334Y-105917295D01*
X133856192Y-106717295D02*
X133856192Y-105917295D01*
X133856192Y-105917295D02*
X134313335Y-106717295D01*
X134313335Y-106717295D02*
X134313335Y-105917295D01*
X135151430Y-106641104D02*
X135113334Y-106679200D01*
X135113334Y-106679200D02*
X134999049Y-106717295D01*
X134999049Y-106717295D02*
X134922858Y-106717295D01*
X134922858Y-106717295D02*
X134808572Y-106679200D01*
X134808572Y-106679200D02*
X134732382Y-106603009D01*
X134732382Y-106603009D02*
X134694287Y-106526819D01*
X134694287Y-106526819D02*
X134656191Y-106374438D01*
X134656191Y-106374438D02*
X134656191Y-106260152D01*
X134656191Y-106260152D02*
X134694287Y-106107771D01*
X134694287Y-106107771D02*
X134732382Y-106031580D01*
X134732382Y-106031580D02*
X134808572Y-105955390D01*
X134808572Y-105955390D02*
X134922858Y-105917295D01*
X134922858Y-105917295D02*
X134999049Y-105917295D01*
X134999049Y-105917295D02*
X135113334Y-105955390D01*
X135113334Y-105955390D02*
X135151430Y-105993485D01*
X135494287Y-106298247D02*
X135760953Y-106298247D01*
X135875239Y-106717295D02*
X135494287Y-106717295D01*
X135494287Y-106717295D02*
X135494287Y-105917295D01*
X135494287Y-105917295D02*
X135875239Y-105917295D01*
X137094287Y-106298247D02*
X136827621Y-106298247D01*
X136827621Y-106717295D02*
X136827621Y-105917295D01*
X136827621Y-105917295D02*
X137208573Y-105917295D01*
X137665716Y-105917295D02*
X137818097Y-105917295D01*
X137818097Y-105917295D02*
X137894287Y-105955390D01*
X137894287Y-105955390D02*
X137970478Y-106031580D01*
X137970478Y-106031580D02*
X138008573Y-106183961D01*
X138008573Y-106183961D02*
X138008573Y-106450628D01*
X138008573Y-106450628D02*
X137970478Y-106603009D01*
X137970478Y-106603009D02*
X137894287Y-106679200D01*
X137894287Y-106679200D02*
X137818097Y-106717295D01*
X137818097Y-106717295D02*
X137665716Y-106717295D01*
X137665716Y-106717295D02*
X137589525Y-106679200D01*
X137589525Y-106679200D02*
X137513335Y-106603009D01*
X137513335Y-106603009D02*
X137475239Y-106450628D01*
X137475239Y-106450628D02*
X137475239Y-106183961D01*
X137475239Y-106183961D02*
X137513335Y-106031580D01*
X137513335Y-106031580D02*
X137589525Y-105955390D01*
X137589525Y-105955390D02*
X137665716Y-105917295D01*
X138808573Y-106717295D02*
X138541906Y-106336342D01*
X138351430Y-106717295D02*
X138351430Y-105917295D01*
X138351430Y-105917295D02*
X138656192Y-105917295D01*
X138656192Y-105917295D02*
X138732382Y-105955390D01*
X138732382Y-105955390D02*
X138770477Y-105993485D01*
X138770477Y-105993485D02*
X138808573Y-106069676D01*
X138808573Y-106069676D02*
X138808573Y-106183961D01*
X138808573Y-106183961D02*
X138770477Y-106260152D01*
X138770477Y-106260152D02*
X138732382Y-106298247D01*
X138732382Y-106298247D02*
X138656192Y-106336342D01*
X138656192Y-106336342D02*
X138351430Y-106336342D01*
X139722858Y-106488723D02*
X140103811Y-106488723D01*
X139646668Y-106717295D02*
X139913335Y-105917295D01*
X139913335Y-105917295D02*
X140180001Y-106717295D01*
X140827620Y-106717295D02*
X140446668Y-106717295D01*
X140446668Y-106717295D02*
X140446668Y-105917295D01*
X141475239Y-106717295D02*
X141094287Y-106717295D01*
X141094287Y-106717295D02*
X141094287Y-105917295D01*
X142351430Y-106641104D02*
X142389525Y-106679200D01*
X142389525Y-106679200D02*
X142351430Y-106717295D01*
X142351430Y-106717295D02*
X142313334Y-106679200D01*
X142313334Y-106679200D02*
X142351430Y-106641104D01*
X142351430Y-106641104D02*
X142351430Y-106717295D01*
X142351430Y-106412533D02*
X142313334Y-105955390D01*
X142313334Y-105955390D02*
X142351430Y-105917295D01*
X142351430Y-105917295D02*
X142389525Y-105955390D01*
X142389525Y-105955390D02*
X142351430Y-106412533D01*
X142351430Y-106412533D02*
X142351430Y-105917295D01*
X143341906Y-106717295D02*
X143341906Y-105917295D01*
X143722858Y-106717295D02*
X143722858Y-105917295D01*
X143722858Y-105917295D02*
X144180001Y-106717295D01*
X144180001Y-106717295D02*
X144180001Y-105917295D01*
X144560953Y-106717295D02*
X144560953Y-105917295D01*
X144560953Y-105917295D02*
X145018096Y-106717295D01*
X145018096Y-106717295D02*
X145018096Y-105917295D01*
X145551429Y-105917295D02*
X145703810Y-105917295D01*
X145703810Y-105917295D02*
X145780000Y-105955390D01*
X145780000Y-105955390D02*
X145856191Y-106031580D01*
X145856191Y-106031580D02*
X145894286Y-106183961D01*
X145894286Y-106183961D02*
X145894286Y-106450628D01*
X145894286Y-106450628D02*
X145856191Y-106603009D01*
X145856191Y-106603009D02*
X145780000Y-106679200D01*
X145780000Y-106679200D02*
X145703810Y-106717295D01*
X145703810Y-106717295D02*
X145551429Y-106717295D01*
X145551429Y-106717295D02*
X145475238Y-106679200D01*
X145475238Y-106679200D02*
X145399048Y-106603009D01*
X145399048Y-106603009D02*
X145360952Y-106450628D01*
X145360952Y-106450628D02*
X145360952Y-106183961D01*
X145360952Y-106183961D02*
X145399048Y-106031580D01*
X145399048Y-106031580D02*
X145475238Y-105955390D01*
X145475238Y-105955390D02*
X145551429Y-105917295D01*
X146122857Y-105917295D02*
X146389524Y-106717295D01*
X146389524Y-106717295D02*
X146656190Y-105917295D01*
X146884761Y-106488723D02*
X147265714Y-106488723D01*
X146808571Y-106717295D02*
X147075238Y-105917295D01*
X147075238Y-105917295D02*
X147341904Y-106717295D01*
X147494285Y-105917295D02*
X147951428Y-105917295D01*
X147722856Y-106717295D02*
X147722856Y-105917295D01*
X148218095Y-106298247D02*
X148484761Y-106298247D01*
X148599047Y-106717295D02*
X148218095Y-106717295D01*
X148218095Y-106717295D02*
X148218095Y-105917295D01*
X148218095Y-105917295D02*
X148599047Y-105917295D01*
X149475238Y-105917295D02*
X149665714Y-106717295D01*
X149665714Y-106717295D02*
X149818095Y-106145866D01*
X149818095Y-106145866D02*
X149970476Y-106717295D01*
X149970476Y-106717295D02*
X150160953Y-105917295D01*
X150465715Y-106717295D02*
X150465715Y-105917295D01*
X150732381Y-105917295D02*
X151189524Y-105917295D01*
X150960952Y-106717295D02*
X150960952Y-105917295D01*
X151456191Y-106717295D02*
X151456191Y-105917295D01*
X151456191Y-106298247D02*
X151913334Y-106298247D01*
X151913334Y-106717295D02*
X151913334Y-105917295D01*
X152903810Y-106717295D02*
X152903810Y-105917295D01*
X153284762Y-106717295D02*
X153284762Y-105917295D01*
X153284762Y-105917295D02*
X153741905Y-106717295D01*
X153741905Y-106717295D02*
X153741905Y-105917295D01*
X154122857Y-106717295D02*
X154122857Y-105917295D01*
X154122857Y-105917295D02*
X154313333Y-105917295D01*
X154313333Y-105917295D02*
X154427619Y-105955390D01*
X154427619Y-105955390D02*
X154503809Y-106031580D01*
X154503809Y-106031580D02*
X154541904Y-106107771D01*
X154541904Y-106107771D02*
X154580000Y-106260152D01*
X154580000Y-106260152D02*
X154580000Y-106374438D01*
X154580000Y-106374438D02*
X154541904Y-106526819D01*
X154541904Y-106526819D02*
X154503809Y-106603009D01*
X154503809Y-106603009D02*
X154427619Y-106679200D01*
X154427619Y-106679200D02*
X154313333Y-106717295D01*
X154313333Y-106717295D02*
X154122857Y-106717295D01*
X154922857Y-106717295D02*
X154922857Y-105917295D01*
X155265713Y-106488723D02*
X155646666Y-106488723D01*
X155189523Y-106717295D02*
X155456190Y-105917295D01*
X155456190Y-105917295D02*
X155722856Y-106717295D01*
X226278569Y-78559848D02*
X226278569Y-79359848D01*
X226278569Y-79359848D02*
X225821426Y-78559848D01*
X225821426Y-78559848D02*
X225821426Y-79359848D01*
X225440474Y-78978896D02*
X225173808Y-78978896D01*
X225059522Y-78559848D02*
X225440474Y-78559848D01*
X225440474Y-78559848D02*
X225440474Y-79359848D01*
X225440474Y-79359848D02*
X225059522Y-79359848D01*
X224716664Y-79359848D02*
X224716664Y-78712229D01*
X224716664Y-78712229D02*
X224678569Y-78636039D01*
X224678569Y-78636039D02*
X224640474Y-78597944D01*
X224640474Y-78597944D02*
X224564283Y-78559848D01*
X224564283Y-78559848D02*
X224411902Y-78559848D01*
X224411902Y-78559848D02*
X224335712Y-78597944D01*
X224335712Y-78597944D02*
X224297617Y-78636039D01*
X224297617Y-78636039D02*
X224259521Y-78712229D01*
X224259521Y-78712229D02*
X224259521Y-79359848D01*
X223421426Y-78559848D02*
X223688093Y-78940801D01*
X223878569Y-78559848D02*
X223878569Y-79359848D01*
X223878569Y-79359848D02*
X223573807Y-79359848D01*
X223573807Y-79359848D02*
X223497617Y-79321753D01*
X223497617Y-79321753D02*
X223459522Y-79283658D01*
X223459522Y-79283658D02*
X223421426Y-79207467D01*
X223421426Y-79207467D02*
X223421426Y-79093182D01*
X223421426Y-79093182D02*
X223459522Y-79016991D01*
X223459522Y-79016991D02*
X223497617Y-78978896D01*
X223497617Y-78978896D02*
X223573807Y-78940801D01*
X223573807Y-78940801D02*
X223878569Y-78940801D01*
X222926188Y-79359848D02*
X222773807Y-79359848D01*
X222773807Y-79359848D02*
X222697617Y-79321753D01*
X222697617Y-79321753D02*
X222621426Y-79245563D01*
X222621426Y-79245563D02*
X222583331Y-79093182D01*
X222583331Y-79093182D02*
X222583331Y-78826515D01*
X222583331Y-78826515D02*
X222621426Y-78674134D01*
X222621426Y-78674134D02*
X222697617Y-78597944D01*
X222697617Y-78597944D02*
X222773807Y-78559848D01*
X222773807Y-78559848D02*
X222926188Y-78559848D01*
X222926188Y-78559848D02*
X223002379Y-78597944D01*
X223002379Y-78597944D02*
X223078569Y-78674134D01*
X223078569Y-78674134D02*
X223116665Y-78826515D01*
X223116665Y-78826515D02*
X223116665Y-79093182D01*
X223116665Y-79093182D02*
X223078569Y-79245563D01*
X223078569Y-79245563D02*
X223002379Y-79321753D01*
X223002379Y-79321753D02*
X222926188Y-79359848D01*
X222278570Y-78597944D02*
X222164284Y-78559848D01*
X222164284Y-78559848D02*
X221973808Y-78559848D01*
X221973808Y-78559848D02*
X221897617Y-78597944D01*
X221897617Y-78597944D02*
X221859522Y-78636039D01*
X221859522Y-78636039D02*
X221821427Y-78712229D01*
X221821427Y-78712229D02*
X221821427Y-78788420D01*
X221821427Y-78788420D02*
X221859522Y-78864610D01*
X221859522Y-78864610D02*
X221897617Y-78902705D01*
X221897617Y-78902705D02*
X221973808Y-78940801D01*
X221973808Y-78940801D02*
X222126189Y-78978896D01*
X222126189Y-78978896D02*
X222202379Y-79016991D01*
X222202379Y-79016991D02*
X222240474Y-79055086D01*
X222240474Y-79055086D02*
X222278570Y-79131277D01*
X222278570Y-79131277D02*
X222278570Y-79207467D01*
X222278570Y-79207467D02*
X222240474Y-79283658D01*
X222240474Y-79283658D02*
X222202379Y-79321753D01*
X222202379Y-79321753D02*
X222126189Y-79359848D01*
X222126189Y-79359848D02*
X221935712Y-79359848D01*
X221935712Y-79359848D02*
X221821427Y-79321753D01*
X221021426Y-78636039D02*
X221059522Y-78597944D01*
X221059522Y-78597944D02*
X221173807Y-78559848D01*
X221173807Y-78559848D02*
X221249998Y-78559848D01*
X221249998Y-78559848D02*
X221364284Y-78597944D01*
X221364284Y-78597944D02*
X221440474Y-78674134D01*
X221440474Y-78674134D02*
X221478569Y-78750324D01*
X221478569Y-78750324D02*
X221516665Y-78902705D01*
X221516665Y-78902705D02*
X221516665Y-79016991D01*
X221516665Y-79016991D02*
X221478569Y-79169372D01*
X221478569Y-79169372D02*
X221440474Y-79245563D01*
X221440474Y-79245563D02*
X221364284Y-79321753D01*
X221364284Y-79321753D02*
X221249998Y-79359848D01*
X221249998Y-79359848D02*
X221173807Y-79359848D01*
X221173807Y-79359848D02*
X221059522Y-79321753D01*
X221059522Y-79321753D02*
X221021426Y-79283658D01*
X220678569Y-78559848D02*
X220678569Y-79359848D01*
X220297617Y-78978896D02*
X220030951Y-78978896D01*
X219916665Y-78559848D02*
X220297617Y-78559848D01*
X220297617Y-78559848D02*
X220297617Y-79359848D01*
X220297617Y-79359848D02*
X219916665Y-79359848D01*
X219573807Y-78559848D02*
X219573807Y-79359848D01*
X219573807Y-79359848D02*
X219116664Y-78559848D01*
X219116664Y-78559848D02*
X219116664Y-79359848D01*
X218278569Y-78636039D02*
X218316665Y-78597944D01*
X218316665Y-78597944D02*
X218430950Y-78559848D01*
X218430950Y-78559848D02*
X218507141Y-78559848D01*
X218507141Y-78559848D02*
X218621427Y-78597944D01*
X218621427Y-78597944D02*
X218697617Y-78674134D01*
X218697617Y-78674134D02*
X218735712Y-78750324D01*
X218735712Y-78750324D02*
X218773808Y-78902705D01*
X218773808Y-78902705D02*
X218773808Y-79016991D01*
X218773808Y-79016991D02*
X218735712Y-79169372D01*
X218735712Y-79169372D02*
X218697617Y-79245563D01*
X218697617Y-79245563D02*
X218621427Y-79321753D01*
X218621427Y-79321753D02*
X218507141Y-79359848D01*
X218507141Y-79359848D02*
X218430950Y-79359848D01*
X218430950Y-79359848D02*
X218316665Y-79321753D01*
X218316665Y-79321753D02*
X218278569Y-79283658D01*
X217935712Y-78978896D02*
X217669046Y-78978896D01*
X217554760Y-78559848D02*
X217935712Y-78559848D01*
X217935712Y-78559848D02*
X217935712Y-79359848D01*
X217935712Y-79359848D02*
X217554760Y-79359848D01*
X216335712Y-78978896D02*
X216602378Y-78978896D01*
X216602378Y-78559848D02*
X216602378Y-79359848D01*
X216602378Y-79359848D02*
X216221426Y-79359848D01*
X215764283Y-79359848D02*
X215611902Y-79359848D01*
X215611902Y-79359848D02*
X215535712Y-79321753D01*
X215535712Y-79321753D02*
X215459521Y-79245563D01*
X215459521Y-79245563D02*
X215421426Y-79093182D01*
X215421426Y-79093182D02*
X215421426Y-78826515D01*
X215421426Y-78826515D02*
X215459521Y-78674134D01*
X215459521Y-78674134D02*
X215535712Y-78597944D01*
X215535712Y-78597944D02*
X215611902Y-78559848D01*
X215611902Y-78559848D02*
X215764283Y-78559848D01*
X215764283Y-78559848D02*
X215840474Y-78597944D01*
X215840474Y-78597944D02*
X215916664Y-78674134D01*
X215916664Y-78674134D02*
X215954760Y-78826515D01*
X215954760Y-78826515D02*
X215954760Y-79093182D01*
X215954760Y-79093182D02*
X215916664Y-79245563D01*
X215916664Y-79245563D02*
X215840474Y-79321753D01*
X215840474Y-79321753D02*
X215764283Y-79359848D01*
X214621426Y-78559848D02*
X214888093Y-78940801D01*
X215078569Y-78559848D02*
X215078569Y-79359848D01*
X215078569Y-79359848D02*
X214773807Y-79359848D01*
X214773807Y-79359848D02*
X214697617Y-79321753D01*
X214697617Y-79321753D02*
X214659522Y-79283658D01*
X214659522Y-79283658D02*
X214621426Y-79207467D01*
X214621426Y-79207467D02*
X214621426Y-79093182D01*
X214621426Y-79093182D02*
X214659522Y-79016991D01*
X214659522Y-79016991D02*
X214697617Y-78978896D01*
X214697617Y-78978896D02*
X214773807Y-78940801D01*
X214773807Y-78940801D02*
X215078569Y-78940801D01*
X213707141Y-78788420D02*
X213326188Y-78788420D01*
X213783331Y-78559848D02*
X213516664Y-79359848D01*
X213516664Y-79359848D02*
X213249998Y-78559848D01*
X212602379Y-78559848D02*
X212983331Y-78559848D01*
X212983331Y-78559848D02*
X212983331Y-79359848D01*
X211954760Y-78559848D02*
X212335712Y-78559848D01*
X212335712Y-78559848D02*
X212335712Y-79359848D01*
X211078569Y-78636039D02*
X211040474Y-78597944D01*
X211040474Y-78597944D02*
X211078569Y-78559848D01*
X211078569Y-78559848D02*
X211116665Y-78597944D01*
X211116665Y-78597944D02*
X211078569Y-78636039D01*
X211078569Y-78636039D02*
X211078569Y-78559848D01*
X211078569Y-78864610D02*
X211116665Y-79321753D01*
X211116665Y-79321753D02*
X211078569Y-79359848D01*
X211078569Y-79359848D02*
X211040474Y-79321753D01*
X211040474Y-79321753D02*
X211078569Y-78864610D01*
X211078569Y-78864610D02*
X211078569Y-79359848D01*
X210088093Y-78559848D02*
X210088093Y-79359848D01*
X209707141Y-78559848D02*
X209707141Y-79359848D01*
X209707141Y-79359848D02*
X209249998Y-78559848D01*
X209249998Y-78559848D02*
X209249998Y-79359848D01*
X208869046Y-78559848D02*
X208869046Y-79359848D01*
X208869046Y-79359848D02*
X208411903Y-78559848D01*
X208411903Y-78559848D02*
X208411903Y-79359848D01*
X207878570Y-79359848D02*
X207726189Y-79359848D01*
X207726189Y-79359848D02*
X207649999Y-79321753D01*
X207649999Y-79321753D02*
X207573808Y-79245563D01*
X207573808Y-79245563D02*
X207535713Y-79093182D01*
X207535713Y-79093182D02*
X207535713Y-78826515D01*
X207535713Y-78826515D02*
X207573808Y-78674134D01*
X207573808Y-78674134D02*
X207649999Y-78597944D01*
X207649999Y-78597944D02*
X207726189Y-78559848D01*
X207726189Y-78559848D02*
X207878570Y-78559848D01*
X207878570Y-78559848D02*
X207954761Y-78597944D01*
X207954761Y-78597944D02*
X208030951Y-78674134D01*
X208030951Y-78674134D02*
X208069047Y-78826515D01*
X208069047Y-78826515D02*
X208069047Y-79093182D01*
X208069047Y-79093182D02*
X208030951Y-79245563D01*
X208030951Y-79245563D02*
X207954761Y-79321753D01*
X207954761Y-79321753D02*
X207878570Y-79359848D01*
X207307142Y-79359848D02*
X207040475Y-78559848D01*
X207040475Y-78559848D02*
X206773809Y-79359848D01*
X206545238Y-78788420D02*
X206164285Y-78788420D01*
X206621428Y-78559848D02*
X206354761Y-79359848D01*
X206354761Y-79359848D02*
X206088095Y-78559848D01*
X205935714Y-79359848D02*
X205478571Y-79359848D01*
X205707143Y-78559848D02*
X205707143Y-79359848D01*
X205211904Y-78978896D02*
X204945238Y-78978896D01*
X204830952Y-78559848D02*
X205211904Y-78559848D01*
X205211904Y-78559848D02*
X205211904Y-79359848D01*
X205211904Y-79359848D02*
X204830952Y-79359848D01*
X203954761Y-79359848D02*
X203764285Y-78559848D01*
X203764285Y-78559848D02*
X203611904Y-79131277D01*
X203611904Y-79131277D02*
X203459523Y-78559848D01*
X203459523Y-78559848D02*
X203269047Y-79359848D01*
X202964284Y-78559848D02*
X202964284Y-79359848D01*
X202697618Y-79359848D02*
X202240475Y-79359848D01*
X202469047Y-78559848D02*
X202469047Y-79359848D01*
X201973808Y-78559848D02*
X201973808Y-79359848D01*
X201973808Y-78978896D02*
X201516665Y-78978896D01*
X201516665Y-78559848D02*
X201516665Y-79359848D01*
X200526189Y-78559848D02*
X200526189Y-79359848D01*
X200145237Y-78559848D02*
X200145237Y-79359848D01*
X200145237Y-79359848D02*
X199688094Y-78559848D01*
X199688094Y-78559848D02*
X199688094Y-79359848D01*
X199307142Y-78559848D02*
X199307142Y-79359848D01*
X199307142Y-79359848D02*
X199116666Y-79359848D01*
X199116666Y-79359848D02*
X199002380Y-79321753D01*
X199002380Y-79321753D02*
X198926190Y-79245563D01*
X198926190Y-79245563D02*
X198888095Y-79169372D01*
X198888095Y-79169372D02*
X198849999Y-79016991D01*
X198849999Y-79016991D02*
X198849999Y-78902705D01*
X198849999Y-78902705D02*
X198888095Y-78750324D01*
X198888095Y-78750324D02*
X198926190Y-78674134D01*
X198926190Y-78674134D02*
X199002380Y-78597944D01*
X199002380Y-78597944D02*
X199116666Y-78559848D01*
X199116666Y-78559848D02*
X199307142Y-78559848D01*
X198507142Y-78559848D02*
X198507142Y-79359848D01*
X198164286Y-78788420D02*
X197783333Y-78788420D01*
X198240476Y-78559848D02*
X197973809Y-79359848D01*
X197973809Y-79359848D02*
X197707143Y-78559848D01*
D11*
X158241255Y-90599522D02*
X159041255Y-90332855D01*
X159041255Y-90332855D02*
X158241255Y-90066189D01*
X158965064Y-89342379D02*
X159003160Y-89380475D01*
X159003160Y-89380475D02*
X159041255Y-89494760D01*
X159041255Y-89494760D02*
X159041255Y-89570951D01*
X159041255Y-89570951D02*
X159003160Y-89685237D01*
X159003160Y-89685237D02*
X158926969Y-89761427D01*
X158926969Y-89761427D02*
X158850779Y-89799522D01*
X158850779Y-89799522D02*
X158698398Y-89837618D01*
X158698398Y-89837618D02*
X158584112Y-89837618D01*
X158584112Y-89837618D02*
X158431731Y-89799522D01*
X158431731Y-89799522D02*
X158355540Y-89761427D01*
X158355540Y-89761427D02*
X158279350Y-89685237D01*
X158279350Y-89685237D02*
X158241255Y-89570951D01*
X158241255Y-89570951D02*
X158241255Y-89494760D01*
X158241255Y-89494760D02*
X158279350Y-89380475D01*
X158279350Y-89380475D02*
X158317445Y-89342379D01*
X158965064Y-88542379D02*
X159003160Y-88580475D01*
X159003160Y-88580475D02*
X159041255Y-88694760D01*
X159041255Y-88694760D02*
X159041255Y-88770951D01*
X159041255Y-88770951D02*
X159003160Y-88885237D01*
X159003160Y-88885237D02*
X158926969Y-88961427D01*
X158926969Y-88961427D02*
X158850779Y-88999522D01*
X158850779Y-88999522D02*
X158698398Y-89037618D01*
X158698398Y-89037618D02*
X158584112Y-89037618D01*
X158584112Y-89037618D02*
X158431731Y-88999522D01*
X158431731Y-88999522D02*
X158355540Y-88961427D01*
X158355540Y-88961427D02*
X158279350Y-88885237D01*
X158279350Y-88885237D02*
X158241255Y-88770951D01*
X158241255Y-88770951D02*
X158241255Y-88694760D01*
X158241255Y-88694760D02*
X158279350Y-88580475D01*
X158279350Y-88580475D02*
X158317445Y-88542379D01*
X158279350Y-93279524D02*
X158241255Y-93355714D01*
X158241255Y-93355714D02*
X158241255Y-93470000D01*
X158241255Y-93470000D02*
X158279350Y-93584286D01*
X158279350Y-93584286D02*
X158355540Y-93660476D01*
X158355540Y-93660476D02*
X158431731Y-93698571D01*
X158431731Y-93698571D02*
X158584112Y-93736667D01*
X158584112Y-93736667D02*
X158698398Y-93736667D01*
X158698398Y-93736667D02*
X158850779Y-93698571D01*
X158850779Y-93698571D02*
X158926969Y-93660476D01*
X158926969Y-93660476D02*
X159003160Y-93584286D01*
X159003160Y-93584286D02*
X159041255Y-93470000D01*
X159041255Y-93470000D02*
X159041255Y-93393809D01*
X159041255Y-93393809D02*
X159003160Y-93279524D01*
X159003160Y-93279524D02*
X158965064Y-93241428D01*
X158965064Y-93241428D02*
X158698398Y-93241428D01*
X158698398Y-93241428D02*
X158698398Y-93393809D01*
X159041255Y-92898571D02*
X158241255Y-92898571D01*
X158241255Y-92898571D02*
X159041255Y-92441428D01*
X159041255Y-92441428D02*
X158241255Y-92441428D01*
X159041255Y-92060476D02*
X158241255Y-92060476D01*
X158241255Y-92060476D02*
X158241255Y-91870000D01*
X158241255Y-91870000D02*
X158279350Y-91755714D01*
X158279350Y-91755714D02*
X158355540Y-91679524D01*
X158355540Y-91679524D02*
X158431731Y-91641429D01*
X158431731Y-91641429D02*
X158584112Y-91603333D01*
X158584112Y-91603333D02*
X158698398Y-91603333D01*
X158698398Y-91603333D02*
X158850779Y-91641429D01*
X158850779Y-91641429D02*
X158926969Y-91679524D01*
X158926969Y-91679524D02*
X159003160Y-91755714D01*
X159003160Y-91755714D02*
X159041255Y-91870000D01*
X159041255Y-91870000D02*
X159041255Y-92060476D01*
X158241255Y-96577143D02*
X158241255Y-96424762D01*
X158241255Y-96424762D02*
X158279350Y-96348572D01*
X158279350Y-96348572D02*
X158355540Y-96272381D01*
X158355540Y-96272381D02*
X158507921Y-96234286D01*
X158507921Y-96234286D02*
X158774588Y-96234286D01*
X158774588Y-96234286D02*
X158926969Y-96272381D01*
X158926969Y-96272381D02*
X159003160Y-96348572D01*
X159003160Y-96348572D02*
X159041255Y-96424762D01*
X159041255Y-96424762D02*
X159041255Y-96577143D01*
X159041255Y-96577143D02*
X159003160Y-96653334D01*
X159003160Y-96653334D02*
X158926969Y-96729524D01*
X158926969Y-96729524D02*
X158774588Y-96767620D01*
X158774588Y-96767620D02*
X158507921Y-96767620D01*
X158507921Y-96767620D02*
X158355540Y-96729524D01*
X158355540Y-96729524D02*
X158279350Y-96653334D01*
X158279350Y-96653334D02*
X158241255Y-96577143D01*
X158241255Y-95891429D02*
X158888874Y-95891429D01*
X158888874Y-95891429D02*
X158965064Y-95853334D01*
X158965064Y-95853334D02*
X159003160Y-95815239D01*
X159003160Y-95815239D02*
X159041255Y-95739048D01*
X159041255Y-95739048D02*
X159041255Y-95586667D01*
X159041255Y-95586667D02*
X159003160Y-95510477D01*
X159003160Y-95510477D02*
X158965064Y-95472382D01*
X158965064Y-95472382D02*
X158888874Y-95434286D01*
X158888874Y-95434286D02*
X158241255Y-95434286D01*
X158241255Y-95167620D02*
X158241255Y-94710477D01*
X159041255Y-94939049D02*
X158241255Y-94939049D01*
X228711255Y-89794047D02*
X228330302Y-90060714D01*
X228711255Y-90251190D02*
X227911255Y-90251190D01*
X227911255Y-90251190D02*
X227911255Y-89946428D01*
X227911255Y-89946428D02*
X227949350Y-89870238D01*
X227949350Y-89870238D02*
X227987445Y-89832143D01*
X227987445Y-89832143D02*
X228063636Y-89794047D01*
X228063636Y-89794047D02*
X228177921Y-89794047D01*
X228177921Y-89794047D02*
X228254112Y-89832143D01*
X228254112Y-89832143D02*
X228292207Y-89870238D01*
X228292207Y-89870238D02*
X228330302Y-89946428D01*
X228330302Y-89946428D02*
X228330302Y-90251190D01*
X228292207Y-89451190D02*
X228292207Y-89184524D01*
X228711255Y-89070238D02*
X228711255Y-89451190D01*
X228711255Y-89451190D02*
X227911255Y-89451190D01*
X227911255Y-89451190D02*
X227911255Y-89070238D01*
X228292207Y-88460714D02*
X228292207Y-88727380D01*
X228711255Y-88727380D02*
X227911255Y-88727380D01*
X227911255Y-88727380D02*
X227911255Y-88346428D01*
X228711255Y-93536428D02*
X227911255Y-93536428D01*
X228711255Y-93155476D02*
X227911255Y-93155476D01*
X227911255Y-93155476D02*
X228711255Y-92698333D01*
X228711255Y-92698333D02*
X227911255Y-92698333D01*
X228406493Y-92317381D02*
X228406493Y-91707858D01*
X228711255Y-92012619D02*
X228101731Y-92012619D01*
X228711255Y-96821667D02*
X227911255Y-96821667D01*
X228711255Y-96440715D02*
X227911255Y-96440715D01*
X227911255Y-96440715D02*
X228711255Y-95983572D01*
X228711255Y-95983572D02*
X227911255Y-95983572D01*
X228406493Y-95602620D02*
X228406493Y-94993097D01*
X124718744Y-88455476D02*
X125518744Y-88455476D01*
X124718744Y-88836428D02*
X125518744Y-88836428D01*
X125518744Y-88836428D02*
X124718744Y-89293571D01*
X124718744Y-89293571D02*
X125518744Y-89293571D01*
X125023506Y-89674523D02*
X125023506Y-90284047D01*
X124718744Y-91740715D02*
X125518744Y-91740715D01*
X124718744Y-92121667D02*
X125518744Y-92121667D01*
X125518744Y-92121667D02*
X124718744Y-92578810D01*
X124718744Y-92578810D02*
X125518744Y-92578810D01*
X125023506Y-92959762D02*
X125023506Y-93569286D01*
X124718744Y-93264524D02*
X125328268Y-93264524D01*
X124718744Y-95483096D02*
X125099697Y-95216429D01*
X124718744Y-95025953D02*
X125518744Y-95025953D01*
X125518744Y-95025953D02*
X125518744Y-95330715D01*
X125518744Y-95330715D02*
X125480649Y-95406905D01*
X125480649Y-95406905D02*
X125442554Y-95445000D01*
X125442554Y-95445000D02*
X125366363Y-95483096D01*
X125366363Y-95483096D02*
X125252078Y-95483096D01*
X125252078Y-95483096D02*
X125175887Y-95445000D01*
X125175887Y-95445000D02*
X125137792Y-95406905D01*
X125137792Y-95406905D02*
X125099697Y-95330715D01*
X125099697Y-95330715D02*
X125099697Y-95025953D01*
X125137792Y-95825953D02*
X125137792Y-96092619D01*
X124718744Y-96206905D02*
X124718744Y-95825953D01*
X124718744Y-95825953D02*
X125518744Y-95825953D01*
X125518744Y-95825953D02*
X125518744Y-96206905D01*
X125137792Y-96816429D02*
X125137792Y-96549763D01*
X124718744Y-96549763D02*
X125518744Y-96549763D01*
X125518744Y-96549763D02*
X125518744Y-96930715D01*
X195188744Y-88700000D02*
X195188744Y-88852381D01*
X195188744Y-88852381D02*
X195150649Y-88928571D01*
X195150649Y-88928571D02*
X195074459Y-89004762D01*
X195074459Y-89004762D02*
X194922078Y-89042857D01*
X194922078Y-89042857D02*
X194655411Y-89042857D01*
X194655411Y-89042857D02*
X194503030Y-89004762D01*
X194503030Y-89004762D02*
X194426840Y-88928571D01*
X194426840Y-88928571D02*
X194388744Y-88852381D01*
X194388744Y-88852381D02*
X194388744Y-88700000D01*
X194388744Y-88700000D02*
X194426840Y-88623809D01*
X194426840Y-88623809D02*
X194503030Y-88547619D01*
X194503030Y-88547619D02*
X194655411Y-88509523D01*
X194655411Y-88509523D02*
X194922078Y-88509523D01*
X194922078Y-88509523D02*
X195074459Y-88547619D01*
X195074459Y-88547619D02*
X195150649Y-88623809D01*
X195150649Y-88623809D02*
X195188744Y-88700000D01*
X195188744Y-89385714D02*
X194541125Y-89385714D01*
X194541125Y-89385714D02*
X194464935Y-89423809D01*
X194464935Y-89423809D02*
X194426840Y-89461904D01*
X194426840Y-89461904D02*
X194388744Y-89538095D01*
X194388744Y-89538095D02*
X194388744Y-89690476D01*
X194388744Y-89690476D02*
X194426840Y-89766666D01*
X194426840Y-89766666D02*
X194464935Y-89804761D01*
X194464935Y-89804761D02*
X194541125Y-89842857D01*
X194541125Y-89842857D02*
X195188744Y-89842857D01*
X195188744Y-90109523D02*
X195188744Y-90566666D01*
X194388744Y-90338094D02*
X195188744Y-90338094D01*
X195150649Y-91997619D02*
X195188744Y-91921429D01*
X195188744Y-91921429D02*
X195188744Y-91807143D01*
X195188744Y-91807143D02*
X195150649Y-91692857D01*
X195150649Y-91692857D02*
X195074459Y-91616667D01*
X195074459Y-91616667D02*
X194998268Y-91578572D01*
X194998268Y-91578572D02*
X194845887Y-91540476D01*
X194845887Y-91540476D02*
X194731601Y-91540476D01*
X194731601Y-91540476D02*
X194579220Y-91578572D01*
X194579220Y-91578572D02*
X194503030Y-91616667D01*
X194503030Y-91616667D02*
X194426840Y-91692857D01*
X194426840Y-91692857D02*
X194388744Y-91807143D01*
X194388744Y-91807143D02*
X194388744Y-91883334D01*
X194388744Y-91883334D02*
X194426840Y-91997619D01*
X194426840Y-91997619D02*
X194464935Y-92035715D01*
X194464935Y-92035715D02*
X194731601Y-92035715D01*
X194731601Y-92035715D02*
X194731601Y-91883334D01*
X194388744Y-92378572D02*
X195188744Y-92378572D01*
X195188744Y-92378572D02*
X194388744Y-92835715D01*
X194388744Y-92835715D02*
X195188744Y-92835715D01*
X194388744Y-93216667D02*
X195188744Y-93216667D01*
X195188744Y-93216667D02*
X195188744Y-93407143D01*
X195188744Y-93407143D02*
X195150649Y-93521429D01*
X195150649Y-93521429D02*
X195074459Y-93597619D01*
X195074459Y-93597619D02*
X194998268Y-93635714D01*
X194998268Y-93635714D02*
X194845887Y-93673810D01*
X194845887Y-93673810D02*
X194731601Y-93673810D01*
X194731601Y-93673810D02*
X194579220Y-93635714D01*
X194579220Y-93635714D02*
X194503030Y-93597619D01*
X194503030Y-93597619D02*
X194426840Y-93521429D01*
X194426840Y-93521429D02*
X194388744Y-93407143D01*
X194388744Y-93407143D02*
X194388744Y-93216667D01*
X195188744Y-94677621D02*
X194388744Y-94944288D01*
X194388744Y-94944288D02*
X195188744Y-95210954D01*
X194464935Y-95934764D02*
X194426840Y-95896668D01*
X194426840Y-95896668D02*
X194388744Y-95782383D01*
X194388744Y-95782383D02*
X194388744Y-95706192D01*
X194388744Y-95706192D02*
X194426840Y-95591906D01*
X194426840Y-95591906D02*
X194503030Y-95515716D01*
X194503030Y-95515716D02*
X194579220Y-95477621D01*
X194579220Y-95477621D02*
X194731601Y-95439525D01*
X194731601Y-95439525D02*
X194845887Y-95439525D01*
X194845887Y-95439525D02*
X194998268Y-95477621D01*
X194998268Y-95477621D02*
X195074459Y-95515716D01*
X195074459Y-95515716D02*
X195150649Y-95591906D01*
X195150649Y-95591906D02*
X195188744Y-95706192D01*
X195188744Y-95706192D02*
X195188744Y-95782383D01*
X195188744Y-95782383D02*
X195150649Y-95896668D01*
X195150649Y-95896668D02*
X195112554Y-95934764D01*
X194464935Y-96734764D02*
X194426840Y-96696668D01*
X194426840Y-96696668D02*
X194388744Y-96582383D01*
X194388744Y-96582383D02*
X194388744Y-96506192D01*
X194388744Y-96506192D02*
X194426840Y-96391906D01*
X194426840Y-96391906D02*
X194503030Y-96315716D01*
X194503030Y-96315716D02*
X194579220Y-96277621D01*
X194579220Y-96277621D02*
X194731601Y-96239525D01*
X194731601Y-96239525D02*
X194845887Y-96239525D01*
X194845887Y-96239525D02*
X194998268Y-96277621D01*
X194998268Y-96277621D02*
X195074459Y-96315716D01*
X195074459Y-96315716D02*
X195150649Y-96391906D01*
X195150649Y-96391906D02*
X195188744Y-96506192D01*
X195188744Y-96506192D02*
X195188744Y-96582383D01*
X195188744Y-96582383D02*
X195150649Y-96696668D01*
X195150649Y-96696668D02*
X195112554Y-96734764D01*
D12*
X126164577Y-79707219D02*
X126164577Y-78707219D01*
X126164577Y-78707219D02*
X126402672Y-78707219D01*
X126402672Y-78707219D02*
X126545529Y-78754838D01*
X126545529Y-78754838D02*
X126640767Y-78850076D01*
X126640767Y-78850076D02*
X126688386Y-78945314D01*
X126688386Y-78945314D02*
X126736005Y-79135790D01*
X126736005Y-79135790D02*
X126736005Y-79278647D01*
X126736005Y-79278647D02*
X126688386Y-79469123D01*
X126688386Y-79469123D02*
X126640767Y-79564361D01*
X126640767Y-79564361D02*
X126545529Y-79659600D01*
X126545529Y-79659600D02*
X126402672Y-79707219D01*
X126402672Y-79707219D02*
X126164577Y-79707219D01*
X127164577Y-79707219D02*
X127164577Y-78707219D01*
X127831243Y-79231028D02*
X127831243Y-79707219D01*
X127497910Y-78707219D02*
X127831243Y-79231028D01*
X127831243Y-79231028D02*
X128164576Y-78707219D01*
X129259815Y-79183409D02*
X129593148Y-79183409D01*
X129736005Y-79707219D02*
X129259815Y-79707219D01*
X129259815Y-79707219D02*
X129259815Y-78707219D01*
X129259815Y-78707219D02*
X129736005Y-78707219D01*
X130640767Y-79707219D02*
X130164577Y-79707219D01*
X130164577Y-79707219D02*
X130164577Y-78707219D01*
X130974101Y-79183409D02*
X131307434Y-79183409D01*
X131450291Y-79707219D02*
X130974101Y-79707219D01*
X130974101Y-79707219D02*
X130974101Y-78707219D01*
X130974101Y-78707219D02*
X131450291Y-78707219D01*
X132450291Y-79611980D02*
X132402672Y-79659600D01*
X132402672Y-79659600D02*
X132259815Y-79707219D01*
X132259815Y-79707219D02*
X132164577Y-79707219D01*
X132164577Y-79707219D02*
X132021720Y-79659600D01*
X132021720Y-79659600D02*
X131926482Y-79564361D01*
X131926482Y-79564361D02*
X131878863Y-79469123D01*
X131878863Y-79469123D02*
X131831244Y-79278647D01*
X131831244Y-79278647D02*
X131831244Y-79135790D01*
X131831244Y-79135790D02*
X131878863Y-78945314D01*
X131878863Y-78945314D02*
X131926482Y-78850076D01*
X131926482Y-78850076D02*
X132021720Y-78754838D01*
X132021720Y-78754838D02*
X132164577Y-78707219D01*
X132164577Y-78707219D02*
X132259815Y-78707219D01*
X132259815Y-78707219D02*
X132402672Y-78754838D01*
X132402672Y-78754838D02*
X132450291Y-78802457D01*
X132736006Y-78707219D02*
X133307434Y-78707219D01*
X133021720Y-79707219D02*
X133021720Y-78707219D01*
X134212196Y-79707219D02*
X133878863Y-79231028D01*
X133640768Y-79707219D02*
X133640768Y-78707219D01*
X133640768Y-78707219D02*
X134021720Y-78707219D01*
X134021720Y-78707219D02*
X134116958Y-78754838D01*
X134116958Y-78754838D02*
X134164577Y-78802457D01*
X134164577Y-78802457D02*
X134212196Y-78897695D01*
X134212196Y-78897695D02*
X134212196Y-79040552D01*
X134212196Y-79040552D02*
X134164577Y-79135790D01*
X134164577Y-79135790D02*
X134116958Y-79183409D01*
X134116958Y-79183409D02*
X134021720Y-79231028D01*
X134021720Y-79231028D02*
X133640768Y-79231028D01*
X134831244Y-78707219D02*
X135021720Y-78707219D01*
X135021720Y-78707219D02*
X135116958Y-78754838D01*
X135116958Y-78754838D02*
X135212196Y-78850076D01*
X135212196Y-78850076D02*
X135259815Y-79040552D01*
X135259815Y-79040552D02*
X135259815Y-79373885D01*
X135259815Y-79373885D02*
X135212196Y-79564361D01*
X135212196Y-79564361D02*
X135116958Y-79659600D01*
X135116958Y-79659600D02*
X135021720Y-79707219D01*
X135021720Y-79707219D02*
X134831244Y-79707219D01*
X134831244Y-79707219D02*
X134736006Y-79659600D01*
X134736006Y-79659600D02*
X134640768Y-79564361D01*
X134640768Y-79564361D02*
X134593149Y-79373885D01*
X134593149Y-79373885D02*
X134593149Y-79040552D01*
X134593149Y-79040552D02*
X134640768Y-78850076D01*
X134640768Y-78850076D02*
X134736006Y-78754838D01*
X134736006Y-78754838D02*
X134831244Y-78707219D01*
X135688387Y-79707219D02*
X135688387Y-78707219D01*
X135688387Y-78707219D02*
X136021720Y-79421504D01*
X136021720Y-79421504D02*
X136355053Y-78707219D01*
X136355053Y-78707219D02*
X136355053Y-79707219D01*
X137021720Y-79231028D02*
X137021720Y-79707219D01*
X136688387Y-78707219D02*
X137021720Y-79231028D01*
X137021720Y-79231028D02*
X137355053Y-78707219D01*
X137878863Y-78707219D02*
X138069339Y-78707219D01*
X138069339Y-78707219D02*
X138164577Y-78754838D01*
X138164577Y-78754838D02*
X138259815Y-78850076D01*
X138259815Y-78850076D02*
X138307434Y-79040552D01*
X138307434Y-79040552D02*
X138307434Y-79373885D01*
X138307434Y-79373885D02*
X138259815Y-79564361D01*
X138259815Y-79564361D02*
X138164577Y-79659600D01*
X138164577Y-79659600D02*
X138069339Y-79707219D01*
X138069339Y-79707219D02*
X137878863Y-79707219D01*
X137878863Y-79707219D02*
X137783625Y-79659600D01*
X137783625Y-79659600D02*
X137688387Y-79564361D01*
X137688387Y-79564361D02*
X137640768Y-79373885D01*
X137640768Y-79373885D02*
X137640768Y-79040552D01*
X137640768Y-79040552D02*
X137688387Y-78850076D01*
X137688387Y-78850076D02*
X137783625Y-78754838D01*
X137783625Y-78754838D02*
X137878863Y-78707219D01*
X139259815Y-78754838D02*
X139164577Y-78707219D01*
X139164577Y-78707219D02*
X139021720Y-78707219D01*
X139021720Y-78707219D02*
X138878863Y-78754838D01*
X138878863Y-78754838D02*
X138783625Y-78850076D01*
X138783625Y-78850076D02*
X138736006Y-78945314D01*
X138736006Y-78945314D02*
X138688387Y-79135790D01*
X138688387Y-79135790D02*
X138688387Y-79278647D01*
X138688387Y-79278647D02*
X138736006Y-79469123D01*
X138736006Y-79469123D02*
X138783625Y-79564361D01*
X138783625Y-79564361D02*
X138878863Y-79659600D01*
X138878863Y-79659600D02*
X139021720Y-79707219D01*
X139021720Y-79707219D02*
X139116958Y-79707219D01*
X139116958Y-79707219D02*
X139259815Y-79659600D01*
X139259815Y-79659600D02*
X139307434Y-79611980D01*
X139307434Y-79611980D02*
X139307434Y-79278647D01*
X139307434Y-79278647D02*
X139116958Y-79278647D01*
X140307434Y-79707219D02*
X139974101Y-79231028D01*
X139736006Y-79707219D02*
X139736006Y-78707219D01*
X139736006Y-78707219D02*
X140116958Y-78707219D01*
X140116958Y-78707219D02*
X140212196Y-78754838D01*
X140212196Y-78754838D02*
X140259815Y-78802457D01*
X140259815Y-78802457D02*
X140307434Y-78897695D01*
X140307434Y-78897695D02*
X140307434Y-79040552D01*
X140307434Y-79040552D02*
X140259815Y-79135790D01*
X140259815Y-79135790D02*
X140212196Y-79183409D01*
X140212196Y-79183409D02*
X140116958Y-79231028D01*
X140116958Y-79231028D02*
X139736006Y-79231028D01*
X140688387Y-79421504D02*
X141164577Y-79421504D01*
X140593149Y-79707219D02*
X140926482Y-78707219D01*
X140926482Y-78707219D02*
X141259815Y-79707219D01*
X141593149Y-79707219D02*
X141593149Y-78707219D01*
X141593149Y-78707219D02*
X141974101Y-78707219D01*
X141974101Y-78707219D02*
X142069339Y-78754838D01*
X142069339Y-78754838D02*
X142116958Y-78802457D01*
X142116958Y-78802457D02*
X142164577Y-78897695D01*
X142164577Y-78897695D02*
X142164577Y-79040552D01*
X142164577Y-79040552D02*
X142116958Y-79135790D01*
X142116958Y-79135790D02*
X142069339Y-79183409D01*
X142069339Y-79183409D02*
X141974101Y-79231028D01*
X141974101Y-79231028D02*
X141593149Y-79231028D01*
X142593149Y-79707219D02*
X142593149Y-78707219D01*
X142593149Y-79183409D02*
X143164577Y-79183409D01*
X143164577Y-79707219D02*
X143164577Y-78707219D01*
X143831244Y-79231028D02*
X143831244Y-79707219D01*
X143497911Y-78707219D02*
X143831244Y-79231028D01*
X143831244Y-79231028D02*
X144164577Y-78707219D01*
X145545530Y-80088171D02*
X145497911Y-80040552D01*
X145497911Y-80040552D02*
X145402673Y-79897695D01*
X145402673Y-79897695D02*
X145355054Y-79802457D01*
X145355054Y-79802457D02*
X145307435Y-79659600D01*
X145307435Y-79659600D02*
X145259816Y-79421504D01*
X145259816Y-79421504D02*
X145259816Y-79231028D01*
X145259816Y-79231028D02*
X145307435Y-78992933D01*
X145307435Y-78992933D02*
X145355054Y-78850076D01*
X145355054Y-78850076D02*
X145402673Y-78754838D01*
X145402673Y-78754838D02*
X145497911Y-78611980D01*
X145497911Y-78611980D02*
X145545530Y-78564361D01*
X145926483Y-79183409D02*
X146259816Y-79183409D01*
X146402673Y-79707219D02*
X145926483Y-79707219D01*
X145926483Y-79707219D02*
X145926483Y-78707219D01*
X145926483Y-78707219D02*
X146402673Y-78707219D01*
X146831245Y-79707219D02*
X146831245Y-78707219D01*
X146831245Y-78707219D02*
X147164578Y-79421504D01*
X147164578Y-79421504D02*
X147497911Y-78707219D01*
X147497911Y-78707219D02*
X147497911Y-79707219D01*
X148497911Y-78754838D02*
X148402673Y-78707219D01*
X148402673Y-78707219D02*
X148259816Y-78707219D01*
X148259816Y-78707219D02*
X148116959Y-78754838D01*
X148116959Y-78754838D02*
X148021721Y-78850076D01*
X148021721Y-78850076D02*
X147974102Y-78945314D01*
X147974102Y-78945314D02*
X147926483Y-79135790D01*
X147926483Y-79135790D02*
X147926483Y-79278647D01*
X147926483Y-79278647D02*
X147974102Y-79469123D01*
X147974102Y-79469123D02*
X148021721Y-79564361D01*
X148021721Y-79564361D02*
X148116959Y-79659600D01*
X148116959Y-79659600D02*
X148259816Y-79707219D01*
X148259816Y-79707219D02*
X148355054Y-79707219D01*
X148355054Y-79707219D02*
X148497911Y-79659600D01*
X148497911Y-79659600D02*
X148545530Y-79611980D01*
X148545530Y-79611980D02*
X148545530Y-79278647D01*
X148545530Y-79278647D02*
X148355054Y-79278647D01*
X148878864Y-80088171D02*
X148926483Y-80040552D01*
X148926483Y-80040552D02*
X149021721Y-79897695D01*
X149021721Y-79897695D02*
X149069340Y-79802457D01*
X149069340Y-79802457D02*
X149116959Y-79659600D01*
X149116959Y-79659600D02*
X149164578Y-79421504D01*
X149164578Y-79421504D02*
X149164578Y-79231028D01*
X149164578Y-79231028D02*
X149116959Y-78992933D01*
X149116959Y-78992933D02*
X149069340Y-78850076D01*
X149069340Y-78850076D02*
X149021721Y-78754838D01*
X149021721Y-78754838D02*
X148926483Y-78611980D01*
X148926483Y-78611980D02*
X148878864Y-78564361D01*
X150355055Y-79659600D02*
X150497912Y-79707219D01*
X150497912Y-79707219D02*
X150736007Y-79707219D01*
X150736007Y-79707219D02*
X150831245Y-79659600D01*
X150831245Y-79659600D02*
X150878864Y-79611980D01*
X150878864Y-79611980D02*
X150926483Y-79516742D01*
X150926483Y-79516742D02*
X150926483Y-79421504D01*
X150926483Y-79421504D02*
X150878864Y-79326266D01*
X150878864Y-79326266D02*
X150831245Y-79278647D01*
X150831245Y-79278647D02*
X150736007Y-79231028D01*
X150736007Y-79231028D02*
X150545531Y-79183409D01*
X150545531Y-79183409D02*
X150450293Y-79135790D01*
X150450293Y-79135790D02*
X150402674Y-79088171D01*
X150402674Y-79088171D02*
X150355055Y-78992933D01*
X150355055Y-78992933D02*
X150355055Y-78897695D01*
X150355055Y-78897695D02*
X150402674Y-78802457D01*
X150402674Y-78802457D02*
X150450293Y-78754838D01*
X150450293Y-78754838D02*
X150545531Y-78707219D01*
X150545531Y-78707219D02*
X150783626Y-78707219D01*
X150783626Y-78707219D02*
X150926483Y-78754838D01*
X151355055Y-79183409D02*
X151688388Y-79183409D01*
X151831245Y-79707219D02*
X151355055Y-79707219D01*
X151355055Y-79707219D02*
X151355055Y-78707219D01*
X151355055Y-78707219D02*
X151831245Y-78707219D01*
X152259817Y-79707219D02*
X152259817Y-78707219D01*
X152259817Y-78707219D02*
X152831245Y-79707219D01*
X152831245Y-79707219D02*
X152831245Y-78707219D01*
X153259817Y-79659600D02*
X153402674Y-79707219D01*
X153402674Y-79707219D02*
X153640769Y-79707219D01*
X153640769Y-79707219D02*
X153736007Y-79659600D01*
X153736007Y-79659600D02*
X153783626Y-79611980D01*
X153783626Y-79611980D02*
X153831245Y-79516742D01*
X153831245Y-79516742D02*
X153831245Y-79421504D01*
X153831245Y-79421504D02*
X153783626Y-79326266D01*
X153783626Y-79326266D02*
X153736007Y-79278647D01*
X153736007Y-79278647D02*
X153640769Y-79231028D01*
X153640769Y-79231028D02*
X153450293Y-79183409D01*
X153450293Y-79183409D02*
X153355055Y-79135790D01*
X153355055Y-79135790D02*
X153307436Y-79088171D01*
X153307436Y-79088171D02*
X153259817Y-78992933D01*
X153259817Y-78992933D02*
X153259817Y-78897695D01*
X153259817Y-78897695D02*
X153307436Y-78802457D01*
X153307436Y-78802457D02*
X153355055Y-78754838D01*
X153355055Y-78754838D02*
X153450293Y-78707219D01*
X153450293Y-78707219D02*
X153688388Y-78707219D01*
X153688388Y-78707219D02*
X153831245Y-78754838D01*
X154450293Y-78707219D02*
X154640769Y-78707219D01*
X154640769Y-78707219D02*
X154736007Y-78754838D01*
X154736007Y-78754838D02*
X154831245Y-78850076D01*
X154831245Y-78850076D02*
X154878864Y-79040552D01*
X154878864Y-79040552D02*
X154878864Y-79373885D01*
X154878864Y-79373885D02*
X154831245Y-79564361D01*
X154831245Y-79564361D02*
X154736007Y-79659600D01*
X154736007Y-79659600D02*
X154640769Y-79707219D01*
X154640769Y-79707219D02*
X154450293Y-79707219D01*
X154450293Y-79707219D02*
X154355055Y-79659600D01*
X154355055Y-79659600D02*
X154259817Y-79564361D01*
X154259817Y-79564361D02*
X154212198Y-79373885D01*
X154212198Y-79373885D02*
X154212198Y-79040552D01*
X154212198Y-79040552D02*
X154259817Y-78850076D01*
X154259817Y-78850076D02*
X154355055Y-78754838D01*
X154355055Y-78754838D02*
X154450293Y-78707219D01*
X155878864Y-79707219D02*
X155545531Y-79231028D01*
X155307436Y-79707219D02*
X155307436Y-78707219D01*
X155307436Y-78707219D02*
X155688388Y-78707219D01*
X155688388Y-78707219D02*
X155783626Y-78754838D01*
X155783626Y-78754838D02*
X155831245Y-78802457D01*
X155831245Y-78802457D02*
X155878864Y-78897695D01*
X155878864Y-78897695D02*
X155878864Y-79040552D01*
X155878864Y-79040552D02*
X155831245Y-79135790D01*
X155831245Y-79135790D02*
X155783626Y-79183409D01*
X155783626Y-79183409D02*
X155688388Y-79231028D01*
X155688388Y-79231028D02*
X155307436Y-79231028D01*
X227265422Y-105569924D02*
X227265422Y-106569924D01*
X227265422Y-106569924D02*
X227027327Y-106569924D01*
X227027327Y-106569924D02*
X226884470Y-106522305D01*
X226884470Y-106522305D02*
X226789232Y-106427067D01*
X226789232Y-106427067D02*
X226741613Y-106331829D01*
X226741613Y-106331829D02*
X226693994Y-106141353D01*
X226693994Y-106141353D02*
X226693994Y-105998496D01*
X226693994Y-105998496D02*
X226741613Y-105808020D01*
X226741613Y-105808020D02*
X226789232Y-105712782D01*
X226789232Y-105712782D02*
X226884470Y-105617544D01*
X226884470Y-105617544D02*
X227027327Y-105569924D01*
X227027327Y-105569924D02*
X227265422Y-105569924D01*
X226265422Y-105569924D02*
X226265422Y-106569924D01*
X225598756Y-106046115D02*
X225598756Y-105569924D01*
X225932089Y-106569924D02*
X225598756Y-106046115D01*
X225598756Y-106046115D02*
X225265423Y-106569924D01*
X224170184Y-106093734D02*
X223836851Y-106093734D01*
X223693994Y-105569924D02*
X224170184Y-105569924D01*
X224170184Y-105569924D02*
X224170184Y-106569924D01*
X224170184Y-106569924D02*
X223693994Y-106569924D01*
X222789232Y-105569924D02*
X223265422Y-105569924D01*
X223265422Y-105569924D02*
X223265422Y-106569924D01*
X222455898Y-106093734D02*
X222122565Y-106093734D01*
X221979708Y-105569924D02*
X222455898Y-105569924D01*
X222455898Y-105569924D02*
X222455898Y-106569924D01*
X222455898Y-106569924D02*
X221979708Y-106569924D01*
X220979708Y-105665163D02*
X221027327Y-105617544D01*
X221027327Y-105617544D02*
X221170184Y-105569924D01*
X221170184Y-105569924D02*
X221265422Y-105569924D01*
X221265422Y-105569924D02*
X221408279Y-105617544D01*
X221408279Y-105617544D02*
X221503517Y-105712782D01*
X221503517Y-105712782D02*
X221551136Y-105808020D01*
X221551136Y-105808020D02*
X221598755Y-105998496D01*
X221598755Y-105998496D02*
X221598755Y-106141353D01*
X221598755Y-106141353D02*
X221551136Y-106331829D01*
X221551136Y-106331829D02*
X221503517Y-106427067D01*
X221503517Y-106427067D02*
X221408279Y-106522305D01*
X221408279Y-106522305D02*
X221265422Y-106569924D01*
X221265422Y-106569924D02*
X221170184Y-106569924D01*
X221170184Y-106569924D02*
X221027327Y-106522305D01*
X221027327Y-106522305D02*
X220979708Y-106474686D01*
X220693993Y-106569924D02*
X220122565Y-106569924D01*
X220408279Y-105569924D02*
X220408279Y-106569924D01*
X219217803Y-105569924D02*
X219551136Y-106046115D01*
X219789231Y-105569924D02*
X219789231Y-106569924D01*
X219789231Y-106569924D02*
X219408279Y-106569924D01*
X219408279Y-106569924D02*
X219313041Y-106522305D01*
X219313041Y-106522305D02*
X219265422Y-106474686D01*
X219265422Y-106474686D02*
X219217803Y-106379448D01*
X219217803Y-106379448D02*
X219217803Y-106236591D01*
X219217803Y-106236591D02*
X219265422Y-106141353D01*
X219265422Y-106141353D02*
X219313041Y-106093734D01*
X219313041Y-106093734D02*
X219408279Y-106046115D01*
X219408279Y-106046115D02*
X219789231Y-106046115D01*
X218598755Y-106569924D02*
X218408279Y-106569924D01*
X218408279Y-106569924D02*
X218313041Y-106522305D01*
X218313041Y-106522305D02*
X218217803Y-106427067D01*
X218217803Y-106427067D02*
X218170184Y-106236591D01*
X218170184Y-106236591D02*
X218170184Y-105903258D01*
X218170184Y-105903258D02*
X218217803Y-105712782D01*
X218217803Y-105712782D02*
X218313041Y-105617544D01*
X218313041Y-105617544D02*
X218408279Y-105569924D01*
X218408279Y-105569924D02*
X218598755Y-105569924D01*
X218598755Y-105569924D02*
X218693993Y-105617544D01*
X218693993Y-105617544D02*
X218789231Y-105712782D01*
X218789231Y-105712782D02*
X218836850Y-105903258D01*
X218836850Y-105903258D02*
X218836850Y-106236591D01*
X218836850Y-106236591D02*
X218789231Y-106427067D01*
X218789231Y-106427067D02*
X218693993Y-106522305D01*
X218693993Y-106522305D02*
X218598755Y-106569924D01*
X217741612Y-105569924D02*
X217741612Y-106569924D01*
X217741612Y-106569924D02*
X217408279Y-105855639D01*
X217408279Y-105855639D02*
X217074946Y-106569924D01*
X217074946Y-106569924D02*
X217074946Y-105569924D01*
X216408279Y-106046115D02*
X216408279Y-105569924D01*
X216741612Y-106569924D02*
X216408279Y-106046115D01*
X216408279Y-106046115D02*
X216074946Y-106569924D01*
X215551136Y-106569924D02*
X215360660Y-106569924D01*
X215360660Y-106569924D02*
X215265422Y-106522305D01*
X215265422Y-106522305D02*
X215170184Y-106427067D01*
X215170184Y-106427067D02*
X215122565Y-106236591D01*
X215122565Y-106236591D02*
X215122565Y-105903258D01*
X215122565Y-105903258D02*
X215170184Y-105712782D01*
X215170184Y-105712782D02*
X215265422Y-105617544D01*
X215265422Y-105617544D02*
X215360660Y-105569924D01*
X215360660Y-105569924D02*
X215551136Y-105569924D01*
X215551136Y-105569924D02*
X215646374Y-105617544D01*
X215646374Y-105617544D02*
X215741612Y-105712782D01*
X215741612Y-105712782D02*
X215789231Y-105903258D01*
X215789231Y-105903258D02*
X215789231Y-106236591D01*
X215789231Y-106236591D02*
X215741612Y-106427067D01*
X215741612Y-106427067D02*
X215646374Y-106522305D01*
X215646374Y-106522305D02*
X215551136Y-106569924D01*
X214170184Y-106522305D02*
X214265422Y-106569924D01*
X214265422Y-106569924D02*
X214408279Y-106569924D01*
X214408279Y-106569924D02*
X214551136Y-106522305D01*
X214551136Y-106522305D02*
X214646374Y-106427067D01*
X214646374Y-106427067D02*
X214693993Y-106331829D01*
X214693993Y-106331829D02*
X214741612Y-106141353D01*
X214741612Y-106141353D02*
X214741612Y-105998496D01*
X214741612Y-105998496D02*
X214693993Y-105808020D01*
X214693993Y-105808020D02*
X214646374Y-105712782D01*
X214646374Y-105712782D02*
X214551136Y-105617544D01*
X214551136Y-105617544D02*
X214408279Y-105569924D01*
X214408279Y-105569924D02*
X214313041Y-105569924D01*
X214313041Y-105569924D02*
X214170184Y-105617544D01*
X214170184Y-105617544D02*
X214122565Y-105665163D01*
X214122565Y-105665163D02*
X214122565Y-105998496D01*
X214122565Y-105998496D02*
X214313041Y-105998496D01*
X213122565Y-105569924D02*
X213455898Y-106046115D01*
X213693993Y-105569924D02*
X213693993Y-106569924D01*
X213693993Y-106569924D02*
X213313041Y-106569924D01*
X213313041Y-106569924D02*
X213217803Y-106522305D01*
X213217803Y-106522305D02*
X213170184Y-106474686D01*
X213170184Y-106474686D02*
X213122565Y-106379448D01*
X213122565Y-106379448D02*
X213122565Y-106236591D01*
X213122565Y-106236591D02*
X213170184Y-106141353D01*
X213170184Y-106141353D02*
X213217803Y-106093734D01*
X213217803Y-106093734D02*
X213313041Y-106046115D01*
X213313041Y-106046115D02*
X213693993Y-106046115D01*
X212741612Y-105855639D02*
X212265422Y-105855639D01*
X212836850Y-105569924D02*
X212503517Y-106569924D01*
X212503517Y-106569924D02*
X212170184Y-105569924D01*
X211836850Y-105569924D02*
X211836850Y-106569924D01*
X211836850Y-106569924D02*
X211455898Y-106569924D01*
X211455898Y-106569924D02*
X211360660Y-106522305D01*
X211360660Y-106522305D02*
X211313041Y-106474686D01*
X211313041Y-106474686D02*
X211265422Y-106379448D01*
X211265422Y-106379448D02*
X211265422Y-106236591D01*
X211265422Y-106236591D02*
X211313041Y-106141353D01*
X211313041Y-106141353D02*
X211360660Y-106093734D01*
X211360660Y-106093734D02*
X211455898Y-106046115D01*
X211455898Y-106046115D02*
X211836850Y-106046115D01*
X210836850Y-105569924D02*
X210836850Y-106569924D01*
X210836850Y-106093734D02*
X210265422Y-106093734D01*
X210265422Y-105569924D02*
X210265422Y-106569924D01*
X209598755Y-106046115D02*
X209598755Y-105569924D01*
X209932088Y-106569924D02*
X209598755Y-106046115D01*
X209598755Y-106046115D02*
X209265422Y-106569924D01*
X207884469Y-105188972D02*
X207932088Y-105236591D01*
X207932088Y-105236591D02*
X208027326Y-105379448D01*
X208027326Y-105379448D02*
X208074945Y-105474686D01*
X208074945Y-105474686D02*
X208122564Y-105617544D01*
X208122564Y-105617544D02*
X208170183Y-105855639D01*
X208170183Y-105855639D02*
X208170183Y-106046115D01*
X208170183Y-106046115D02*
X208122564Y-106284210D01*
X208122564Y-106284210D02*
X208074945Y-106427067D01*
X208074945Y-106427067D02*
X208027326Y-106522305D01*
X208027326Y-106522305D02*
X207932088Y-106665163D01*
X207932088Y-106665163D02*
X207884469Y-106712782D01*
X207503516Y-106093734D02*
X207170183Y-106093734D01*
X207027326Y-105569924D02*
X207503516Y-105569924D01*
X207503516Y-105569924D02*
X207503516Y-106569924D01*
X207503516Y-106569924D02*
X207027326Y-106569924D01*
X206598754Y-105569924D02*
X206598754Y-106569924D01*
X206598754Y-106569924D02*
X206265421Y-105855639D01*
X206265421Y-105855639D02*
X205932088Y-106569924D01*
X205932088Y-106569924D02*
X205932088Y-105569924D01*
X204932088Y-106522305D02*
X205027326Y-106569924D01*
X205027326Y-106569924D02*
X205170183Y-106569924D01*
X205170183Y-106569924D02*
X205313040Y-106522305D01*
X205313040Y-106522305D02*
X205408278Y-106427067D01*
X205408278Y-106427067D02*
X205455897Y-106331829D01*
X205455897Y-106331829D02*
X205503516Y-106141353D01*
X205503516Y-106141353D02*
X205503516Y-105998496D01*
X205503516Y-105998496D02*
X205455897Y-105808020D01*
X205455897Y-105808020D02*
X205408278Y-105712782D01*
X205408278Y-105712782D02*
X205313040Y-105617544D01*
X205313040Y-105617544D02*
X205170183Y-105569924D01*
X205170183Y-105569924D02*
X205074945Y-105569924D01*
X205074945Y-105569924D02*
X204932088Y-105617544D01*
X204932088Y-105617544D02*
X204884469Y-105665163D01*
X204884469Y-105665163D02*
X204884469Y-105998496D01*
X204884469Y-105998496D02*
X205074945Y-105998496D01*
X204551135Y-105188972D02*
X204503516Y-105236591D01*
X204503516Y-105236591D02*
X204408278Y-105379448D01*
X204408278Y-105379448D02*
X204360659Y-105474686D01*
X204360659Y-105474686D02*
X204313040Y-105617544D01*
X204313040Y-105617544D02*
X204265421Y-105855639D01*
X204265421Y-105855639D02*
X204265421Y-106046115D01*
X204265421Y-106046115D02*
X204313040Y-106284210D01*
X204313040Y-106284210D02*
X204360659Y-106427067D01*
X204360659Y-106427067D02*
X204408278Y-106522305D01*
X204408278Y-106522305D02*
X204503516Y-106665163D01*
X204503516Y-106665163D02*
X204551135Y-106712782D01*
X203074944Y-105617544D02*
X202932087Y-105569924D01*
X202932087Y-105569924D02*
X202693992Y-105569924D01*
X202693992Y-105569924D02*
X202598754Y-105617544D01*
X202598754Y-105617544D02*
X202551135Y-105665163D01*
X202551135Y-105665163D02*
X202503516Y-105760401D01*
X202503516Y-105760401D02*
X202503516Y-105855639D01*
X202503516Y-105855639D02*
X202551135Y-105950877D01*
X202551135Y-105950877D02*
X202598754Y-105998496D01*
X202598754Y-105998496D02*
X202693992Y-106046115D01*
X202693992Y-106046115D02*
X202884468Y-106093734D01*
X202884468Y-106093734D02*
X202979706Y-106141353D01*
X202979706Y-106141353D02*
X203027325Y-106188972D01*
X203027325Y-106188972D02*
X203074944Y-106284210D01*
X203074944Y-106284210D02*
X203074944Y-106379448D01*
X203074944Y-106379448D02*
X203027325Y-106474686D01*
X203027325Y-106474686D02*
X202979706Y-106522305D01*
X202979706Y-106522305D02*
X202884468Y-106569924D01*
X202884468Y-106569924D02*
X202646373Y-106569924D01*
X202646373Y-106569924D02*
X202503516Y-106522305D01*
X202074944Y-106093734D02*
X201741611Y-106093734D01*
X201598754Y-105569924D02*
X202074944Y-105569924D01*
X202074944Y-105569924D02*
X202074944Y-106569924D01*
X202074944Y-106569924D02*
X201598754Y-106569924D01*
X201170182Y-105569924D02*
X201170182Y-106569924D01*
X201170182Y-106569924D02*
X200598754Y-105569924D01*
X200598754Y-105569924D02*
X200598754Y-106569924D01*
X200170182Y-105617544D02*
X200027325Y-105569924D01*
X200027325Y-105569924D02*
X199789230Y-105569924D01*
X199789230Y-105569924D02*
X199693992Y-105617544D01*
X199693992Y-105617544D02*
X199646373Y-105665163D01*
X199646373Y-105665163D02*
X199598754Y-105760401D01*
X199598754Y-105760401D02*
X199598754Y-105855639D01*
X199598754Y-105855639D02*
X199646373Y-105950877D01*
X199646373Y-105950877D02*
X199693992Y-105998496D01*
X199693992Y-105998496D02*
X199789230Y-106046115D01*
X199789230Y-106046115D02*
X199979706Y-106093734D01*
X199979706Y-106093734D02*
X200074944Y-106141353D01*
X200074944Y-106141353D02*
X200122563Y-106188972D01*
X200122563Y-106188972D02*
X200170182Y-106284210D01*
X200170182Y-106284210D02*
X200170182Y-106379448D01*
X200170182Y-106379448D02*
X200122563Y-106474686D01*
X200122563Y-106474686D02*
X200074944Y-106522305D01*
X200074944Y-106522305D02*
X199979706Y-106569924D01*
X199979706Y-106569924D02*
X199741611Y-106569924D01*
X199741611Y-106569924D02*
X199598754Y-106522305D01*
X198979706Y-106569924D02*
X198789230Y-106569924D01*
X198789230Y-106569924D02*
X198693992Y-106522305D01*
X198693992Y-106522305D02*
X198598754Y-106427067D01*
X198598754Y-106427067D02*
X198551135Y-106236591D01*
X198551135Y-106236591D02*
X198551135Y-105903258D01*
X198551135Y-105903258D02*
X198598754Y-105712782D01*
X198598754Y-105712782D02*
X198693992Y-105617544D01*
X198693992Y-105617544D02*
X198789230Y-105569924D01*
X198789230Y-105569924D02*
X198979706Y-105569924D01*
X198979706Y-105569924D02*
X199074944Y-105617544D01*
X199074944Y-105617544D02*
X199170182Y-105712782D01*
X199170182Y-105712782D02*
X199217801Y-105903258D01*
X199217801Y-105903258D02*
X199217801Y-106236591D01*
X199217801Y-106236591D02*
X199170182Y-106427067D01*
X199170182Y-106427067D02*
X199074944Y-106522305D01*
X199074944Y-106522305D02*
X198979706Y-106569924D01*
X197551135Y-105569924D02*
X197884468Y-106046115D01*
X198122563Y-105569924D02*
X198122563Y-106569924D01*
X198122563Y-106569924D02*
X197741611Y-106569924D01*
X197741611Y-106569924D02*
X197646373Y-106522305D01*
X197646373Y-106522305D02*
X197598754Y-106474686D01*
X197598754Y-106474686D02*
X197551135Y-106379448D01*
X197551135Y-106379448D02*
X197551135Y-106236591D01*
X197551135Y-106236591D02*
X197598754Y-106141353D01*
X197598754Y-106141353D02*
X197646373Y-106093734D01*
X197646373Y-106093734D02*
X197741611Y-106046115D01*
X197741611Y-106046115D02*
X198122563Y-106046115D01*
D13*
X140056428Y-97476428D02*
X139999285Y-97590714D01*
X139999285Y-97590714D02*
X139885000Y-97705000D01*
X139885000Y-97705000D02*
X139713571Y-97876428D01*
X139713571Y-97876428D02*
X139656428Y-97990714D01*
X139656428Y-97990714D02*
X139656428Y-98105000D01*
X139942142Y-98047857D02*
X139885000Y-98162143D01*
X139885000Y-98162143D02*
X139770714Y-98276428D01*
X139770714Y-98276428D02*
X139542142Y-98333571D01*
X139542142Y-98333571D02*
X139142142Y-98333571D01*
X139142142Y-98333571D02*
X138913571Y-98276428D01*
X138913571Y-98276428D02*
X138799285Y-98162143D01*
X138799285Y-98162143D02*
X138742142Y-98047857D01*
X138742142Y-98047857D02*
X138742142Y-97819285D01*
X138742142Y-97819285D02*
X138799285Y-97705000D01*
X138799285Y-97705000D02*
X138913571Y-97590714D01*
X138913571Y-97590714D02*
X139142142Y-97533571D01*
X139142142Y-97533571D02*
X139542142Y-97533571D01*
X139542142Y-97533571D02*
X139770714Y-97590714D01*
X139770714Y-97590714D02*
X139885000Y-97705000D01*
X139885000Y-97705000D02*
X139942142Y-97819285D01*
X139942142Y-97819285D02*
X139942142Y-98047857D01*
X138742142Y-97019285D02*
X139713571Y-97019285D01*
X139713571Y-97019285D02*
X139827857Y-96962142D01*
X139827857Y-96962142D02*
X139885000Y-96905000D01*
X139885000Y-96905000D02*
X139942142Y-96790714D01*
X139942142Y-96790714D02*
X139942142Y-96562142D01*
X139942142Y-96562142D02*
X139885000Y-96447857D01*
X139885000Y-96447857D02*
X139827857Y-96390714D01*
X139827857Y-96390714D02*
X139713571Y-96333571D01*
X139713571Y-96333571D02*
X138742142Y-96333571D01*
X139599285Y-95819285D02*
X139599285Y-95247857D01*
X139942142Y-95933571D02*
X138742142Y-95533571D01*
X138742142Y-95533571D02*
X139942142Y-95133571D01*
X139942142Y-94733571D02*
X138742142Y-94733571D01*
X138742142Y-94733571D02*
X138742142Y-94447857D01*
X138742142Y-94447857D02*
X138799285Y-94276428D01*
X138799285Y-94276428D02*
X138913571Y-94162143D01*
X138913571Y-94162143D02*
X139027857Y-94105000D01*
X139027857Y-94105000D02*
X139256428Y-94047857D01*
X139256428Y-94047857D02*
X139427857Y-94047857D01*
X139427857Y-94047857D02*
X139656428Y-94105000D01*
X139656428Y-94105000D02*
X139770714Y-94162143D01*
X139770714Y-94162143D02*
X139885000Y-94276428D01*
X139885000Y-94276428D02*
X139942142Y-94447857D01*
X139942142Y-94447857D02*
X139942142Y-94733571D01*
X138742142Y-92390714D02*
X138742142Y-92162142D01*
X138742142Y-92162142D02*
X138799285Y-92047857D01*
X138799285Y-92047857D02*
X138913571Y-91933571D01*
X138913571Y-91933571D02*
X139142142Y-91876428D01*
X139142142Y-91876428D02*
X139542142Y-91876428D01*
X139542142Y-91876428D02*
X139770714Y-91933571D01*
X139770714Y-91933571D02*
X139885000Y-92047857D01*
X139885000Y-92047857D02*
X139942142Y-92162142D01*
X139942142Y-92162142D02*
X139942142Y-92390714D01*
X139942142Y-92390714D02*
X139885000Y-92505000D01*
X139885000Y-92505000D02*
X139770714Y-92619285D01*
X139770714Y-92619285D02*
X139542142Y-92676428D01*
X139542142Y-92676428D02*
X139142142Y-92676428D01*
X139142142Y-92676428D02*
X138913571Y-92619285D01*
X138913571Y-92619285D02*
X138799285Y-92505000D01*
X138799285Y-92505000D02*
X138742142Y-92390714D01*
X139942142Y-91362142D02*
X138742142Y-91362142D01*
X138742142Y-91362142D02*
X138742142Y-90904999D01*
X138742142Y-90904999D02*
X138799285Y-90790714D01*
X138799285Y-90790714D02*
X138856428Y-90733571D01*
X138856428Y-90733571D02*
X138970714Y-90676428D01*
X138970714Y-90676428D02*
X139142142Y-90676428D01*
X139142142Y-90676428D02*
X139256428Y-90733571D01*
X139256428Y-90733571D02*
X139313571Y-90790714D01*
X139313571Y-90790714D02*
X139370714Y-90904999D01*
X139370714Y-90904999D02*
X139370714Y-91362142D01*
X139599285Y-90219285D02*
X139599285Y-89647857D01*
X139942142Y-90333571D02*
X138742142Y-89933571D01*
X138742142Y-89933571D02*
X139942142Y-89533571D01*
X139942142Y-89133571D02*
X138742142Y-89133571D01*
X138742142Y-89133571D02*
X139599285Y-88733571D01*
X139599285Y-88733571D02*
X138742142Y-88333571D01*
X138742142Y-88333571D02*
X139942142Y-88333571D01*
X139942142Y-87762142D02*
X138742142Y-87762142D01*
X138742142Y-87762142D02*
X138742142Y-87304999D01*
X138742142Y-87304999D02*
X138799285Y-87190714D01*
X138799285Y-87190714D02*
X138856428Y-87133571D01*
X138856428Y-87133571D02*
X138970714Y-87076428D01*
X138970714Y-87076428D02*
X139142142Y-87076428D01*
X139142142Y-87076428D02*
X139256428Y-87133571D01*
X139256428Y-87133571D02*
X139313571Y-87190714D01*
X139313571Y-87190714D02*
X139370714Y-87304999D01*
X139370714Y-87304999D02*
X139370714Y-87762142D01*
X157342142Y-102842857D02*
X156142142Y-102842857D01*
X156142142Y-102842857D02*
X156999285Y-102442857D01*
X156999285Y-102442857D02*
X156142142Y-102042857D01*
X156142142Y-102042857D02*
X157342142Y-102042857D01*
X156142142Y-101471428D02*
X157113571Y-101471428D01*
X157113571Y-101471428D02*
X157227857Y-101414285D01*
X157227857Y-101414285D02*
X157285000Y-101357143D01*
X157285000Y-101357143D02*
X157342142Y-101242857D01*
X157342142Y-101242857D02*
X157342142Y-101014285D01*
X157342142Y-101014285D02*
X157285000Y-100900000D01*
X157285000Y-100900000D02*
X157227857Y-100842857D01*
X157227857Y-100842857D02*
X157113571Y-100785714D01*
X157113571Y-100785714D02*
X156142142Y-100785714D01*
X157285000Y-100271428D02*
X157342142Y-100100000D01*
X157342142Y-100100000D02*
X157342142Y-99814285D01*
X157342142Y-99814285D02*
X157285000Y-99700000D01*
X157285000Y-99700000D02*
X157227857Y-99642857D01*
X157227857Y-99642857D02*
X157113571Y-99585714D01*
X157113571Y-99585714D02*
X156999285Y-99585714D01*
X156999285Y-99585714D02*
X156885000Y-99642857D01*
X156885000Y-99642857D02*
X156827857Y-99700000D01*
X156827857Y-99700000D02*
X156770714Y-99814285D01*
X156770714Y-99814285D02*
X156713571Y-100042857D01*
X156713571Y-100042857D02*
X156656428Y-100157142D01*
X156656428Y-100157142D02*
X156599285Y-100214285D01*
X156599285Y-100214285D02*
X156485000Y-100271428D01*
X156485000Y-100271428D02*
X156370714Y-100271428D01*
X156370714Y-100271428D02*
X156256428Y-100214285D01*
X156256428Y-100214285D02*
X156199285Y-100157142D01*
X156199285Y-100157142D02*
X156142142Y-100042857D01*
X156142142Y-100042857D02*
X156142142Y-99757142D01*
X156142142Y-99757142D02*
X156199285Y-99585714D01*
X157227857Y-98385714D02*
X157285000Y-98442857D01*
X157285000Y-98442857D02*
X157342142Y-98614285D01*
X157342142Y-98614285D02*
X157342142Y-98728571D01*
X157342142Y-98728571D02*
X157285000Y-98900000D01*
X157285000Y-98900000D02*
X157170714Y-99014285D01*
X157170714Y-99014285D02*
X157056428Y-99071428D01*
X157056428Y-99071428D02*
X156827857Y-99128571D01*
X156827857Y-99128571D02*
X156656428Y-99128571D01*
X156656428Y-99128571D02*
X156427857Y-99071428D01*
X156427857Y-99071428D02*
X156313571Y-99014285D01*
X156313571Y-99014285D02*
X156199285Y-98900000D01*
X156199285Y-98900000D02*
X156142142Y-98728571D01*
X156142142Y-98728571D02*
X156142142Y-98614285D01*
X156142142Y-98614285D02*
X156199285Y-98442857D01*
X156199285Y-98442857D02*
X156256428Y-98385714D01*
X157342142Y-97300000D02*
X157342142Y-97871428D01*
X157342142Y-97871428D02*
X156142142Y-97871428D01*
X156713571Y-96899999D02*
X156713571Y-96499999D01*
X157342142Y-96328571D02*
X157342142Y-96899999D01*
X157342142Y-96899999D02*
X156142142Y-96899999D01*
X156142142Y-96899999D02*
X156142142Y-96328571D01*
X156713571Y-94499999D02*
X156770714Y-94328571D01*
X156770714Y-94328571D02*
X156827857Y-94271428D01*
X156827857Y-94271428D02*
X156942142Y-94214285D01*
X156942142Y-94214285D02*
X157113571Y-94214285D01*
X157113571Y-94214285D02*
X157227857Y-94271428D01*
X157227857Y-94271428D02*
X157285000Y-94328571D01*
X157285000Y-94328571D02*
X157342142Y-94442856D01*
X157342142Y-94442856D02*
X157342142Y-94899999D01*
X157342142Y-94899999D02*
X156142142Y-94899999D01*
X156142142Y-94899999D02*
X156142142Y-94499999D01*
X156142142Y-94499999D02*
X156199285Y-94385714D01*
X156199285Y-94385714D02*
X156256428Y-94328571D01*
X156256428Y-94328571D02*
X156370714Y-94271428D01*
X156370714Y-94271428D02*
X156485000Y-94271428D01*
X156485000Y-94271428D02*
X156599285Y-94328571D01*
X156599285Y-94328571D02*
X156656428Y-94385714D01*
X156656428Y-94385714D02*
X156713571Y-94499999D01*
X156713571Y-94499999D02*
X156713571Y-94899999D01*
X157342142Y-93699999D02*
X156142142Y-93699999D01*
X156142142Y-92899999D02*
X156142142Y-92671427D01*
X156142142Y-92671427D02*
X156199285Y-92557142D01*
X156199285Y-92557142D02*
X156313571Y-92442856D01*
X156313571Y-92442856D02*
X156542142Y-92385713D01*
X156542142Y-92385713D02*
X156942142Y-92385713D01*
X156942142Y-92385713D02*
X157170714Y-92442856D01*
X157170714Y-92442856D02*
X157285000Y-92557142D01*
X157285000Y-92557142D02*
X157342142Y-92671427D01*
X157342142Y-92671427D02*
X157342142Y-92899999D01*
X157342142Y-92899999D02*
X157285000Y-93014285D01*
X157285000Y-93014285D02*
X157170714Y-93128570D01*
X157170714Y-93128570D02*
X156942142Y-93185713D01*
X156942142Y-93185713D02*
X156542142Y-93185713D01*
X156542142Y-93185713D02*
X156313571Y-93128570D01*
X156313571Y-93128570D02*
X156199285Y-93014285D01*
X156199285Y-93014285D02*
X156142142Y-92899999D01*
X156999285Y-91928570D02*
X156999285Y-91357142D01*
X157342142Y-92042856D02*
X156142142Y-91642856D01*
X156142142Y-91642856D02*
X157342142Y-91242856D01*
X157342142Y-90842856D02*
X156142142Y-90842856D01*
X156142142Y-90842856D02*
X156999285Y-90442856D01*
X156999285Y-90442856D02*
X156142142Y-90042856D01*
X156142142Y-90042856D02*
X157342142Y-90042856D01*
X157342142Y-89471427D02*
X156142142Y-89471427D01*
X156142142Y-89471427D02*
X156142142Y-89014284D01*
X156142142Y-89014284D02*
X156199285Y-88899999D01*
X156199285Y-88899999D02*
X156256428Y-88842856D01*
X156256428Y-88842856D02*
X156370714Y-88785713D01*
X156370714Y-88785713D02*
X156542142Y-88785713D01*
X156542142Y-88785713D02*
X156656428Y-88842856D01*
X156656428Y-88842856D02*
X156713571Y-88899999D01*
X156713571Y-88899999D02*
X156770714Y-89014284D01*
X156770714Y-89014284D02*
X156770714Y-89471427D01*
X156713571Y-86957141D02*
X156770714Y-86785713D01*
X156770714Y-86785713D02*
X156827857Y-86728570D01*
X156827857Y-86728570D02*
X156942142Y-86671427D01*
X156942142Y-86671427D02*
X157113571Y-86671427D01*
X157113571Y-86671427D02*
X157227857Y-86728570D01*
X157227857Y-86728570D02*
X157285000Y-86785713D01*
X157285000Y-86785713D02*
X157342142Y-86899998D01*
X157342142Y-86899998D02*
X157342142Y-87357141D01*
X157342142Y-87357141D02*
X156142142Y-87357141D01*
X156142142Y-87357141D02*
X156142142Y-86957141D01*
X156142142Y-86957141D02*
X156199285Y-86842856D01*
X156199285Y-86842856D02*
X156256428Y-86785713D01*
X156256428Y-86785713D02*
X156370714Y-86728570D01*
X156370714Y-86728570D02*
X156485000Y-86728570D01*
X156485000Y-86728570D02*
X156599285Y-86785713D01*
X156599285Y-86785713D02*
X156656428Y-86842856D01*
X156656428Y-86842856D02*
X156713571Y-86957141D01*
X156713571Y-86957141D02*
X156713571Y-87357141D01*
X157342142Y-86157141D02*
X156142142Y-86157141D01*
X157285000Y-85642855D02*
X157342142Y-85471427D01*
X157342142Y-85471427D02*
X157342142Y-85185712D01*
X157342142Y-85185712D02*
X157285000Y-85071427D01*
X157285000Y-85071427D02*
X157227857Y-85014284D01*
X157227857Y-85014284D02*
X157113571Y-84957141D01*
X157113571Y-84957141D02*
X156999285Y-84957141D01*
X156999285Y-84957141D02*
X156885000Y-85014284D01*
X156885000Y-85014284D02*
X156827857Y-85071427D01*
X156827857Y-85071427D02*
X156770714Y-85185712D01*
X156770714Y-85185712D02*
X156713571Y-85414284D01*
X156713571Y-85414284D02*
X156656428Y-85528569D01*
X156656428Y-85528569D02*
X156599285Y-85585712D01*
X156599285Y-85585712D02*
X156485000Y-85642855D01*
X156485000Y-85642855D02*
X156370714Y-85642855D01*
X156370714Y-85642855D02*
X156256428Y-85585712D01*
X156256428Y-85585712D02*
X156199285Y-85528569D01*
X156199285Y-85528569D02*
X156142142Y-85414284D01*
X156142142Y-85414284D02*
X156142142Y-85128569D01*
X156142142Y-85128569D02*
X156199285Y-84957141D01*
X157227857Y-83757141D02*
X157285000Y-83814284D01*
X157285000Y-83814284D02*
X157342142Y-83985712D01*
X157342142Y-83985712D02*
X157342142Y-84099998D01*
X157342142Y-84099998D02*
X157285000Y-84271427D01*
X157285000Y-84271427D02*
X157170714Y-84385712D01*
X157170714Y-84385712D02*
X157056428Y-84442855D01*
X157056428Y-84442855D02*
X156827857Y-84499998D01*
X156827857Y-84499998D02*
X156656428Y-84499998D01*
X156656428Y-84499998D02*
X156427857Y-84442855D01*
X156427857Y-84442855D02*
X156313571Y-84385712D01*
X156313571Y-84385712D02*
X156199285Y-84271427D01*
X156199285Y-84271427D02*
X156142142Y-84099998D01*
X156142142Y-84099998D02*
X156142142Y-83985712D01*
X156142142Y-83985712D02*
X156199285Y-83814284D01*
X156199285Y-83814284D02*
X156256428Y-83757141D01*
X156142142Y-83242855D02*
X157113571Y-83242855D01*
X157113571Y-83242855D02*
X157227857Y-83185712D01*
X157227857Y-83185712D02*
X157285000Y-83128570D01*
X157285000Y-83128570D02*
X157342142Y-83014284D01*
X157342142Y-83014284D02*
X157342142Y-82785712D01*
X157342142Y-82785712D02*
X157285000Y-82671427D01*
X157285000Y-82671427D02*
X157227857Y-82614284D01*
X157227857Y-82614284D02*
X157113571Y-82557141D01*
X157113571Y-82557141D02*
X156142142Y-82557141D01*
X156142142Y-82157141D02*
X156142142Y-81471427D01*
X157342142Y-81814284D02*
X156142142Y-81814284D01*
X156713571Y-81071426D02*
X156713571Y-80671426D01*
X157342142Y-80499998D02*
X157342142Y-81071426D01*
X157342142Y-81071426D02*
X156142142Y-81071426D01*
X156142142Y-81071426D02*
X156142142Y-80499998D01*
X196087857Y-82434286D02*
X197287857Y-82434286D01*
X197287857Y-82434286D02*
X196430714Y-82834286D01*
X196430714Y-82834286D02*
X197287857Y-83234286D01*
X197287857Y-83234286D02*
X196087857Y-83234286D01*
X197287857Y-83805715D02*
X196316428Y-83805715D01*
X196316428Y-83805715D02*
X196202142Y-83862858D01*
X196202142Y-83862858D02*
X196145000Y-83920001D01*
X196145000Y-83920001D02*
X196087857Y-84034286D01*
X196087857Y-84034286D02*
X196087857Y-84262858D01*
X196087857Y-84262858D02*
X196145000Y-84377143D01*
X196145000Y-84377143D02*
X196202142Y-84434286D01*
X196202142Y-84434286D02*
X196316428Y-84491429D01*
X196316428Y-84491429D02*
X197287857Y-84491429D01*
X196145000Y-85005715D02*
X196087857Y-85177144D01*
X196087857Y-85177144D02*
X196087857Y-85462858D01*
X196087857Y-85462858D02*
X196145000Y-85577144D01*
X196145000Y-85577144D02*
X196202142Y-85634286D01*
X196202142Y-85634286D02*
X196316428Y-85691429D01*
X196316428Y-85691429D02*
X196430714Y-85691429D01*
X196430714Y-85691429D02*
X196545000Y-85634286D01*
X196545000Y-85634286D02*
X196602142Y-85577144D01*
X196602142Y-85577144D02*
X196659285Y-85462858D01*
X196659285Y-85462858D02*
X196716428Y-85234286D01*
X196716428Y-85234286D02*
X196773571Y-85120001D01*
X196773571Y-85120001D02*
X196830714Y-85062858D01*
X196830714Y-85062858D02*
X196945000Y-85005715D01*
X196945000Y-85005715D02*
X197059285Y-85005715D01*
X197059285Y-85005715D02*
X197173571Y-85062858D01*
X197173571Y-85062858D02*
X197230714Y-85120001D01*
X197230714Y-85120001D02*
X197287857Y-85234286D01*
X197287857Y-85234286D02*
X197287857Y-85520001D01*
X197287857Y-85520001D02*
X197230714Y-85691429D01*
X196202142Y-86891429D02*
X196145000Y-86834286D01*
X196145000Y-86834286D02*
X196087857Y-86662858D01*
X196087857Y-86662858D02*
X196087857Y-86548572D01*
X196087857Y-86548572D02*
X196145000Y-86377143D01*
X196145000Y-86377143D02*
X196259285Y-86262858D01*
X196259285Y-86262858D02*
X196373571Y-86205715D01*
X196373571Y-86205715D02*
X196602142Y-86148572D01*
X196602142Y-86148572D02*
X196773571Y-86148572D01*
X196773571Y-86148572D02*
X197002142Y-86205715D01*
X197002142Y-86205715D02*
X197116428Y-86262858D01*
X197116428Y-86262858D02*
X197230714Y-86377143D01*
X197230714Y-86377143D02*
X197287857Y-86548572D01*
X197287857Y-86548572D02*
X197287857Y-86662858D01*
X197287857Y-86662858D02*
X197230714Y-86834286D01*
X197230714Y-86834286D02*
X197173571Y-86891429D01*
X196087857Y-87977143D02*
X196087857Y-87405715D01*
X196087857Y-87405715D02*
X197287857Y-87405715D01*
X196716428Y-88377144D02*
X196716428Y-88777144D01*
X196087857Y-88948572D02*
X196087857Y-88377144D01*
X196087857Y-88377144D02*
X197287857Y-88377144D01*
X197287857Y-88377144D02*
X197287857Y-88948572D01*
X196716428Y-90777144D02*
X196659285Y-90948572D01*
X196659285Y-90948572D02*
X196602142Y-91005715D01*
X196602142Y-91005715D02*
X196487857Y-91062858D01*
X196487857Y-91062858D02*
X196316428Y-91062858D01*
X196316428Y-91062858D02*
X196202142Y-91005715D01*
X196202142Y-91005715D02*
X196145000Y-90948572D01*
X196145000Y-90948572D02*
X196087857Y-90834287D01*
X196087857Y-90834287D02*
X196087857Y-90377144D01*
X196087857Y-90377144D02*
X197287857Y-90377144D01*
X197287857Y-90377144D02*
X197287857Y-90777144D01*
X197287857Y-90777144D02*
X197230714Y-90891430D01*
X197230714Y-90891430D02*
X197173571Y-90948572D01*
X197173571Y-90948572D02*
X197059285Y-91005715D01*
X197059285Y-91005715D02*
X196945000Y-91005715D01*
X196945000Y-91005715D02*
X196830714Y-90948572D01*
X196830714Y-90948572D02*
X196773571Y-90891430D01*
X196773571Y-90891430D02*
X196716428Y-90777144D01*
X196716428Y-90777144D02*
X196716428Y-90377144D01*
X196087857Y-91577144D02*
X197287857Y-91577144D01*
X197287857Y-92377144D02*
X197287857Y-92605716D01*
X197287857Y-92605716D02*
X197230714Y-92720001D01*
X197230714Y-92720001D02*
X197116428Y-92834287D01*
X197116428Y-92834287D02*
X196887857Y-92891430D01*
X196887857Y-92891430D02*
X196487857Y-92891430D01*
X196487857Y-92891430D02*
X196259285Y-92834287D01*
X196259285Y-92834287D02*
X196145000Y-92720001D01*
X196145000Y-92720001D02*
X196087857Y-92605716D01*
X196087857Y-92605716D02*
X196087857Y-92377144D01*
X196087857Y-92377144D02*
X196145000Y-92262859D01*
X196145000Y-92262859D02*
X196259285Y-92148573D01*
X196259285Y-92148573D02*
X196487857Y-92091430D01*
X196487857Y-92091430D02*
X196887857Y-92091430D01*
X196887857Y-92091430D02*
X197116428Y-92148573D01*
X197116428Y-92148573D02*
X197230714Y-92262859D01*
X197230714Y-92262859D02*
X197287857Y-92377144D01*
X196430714Y-93348573D02*
X196430714Y-93920002D01*
X196087857Y-93234287D02*
X197287857Y-93634287D01*
X197287857Y-93634287D02*
X196087857Y-94034287D01*
X196087857Y-94434287D02*
X197287857Y-94434287D01*
X197287857Y-94434287D02*
X196430714Y-94834287D01*
X196430714Y-94834287D02*
X197287857Y-95234287D01*
X197287857Y-95234287D02*
X196087857Y-95234287D01*
X196087857Y-95805716D02*
X197287857Y-95805716D01*
X197287857Y-95805716D02*
X197287857Y-96262859D01*
X197287857Y-96262859D02*
X197230714Y-96377144D01*
X197230714Y-96377144D02*
X197173571Y-96434287D01*
X197173571Y-96434287D02*
X197059285Y-96491430D01*
X197059285Y-96491430D02*
X196887857Y-96491430D01*
X196887857Y-96491430D02*
X196773571Y-96434287D01*
X196773571Y-96434287D02*
X196716428Y-96377144D01*
X196716428Y-96377144D02*
X196659285Y-96262859D01*
X196659285Y-96262859D02*
X196659285Y-95805716D01*
X196716428Y-98320002D02*
X196659285Y-98491430D01*
X196659285Y-98491430D02*
X196602142Y-98548573D01*
X196602142Y-98548573D02*
X196487857Y-98605716D01*
X196487857Y-98605716D02*
X196316428Y-98605716D01*
X196316428Y-98605716D02*
X196202142Y-98548573D01*
X196202142Y-98548573D02*
X196145000Y-98491430D01*
X196145000Y-98491430D02*
X196087857Y-98377145D01*
X196087857Y-98377145D02*
X196087857Y-97920002D01*
X196087857Y-97920002D02*
X197287857Y-97920002D01*
X197287857Y-97920002D02*
X197287857Y-98320002D01*
X197287857Y-98320002D02*
X197230714Y-98434288D01*
X197230714Y-98434288D02*
X197173571Y-98491430D01*
X197173571Y-98491430D02*
X197059285Y-98548573D01*
X197059285Y-98548573D02*
X196945000Y-98548573D01*
X196945000Y-98548573D02*
X196830714Y-98491430D01*
X196830714Y-98491430D02*
X196773571Y-98434288D01*
X196773571Y-98434288D02*
X196716428Y-98320002D01*
X196716428Y-98320002D02*
X196716428Y-97920002D01*
X196087857Y-99120002D02*
X197287857Y-99120002D01*
X196145000Y-99634288D02*
X196087857Y-99805717D01*
X196087857Y-99805717D02*
X196087857Y-100091431D01*
X196087857Y-100091431D02*
X196145000Y-100205717D01*
X196145000Y-100205717D02*
X196202142Y-100262859D01*
X196202142Y-100262859D02*
X196316428Y-100320002D01*
X196316428Y-100320002D02*
X196430714Y-100320002D01*
X196430714Y-100320002D02*
X196545000Y-100262859D01*
X196545000Y-100262859D02*
X196602142Y-100205717D01*
X196602142Y-100205717D02*
X196659285Y-100091431D01*
X196659285Y-100091431D02*
X196716428Y-99862859D01*
X196716428Y-99862859D02*
X196773571Y-99748574D01*
X196773571Y-99748574D02*
X196830714Y-99691431D01*
X196830714Y-99691431D02*
X196945000Y-99634288D01*
X196945000Y-99634288D02*
X197059285Y-99634288D01*
X197059285Y-99634288D02*
X197173571Y-99691431D01*
X197173571Y-99691431D02*
X197230714Y-99748574D01*
X197230714Y-99748574D02*
X197287857Y-99862859D01*
X197287857Y-99862859D02*
X197287857Y-100148574D01*
X197287857Y-100148574D02*
X197230714Y-100320002D01*
X196202142Y-101520002D02*
X196145000Y-101462859D01*
X196145000Y-101462859D02*
X196087857Y-101291431D01*
X196087857Y-101291431D02*
X196087857Y-101177145D01*
X196087857Y-101177145D02*
X196145000Y-101005716D01*
X196145000Y-101005716D02*
X196259285Y-100891431D01*
X196259285Y-100891431D02*
X196373571Y-100834288D01*
X196373571Y-100834288D02*
X196602142Y-100777145D01*
X196602142Y-100777145D02*
X196773571Y-100777145D01*
X196773571Y-100777145D02*
X197002142Y-100834288D01*
X197002142Y-100834288D02*
X197116428Y-100891431D01*
X197116428Y-100891431D02*
X197230714Y-101005716D01*
X197230714Y-101005716D02*
X197287857Y-101177145D01*
X197287857Y-101177145D02*
X197287857Y-101291431D01*
X197287857Y-101291431D02*
X197230714Y-101462859D01*
X197230714Y-101462859D02*
X197173571Y-101520002D01*
X197287857Y-102034288D02*
X196316428Y-102034288D01*
X196316428Y-102034288D02*
X196202142Y-102091431D01*
X196202142Y-102091431D02*
X196145000Y-102148574D01*
X196145000Y-102148574D02*
X196087857Y-102262859D01*
X196087857Y-102262859D02*
X196087857Y-102491431D01*
X196087857Y-102491431D02*
X196145000Y-102605716D01*
X196145000Y-102605716D02*
X196202142Y-102662859D01*
X196202142Y-102662859D02*
X196316428Y-102720002D01*
X196316428Y-102720002D02*
X197287857Y-102720002D01*
X197287857Y-103120002D02*
X197287857Y-103805717D01*
X196087857Y-103462859D02*
X197287857Y-103462859D01*
X196716428Y-104205717D02*
X196716428Y-104605717D01*
X196087857Y-104777145D02*
X196087857Y-104205717D01*
X196087857Y-104205717D02*
X197287857Y-104205717D01*
X197287857Y-104205717D02*
X197287857Y-104777145D01*
X213373571Y-87800715D02*
X213430714Y-87686429D01*
X213430714Y-87686429D02*
X213545000Y-87572143D01*
X213545000Y-87572143D02*
X213716428Y-87400715D01*
X213716428Y-87400715D02*
X213773571Y-87286429D01*
X213773571Y-87286429D02*
X213773571Y-87172143D01*
X213487857Y-87229286D02*
X213545000Y-87115001D01*
X213545000Y-87115001D02*
X213659285Y-87000715D01*
X213659285Y-87000715D02*
X213887857Y-86943572D01*
X213887857Y-86943572D02*
X214287857Y-86943572D01*
X214287857Y-86943572D02*
X214516428Y-87000715D01*
X214516428Y-87000715D02*
X214630714Y-87115001D01*
X214630714Y-87115001D02*
X214687857Y-87229286D01*
X214687857Y-87229286D02*
X214687857Y-87457858D01*
X214687857Y-87457858D02*
X214630714Y-87572143D01*
X214630714Y-87572143D02*
X214516428Y-87686429D01*
X214516428Y-87686429D02*
X214287857Y-87743572D01*
X214287857Y-87743572D02*
X213887857Y-87743572D01*
X213887857Y-87743572D02*
X213659285Y-87686429D01*
X213659285Y-87686429D02*
X213545000Y-87572143D01*
X213545000Y-87572143D02*
X213487857Y-87457858D01*
X213487857Y-87457858D02*
X213487857Y-87229286D01*
X214687857Y-88257858D02*
X213716428Y-88257858D01*
X213716428Y-88257858D02*
X213602142Y-88315001D01*
X213602142Y-88315001D02*
X213545000Y-88372144D01*
X213545000Y-88372144D02*
X213487857Y-88486429D01*
X213487857Y-88486429D02*
X213487857Y-88715001D01*
X213487857Y-88715001D02*
X213545000Y-88829286D01*
X213545000Y-88829286D02*
X213602142Y-88886429D01*
X213602142Y-88886429D02*
X213716428Y-88943572D01*
X213716428Y-88943572D02*
X214687857Y-88943572D01*
X213830714Y-89457858D02*
X213830714Y-90029287D01*
X213487857Y-89343572D02*
X214687857Y-89743572D01*
X214687857Y-89743572D02*
X213487857Y-90143572D01*
X213487857Y-90543572D02*
X214687857Y-90543572D01*
X214687857Y-90543572D02*
X214687857Y-90829286D01*
X214687857Y-90829286D02*
X214630714Y-91000715D01*
X214630714Y-91000715D02*
X214516428Y-91115000D01*
X214516428Y-91115000D02*
X214402142Y-91172143D01*
X214402142Y-91172143D02*
X214173571Y-91229286D01*
X214173571Y-91229286D02*
X214002142Y-91229286D01*
X214002142Y-91229286D02*
X213773571Y-91172143D01*
X213773571Y-91172143D02*
X213659285Y-91115000D01*
X213659285Y-91115000D02*
X213545000Y-91000715D01*
X213545000Y-91000715D02*
X213487857Y-90829286D01*
X213487857Y-90829286D02*
X213487857Y-90543572D01*
X214687857Y-92886429D02*
X214687857Y-93115001D01*
X214687857Y-93115001D02*
X214630714Y-93229286D01*
X214630714Y-93229286D02*
X214516428Y-93343572D01*
X214516428Y-93343572D02*
X214287857Y-93400715D01*
X214287857Y-93400715D02*
X213887857Y-93400715D01*
X213887857Y-93400715D02*
X213659285Y-93343572D01*
X213659285Y-93343572D02*
X213545000Y-93229286D01*
X213545000Y-93229286D02*
X213487857Y-93115001D01*
X213487857Y-93115001D02*
X213487857Y-92886429D01*
X213487857Y-92886429D02*
X213545000Y-92772144D01*
X213545000Y-92772144D02*
X213659285Y-92657858D01*
X213659285Y-92657858D02*
X213887857Y-92600715D01*
X213887857Y-92600715D02*
X214287857Y-92600715D01*
X214287857Y-92600715D02*
X214516428Y-92657858D01*
X214516428Y-92657858D02*
X214630714Y-92772144D01*
X214630714Y-92772144D02*
X214687857Y-92886429D01*
X213487857Y-93915001D02*
X214687857Y-93915001D01*
X214687857Y-93915001D02*
X214687857Y-94372144D01*
X214687857Y-94372144D02*
X214630714Y-94486429D01*
X214630714Y-94486429D02*
X214573571Y-94543572D01*
X214573571Y-94543572D02*
X214459285Y-94600715D01*
X214459285Y-94600715D02*
X214287857Y-94600715D01*
X214287857Y-94600715D02*
X214173571Y-94543572D01*
X214173571Y-94543572D02*
X214116428Y-94486429D01*
X214116428Y-94486429D02*
X214059285Y-94372144D01*
X214059285Y-94372144D02*
X214059285Y-93915001D01*
X213830714Y-95057858D02*
X213830714Y-95629287D01*
X213487857Y-94943572D02*
X214687857Y-95343572D01*
X214687857Y-95343572D02*
X213487857Y-95743572D01*
X213487857Y-96143572D02*
X214687857Y-96143572D01*
X214687857Y-96143572D02*
X213830714Y-96543572D01*
X213830714Y-96543572D02*
X214687857Y-96943572D01*
X214687857Y-96943572D02*
X213487857Y-96943572D01*
X213487857Y-97515001D02*
X214687857Y-97515001D01*
X214687857Y-97515001D02*
X214687857Y-97972144D01*
X214687857Y-97972144D02*
X214630714Y-98086429D01*
X214630714Y-98086429D02*
X214573571Y-98143572D01*
X214573571Y-98143572D02*
X214459285Y-98200715D01*
X214459285Y-98200715D02*
X214287857Y-98200715D01*
X214287857Y-98200715D02*
X214173571Y-98143572D01*
X214173571Y-98143572D02*
X214116428Y-98086429D01*
X214116428Y-98086429D02*
X214059285Y-97972144D01*
X214059285Y-97972144D02*
X214059285Y-97515001D01*
D10*
X131133333Y-87499366D02*
X131100000Y-87532700D01*
X131100000Y-87532700D02*
X131000000Y-87566033D01*
X131000000Y-87566033D02*
X130933333Y-87566033D01*
X130933333Y-87566033D02*
X130833333Y-87532700D01*
X130833333Y-87532700D02*
X130766667Y-87466033D01*
X130766667Y-87466033D02*
X130733333Y-87399366D01*
X130733333Y-87399366D02*
X130700000Y-87266033D01*
X130700000Y-87266033D02*
X130700000Y-87166033D01*
X130700000Y-87166033D02*
X130733333Y-87032700D01*
X130733333Y-87032700D02*
X130766667Y-86966033D01*
X130766667Y-86966033D02*
X130833333Y-86899366D01*
X130833333Y-86899366D02*
X130933333Y-86866033D01*
X130933333Y-86866033D02*
X131000000Y-86866033D01*
X131000000Y-86866033D02*
X131100000Y-86899366D01*
X131100000Y-86899366D02*
X131133333Y-86932700D01*
X131800000Y-87566033D02*
X131400000Y-87566033D01*
X131600000Y-87566033D02*
X131600000Y-86866033D01*
X131600000Y-86866033D02*
X131533333Y-86966033D01*
X131533333Y-86966033D02*
X131466667Y-87032700D01*
X131466667Y-87032700D02*
X131400000Y-87066033D01*
X130679366Y-92771667D02*
X130712700Y-92805000D01*
X130712700Y-92805000D02*
X130746033Y-92905000D01*
X130746033Y-92905000D02*
X130746033Y-92971667D01*
X130746033Y-92971667D02*
X130712700Y-93071667D01*
X130712700Y-93071667D02*
X130646033Y-93138334D01*
X130646033Y-93138334D02*
X130579366Y-93171667D01*
X130579366Y-93171667D02*
X130446033Y-93205000D01*
X130446033Y-93205000D02*
X130346033Y-93205000D01*
X130346033Y-93205000D02*
X130212700Y-93171667D01*
X130212700Y-93171667D02*
X130146033Y-93138334D01*
X130146033Y-93138334D02*
X130079366Y-93071667D01*
X130079366Y-93071667D02*
X130046033Y-92971667D01*
X130046033Y-92971667D02*
X130046033Y-92905000D01*
X130046033Y-92905000D02*
X130079366Y-92805000D01*
X130079366Y-92805000D02*
X130112700Y-92771667D01*
X130112700Y-92505000D02*
X130079366Y-92471667D01*
X130079366Y-92471667D02*
X130046033Y-92405000D01*
X130046033Y-92405000D02*
X130046033Y-92238334D01*
X130046033Y-92238334D02*
X130079366Y-92171667D01*
X130079366Y-92171667D02*
X130112700Y-92138334D01*
X130112700Y-92138334D02*
X130179366Y-92105000D01*
X130179366Y-92105000D02*
X130246033Y-92105000D01*
X130246033Y-92105000D02*
X130346033Y-92138334D01*
X130346033Y-92138334D02*
X130746033Y-92538334D01*
X130746033Y-92538334D02*
X130746033Y-92105000D01*
X131133333Y-98299366D02*
X131100000Y-98332700D01*
X131100000Y-98332700D02*
X131000000Y-98366033D01*
X131000000Y-98366033D02*
X130933333Y-98366033D01*
X130933333Y-98366033D02*
X130833333Y-98332700D01*
X130833333Y-98332700D02*
X130766667Y-98266033D01*
X130766667Y-98266033D02*
X130733333Y-98199366D01*
X130733333Y-98199366D02*
X130700000Y-98066033D01*
X130700000Y-98066033D02*
X130700000Y-97966033D01*
X130700000Y-97966033D02*
X130733333Y-97832700D01*
X130733333Y-97832700D02*
X130766667Y-97766033D01*
X130766667Y-97766033D02*
X130833333Y-97699366D01*
X130833333Y-97699366D02*
X130933333Y-97666033D01*
X130933333Y-97666033D02*
X131000000Y-97666033D01*
X131000000Y-97666033D02*
X131100000Y-97699366D01*
X131100000Y-97699366D02*
X131133333Y-97732700D01*
X131366667Y-97666033D02*
X131800000Y-97666033D01*
X131800000Y-97666033D02*
X131566667Y-97932700D01*
X131566667Y-97932700D02*
X131666667Y-97932700D01*
X131666667Y-97932700D02*
X131733333Y-97966033D01*
X131733333Y-97966033D02*
X131766667Y-97999366D01*
X131766667Y-97999366D02*
X131800000Y-98066033D01*
X131800000Y-98066033D02*
X131800000Y-98232700D01*
X131800000Y-98232700D02*
X131766667Y-98299366D01*
X131766667Y-98299366D02*
X131733333Y-98332700D01*
X131733333Y-98332700D02*
X131666667Y-98366033D01*
X131666667Y-98366033D02*
X131466667Y-98366033D01*
X131466667Y-98366033D02*
X131400000Y-98332700D01*
X131400000Y-98332700D02*
X131366667Y-98299366D01*
X149463333Y-85704366D02*
X149430000Y-85737700D01*
X149430000Y-85737700D02*
X149330000Y-85771033D01*
X149330000Y-85771033D02*
X149263333Y-85771033D01*
X149263333Y-85771033D02*
X149163333Y-85737700D01*
X149163333Y-85737700D02*
X149096667Y-85671033D01*
X149096667Y-85671033D02*
X149063333Y-85604366D01*
X149063333Y-85604366D02*
X149030000Y-85471033D01*
X149030000Y-85471033D02*
X149030000Y-85371033D01*
X149030000Y-85371033D02*
X149063333Y-85237700D01*
X149063333Y-85237700D02*
X149096667Y-85171033D01*
X149096667Y-85171033D02*
X149163333Y-85104366D01*
X149163333Y-85104366D02*
X149263333Y-85071033D01*
X149263333Y-85071033D02*
X149330000Y-85071033D01*
X149330000Y-85071033D02*
X149430000Y-85104366D01*
X149430000Y-85104366D02*
X149463333Y-85137700D01*
X150063333Y-85304366D02*
X150063333Y-85771033D01*
X149896667Y-85037700D02*
X149730000Y-85537700D01*
X149730000Y-85537700D02*
X150163333Y-85537700D01*
X154283333Y-101849366D02*
X154250000Y-101882700D01*
X154250000Y-101882700D02*
X154150000Y-101916033D01*
X154150000Y-101916033D02*
X154083333Y-101916033D01*
X154083333Y-101916033D02*
X153983333Y-101882700D01*
X153983333Y-101882700D02*
X153916667Y-101816033D01*
X153916667Y-101816033D02*
X153883333Y-101749366D01*
X153883333Y-101749366D02*
X153850000Y-101616033D01*
X153850000Y-101616033D02*
X153850000Y-101516033D01*
X153850000Y-101516033D02*
X153883333Y-101382700D01*
X153883333Y-101382700D02*
X153916667Y-101316033D01*
X153916667Y-101316033D02*
X153983333Y-101249366D01*
X153983333Y-101249366D02*
X154083333Y-101216033D01*
X154083333Y-101216033D02*
X154150000Y-101216033D01*
X154150000Y-101216033D02*
X154250000Y-101249366D01*
X154250000Y-101249366D02*
X154283333Y-101282700D01*
X154916667Y-101216033D02*
X154583333Y-101216033D01*
X154583333Y-101216033D02*
X154550000Y-101549366D01*
X154550000Y-101549366D02*
X154583333Y-101516033D01*
X154583333Y-101516033D02*
X154650000Y-101482700D01*
X154650000Y-101482700D02*
X154816667Y-101482700D01*
X154816667Y-101482700D02*
X154883333Y-101516033D01*
X154883333Y-101516033D02*
X154916667Y-101549366D01*
X154916667Y-101549366D02*
X154950000Y-101616033D01*
X154950000Y-101616033D02*
X154950000Y-101782700D01*
X154950000Y-101782700D02*
X154916667Y-101849366D01*
X154916667Y-101849366D02*
X154883333Y-101882700D01*
X154883333Y-101882700D02*
X154816667Y-101916033D01*
X154816667Y-101916033D02*
X154650000Y-101916033D01*
X154650000Y-101916033D02*
X154583333Y-101882700D01*
X154583333Y-101882700D02*
X154550000Y-101849366D01*
X149463333Y-94854366D02*
X149430000Y-94887700D01*
X149430000Y-94887700D02*
X149330000Y-94921033D01*
X149330000Y-94921033D02*
X149263333Y-94921033D01*
X149263333Y-94921033D02*
X149163333Y-94887700D01*
X149163333Y-94887700D02*
X149096667Y-94821033D01*
X149096667Y-94821033D02*
X149063333Y-94754366D01*
X149063333Y-94754366D02*
X149030000Y-94621033D01*
X149030000Y-94621033D02*
X149030000Y-94521033D01*
X149030000Y-94521033D02*
X149063333Y-94387700D01*
X149063333Y-94387700D02*
X149096667Y-94321033D01*
X149096667Y-94321033D02*
X149163333Y-94254366D01*
X149163333Y-94254366D02*
X149263333Y-94221033D01*
X149263333Y-94221033D02*
X149330000Y-94221033D01*
X149330000Y-94221033D02*
X149430000Y-94254366D01*
X149430000Y-94254366D02*
X149463333Y-94287700D01*
X149696667Y-94221033D02*
X150163333Y-94221033D01*
X150163333Y-94221033D02*
X149863333Y-94921033D01*
X145283333Y-100704366D02*
X145250000Y-100737700D01*
X145250000Y-100737700D02*
X145150000Y-100771033D01*
X145150000Y-100771033D02*
X145083333Y-100771033D01*
X145083333Y-100771033D02*
X144983333Y-100737700D01*
X144983333Y-100737700D02*
X144916667Y-100671033D01*
X144916667Y-100671033D02*
X144883333Y-100604366D01*
X144883333Y-100604366D02*
X144850000Y-100471033D01*
X144850000Y-100471033D02*
X144850000Y-100371033D01*
X144850000Y-100371033D02*
X144883333Y-100237700D01*
X144883333Y-100237700D02*
X144916667Y-100171033D01*
X144916667Y-100171033D02*
X144983333Y-100104366D01*
X144983333Y-100104366D02*
X145083333Y-100071033D01*
X145083333Y-100071033D02*
X145150000Y-100071033D01*
X145150000Y-100071033D02*
X145250000Y-100104366D01*
X145250000Y-100104366D02*
X145283333Y-100137700D01*
X145683333Y-100371033D02*
X145616667Y-100337700D01*
X145616667Y-100337700D02*
X145583333Y-100304366D01*
X145583333Y-100304366D02*
X145550000Y-100237700D01*
X145550000Y-100237700D02*
X145550000Y-100204366D01*
X145550000Y-100204366D02*
X145583333Y-100137700D01*
X145583333Y-100137700D02*
X145616667Y-100104366D01*
X145616667Y-100104366D02*
X145683333Y-100071033D01*
X145683333Y-100071033D02*
X145816667Y-100071033D01*
X145816667Y-100071033D02*
X145883333Y-100104366D01*
X145883333Y-100104366D02*
X145916667Y-100137700D01*
X145916667Y-100137700D02*
X145950000Y-100204366D01*
X145950000Y-100204366D02*
X145950000Y-100237700D01*
X145950000Y-100237700D02*
X145916667Y-100304366D01*
X145916667Y-100304366D02*
X145883333Y-100337700D01*
X145883333Y-100337700D02*
X145816667Y-100371033D01*
X145816667Y-100371033D02*
X145683333Y-100371033D01*
X145683333Y-100371033D02*
X145616667Y-100404366D01*
X145616667Y-100404366D02*
X145583333Y-100437700D01*
X145583333Y-100437700D02*
X145550000Y-100504366D01*
X145550000Y-100504366D02*
X145550000Y-100637700D01*
X145550000Y-100637700D02*
X145583333Y-100704366D01*
X145583333Y-100704366D02*
X145616667Y-100737700D01*
X145616667Y-100737700D02*
X145683333Y-100771033D01*
X145683333Y-100771033D02*
X145816667Y-100771033D01*
X145816667Y-100771033D02*
X145883333Y-100737700D01*
X145883333Y-100737700D02*
X145916667Y-100704366D01*
X145916667Y-100704366D02*
X145950000Y-100637700D01*
X145950000Y-100637700D02*
X145950000Y-100504366D01*
X145950000Y-100504366D02*
X145916667Y-100437700D01*
X145916667Y-100437700D02*
X145883333Y-100404366D01*
X145883333Y-100404366D02*
X145816667Y-100371033D01*
X152663333Y-85704366D02*
X152630000Y-85737700D01*
X152630000Y-85737700D02*
X152530000Y-85771033D01*
X152530000Y-85771033D02*
X152463333Y-85771033D01*
X152463333Y-85771033D02*
X152363333Y-85737700D01*
X152363333Y-85737700D02*
X152296667Y-85671033D01*
X152296667Y-85671033D02*
X152263333Y-85604366D01*
X152263333Y-85604366D02*
X152230000Y-85471033D01*
X152230000Y-85471033D02*
X152230000Y-85371033D01*
X152230000Y-85371033D02*
X152263333Y-85237700D01*
X152263333Y-85237700D02*
X152296667Y-85171033D01*
X152296667Y-85171033D02*
X152363333Y-85104366D01*
X152363333Y-85104366D02*
X152463333Y-85071033D01*
X152463333Y-85071033D02*
X152530000Y-85071033D01*
X152530000Y-85071033D02*
X152630000Y-85104366D01*
X152630000Y-85104366D02*
X152663333Y-85137700D01*
X152996667Y-85771033D02*
X153130000Y-85771033D01*
X153130000Y-85771033D02*
X153196667Y-85737700D01*
X153196667Y-85737700D02*
X153230000Y-85704366D01*
X153230000Y-85704366D02*
X153296667Y-85604366D01*
X153296667Y-85604366D02*
X153330000Y-85471033D01*
X153330000Y-85471033D02*
X153330000Y-85204366D01*
X153330000Y-85204366D02*
X153296667Y-85137700D01*
X153296667Y-85137700D02*
X153263333Y-85104366D01*
X153263333Y-85104366D02*
X153196667Y-85071033D01*
X153196667Y-85071033D02*
X153063333Y-85071033D01*
X153063333Y-85071033D02*
X152996667Y-85104366D01*
X152996667Y-85104366D02*
X152963333Y-85137700D01*
X152963333Y-85137700D02*
X152930000Y-85204366D01*
X152930000Y-85204366D02*
X152930000Y-85371033D01*
X152930000Y-85371033D02*
X152963333Y-85437700D01*
X152963333Y-85437700D02*
X152996667Y-85471033D01*
X152996667Y-85471033D02*
X153063333Y-85504366D01*
X153063333Y-85504366D02*
X153196667Y-85504366D01*
X153196667Y-85504366D02*
X153263333Y-85471033D01*
X153263333Y-85471033D02*
X153296667Y-85437700D01*
X153296667Y-85437700D02*
X153330000Y-85371033D01*
X148929999Y-92104366D02*
X148896666Y-92137700D01*
X148896666Y-92137700D02*
X148796666Y-92171033D01*
X148796666Y-92171033D02*
X148729999Y-92171033D01*
X148729999Y-92171033D02*
X148629999Y-92137700D01*
X148629999Y-92137700D02*
X148563333Y-92071033D01*
X148563333Y-92071033D02*
X148529999Y-92004366D01*
X148529999Y-92004366D02*
X148496666Y-91871033D01*
X148496666Y-91871033D02*
X148496666Y-91771033D01*
X148496666Y-91771033D02*
X148529999Y-91637700D01*
X148529999Y-91637700D02*
X148563333Y-91571033D01*
X148563333Y-91571033D02*
X148629999Y-91504366D01*
X148629999Y-91504366D02*
X148729999Y-91471033D01*
X148729999Y-91471033D02*
X148796666Y-91471033D01*
X148796666Y-91471033D02*
X148896666Y-91504366D01*
X148896666Y-91504366D02*
X148929999Y-91537700D01*
X149596666Y-92171033D02*
X149196666Y-92171033D01*
X149396666Y-92171033D02*
X149396666Y-91471033D01*
X149396666Y-91471033D02*
X149329999Y-91571033D01*
X149329999Y-91571033D02*
X149263333Y-91637700D01*
X149263333Y-91637700D02*
X149196666Y-91671033D01*
X150030000Y-91471033D02*
X150096666Y-91471033D01*
X150096666Y-91471033D02*
X150163333Y-91504366D01*
X150163333Y-91504366D02*
X150196666Y-91537700D01*
X150196666Y-91537700D02*
X150230000Y-91604366D01*
X150230000Y-91604366D02*
X150263333Y-91737700D01*
X150263333Y-91737700D02*
X150263333Y-91904366D01*
X150263333Y-91904366D02*
X150230000Y-92037700D01*
X150230000Y-92037700D02*
X150196666Y-92104366D01*
X150196666Y-92104366D02*
X150163333Y-92137700D01*
X150163333Y-92137700D02*
X150096666Y-92171033D01*
X150096666Y-92171033D02*
X150030000Y-92171033D01*
X150030000Y-92171033D02*
X149963333Y-92137700D01*
X149963333Y-92137700D02*
X149930000Y-92104366D01*
X149930000Y-92104366D02*
X149896666Y-92037700D01*
X149896666Y-92037700D02*
X149863333Y-91904366D01*
X149863333Y-91904366D02*
X149863333Y-91737700D01*
X149863333Y-91737700D02*
X149896666Y-91604366D01*
X149896666Y-91604366D02*
X149930000Y-91537700D01*
X149930000Y-91537700D02*
X149963333Y-91504366D01*
X149963333Y-91504366D02*
X150030000Y-91471033D01*
X129903332Y-82103533D02*
X129669999Y-81770200D01*
X129503332Y-82103533D02*
X129503332Y-81403533D01*
X129503332Y-81403533D02*
X129769999Y-81403533D01*
X129769999Y-81403533D02*
X129836666Y-81436866D01*
X129836666Y-81436866D02*
X129869999Y-81470200D01*
X129869999Y-81470200D02*
X129903332Y-81536866D01*
X129903332Y-81536866D02*
X129903332Y-81636866D01*
X129903332Y-81636866D02*
X129869999Y-81703533D01*
X129869999Y-81703533D02*
X129836666Y-81736866D01*
X129836666Y-81736866D02*
X129769999Y-81770200D01*
X129769999Y-81770200D02*
X129503332Y-81770200D01*
X130569999Y-82103533D02*
X130169999Y-82103533D01*
X130369999Y-82103533D02*
X130369999Y-81403533D01*
X130369999Y-81403533D02*
X130303332Y-81503533D01*
X130303332Y-81503533D02*
X130236666Y-81570200D01*
X130236666Y-81570200D02*
X130169999Y-81603533D01*
X129953334Y-103888533D02*
X129720001Y-103555200D01*
X129553334Y-103888533D02*
X129553334Y-103188533D01*
X129553334Y-103188533D02*
X129820001Y-103188533D01*
X129820001Y-103188533D02*
X129886668Y-103221866D01*
X129886668Y-103221866D02*
X129920001Y-103255200D01*
X129920001Y-103255200D02*
X129953334Y-103321866D01*
X129953334Y-103321866D02*
X129953334Y-103421866D01*
X129953334Y-103421866D02*
X129920001Y-103488533D01*
X129920001Y-103488533D02*
X129886668Y-103521866D01*
X129886668Y-103521866D02*
X129820001Y-103555200D01*
X129820001Y-103555200D02*
X129553334Y-103555200D01*
X130220001Y-103255200D02*
X130253334Y-103221866D01*
X130253334Y-103221866D02*
X130320001Y-103188533D01*
X130320001Y-103188533D02*
X130486668Y-103188533D01*
X130486668Y-103188533D02*
X130553334Y-103221866D01*
X130553334Y-103221866D02*
X130586668Y-103255200D01*
X130586668Y-103255200D02*
X130620001Y-103321866D01*
X130620001Y-103321866D02*
X130620001Y-103388533D01*
X130620001Y-103388533D02*
X130586668Y-103488533D01*
X130586668Y-103488533D02*
X130186668Y-103888533D01*
X130186668Y-103888533D02*
X130620001Y-103888533D01*
X125753332Y-86003533D02*
X125519999Y-85670200D01*
X125353332Y-86003533D02*
X125353332Y-85303533D01*
X125353332Y-85303533D02*
X125619999Y-85303533D01*
X125619999Y-85303533D02*
X125686666Y-85336866D01*
X125686666Y-85336866D02*
X125719999Y-85370200D01*
X125719999Y-85370200D02*
X125753332Y-85436866D01*
X125753332Y-85436866D02*
X125753332Y-85536866D01*
X125753332Y-85536866D02*
X125719999Y-85603533D01*
X125719999Y-85603533D02*
X125686666Y-85636866D01*
X125686666Y-85636866D02*
X125619999Y-85670200D01*
X125619999Y-85670200D02*
X125353332Y-85670200D01*
X125986666Y-85303533D02*
X126419999Y-85303533D01*
X126419999Y-85303533D02*
X126186666Y-85570200D01*
X126186666Y-85570200D02*
X126286666Y-85570200D01*
X126286666Y-85570200D02*
X126353332Y-85603533D01*
X126353332Y-85603533D02*
X126386666Y-85636866D01*
X126386666Y-85636866D02*
X126419999Y-85703533D01*
X126419999Y-85703533D02*
X126419999Y-85870200D01*
X126419999Y-85870200D02*
X126386666Y-85936866D01*
X126386666Y-85936866D02*
X126353332Y-85970200D01*
X126353332Y-85970200D02*
X126286666Y-86003533D01*
X126286666Y-86003533D02*
X126086666Y-86003533D01*
X126086666Y-86003533D02*
X126019999Y-85970200D01*
X126019999Y-85970200D02*
X125986666Y-85936866D01*
X139723333Y-82103533D02*
X139490000Y-81770200D01*
X139323333Y-82103533D02*
X139323333Y-81403533D01*
X139323333Y-81403533D02*
X139590000Y-81403533D01*
X139590000Y-81403533D02*
X139656667Y-81436866D01*
X139656667Y-81436866D02*
X139690000Y-81470200D01*
X139690000Y-81470200D02*
X139723333Y-81536866D01*
X139723333Y-81536866D02*
X139723333Y-81636866D01*
X139723333Y-81636866D02*
X139690000Y-81703533D01*
X139690000Y-81703533D02*
X139656667Y-81736866D01*
X139656667Y-81736866D02*
X139590000Y-81770200D01*
X139590000Y-81770200D02*
X139323333Y-81770200D01*
X140323333Y-81636866D02*
X140323333Y-82103533D01*
X140156667Y-81370200D02*
X139990000Y-81870200D01*
X139990000Y-81870200D02*
X140423333Y-81870200D01*
X132628533Y-92721667D02*
X132295200Y-92955000D01*
X132628533Y-93121667D02*
X131928533Y-93121667D01*
X131928533Y-93121667D02*
X131928533Y-92855000D01*
X131928533Y-92855000D02*
X131961866Y-92788334D01*
X131961866Y-92788334D02*
X131995200Y-92755000D01*
X131995200Y-92755000D02*
X132061866Y-92721667D01*
X132061866Y-92721667D02*
X132161866Y-92721667D01*
X132161866Y-92721667D02*
X132228533Y-92755000D01*
X132228533Y-92755000D02*
X132261866Y-92788334D01*
X132261866Y-92788334D02*
X132295200Y-92855000D01*
X132295200Y-92855000D02*
X132295200Y-93121667D01*
X131928533Y-92088334D02*
X131928533Y-92421667D01*
X131928533Y-92421667D02*
X132261866Y-92455000D01*
X132261866Y-92455000D02*
X132228533Y-92421667D01*
X132228533Y-92421667D02*
X132195200Y-92355000D01*
X132195200Y-92355000D02*
X132195200Y-92188334D01*
X132195200Y-92188334D02*
X132228533Y-92121667D01*
X132228533Y-92121667D02*
X132261866Y-92088334D01*
X132261866Y-92088334D02*
X132328533Y-92055000D01*
X132328533Y-92055000D02*
X132495200Y-92055000D01*
X132495200Y-92055000D02*
X132561866Y-92088334D01*
X132561866Y-92088334D02*
X132595200Y-92121667D01*
X132595200Y-92121667D02*
X132628533Y-92188334D01*
X132628533Y-92188334D02*
X132628533Y-92355000D01*
X132628533Y-92355000D02*
X132595200Y-92421667D01*
X132595200Y-92421667D02*
X132561866Y-92455000D01*
X125753334Y-100038533D02*
X125520001Y-99705200D01*
X125353334Y-100038533D02*
X125353334Y-99338533D01*
X125353334Y-99338533D02*
X125620001Y-99338533D01*
X125620001Y-99338533D02*
X125686668Y-99371866D01*
X125686668Y-99371866D02*
X125720001Y-99405200D01*
X125720001Y-99405200D02*
X125753334Y-99471866D01*
X125753334Y-99471866D02*
X125753334Y-99571866D01*
X125753334Y-99571866D02*
X125720001Y-99638533D01*
X125720001Y-99638533D02*
X125686668Y-99671866D01*
X125686668Y-99671866D02*
X125620001Y-99705200D01*
X125620001Y-99705200D02*
X125353334Y-99705200D01*
X126353334Y-99338533D02*
X126220001Y-99338533D01*
X126220001Y-99338533D02*
X126153334Y-99371866D01*
X126153334Y-99371866D02*
X126120001Y-99405200D01*
X126120001Y-99405200D02*
X126053334Y-99505200D01*
X126053334Y-99505200D02*
X126020001Y-99638533D01*
X126020001Y-99638533D02*
X126020001Y-99905200D01*
X126020001Y-99905200D02*
X126053334Y-99971866D01*
X126053334Y-99971866D02*
X126086668Y-100005200D01*
X126086668Y-100005200D02*
X126153334Y-100038533D01*
X126153334Y-100038533D02*
X126286668Y-100038533D01*
X126286668Y-100038533D02*
X126353334Y-100005200D01*
X126353334Y-100005200D02*
X126386668Y-99971866D01*
X126386668Y-99971866D02*
X126420001Y-99905200D01*
X126420001Y-99905200D02*
X126420001Y-99738533D01*
X126420001Y-99738533D02*
X126386668Y-99671866D01*
X126386668Y-99671866D02*
X126353334Y-99638533D01*
X126353334Y-99638533D02*
X126286668Y-99605200D01*
X126286668Y-99605200D02*
X126153334Y-99605200D01*
X126153334Y-99605200D02*
X126086668Y-99638533D01*
X126086668Y-99638533D02*
X126053334Y-99671866D01*
X126053334Y-99671866D02*
X126020001Y-99738533D01*
X146678533Y-85311667D02*
X146345200Y-85545000D01*
X146678533Y-85711667D02*
X145978533Y-85711667D01*
X145978533Y-85711667D02*
X145978533Y-85445000D01*
X145978533Y-85445000D02*
X146011866Y-85378334D01*
X146011866Y-85378334D02*
X146045200Y-85345000D01*
X146045200Y-85345000D02*
X146111866Y-85311667D01*
X146111866Y-85311667D02*
X146211866Y-85311667D01*
X146211866Y-85311667D02*
X146278533Y-85345000D01*
X146278533Y-85345000D02*
X146311866Y-85378334D01*
X146311866Y-85378334D02*
X146345200Y-85445000D01*
X146345200Y-85445000D02*
X146345200Y-85711667D01*
X145978533Y-85078334D02*
X145978533Y-84611667D01*
X145978533Y-84611667D02*
X146678533Y-84911667D01*
X146678533Y-95111667D02*
X146345200Y-95345000D01*
X146678533Y-95511667D02*
X145978533Y-95511667D01*
X145978533Y-95511667D02*
X145978533Y-95245000D01*
X145978533Y-95245000D02*
X146011866Y-95178334D01*
X146011866Y-95178334D02*
X146045200Y-95145000D01*
X146045200Y-95145000D02*
X146111866Y-95111667D01*
X146111866Y-95111667D02*
X146211866Y-95111667D01*
X146211866Y-95111667D02*
X146278533Y-95145000D01*
X146278533Y-95145000D02*
X146311866Y-95178334D01*
X146311866Y-95178334D02*
X146345200Y-95245000D01*
X146345200Y-95245000D02*
X146345200Y-95511667D01*
X146278533Y-94711667D02*
X146245200Y-94778334D01*
X146245200Y-94778334D02*
X146211866Y-94811667D01*
X146211866Y-94811667D02*
X146145200Y-94845000D01*
X146145200Y-94845000D02*
X146111866Y-94845000D01*
X146111866Y-94845000D02*
X146045200Y-94811667D01*
X146045200Y-94811667D02*
X146011866Y-94778334D01*
X146011866Y-94778334D02*
X145978533Y-94711667D01*
X145978533Y-94711667D02*
X145978533Y-94578334D01*
X145978533Y-94578334D02*
X146011866Y-94511667D01*
X146011866Y-94511667D02*
X146045200Y-94478334D01*
X146045200Y-94478334D02*
X146111866Y-94445000D01*
X146111866Y-94445000D02*
X146145200Y-94445000D01*
X146145200Y-94445000D02*
X146211866Y-94478334D01*
X146211866Y-94478334D02*
X146245200Y-94511667D01*
X146245200Y-94511667D02*
X146278533Y-94578334D01*
X146278533Y-94578334D02*
X146278533Y-94711667D01*
X146278533Y-94711667D02*
X146311866Y-94778334D01*
X146311866Y-94778334D02*
X146345200Y-94811667D01*
X146345200Y-94811667D02*
X146411866Y-94845000D01*
X146411866Y-94845000D02*
X146545200Y-94845000D01*
X146545200Y-94845000D02*
X146611866Y-94811667D01*
X146611866Y-94811667D02*
X146645200Y-94778334D01*
X146645200Y-94778334D02*
X146678533Y-94711667D01*
X146678533Y-94711667D02*
X146678533Y-94578334D01*
X146678533Y-94578334D02*
X146645200Y-94511667D01*
X146645200Y-94511667D02*
X146611866Y-94478334D01*
X146611866Y-94478334D02*
X146545200Y-94445000D01*
X146545200Y-94445000D02*
X146411866Y-94445000D01*
X146411866Y-94445000D02*
X146345200Y-94478334D01*
X146345200Y-94478334D02*
X146311866Y-94511667D01*
X146311866Y-94511667D02*
X146278533Y-94578334D01*
X153028533Y-97111667D02*
X152695200Y-97345000D01*
X153028533Y-97511667D02*
X152328533Y-97511667D01*
X152328533Y-97511667D02*
X152328533Y-97245000D01*
X152328533Y-97245000D02*
X152361866Y-97178334D01*
X152361866Y-97178334D02*
X152395200Y-97145000D01*
X152395200Y-97145000D02*
X152461866Y-97111667D01*
X152461866Y-97111667D02*
X152561866Y-97111667D01*
X152561866Y-97111667D02*
X152628533Y-97145000D01*
X152628533Y-97145000D02*
X152661866Y-97178334D01*
X152661866Y-97178334D02*
X152695200Y-97245000D01*
X152695200Y-97245000D02*
X152695200Y-97511667D01*
X153028533Y-96778334D02*
X153028533Y-96645000D01*
X153028533Y-96645000D02*
X152995200Y-96578334D01*
X152995200Y-96578334D02*
X152961866Y-96545000D01*
X152961866Y-96545000D02*
X152861866Y-96478334D01*
X152861866Y-96478334D02*
X152728533Y-96445000D01*
X152728533Y-96445000D02*
X152461866Y-96445000D01*
X152461866Y-96445000D02*
X152395200Y-96478334D01*
X152395200Y-96478334D02*
X152361866Y-96511667D01*
X152361866Y-96511667D02*
X152328533Y-96578334D01*
X152328533Y-96578334D02*
X152328533Y-96711667D01*
X152328533Y-96711667D02*
X152361866Y-96778334D01*
X152361866Y-96778334D02*
X152395200Y-96811667D01*
X152395200Y-96811667D02*
X152461866Y-96845000D01*
X152461866Y-96845000D02*
X152628533Y-96845000D01*
X152628533Y-96845000D02*
X152695200Y-96811667D01*
X152695200Y-96811667D02*
X152728533Y-96778334D01*
X152728533Y-96778334D02*
X152761866Y-96711667D01*
X152761866Y-96711667D02*
X152761866Y-96578334D01*
X152761866Y-96578334D02*
X152728533Y-96511667D01*
X152728533Y-96511667D02*
X152695200Y-96478334D01*
X152695200Y-96478334D02*
X152628533Y-96445000D01*
X139419999Y-103753533D02*
X139186666Y-103420200D01*
X139019999Y-103753533D02*
X139019999Y-103053533D01*
X139019999Y-103053533D02*
X139286666Y-103053533D01*
X139286666Y-103053533D02*
X139353333Y-103086866D01*
X139353333Y-103086866D02*
X139386666Y-103120200D01*
X139386666Y-103120200D02*
X139419999Y-103186866D01*
X139419999Y-103186866D02*
X139419999Y-103286866D01*
X139419999Y-103286866D02*
X139386666Y-103353533D01*
X139386666Y-103353533D02*
X139353333Y-103386866D01*
X139353333Y-103386866D02*
X139286666Y-103420200D01*
X139286666Y-103420200D02*
X139019999Y-103420200D01*
X140086666Y-103753533D02*
X139686666Y-103753533D01*
X139886666Y-103753533D02*
X139886666Y-103053533D01*
X139886666Y-103053533D02*
X139819999Y-103153533D01*
X139819999Y-103153533D02*
X139753333Y-103220200D01*
X139753333Y-103220200D02*
X139686666Y-103253533D01*
X140520000Y-103053533D02*
X140586666Y-103053533D01*
X140586666Y-103053533D02*
X140653333Y-103086866D01*
X140653333Y-103086866D02*
X140686666Y-103120200D01*
X140686666Y-103120200D02*
X140720000Y-103186866D01*
X140720000Y-103186866D02*
X140753333Y-103320200D01*
X140753333Y-103320200D02*
X140753333Y-103486866D01*
X140753333Y-103486866D02*
X140720000Y-103620200D01*
X140720000Y-103620200D02*
X140686666Y-103686866D01*
X140686666Y-103686866D02*
X140653333Y-103720200D01*
X140653333Y-103720200D02*
X140586666Y-103753533D01*
X140586666Y-103753533D02*
X140520000Y-103753533D01*
X140520000Y-103753533D02*
X140453333Y-103720200D01*
X140453333Y-103720200D02*
X140420000Y-103686866D01*
X140420000Y-103686866D02*
X140386666Y-103620200D01*
X140386666Y-103620200D02*
X140353333Y-103486866D01*
X140353333Y-103486866D02*
X140353333Y-103320200D01*
X140353333Y-103320200D02*
X140386666Y-103186866D01*
X140386666Y-103186866D02*
X140420000Y-103120200D01*
X140420000Y-103120200D02*
X140453333Y-103086866D01*
X140453333Y-103086866D02*
X140520000Y-103053533D01*
X213473333Y-103805677D02*
X213240000Y-103472344D01*
X213073333Y-103805677D02*
X213073333Y-103105677D01*
X213073333Y-103105677D02*
X213340000Y-103105677D01*
X213340000Y-103105677D02*
X213406667Y-103139010D01*
X213406667Y-103139010D02*
X213440000Y-103172344D01*
X213440000Y-103172344D02*
X213473333Y-103239010D01*
X213473333Y-103239010D02*
X213473333Y-103339010D01*
X213473333Y-103339010D02*
X213440000Y-103405677D01*
X213440000Y-103405677D02*
X213406667Y-103439010D01*
X213406667Y-103439010D02*
X213340000Y-103472344D01*
X213340000Y-103472344D02*
X213073333Y-103472344D01*
X214073333Y-103339010D02*
X214073333Y-103805677D01*
X213906667Y-103072344D02*
X213740000Y-103572344D01*
X213740000Y-103572344D02*
X214173333Y-103572344D01*
X201033533Y-88398809D02*
X200700200Y-88632142D01*
X201033533Y-88798809D02*
X200333533Y-88798809D01*
X200333533Y-88798809D02*
X200333533Y-88532142D01*
X200333533Y-88532142D02*
X200366866Y-88465476D01*
X200366866Y-88465476D02*
X200400200Y-88432142D01*
X200400200Y-88432142D02*
X200466866Y-88398809D01*
X200466866Y-88398809D02*
X200566866Y-88398809D01*
X200566866Y-88398809D02*
X200633533Y-88432142D01*
X200633533Y-88432142D02*
X200666866Y-88465476D01*
X200666866Y-88465476D02*
X200700200Y-88532142D01*
X200700200Y-88532142D02*
X200700200Y-88798809D01*
X201033533Y-88065476D02*
X201033533Y-87932142D01*
X201033533Y-87932142D02*
X201000200Y-87865476D01*
X201000200Y-87865476D02*
X200966866Y-87832142D01*
X200966866Y-87832142D02*
X200866866Y-87765476D01*
X200866866Y-87765476D02*
X200733533Y-87732142D01*
X200733533Y-87732142D02*
X200466866Y-87732142D01*
X200466866Y-87732142D02*
X200400200Y-87765476D01*
X200400200Y-87765476D02*
X200366866Y-87798809D01*
X200366866Y-87798809D02*
X200333533Y-87865476D01*
X200333533Y-87865476D02*
X200333533Y-87998809D01*
X200333533Y-87998809D02*
X200366866Y-88065476D01*
X200366866Y-88065476D02*
X200400200Y-88098809D01*
X200400200Y-88098809D02*
X200466866Y-88132142D01*
X200466866Y-88132142D02*
X200633533Y-88132142D01*
X200633533Y-88132142D02*
X200700200Y-88098809D01*
X200700200Y-88098809D02*
X200733533Y-88065476D01*
X200733533Y-88065476D02*
X200766866Y-87998809D01*
X200766866Y-87998809D02*
X200766866Y-87865476D01*
X200766866Y-87865476D02*
X200733533Y-87798809D01*
X200733533Y-87798809D02*
X200700200Y-87765476D01*
X200700200Y-87765476D02*
X200633533Y-87732142D01*
X203733333Y-100071510D02*
X203700000Y-100104844D01*
X203700000Y-100104844D02*
X203600000Y-100138177D01*
X203600000Y-100138177D02*
X203533333Y-100138177D01*
X203533333Y-100138177D02*
X203433333Y-100104844D01*
X203433333Y-100104844D02*
X203366667Y-100038177D01*
X203366667Y-100038177D02*
X203333333Y-99971510D01*
X203333333Y-99971510D02*
X203300000Y-99838177D01*
X203300000Y-99838177D02*
X203300000Y-99738177D01*
X203300000Y-99738177D02*
X203333333Y-99604844D01*
X203333333Y-99604844D02*
X203366667Y-99538177D01*
X203366667Y-99538177D02*
X203433333Y-99471510D01*
X203433333Y-99471510D02*
X203533333Y-99438177D01*
X203533333Y-99438177D02*
X203600000Y-99438177D01*
X203600000Y-99438177D02*
X203700000Y-99471510D01*
X203700000Y-99471510D02*
X203733333Y-99504844D01*
X204333333Y-99671510D02*
X204333333Y-100138177D01*
X204166667Y-99404844D02*
X204000000Y-99904844D01*
X204000000Y-99904844D02*
X204433333Y-99904844D01*
X223243332Y-82020677D02*
X223009999Y-81687344D01*
X222843332Y-82020677D02*
X222843332Y-81320677D01*
X222843332Y-81320677D02*
X223109999Y-81320677D01*
X223109999Y-81320677D02*
X223176666Y-81354010D01*
X223176666Y-81354010D02*
X223209999Y-81387344D01*
X223209999Y-81387344D02*
X223243332Y-81454010D01*
X223243332Y-81454010D02*
X223243332Y-81554010D01*
X223243332Y-81554010D02*
X223209999Y-81620677D01*
X223209999Y-81620677D02*
X223176666Y-81654010D01*
X223176666Y-81654010D02*
X223109999Y-81687344D01*
X223109999Y-81687344D02*
X222843332Y-81687344D01*
X223509999Y-81387344D02*
X223543332Y-81354010D01*
X223543332Y-81354010D02*
X223609999Y-81320677D01*
X223609999Y-81320677D02*
X223776666Y-81320677D01*
X223776666Y-81320677D02*
X223843332Y-81354010D01*
X223843332Y-81354010D02*
X223876666Y-81387344D01*
X223876666Y-81387344D02*
X223909999Y-81454010D01*
X223909999Y-81454010D02*
X223909999Y-81520677D01*
X223909999Y-81520677D02*
X223876666Y-81620677D01*
X223876666Y-81620677D02*
X223476666Y-82020677D01*
X223476666Y-82020677D02*
X223909999Y-82020677D01*
X207383533Y-100198809D02*
X207050200Y-100432142D01*
X207383533Y-100598809D02*
X206683533Y-100598809D01*
X206683533Y-100598809D02*
X206683533Y-100332142D01*
X206683533Y-100332142D02*
X206716866Y-100265476D01*
X206716866Y-100265476D02*
X206750200Y-100232142D01*
X206750200Y-100232142D02*
X206816866Y-100198809D01*
X206816866Y-100198809D02*
X206916866Y-100198809D01*
X206916866Y-100198809D02*
X206983533Y-100232142D01*
X206983533Y-100232142D02*
X207016866Y-100265476D01*
X207016866Y-100265476D02*
X207050200Y-100332142D01*
X207050200Y-100332142D02*
X207050200Y-100598809D01*
X206683533Y-99965476D02*
X206683533Y-99498809D01*
X206683533Y-99498809D02*
X207383533Y-99798809D01*
X198913333Y-83926510D02*
X198880000Y-83959844D01*
X198880000Y-83959844D02*
X198780000Y-83993177D01*
X198780000Y-83993177D02*
X198713333Y-83993177D01*
X198713333Y-83993177D02*
X198613333Y-83959844D01*
X198613333Y-83959844D02*
X198546667Y-83893177D01*
X198546667Y-83893177D02*
X198513333Y-83826510D01*
X198513333Y-83826510D02*
X198480000Y-83693177D01*
X198480000Y-83693177D02*
X198480000Y-83593177D01*
X198480000Y-83593177D02*
X198513333Y-83459844D01*
X198513333Y-83459844D02*
X198546667Y-83393177D01*
X198546667Y-83393177D02*
X198613333Y-83326510D01*
X198613333Y-83326510D02*
X198713333Y-83293177D01*
X198713333Y-83293177D02*
X198780000Y-83293177D01*
X198780000Y-83293177D02*
X198880000Y-83326510D01*
X198880000Y-83326510D02*
X198913333Y-83359844D01*
X199546667Y-83293177D02*
X199213333Y-83293177D01*
X199213333Y-83293177D02*
X199180000Y-83626510D01*
X199180000Y-83626510D02*
X199213333Y-83593177D01*
X199213333Y-83593177D02*
X199280000Y-83559844D01*
X199280000Y-83559844D02*
X199446667Y-83559844D01*
X199446667Y-83559844D02*
X199513333Y-83593177D01*
X199513333Y-83593177D02*
X199546667Y-83626510D01*
X199546667Y-83626510D02*
X199580000Y-83693177D01*
X199580000Y-83693177D02*
X199580000Y-83859844D01*
X199580000Y-83859844D02*
X199546667Y-83926510D01*
X199546667Y-83926510D02*
X199513333Y-83959844D01*
X199513333Y-83959844D02*
X199446667Y-83993177D01*
X199446667Y-83993177D02*
X199280000Y-83993177D01*
X199280000Y-83993177D02*
X199213333Y-83959844D01*
X199213333Y-83959844D02*
X199180000Y-83926510D01*
X203733333Y-90921510D02*
X203700000Y-90954844D01*
X203700000Y-90954844D02*
X203600000Y-90988177D01*
X203600000Y-90988177D02*
X203533333Y-90988177D01*
X203533333Y-90988177D02*
X203433333Y-90954844D01*
X203433333Y-90954844D02*
X203366667Y-90888177D01*
X203366667Y-90888177D02*
X203333333Y-90821510D01*
X203333333Y-90821510D02*
X203300000Y-90688177D01*
X203300000Y-90688177D02*
X203300000Y-90588177D01*
X203300000Y-90588177D02*
X203333333Y-90454844D01*
X203333333Y-90454844D02*
X203366667Y-90388177D01*
X203366667Y-90388177D02*
X203433333Y-90321510D01*
X203433333Y-90321510D02*
X203533333Y-90288177D01*
X203533333Y-90288177D02*
X203600000Y-90288177D01*
X203600000Y-90288177D02*
X203700000Y-90321510D01*
X203700000Y-90321510D02*
X203733333Y-90354844D01*
X203966667Y-90288177D02*
X204433333Y-90288177D01*
X204433333Y-90288177D02*
X204133333Y-90988177D01*
X221433533Y-92788809D02*
X221100200Y-93022142D01*
X221433533Y-93188809D02*
X220733533Y-93188809D01*
X220733533Y-93188809D02*
X220733533Y-92922142D01*
X220733533Y-92922142D02*
X220766866Y-92855476D01*
X220766866Y-92855476D02*
X220800200Y-92822142D01*
X220800200Y-92822142D02*
X220866866Y-92788809D01*
X220866866Y-92788809D02*
X220966866Y-92788809D01*
X220966866Y-92788809D02*
X221033533Y-92822142D01*
X221033533Y-92822142D02*
X221066866Y-92855476D01*
X221066866Y-92855476D02*
X221100200Y-92922142D01*
X221100200Y-92922142D02*
X221100200Y-93188809D01*
X220733533Y-92155476D02*
X220733533Y-92488809D01*
X220733533Y-92488809D02*
X221066866Y-92522142D01*
X221066866Y-92522142D02*
X221033533Y-92488809D01*
X221033533Y-92488809D02*
X221000200Y-92422142D01*
X221000200Y-92422142D02*
X221000200Y-92255476D01*
X221000200Y-92255476D02*
X221033533Y-92188809D01*
X221033533Y-92188809D02*
X221066866Y-92155476D01*
X221066866Y-92155476D02*
X221133533Y-92122142D01*
X221133533Y-92122142D02*
X221300200Y-92122142D01*
X221300200Y-92122142D02*
X221366866Y-92155476D01*
X221366866Y-92155476D02*
X221400200Y-92188809D01*
X221400200Y-92188809D02*
X221433533Y-92255476D01*
X221433533Y-92255476D02*
X221433533Y-92422142D01*
X221433533Y-92422142D02*
X221400200Y-92488809D01*
X221400200Y-92488809D02*
X221366866Y-92522142D01*
X223293334Y-103805677D02*
X223060001Y-103472344D01*
X222893334Y-103805677D02*
X222893334Y-103105677D01*
X222893334Y-103105677D02*
X223160001Y-103105677D01*
X223160001Y-103105677D02*
X223226668Y-103139010D01*
X223226668Y-103139010D02*
X223260001Y-103172344D01*
X223260001Y-103172344D02*
X223293334Y-103239010D01*
X223293334Y-103239010D02*
X223293334Y-103339010D01*
X223293334Y-103339010D02*
X223260001Y-103405677D01*
X223260001Y-103405677D02*
X223226668Y-103439010D01*
X223226668Y-103439010D02*
X223160001Y-103472344D01*
X223160001Y-103472344D02*
X222893334Y-103472344D01*
X223960001Y-103805677D02*
X223560001Y-103805677D01*
X223760001Y-103805677D02*
X223760001Y-103105677D01*
X223760001Y-103105677D02*
X223693334Y-103205677D01*
X223693334Y-103205677D02*
X223626668Y-103272344D01*
X223626668Y-103272344D02*
X223560001Y-103305677D01*
X207383533Y-90398809D02*
X207050200Y-90632142D01*
X207383533Y-90798809D02*
X206683533Y-90798809D01*
X206683533Y-90798809D02*
X206683533Y-90532142D01*
X206683533Y-90532142D02*
X206716866Y-90465476D01*
X206716866Y-90465476D02*
X206750200Y-90432142D01*
X206750200Y-90432142D02*
X206816866Y-90398809D01*
X206816866Y-90398809D02*
X206916866Y-90398809D01*
X206916866Y-90398809D02*
X206983533Y-90432142D01*
X206983533Y-90432142D02*
X207016866Y-90465476D01*
X207016866Y-90465476D02*
X207050200Y-90532142D01*
X207050200Y-90532142D02*
X207050200Y-90798809D01*
X206983533Y-89998809D02*
X206950200Y-90065476D01*
X206950200Y-90065476D02*
X206916866Y-90098809D01*
X206916866Y-90098809D02*
X206850200Y-90132142D01*
X206850200Y-90132142D02*
X206816866Y-90132142D01*
X206816866Y-90132142D02*
X206750200Y-90098809D01*
X206750200Y-90098809D02*
X206716866Y-90065476D01*
X206716866Y-90065476D02*
X206683533Y-89998809D01*
X206683533Y-89998809D02*
X206683533Y-89865476D01*
X206683533Y-89865476D02*
X206716866Y-89798809D01*
X206716866Y-89798809D02*
X206750200Y-89765476D01*
X206750200Y-89765476D02*
X206816866Y-89732142D01*
X206816866Y-89732142D02*
X206850200Y-89732142D01*
X206850200Y-89732142D02*
X206916866Y-89765476D01*
X206916866Y-89765476D02*
X206950200Y-89798809D01*
X206950200Y-89798809D02*
X206983533Y-89865476D01*
X206983533Y-89865476D02*
X206983533Y-89998809D01*
X206983533Y-89998809D02*
X207016866Y-90065476D01*
X207016866Y-90065476D02*
X207050200Y-90098809D01*
X207050200Y-90098809D02*
X207116866Y-90132142D01*
X207116866Y-90132142D02*
X207250200Y-90132142D01*
X207250200Y-90132142D02*
X207316866Y-90098809D01*
X207316866Y-90098809D02*
X207350200Y-90065476D01*
X207350200Y-90065476D02*
X207383533Y-89998809D01*
X207383533Y-89998809D02*
X207383533Y-89865476D01*
X207383533Y-89865476D02*
X207350200Y-89798809D01*
X207350200Y-89798809D02*
X207316866Y-89765476D01*
X207316866Y-89765476D02*
X207250200Y-89732142D01*
X207250200Y-89732142D02*
X207116866Y-89732142D01*
X207116866Y-89732142D02*
X207050200Y-89765476D01*
X207050200Y-89765476D02*
X207016866Y-89798809D01*
X207016866Y-89798809D02*
X206983533Y-89865476D01*
X207913333Y-85071510D02*
X207880000Y-85104844D01*
X207880000Y-85104844D02*
X207780000Y-85138177D01*
X207780000Y-85138177D02*
X207713333Y-85138177D01*
X207713333Y-85138177D02*
X207613333Y-85104844D01*
X207613333Y-85104844D02*
X207546667Y-85038177D01*
X207546667Y-85038177D02*
X207513333Y-84971510D01*
X207513333Y-84971510D02*
X207480000Y-84838177D01*
X207480000Y-84838177D02*
X207480000Y-84738177D01*
X207480000Y-84738177D02*
X207513333Y-84604844D01*
X207513333Y-84604844D02*
X207546667Y-84538177D01*
X207546667Y-84538177D02*
X207613333Y-84471510D01*
X207613333Y-84471510D02*
X207713333Y-84438177D01*
X207713333Y-84438177D02*
X207780000Y-84438177D01*
X207780000Y-84438177D02*
X207880000Y-84471510D01*
X207880000Y-84471510D02*
X207913333Y-84504844D01*
X208313333Y-84738177D02*
X208246667Y-84704844D01*
X208246667Y-84704844D02*
X208213333Y-84671510D01*
X208213333Y-84671510D02*
X208180000Y-84604844D01*
X208180000Y-84604844D02*
X208180000Y-84571510D01*
X208180000Y-84571510D02*
X208213333Y-84504844D01*
X208213333Y-84504844D02*
X208246667Y-84471510D01*
X208246667Y-84471510D02*
X208313333Y-84438177D01*
X208313333Y-84438177D02*
X208446667Y-84438177D01*
X208446667Y-84438177D02*
X208513333Y-84471510D01*
X208513333Y-84471510D02*
X208546667Y-84504844D01*
X208546667Y-84504844D02*
X208580000Y-84571510D01*
X208580000Y-84571510D02*
X208580000Y-84604844D01*
X208580000Y-84604844D02*
X208546667Y-84671510D01*
X208546667Y-84671510D02*
X208513333Y-84704844D01*
X208513333Y-84704844D02*
X208446667Y-84738177D01*
X208446667Y-84738177D02*
X208313333Y-84738177D01*
X208313333Y-84738177D02*
X208246667Y-84771510D01*
X208246667Y-84771510D02*
X208213333Y-84804844D01*
X208213333Y-84804844D02*
X208180000Y-84871510D01*
X208180000Y-84871510D02*
X208180000Y-85004844D01*
X208180000Y-85004844D02*
X208213333Y-85071510D01*
X208213333Y-85071510D02*
X208246667Y-85104844D01*
X208246667Y-85104844D02*
X208313333Y-85138177D01*
X208313333Y-85138177D02*
X208446667Y-85138177D01*
X208446667Y-85138177D02*
X208513333Y-85104844D01*
X208513333Y-85104844D02*
X208546667Y-85071510D01*
X208546667Y-85071510D02*
X208580000Y-85004844D01*
X208580000Y-85004844D02*
X208580000Y-84871510D01*
X208580000Y-84871510D02*
X208546667Y-84804844D01*
X208546667Y-84804844D02*
X208513333Y-84771510D01*
X208513333Y-84771510D02*
X208446667Y-84738177D01*
X222063333Y-87476510D02*
X222030000Y-87509844D01*
X222030000Y-87509844D02*
X221930000Y-87543177D01*
X221930000Y-87543177D02*
X221863333Y-87543177D01*
X221863333Y-87543177D02*
X221763333Y-87509844D01*
X221763333Y-87509844D02*
X221696667Y-87443177D01*
X221696667Y-87443177D02*
X221663333Y-87376510D01*
X221663333Y-87376510D02*
X221630000Y-87243177D01*
X221630000Y-87243177D02*
X221630000Y-87143177D01*
X221630000Y-87143177D02*
X221663333Y-87009844D01*
X221663333Y-87009844D02*
X221696667Y-86943177D01*
X221696667Y-86943177D02*
X221763333Y-86876510D01*
X221763333Y-86876510D02*
X221863333Y-86843177D01*
X221863333Y-86843177D02*
X221930000Y-86843177D01*
X221930000Y-86843177D02*
X222030000Y-86876510D01*
X222030000Y-86876510D02*
X222063333Y-86909844D01*
X222296667Y-86843177D02*
X222730000Y-86843177D01*
X222730000Y-86843177D02*
X222496667Y-87109844D01*
X222496667Y-87109844D02*
X222596667Y-87109844D01*
X222596667Y-87109844D02*
X222663333Y-87143177D01*
X222663333Y-87143177D02*
X222696667Y-87176510D01*
X222696667Y-87176510D02*
X222730000Y-87243177D01*
X222730000Y-87243177D02*
X222730000Y-87409844D01*
X222730000Y-87409844D02*
X222696667Y-87476510D01*
X222696667Y-87476510D02*
X222663333Y-87509844D01*
X222663333Y-87509844D02*
X222596667Y-87543177D01*
X222596667Y-87543177D02*
X222396667Y-87543177D01*
X222396667Y-87543177D02*
X222330000Y-87509844D01*
X222330000Y-87509844D02*
X222296667Y-87476510D01*
X227443332Y-85870677D02*
X227209999Y-85537344D01*
X227043332Y-85870677D02*
X227043332Y-85170677D01*
X227043332Y-85170677D02*
X227309999Y-85170677D01*
X227309999Y-85170677D02*
X227376666Y-85204010D01*
X227376666Y-85204010D02*
X227409999Y-85237344D01*
X227409999Y-85237344D02*
X227443332Y-85304010D01*
X227443332Y-85304010D02*
X227443332Y-85404010D01*
X227443332Y-85404010D02*
X227409999Y-85470677D01*
X227409999Y-85470677D02*
X227376666Y-85504010D01*
X227376666Y-85504010D02*
X227309999Y-85537344D01*
X227309999Y-85537344D02*
X227043332Y-85537344D01*
X228043332Y-85170677D02*
X227909999Y-85170677D01*
X227909999Y-85170677D02*
X227843332Y-85204010D01*
X227843332Y-85204010D02*
X227809999Y-85237344D01*
X227809999Y-85237344D02*
X227743332Y-85337344D01*
X227743332Y-85337344D02*
X227709999Y-85470677D01*
X227709999Y-85470677D02*
X227709999Y-85737344D01*
X227709999Y-85737344D02*
X227743332Y-85804010D01*
X227743332Y-85804010D02*
X227776666Y-85837344D01*
X227776666Y-85837344D02*
X227843332Y-85870677D01*
X227843332Y-85870677D02*
X227976666Y-85870677D01*
X227976666Y-85870677D02*
X228043332Y-85837344D01*
X228043332Y-85837344D02*
X228076666Y-85804010D01*
X228076666Y-85804010D02*
X228109999Y-85737344D01*
X228109999Y-85737344D02*
X228109999Y-85570677D01*
X228109999Y-85570677D02*
X228076666Y-85504010D01*
X228076666Y-85504010D02*
X228043332Y-85470677D01*
X228043332Y-85470677D02*
X227976666Y-85437344D01*
X227976666Y-85437344D02*
X227843332Y-85437344D01*
X227843332Y-85437344D02*
X227776666Y-85470677D01*
X227776666Y-85470677D02*
X227743332Y-85504010D01*
X227743332Y-85504010D02*
X227709999Y-85570677D01*
X223249366Y-92738809D02*
X223282700Y-92772142D01*
X223282700Y-92772142D02*
X223316033Y-92872142D01*
X223316033Y-92872142D02*
X223316033Y-92938809D01*
X223316033Y-92938809D02*
X223282700Y-93038809D01*
X223282700Y-93038809D02*
X223216033Y-93105476D01*
X223216033Y-93105476D02*
X223149366Y-93138809D01*
X223149366Y-93138809D02*
X223016033Y-93172142D01*
X223016033Y-93172142D02*
X222916033Y-93172142D01*
X222916033Y-93172142D02*
X222782700Y-93138809D01*
X222782700Y-93138809D02*
X222716033Y-93105476D01*
X222716033Y-93105476D02*
X222649366Y-93038809D01*
X222649366Y-93038809D02*
X222616033Y-92938809D01*
X222616033Y-92938809D02*
X222616033Y-92872142D01*
X222616033Y-92872142D02*
X222649366Y-92772142D01*
X222649366Y-92772142D02*
X222682700Y-92738809D01*
X222682700Y-92472142D02*
X222649366Y-92438809D01*
X222649366Y-92438809D02*
X222616033Y-92372142D01*
X222616033Y-92372142D02*
X222616033Y-92205476D01*
X222616033Y-92205476D02*
X222649366Y-92138809D01*
X222649366Y-92138809D02*
X222682700Y-92105476D01*
X222682700Y-92105476D02*
X222749366Y-92072142D01*
X222749366Y-92072142D02*
X222816033Y-92072142D01*
X222816033Y-92072142D02*
X222916033Y-92105476D01*
X222916033Y-92105476D02*
X223316033Y-92505476D01*
X223316033Y-92505476D02*
X223316033Y-92072142D01*
X213109999Y-82155677D02*
X212876666Y-81822344D01*
X212709999Y-82155677D02*
X212709999Y-81455677D01*
X212709999Y-81455677D02*
X212976666Y-81455677D01*
X212976666Y-81455677D02*
X213043333Y-81489010D01*
X213043333Y-81489010D02*
X213076666Y-81522344D01*
X213076666Y-81522344D02*
X213109999Y-81589010D01*
X213109999Y-81589010D02*
X213109999Y-81689010D01*
X213109999Y-81689010D02*
X213076666Y-81755677D01*
X213076666Y-81755677D02*
X213043333Y-81789010D01*
X213043333Y-81789010D02*
X212976666Y-81822344D01*
X212976666Y-81822344D02*
X212709999Y-81822344D01*
X213776666Y-82155677D02*
X213376666Y-82155677D01*
X213576666Y-82155677D02*
X213576666Y-81455677D01*
X213576666Y-81455677D02*
X213509999Y-81555677D01*
X213509999Y-81555677D02*
X213443333Y-81622344D01*
X213443333Y-81622344D02*
X213376666Y-81655677D01*
X214210000Y-81455677D02*
X214276666Y-81455677D01*
X214276666Y-81455677D02*
X214343333Y-81489010D01*
X214343333Y-81489010D02*
X214376666Y-81522344D01*
X214376666Y-81522344D02*
X214410000Y-81589010D01*
X214410000Y-81589010D02*
X214443333Y-81722344D01*
X214443333Y-81722344D02*
X214443333Y-81889010D01*
X214443333Y-81889010D02*
X214410000Y-82022344D01*
X214410000Y-82022344D02*
X214376666Y-82089010D01*
X214376666Y-82089010D02*
X214343333Y-82122344D01*
X214343333Y-82122344D02*
X214276666Y-82155677D01*
X214276666Y-82155677D02*
X214210000Y-82155677D01*
X214210000Y-82155677D02*
X214143333Y-82122344D01*
X214143333Y-82122344D02*
X214110000Y-82089010D01*
X214110000Y-82089010D02*
X214076666Y-82022344D01*
X214076666Y-82022344D02*
X214043333Y-81889010D01*
X214043333Y-81889010D02*
X214043333Y-81722344D01*
X214043333Y-81722344D02*
X214076666Y-81589010D01*
X214076666Y-81589010D02*
X214110000Y-81522344D01*
X214110000Y-81522344D02*
X214143333Y-81489010D01*
X214143333Y-81489010D02*
X214210000Y-81455677D01*
X203599999Y-93671510D02*
X203566666Y-93704844D01*
X203566666Y-93704844D02*
X203466666Y-93738177D01*
X203466666Y-93738177D02*
X203399999Y-93738177D01*
X203399999Y-93738177D02*
X203299999Y-93704844D01*
X203299999Y-93704844D02*
X203233333Y-93638177D01*
X203233333Y-93638177D02*
X203199999Y-93571510D01*
X203199999Y-93571510D02*
X203166666Y-93438177D01*
X203166666Y-93438177D02*
X203166666Y-93338177D01*
X203166666Y-93338177D02*
X203199999Y-93204844D01*
X203199999Y-93204844D02*
X203233333Y-93138177D01*
X203233333Y-93138177D02*
X203299999Y-93071510D01*
X203299999Y-93071510D02*
X203399999Y-93038177D01*
X203399999Y-93038177D02*
X203466666Y-93038177D01*
X203466666Y-93038177D02*
X203566666Y-93071510D01*
X203566666Y-93071510D02*
X203599999Y-93104844D01*
X204266666Y-93738177D02*
X203866666Y-93738177D01*
X204066666Y-93738177D02*
X204066666Y-93038177D01*
X204066666Y-93038177D02*
X203999999Y-93138177D01*
X203999999Y-93138177D02*
X203933333Y-93204844D01*
X203933333Y-93204844D02*
X203866666Y-93238177D01*
X204700000Y-93038177D02*
X204766666Y-93038177D01*
X204766666Y-93038177D02*
X204833333Y-93071510D01*
X204833333Y-93071510D02*
X204866666Y-93104844D01*
X204866666Y-93104844D02*
X204900000Y-93171510D01*
X204900000Y-93171510D02*
X204933333Y-93304844D01*
X204933333Y-93304844D02*
X204933333Y-93471510D01*
X204933333Y-93471510D02*
X204900000Y-93604844D01*
X204900000Y-93604844D02*
X204866666Y-93671510D01*
X204866666Y-93671510D02*
X204833333Y-93704844D01*
X204833333Y-93704844D02*
X204766666Y-93738177D01*
X204766666Y-93738177D02*
X204700000Y-93738177D01*
X204700000Y-93738177D02*
X204633333Y-93704844D01*
X204633333Y-93704844D02*
X204600000Y-93671510D01*
X204600000Y-93671510D02*
X204566666Y-93604844D01*
X204566666Y-93604844D02*
X204533333Y-93471510D01*
X204533333Y-93471510D02*
X204533333Y-93304844D01*
X204533333Y-93304844D02*
X204566666Y-93171510D01*
X204566666Y-93171510D02*
X204600000Y-93104844D01*
X204600000Y-93104844D02*
X204633333Y-93071510D01*
X204633333Y-93071510D02*
X204700000Y-93038177D01*
X222063333Y-98276510D02*
X222030000Y-98309844D01*
X222030000Y-98309844D02*
X221930000Y-98343177D01*
X221930000Y-98343177D02*
X221863333Y-98343177D01*
X221863333Y-98343177D02*
X221763333Y-98309844D01*
X221763333Y-98309844D02*
X221696667Y-98243177D01*
X221696667Y-98243177D02*
X221663333Y-98176510D01*
X221663333Y-98176510D02*
X221630000Y-98043177D01*
X221630000Y-98043177D02*
X221630000Y-97943177D01*
X221630000Y-97943177D02*
X221663333Y-97809844D01*
X221663333Y-97809844D02*
X221696667Y-97743177D01*
X221696667Y-97743177D02*
X221763333Y-97676510D01*
X221763333Y-97676510D02*
X221863333Y-97643177D01*
X221863333Y-97643177D02*
X221930000Y-97643177D01*
X221930000Y-97643177D02*
X222030000Y-97676510D01*
X222030000Y-97676510D02*
X222063333Y-97709844D01*
X222730000Y-98343177D02*
X222330000Y-98343177D01*
X222530000Y-98343177D02*
X222530000Y-97643177D01*
X222530000Y-97643177D02*
X222463333Y-97743177D01*
X222463333Y-97743177D02*
X222396667Y-97809844D01*
X222396667Y-97809844D02*
X222330000Y-97843177D01*
X227443334Y-99905677D02*
X227210001Y-99572344D01*
X227043334Y-99905677D02*
X227043334Y-99205677D01*
X227043334Y-99205677D02*
X227310001Y-99205677D01*
X227310001Y-99205677D02*
X227376668Y-99239010D01*
X227376668Y-99239010D02*
X227410001Y-99272344D01*
X227410001Y-99272344D02*
X227443334Y-99339010D01*
X227443334Y-99339010D02*
X227443334Y-99439010D01*
X227443334Y-99439010D02*
X227410001Y-99505677D01*
X227410001Y-99505677D02*
X227376668Y-99539010D01*
X227376668Y-99539010D02*
X227310001Y-99572344D01*
X227310001Y-99572344D02*
X227043334Y-99572344D01*
X227676668Y-99205677D02*
X228110001Y-99205677D01*
X228110001Y-99205677D02*
X227876668Y-99472344D01*
X227876668Y-99472344D02*
X227976668Y-99472344D01*
X227976668Y-99472344D02*
X228043334Y-99505677D01*
X228043334Y-99505677D02*
X228076668Y-99539010D01*
X228076668Y-99539010D02*
X228110001Y-99605677D01*
X228110001Y-99605677D02*
X228110001Y-99772344D01*
X228110001Y-99772344D02*
X228076668Y-99839010D01*
X228076668Y-99839010D02*
X228043334Y-99872344D01*
X228043334Y-99872344D02*
X227976668Y-99905677D01*
X227976668Y-99905677D02*
X227776668Y-99905677D01*
X227776668Y-99905677D02*
X227710001Y-99872344D01*
X227710001Y-99872344D02*
X227676668Y-99839010D01*
D14*
X165372391Y-94001549D02*
X166005698Y-94001549D01*
X166005698Y-94001549D02*
X166080204Y-93964296D01*
X166080204Y-93964296D02*
X166117458Y-93927042D01*
X166117458Y-93927042D02*
X166154711Y-93852536D01*
X166154711Y-93852536D02*
X166154711Y-93703522D01*
X166154711Y-93703522D02*
X166117458Y-93629016D01*
X166117458Y-93629016D02*
X166080204Y-93591762D01*
X166080204Y-93591762D02*
X166005698Y-93554509D01*
X166005698Y-93554509D02*
X165372391Y-93554509D01*
X165446898Y-93219229D02*
X165409644Y-93181976D01*
X165409644Y-93181976D02*
X165372391Y-93107469D01*
X165372391Y-93107469D02*
X165372391Y-92921203D01*
X165372391Y-92921203D02*
X165409644Y-92846696D01*
X165409644Y-92846696D02*
X165446898Y-92809443D01*
X165446898Y-92809443D02*
X165521404Y-92772189D01*
X165521404Y-92772189D02*
X165595911Y-92772189D01*
X165595911Y-92772189D02*
X165707671Y-92809443D01*
X165707671Y-92809443D02*
X166154711Y-93256483D01*
X166154711Y-93256483D02*
X166154711Y-92772189D01*
D10*
X200533333Y-100071510D02*
X200500000Y-100104844D01*
X200500000Y-100104844D02*
X200400000Y-100138177D01*
X200400000Y-100138177D02*
X200333333Y-100138177D01*
X200333333Y-100138177D02*
X200233333Y-100104844D01*
X200233333Y-100104844D02*
X200166667Y-100038177D01*
X200166667Y-100038177D02*
X200133333Y-99971510D01*
X200133333Y-99971510D02*
X200100000Y-99838177D01*
X200100000Y-99838177D02*
X200100000Y-99738177D01*
X200100000Y-99738177D02*
X200133333Y-99604844D01*
X200133333Y-99604844D02*
X200166667Y-99538177D01*
X200166667Y-99538177D02*
X200233333Y-99471510D01*
X200233333Y-99471510D02*
X200333333Y-99438177D01*
X200333333Y-99438177D02*
X200400000Y-99438177D01*
X200400000Y-99438177D02*
X200500000Y-99471510D01*
X200500000Y-99471510D02*
X200533333Y-99504844D01*
X200866667Y-100138177D02*
X201000000Y-100138177D01*
X201000000Y-100138177D02*
X201066667Y-100104844D01*
X201066667Y-100104844D02*
X201100000Y-100071510D01*
X201100000Y-100071510D02*
X201166667Y-99971510D01*
X201166667Y-99971510D02*
X201200000Y-99838177D01*
X201200000Y-99838177D02*
X201200000Y-99571510D01*
X201200000Y-99571510D02*
X201166667Y-99504844D01*
X201166667Y-99504844D02*
X201133333Y-99471510D01*
X201133333Y-99471510D02*
X201066667Y-99438177D01*
X201066667Y-99438177D02*
X200933333Y-99438177D01*
X200933333Y-99438177D02*
X200866667Y-99471510D01*
X200866667Y-99471510D02*
X200833333Y-99504844D01*
X200833333Y-99504844D02*
X200800000Y-99571510D01*
X200800000Y-99571510D02*
X200800000Y-99738177D01*
X200800000Y-99738177D02*
X200833333Y-99804844D01*
X200833333Y-99804844D02*
X200866667Y-99838177D01*
X200866667Y-99838177D02*
X200933333Y-99871510D01*
X200933333Y-99871510D02*
X201066667Y-99871510D01*
X201066667Y-99871510D02*
X201133333Y-99838177D01*
X201133333Y-99838177D02*
X201166667Y-99804844D01*
X201166667Y-99804844D02*
X201200000Y-99738177D01*
G04 #@! TO.C,C1*
D15*
X126410000Y-88010000D02*
X126410000Y-87385000D01*
X126410000Y-90225000D02*
X126410000Y-89600000D01*
X130450000Y-87385000D02*
X126410000Y-87385000D01*
X130450000Y-88010000D02*
X130450000Y-87385000D01*
X130450000Y-90225000D02*
X126410000Y-90225000D01*
X130450000Y-90225000D02*
X130450000Y-89600000D01*
G04 #@! TO.C,C2*
X127010000Y-90635000D02*
X127635000Y-90635000D01*
X127010000Y-94675000D02*
X127010000Y-90635000D01*
X127010000Y-94675000D02*
X127635000Y-94675000D01*
X129225000Y-90635000D02*
X129850000Y-90635000D01*
X129225000Y-94675000D02*
X129850000Y-94675000D01*
X129850000Y-94675000D02*
X129850000Y-90635000D01*
G04 #@! TO.C,C3*
X126410000Y-95135000D02*
X126410000Y-95760000D01*
X126410000Y-95135000D02*
X130450000Y-95135000D01*
X126410000Y-97350000D02*
X126410000Y-97975000D01*
X126410000Y-97975000D02*
X130450000Y-97975000D01*
X130450000Y-95135000D02*
X130450000Y-95760000D01*
X130450000Y-97350000D02*
X130450000Y-97975000D01*
G04 #@! TO.C,C4*
X148160000Y-80635000D02*
X148785000Y-80635000D01*
X148160000Y-84675000D02*
X148160000Y-80635000D01*
X148160000Y-84675000D02*
X148785000Y-84675000D01*
X150375000Y-80635000D02*
X151000000Y-80635000D01*
X150375000Y-84675000D02*
X151000000Y-84675000D01*
X151000000Y-84675000D02*
X151000000Y-80635000D01*
G04 #@! TO.C,C5*
X151560000Y-102760000D02*
X151560000Y-102135000D01*
X151560000Y-104975000D02*
X151560000Y-104350000D01*
X155600000Y-102135000D02*
X151560000Y-102135000D01*
X155600000Y-102760000D02*
X155600000Y-102135000D01*
X155600000Y-104975000D02*
X151560000Y-104975000D01*
X155600000Y-104975000D02*
X155600000Y-104350000D01*
G04 #@! TO.C,C7*
X148160000Y-95535000D02*
X148785000Y-95535000D01*
X148160000Y-99575000D02*
X148160000Y-95535000D01*
X148160000Y-99575000D02*
X148785000Y-99575000D01*
X150375000Y-95535000D02*
X151000000Y-95535000D01*
X150375000Y-99575000D02*
X151000000Y-99575000D01*
X151000000Y-99575000D02*
X151000000Y-95535000D01*
G04 #@! TO.C,C8*
X144925225Y-101330000D02*
X145425225Y-101330000D01*
X145175225Y-101080000D02*
X145175225Y-101580000D01*
X147730000Y-100225000D02*
X147730000Y-105385000D01*
X147770000Y-100225000D02*
X147770000Y-105385000D01*
X147810000Y-100226000D02*
X147810000Y-105384000D01*
X147850000Y-100227000D02*
X147850000Y-105383000D01*
X147890000Y-100229000D02*
X147890000Y-105381000D01*
X147930000Y-100232000D02*
X147930000Y-105378000D01*
X147970000Y-100236000D02*
X147970000Y-101765000D01*
X147970000Y-103845000D02*
X147970000Y-105374000D01*
X148010000Y-100240000D02*
X148010000Y-101765000D01*
X148010000Y-103845000D02*
X148010000Y-105370000D01*
X148050000Y-100244000D02*
X148050000Y-101765000D01*
X148050000Y-103845000D02*
X148050000Y-105366000D01*
X148090000Y-100249000D02*
X148090000Y-101765000D01*
X148090000Y-103845000D02*
X148090000Y-105361000D01*
X148130000Y-100255000D02*
X148130000Y-101765000D01*
X148130000Y-103845000D02*
X148130000Y-105355000D01*
X148170000Y-100262000D02*
X148170000Y-101765000D01*
X148170000Y-103845000D02*
X148170000Y-105348000D01*
X148210000Y-100269000D02*
X148210000Y-101765000D01*
X148210000Y-103845000D02*
X148210000Y-105341000D01*
X148250000Y-100277000D02*
X148250000Y-101765000D01*
X148250000Y-103845000D02*
X148250000Y-105333000D01*
X148290000Y-100285000D02*
X148290000Y-101765000D01*
X148290000Y-103845000D02*
X148290000Y-105325000D01*
X148330000Y-100294000D02*
X148330000Y-101765000D01*
X148330000Y-103845000D02*
X148330000Y-105316000D01*
X148370000Y-100304000D02*
X148370000Y-101765000D01*
X148370000Y-103845000D02*
X148370000Y-105306000D01*
X148410000Y-100314000D02*
X148410000Y-101765000D01*
X148410000Y-103845000D02*
X148410000Y-105296000D01*
X148451000Y-100325000D02*
X148451000Y-101765000D01*
X148451000Y-103845000D02*
X148451000Y-105285000D01*
X148491000Y-100337000D02*
X148491000Y-101765000D01*
X148491000Y-103845000D02*
X148491000Y-105273000D01*
X148531000Y-100350000D02*
X148531000Y-101765000D01*
X148531000Y-103845000D02*
X148531000Y-105260000D01*
X148571000Y-100363000D02*
X148571000Y-101765000D01*
X148571000Y-103845000D02*
X148571000Y-105247000D01*
X148611000Y-100377000D02*
X148611000Y-101765000D01*
X148611000Y-103845000D02*
X148611000Y-105233000D01*
X148651000Y-100391000D02*
X148651000Y-101765000D01*
X148651000Y-103845000D02*
X148651000Y-105219000D01*
X148691000Y-100407000D02*
X148691000Y-101765000D01*
X148691000Y-103845000D02*
X148691000Y-105203000D01*
X148731000Y-100423000D02*
X148731000Y-101765000D01*
X148731000Y-103845000D02*
X148731000Y-105187000D01*
X148771000Y-100440000D02*
X148771000Y-101765000D01*
X148771000Y-103845000D02*
X148771000Y-105170000D01*
X148811000Y-100457000D02*
X148811000Y-101765000D01*
X148811000Y-103845000D02*
X148811000Y-105153000D01*
X148851000Y-100476000D02*
X148851000Y-101765000D01*
X148851000Y-103845000D02*
X148851000Y-105134000D01*
X148891000Y-100495000D02*
X148891000Y-101765000D01*
X148891000Y-103845000D02*
X148891000Y-105115000D01*
X148931000Y-100515000D02*
X148931000Y-101765000D01*
X148931000Y-103845000D02*
X148931000Y-105095000D01*
X148971000Y-100537000D02*
X148971000Y-101765000D01*
X148971000Y-103845000D02*
X148971000Y-105073000D01*
X149011000Y-100558000D02*
X149011000Y-101765000D01*
X149011000Y-103845000D02*
X149011000Y-105052000D01*
X149051000Y-100581000D02*
X149051000Y-101765000D01*
X149051000Y-103845000D02*
X149051000Y-105029000D01*
X149091000Y-100605000D02*
X149091000Y-101765000D01*
X149091000Y-103845000D02*
X149091000Y-105005000D01*
X149131000Y-100630000D02*
X149131000Y-101765000D01*
X149131000Y-103845000D02*
X149131000Y-104980000D01*
X149171000Y-100656000D02*
X149171000Y-101765000D01*
X149171000Y-103845000D02*
X149171000Y-104954000D01*
X149211000Y-100683000D02*
X149211000Y-101765000D01*
X149211000Y-103845000D02*
X149211000Y-104927000D01*
X149251000Y-100710000D02*
X149251000Y-101765000D01*
X149251000Y-103845000D02*
X149251000Y-104900000D01*
X149291000Y-100740000D02*
X149291000Y-101765000D01*
X149291000Y-103845000D02*
X149291000Y-104870000D01*
X149331000Y-100770000D02*
X149331000Y-101765000D01*
X149331000Y-103845000D02*
X149331000Y-104840000D01*
X149371000Y-100801000D02*
X149371000Y-101765000D01*
X149371000Y-103845000D02*
X149371000Y-104809000D01*
X149411000Y-100834000D02*
X149411000Y-101765000D01*
X149411000Y-103845000D02*
X149411000Y-104776000D01*
X149451000Y-100868000D02*
X149451000Y-101765000D01*
X149451000Y-103845000D02*
X149451000Y-104742000D01*
X149491000Y-100904000D02*
X149491000Y-101765000D01*
X149491000Y-103845000D02*
X149491000Y-104706000D01*
X149531000Y-100941000D02*
X149531000Y-101765000D01*
X149531000Y-103845000D02*
X149531000Y-104669000D01*
X149571000Y-100979000D02*
X149571000Y-101765000D01*
X149571000Y-103845000D02*
X149571000Y-104631000D01*
X149611000Y-101020000D02*
X149611000Y-101765000D01*
X149611000Y-103845000D02*
X149611000Y-104590000D01*
X149651000Y-101062000D02*
X149651000Y-101765000D01*
X149651000Y-103845000D02*
X149651000Y-104548000D01*
X149691000Y-101106000D02*
X149691000Y-101765000D01*
X149691000Y-103845000D02*
X149691000Y-104504000D01*
X149731000Y-101152000D02*
X149731000Y-101765000D01*
X149731000Y-103845000D02*
X149731000Y-104458000D01*
X149771000Y-101200000D02*
X149771000Y-101765000D01*
X149771000Y-103845000D02*
X149771000Y-104410000D01*
X149811000Y-101251000D02*
X149811000Y-101765000D01*
X149811000Y-103845000D02*
X149811000Y-104359000D01*
X149851000Y-101305000D02*
X149851000Y-101765000D01*
X149851000Y-103845000D02*
X149851000Y-104305000D01*
X149891000Y-101362000D02*
X149891000Y-101765000D01*
X149891000Y-103845000D02*
X149891000Y-104248000D01*
X149931000Y-101422000D02*
X149931000Y-101765000D01*
X149931000Y-103845000D02*
X149931000Y-104188000D01*
X149971000Y-101486000D02*
X149971000Y-101765000D01*
X149971000Y-103845000D02*
X149971000Y-104124000D01*
X150011000Y-101554000D02*
X150011000Y-101765000D01*
X150011000Y-103845000D02*
X150011000Y-104056000D01*
X150051000Y-101627000D02*
X150051000Y-103983000D01*
X150091000Y-101707000D02*
X150091000Y-103903000D01*
X150131000Y-101794000D02*
X150131000Y-103816000D01*
X150171000Y-101890000D02*
X150171000Y-103720000D01*
X150211000Y-102000000D02*
X150211000Y-103610000D01*
X150251000Y-102128000D02*
X150251000Y-103482000D01*
X150291000Y-102287000D02*
X150291000Y-103323000D01*
X150331000Y-102521000D02*
X150331000Y-103089000D01*
X150350000Y-102805000D02*
G75*
G02*
X145110000Y-102805000I-2620000J0D01*
G01*
X145110000Y-102805000D02*
G75*
G02*
X150350000Y-102805000I2620000J0D01*
G01*
G04 #@! TO.C,C9*
X151360000Y-80635000D02*
X151985000Y-80635000D01*
X151360000Y-84675000D02*
X151360000Y-80635000D01*
X151360000Y-84675000D02*
X151985000Y-84675000D01*
X153575000Y-80635000D02*
X154200000Y-80635000D01*
X153575000Y-84675000D02*
X154200000Y-84675000D01*
X154200000Y-84675000D02*
X154200000Y-80635000D01*
G04 #@! TO.C,C10*
X150040000Y-89095000D02*
X148511000Y-89095000D01*
X150040000Y-89135000D02*
X148515000Y-89135000D01*
X150040000Y-89175000D02*
X148519000Y-89175000D01*
X150040000Y-89215000D02*
X148524000Y-89215000D01*
X150040000Y-89255000D02*
X148530000Y-89255000D01*
X150040000Y-89295000D02*
X148537000Y-89295000D01*
X150040000Y-89335000D02*
X148544000Y-89335000D01*
X150040000Y-89375000D02*
X148552000Y-89375000D01*
X150040000Y-89415000D02*
X148560000Y-89415000D01*
X150040000Y-89455000D02*
X148569000Y-89455000D01*
X150040000Y-89495000D02*
X148579000Y-89495000D01*
X150040000Y-89535000D02*
X148589000Y-89535000D01*
X150040000Y-89576000D02*
X148600000Y-89576000D01*
X150040000Y-89616000D02*
X148612000Y-89616000D01*
X150040000Y-89656000D02*
X148625000Y-89656000D01*
X150040000Y-89696000D02*
X148638000Y-89696000D01*
X150040000Y-89736000D02*
X148652000Y-89736000D01*
X150040000Y-89776000D02*
X148666000Y-89776000D01*
X150040000Y-89816000D02*
X148682000Y-89816000D01*
X150040000Y-89856000D02*
X148698000Y-89856000D01*
X150040000Y-89896000D02*
X148715000Y-89896000D01*
X150040000Y-89936000D02*
X148732000Y-89936000D01*
X150040000Y-89976000D02*
X148751000Y-89976000D01*
X150040000Y-90016000D02*
X148770000Y-90016000D01*
X150040000Y-90056000D02*
X148790000Y-90056000D01*
X150040000Y-90096000D02*
X148812000Y-90096000D01*
X150040000Y-90136000D02*
X148833000Y-90136000D01*
X150040000Y-90176000D02*
X148856000Y-90176000D01*
X150040000Y-90216000D02*
X148880000Y-90216000D01*
X150040000Y-90256000D02*
X148905000Y-90256000D01*
X150040000Y-90296000D02*
X148931000Y-90296000D01*
X150040000Y-90336000D02*
X148958000Y-90336000D01*
X150040000Y-90376000D02*
X148985000Y-90376000D01*
X150040000Y-90416000D02*
X149015000Y-90416000D01*
X150040000Y-90456000D02*
X149045000Y-90456000D01*
X150040000Y-90496000D02*
X149076000Y-90496000D01*
X150040000Y-90536000D02*
X149109000Y-90536000D01*
X150040000Y-90576000D02*
X149143000Y-90576000D01*
X150040000Y-90616000D02*
X149179000Y-90616000D01*
X150040000Y-90656000D02*
X149216000Y-90656000D01*
X150040000Y-90696000D02*
X149254000Y-90696000D01*
X150040000Y-90736000D02*
X149295000Y-90736000D01*
X150040000Y-90776000D02*
X149337000Y-90776000D01*
X150040000Y-90816000D02*
X149381000Y-90816000D01*
X150040000Y-90856000D02*
X149427000Y-90856000D01*
X150040000Y-90896000D02*
X149475000Y-90896000D01*
X150040000Y-90936000D02*
X149526000Y-90936000D01*
X150040000Y-90976000D02*
X149580000Y-90976000D01*
X150040000Y-91016000D02*
X149637000Y-91016000D01*
X150040000Y-91056000D02*
X149697000Y-91056000D01*
X150040000Y-91096000D02*
X149761000Y-91096000D01*
X150040000Y-91136000D02*
X149829000Y-91136000D01*
X151364000Y-91456000D02*
X150796000Y-91456000D01*
X151598000Y-91416000D02*
X150562000Y-91416000D01*
X151757000Y-91376000D02*
X150403000Y-91376000D01*
X151885000Y-91336000D02*
X150275000Y-91336000D01*
X151995000Y-91296000D02*
X150165000Y-91296000D01*
X152091000Y-91256000D02*
X150069000Y-91256000D01*
X152178000Y-91216000D02*
X149982000Y-91216000D01*
X152258000Y-91176000D02*
X149902000Y-91176000D01*
X152331000Y-91136000D02*
X152120000Y-91136000D01*
X152399000Y-91096000D02*
X152120000Y-91096000D01*
X152463000Y-91056000D02*
X152120000Y-91056000D01*
X152523000Y-91016000D02*
X152120000Y-91016000D01*
X152555000Y-86050225D02*
X152555000Y-86550225D01*
X152580000Y-90976000D02*
X152120000Y-90976000D01*
X152634000Y-90936000D02*
X152120000Y-90936000D01*
X152685000Y-90896000D02*
X152120000Y-90896000D01*
X152733000Y-90856000D02*
X152120000Y-90856000D01*
X152779000Y-90816000D02*
X152120000Y-90816000D01*
X152805000Y-86300225D02*
X152305000Y-86300225D01*
X152823000Y-90776000D02*
X152120000Y-90776000D01*
X152865000Y-90736000D02*
X152120000Y-90736000D01*
X152906000Y-90696000D02*
X152120000Y-90696000D01*
X152944000Y-90656000D02*
X152120000Y-90656000D01*
X152981000Y-90616000D02*
X152120000Y-90616000D01*
X153017000Y-90576000D02*
X152120000Y-90576000D01*
X153051000Y-90536000D02*
X152120000Y-90536000D01*
X153084000Y-90496000D02*
X152120000Y-90496000D01*
X153115000Y-90456000D02*
X152120000Y-90456000D01*
X153145000Y-90416000D02*
X152120000Y-90416000D01*
X153175000Y-90376000D02*
X152120000Y-90376000D01*
X153202000Y-90336000D02*
X152120000Y-90336000D01*
X153229000Y-90296000D02*
X152120000Y-90296000D01*
X153255000Y-90256000D02*
X152120000Y-90256000D01*
X153280000Y-90216000D02*
X152120000Y-90216000D01*
X153304000Y-90176000D02*
X152120000Y-90176000D01*
X153327000Y-90136000D02*
X152120000Y-90136000D01*
X153348000Y-90096000D02*
X152120000Y-90096000D01*
X153370000Y-90056000D02*
X152120000Y-90056000D01*
X153390000Y-90016000D02*
X152120000Y-90016000D01*
X153409000Y-89976000D02*
X152120000Y-89976000D01*
X153428000Y-89936000D02*
X152120000Y-89936000D01*
X153445000Y-89896000D02*
X152120000Y-89896000D01*
X153462000Y-89856000D02*
X152120000Y-89856000D01*
X153478000Y-89816000D02*
X152120000Y-89816000D01*
X153494000Y-89776000D02*
X152120000Y-89776000D01*
X153508000Y-89736000D02*
X152120000Y-89736000D01*
X153522000Y-89696000D02*
X152120000Y-89696000D01*
X153535000Y-89656000D02*
X152120000Y-89656000D01*
X153548000Y-89616000D02*
X152120000Y-89616000D01*
X153560000Y-89576000D02*
X152120000Y-89576000D01*
X153571000Y-89535000D02*
X152120000Y-89535000D01*
X153581000Y-89495000D02*
X152120000Y-89495000D01*
X153591000Y-89455000D02*
X152120000Y-89455000D01*
X153600000Y-89415000D02*
X152120000Y-89415000D01*
X153608000Y-89375000D02*
X152120000Y-89375000D01*
X153616000Y-89335000D02*
X152120000Y-89335000D01*
X153623000Y-89295000D02*
X152120000Y-89295000D01*
X153630000Y-89255000D02*
X152120000Y-89255000D01*
X153636000Y-89215000D02*
X152120000Y-89215000D01*
X153641000Y-89175000D02*
X152120000Y-89175000D01*
X153645000Y-89135000D02*
X152120000Y-89135000D01*
X153649000Y-89095000D02*
X152120000Y-89095000D01*
X153653000Y-89055000D02*
X148507000Y-89055000D01*
X153656000Y-89015000D02*
X148504000Y-89015000D01*
X153658000Y-88975000D02*
X148502000Y-88975000D01*
X153659000Y-88935000D02*
X148501000Y-88935000D01*
X153660000Y-88855000D02*
X148500000Y-88855000D01*
X153660000Y-88895000D02*
X148500000Y-88895000D01*
X153700000Y-88855000D02*
G75*
G02*
X148460000Y-88855000I-2620000J0D01*
G01*
X148460000Y-88855000D02*
G75*
G02*
X153700000Y-88855000I2620000J0D01*
G01*
G04 #@! TO.C,J1*
X159650000Y-88800000D02*
X160980000Y-88800000D01*
X159650000Y-90130000D02*
X159650000Y-88800000D01*
X159650000Y-91400000D02*
X159650000Y-96540000D01*
X159650000Y-91400000D02*
X162310000Y-91400000D01*
X159650000Y-96540000D02*
X162310000Y-96540000D01*
X162310000Y-91400000D02*
X162310000Y-96540000D01*
G04 #@! TO.C,J2*
X119470000Y-88595000D02*
X119470000Y-96715000D01*
X119470000Y-96715000D02*
X124190000Y-96715000D01*
X120080000Y-89205000D02*
X120080000Y-96105000D01*
X120080000Y-91555000D02*
X120580000Y-91555000D01*
X120080000Y-91655000D02*
X120580000Y-91655000D01*
X120080000Y-93555000D02*
X120580000Y-93555000D01*
X120080000Y-93655000D02*
X120580000Y-93655000D01*
X120080000Y-96105000D02*
X123580000Y-96105000D01*
X120580000Y-91555000D02*
X120580000Y-91755000D01*
X120580000Y-91755000D02*
X120080000Y-91755000D01*
X120580000Y-93555000D02*
X120580000Y-93755000D01*
X120580000Y-93755000D02*
X120080000Y-93755000D01*
X121580000Y-88595000D02*
X121580000Y-89205000D01*
X121580000Y-96715000D02*
X121580000Y-96105000D01*
X122880000Y-88595000D02*
X122880000Y-89205000D01*
X122880000Y-96715000D02*
X122880000Y-96105000D01*
X123580000Y-89205000D02*
X120080000Y-89205000D01*
X123580000Y-91155000D02*
X123580000Y-89205000D01*
X123580000Y-94155000D02*
X124190000Y-94155000D01*
X123580000Y-96105000D02*
X123580000Y-94155000D01*
X124190000Y-88595000D02*
X119470000Y-88595000D01*
X124190000Y-90355000D02*
X124390000Y-90355000D01*
X124190000Y-91155000D02*
X123580000Y-91155000D01*
X124190000Y-96715000D02*
X124190000Y-88595000D01*
X124290000Y-90355000D02*
X124290000Y-90055000D01*
X124390000Y-90055000D02*
X124190000Y-90055000D01*
X124390000Y-90355000D02*
X124390000Y-90055000D01*
X124490000Y-88295000D02*
X123240000Y-88295000D01*
X124490000Y-89545000D02*
X124490000Y-88295000D01*
G04 #@! TO.C,R1*
X126750000Y-80485000D02*
X126750000Y-80815000D01*
X126750000Y-83225000D02*
X126750000Y-82895000D01*
X133290000Y-80485000D02*
X126750000Y-80485000D01*
X133290000Y-80815000D02*
X133290000Y-80485000D01*
X133290000Y-82895000D02*
X133290000Y-83225000D01*
X133290000Y-83225000D02*
X126750000Y-83225000D01*
G04 #@! TO.C,R2*
X126800000Y-102135000D02*
X126800000Y-102465000D01*
X126800000Y-104875000D02*
X126800000Y-104545000D01*
X133340000Y-102135000D02*
X126800000Y-102135000D01*
X133340000Y-102465000D02*
X133340000Y-102135000D01*
X133340000Y-104545000D02*
X133340000Y-104875000D01*
X133340000Y-104875000D02*
X126800000Y-104875000D01*
G04 #@! TO.C,R3*
X122600000Y-84385000D02*
X122600000Y-84715000D01*
X122600000Y-87125000D02*
X122600000Y-86795000D01*
X129140000Y-84385000D02*
X122600000Y-84385000D01*
X129140000Y-84715000D02*
X129140000Y-84385000D01*
X129140000Y-86795000D02*
X129140000Y-87125000D01*
X129140000Y-87125000D02*
X122600000Y-87125000D01*
G04 #@! TO.C,R4*
X136570000Y-80485000D02*
X143110000Y-80485000D01*
X136570000Y-80815000D02*
X136570000Y-80485000D01*
X136570000Y-82895000D02*
X136570000Y-83225000D01*
X136570000Y-83225000D02*
X143110000Y-83225000D01*
X143110000Y-80485000D02*
X143110000Y-80815000D01*
X143110000Y-83225000D02*
X143110000Y-82895000D01*
G04 #@! TO.C,R5*
X131010000Y-89335000D02*
X131340000Y-89335000D01*
X131010000Y-95875000D02*
X131010000Y-89335000D01*
X131340000Y-95875000D02*
X131010000Y-95875000D01*
X133420000Y-95875000D02*
X133750000Y-95875000D01*
X133750000Y-89335000D02*
X133420000Y-89335000D01*
X133750000Y-95875000D02*
X133750000Y-89335000D01*
G04 #@! TO.C,R6*
X122600000Y-98285000D02*
X122600000Y-98615000D01*
X122600000Y-101025000D02*
X122600000Y-100695000D01*
X129140000Y-98285000D02*
X122600000Y-98285000D01*
X129140000Y-98615000D02*
X129140000Y-98285000D01*
X129140000Y-100695000D02*
X129140000Y-101025000D01*
X129140000Y-101025000D02*
X122600000Y-101025000D01*
G04 #@! TO.C,R7*
X145060000Y-81925000D02*
X145390000Y-81925000D01*
X145060000Y-88465000D02*
X145060000Y-81925000D01*
X145390000Y-88465000D02*
X145060000Y-88465000D01*
X147470000Y-88465000D02*
X147800000Y-88465000D01*
X147800000Y-81925000D02*
X147470000Y-81925000D01*
X147800000Y-88465000D02*
X147800000Y-81925000D01*
G04 #@! TO.C,R8*
X145060000Y-91725000D02*
X145390000Y-91725000D01*
X145060000Y-98265000D02*
X145060000Y-91725000D01*
X145390000Y-98265000D02*
X145060000Y-98265000D01*
X147470000Y-98265000D02*
X147800000Y-98265000D01*
X147800000Y-91725000D02*
X147470000Y-91725000D01*
X147800000Y-98265000D02*
X147800000Y-91725000D01*
G04 #@! TO.C,R9*
X151410000Y-93725000D02*
X151740000Y-93725000D01*
X151410000Y-100265000D02*
X151410000Y-93725000D01*
X151740000Y-100265000D02*
X151410000Y-100265000D01*
X153820000Y-100265000D02*
X154150000Y-100265000D01*
X154150000Y-93725000D02*
X153820000Y-93725000D01*
X154150000Y-100265000D02*
X154150000Y-93725000D01*
G04 #@! TO.C,R10*
X136600000Y-102135000D02*
X136600000Y-102465000D01*
X136600000Y-104875000D02*
X136600000Y-104545000D01*
X143140000Y-102135000D02*
X136600000Y-102135000D01*
X143140000Y-102465000D02*
X143140000Y-102135000D01*
X143140000Y-104545000D02*
X143140000Y-104875000D01*
X143140000Y-104875000D02*
X136600000Y-104875000D01*
G04 #@! TO.C,U1*
D16*
X137135000Y-83750000D02*
X137135000Y-101650000D01*
X137135000Y-101650000D02*
X141635000Y-101650000D01*
X138385000Y-83750000D02*
X137135000Y-83750000D01*
X141635000Y-83750000D02*
X140385000Y-83750000D01*
X141635000Y-101650000D02*
X141635000Y-83750000D01*
X140385000Y-83750000D02*
G75*
G02*
X138385000Y-83750000I-1000000J0D01*
G01*
G04 #@! TO.C,R4*
D15*
X210320000Y-102052144D02*
X210320000Y-102382144D01*
X210320000Y-104792144D02*
X210320000Y-104462144D01*
X216860000Y-102052144D02*
X210320000Y-102052144D01*
X216860000Y-102382144D02*
X216860000Y-102052144D01*
X216860000Y-104462144D02*
X216860000Y-104792144D01*
X216860000Y-104792144D02*
X210320000Y-104792144D01*
G04 #@! TO.C,R9*
X199280000Y-85012144D02*
X199280000Y-91552144D01*
X199280000Y-91552144D02*
X199610000Y-91552144D01*
X199610000Y-85012144D02*
X199280000Y-85012144D01*
X201690000Y-85012144D02*
X202020000Y-85012144D01*
X202020000Y-85012144D02*
X202020000Y-91552144D01*
X202020000Y-91552144D02*
X201690000Y-91552144D01*
G04 #@! TO.C,C4*
X202430000Y-100602144D02*
X202430000Y-104642144D01*
X203055000Y-100602144D02*
X202430000Y-100602144D01*
X203055000Y-104642144D02*
X202430000Y-104642144D01*
X205270000Y-100602144D02*
X204645000Y-100602144D01*
X205270000Y-100602144D02*
X205270000Y-104642144D01*
X205270000Y-104642144D02*
X204645000Y-104642144D01*
G04 #@! TO.C,R2*
X220090000Y-80402144D02*
X226630000Y-80402144D01*
X220090000Y-80732144D02*
X220090000Y-80402144D01*
X220090000Y-82812144D02*
X220090000Y-83142144D01*
X220090000Y-83142144D02*
X226630000Y-83142144D01*
X226630000Y-80402144D02*
X226630000Y-80732144D01*
X226630000Y-83142144D02*
X226630000Y-82812144D01*
G04 #@! TO.C,R7*
X205630000Y-96812144D02*
X205630000Y-103352144D01*
X205630000Y-103352144D02*
X205960000Y-103352144D01*
X205960000Y-96812144D02*
X205630000Y-96812144D01*
X208040000Y-96812144D02*
X208370000Y-96812144D01*
X208370000Y-96812144D02*
X208370000Y-103352144D01*
X208370000Y-103352144D02*
X208040000Y-103352144D01*
G04 #@! TO.C,C5*
X197830000Y-80302144D02*
X197830000Y-80927144D01*
X197830000Y-80302144D02*
X201870000Y-80302144D01*
X197830000Y-82517144D02*
X197830000Y-83142144D01*
X197830000Y-83142144D02*
X201870000Y-83142144D01*
X201870000Y-80302144D02*
X201870000Y-80927144D01*
X201870000Y-82517144D02*
X201870000Y-83142144D01*
G04 #@! TO.C,C7*
X202430000Y-85702144D02*
X202430000Y-89742144D01*
X203055000Y-85702144D02*
X202430000Y-85702144D01*
X203055000Y-89742144D02*
X202430000Y-89742144D01*
X205270000Y-85702144D02*
X204645000Y-85702144D01*
X205270000Y-85702144D02*
X205270000Y-89742144D01*
X205270000Y-89742144D02*
X204645000Y-89742144D01*
G04 #@! TO.C,R5*
X219680000Y-89402144D02*
X219680000Y-95942144D01*
X219680000Y-95942144D02*
X220010000Y-95942144D01*
X220010000Y-89402144D02*
X219680000Y-89402144D01*
X222090000Y-89402144D02*
X222420000Y-89402144D01*
X222420000Y-89402144D02*
X222420000Y-95942144D01*
X222420000Y-95942144D02*
X222090000Y-95942144D01*
G04 #@! TO.C,J2*
X228940000Y-95732144D02*
X228940000Y-96982144D01*
X228940000Y-96982144D02*
X230190000Y-96982144D01*
X229040000Y-94922144D02*
X229040000Y-95222144D01*
X229040000Y-95222144D02*
X229240000Y-95222144D01*
X229140000Y-94922144D02*
X229140000Y-95222144D01*
X229240000Y-88562144D02*
X229240000Y-96682144D01*
X229240000Y-94122144D02*
X229850000Y-94122144D01*
X229240000Y-94922144D02*
X229040000Y-94922144D01*
X229240000Y-96682144D02*
X233960000Y-96682144D01*
X229850000Y-89172144D02*
X229850000Y-91122144D01*
X229850000Y-91122144D02*
X229240000Y-91122144D01*
X229850000Y-94122144D02*
X229850000Y-96072144D01*
X229850000Y-96072144D02*
X233350000Y-96072144D01*
X230550000Y-88562144D02*
X230550000Y-89172144D01*
X230550000Y-96682144D02*
X230550000Y-96072144D01*
X231850000Y-88562144D02*
X231850000Y-89172144D01*
X231850000Y-96682144D02*
X231850000Y-96072144D01*
X232850000Y-91522144D02*
X233350000Y-91522144D01*
X232850000Y-91722144D02*
X232850000Y-91522144D01*
X232850000Y-93522144D02*
X233350000Y-93522144D01*
X232850000Y-93722144D02*
X232850000Y-93522144D01*
X233350000Y-89172144D02*
X229850000Y-89172144D01*
X233350000Y-91622144D02*
X232850000Y-91622144D01*
X233350000Y-91722144D02*
X232850000Y-91722144D01*
X233350000Y-93622144D02*
X232850000Y-93622144D01*
X233350000Y-93722144D02*
X232850000Y-93722144D01*
X233350000Y-96072144D02*
X233350000Y-89172144D01*
X233960000Y-88562144D02*
X229240000Y-88562144D01*
X233960000Y-96682144D02*
X233960000Y-88562144D01*
G04 #@! TO.C,R1*
X220140000Y-102052144D02*
X226680000Y-102052144D01*
X220140000Y-102382144D02*
X220140000Y-102052144D01*
X220140000Y-104462144D02*
X220140000Y-104792144D01*
X220140000Y-104792144D02*
X226680000Y-104792144D01*
X226680000Y-102052144D02*
X226680000Y-102382144D01*
X226680000Y-104792144D02*
X226680000Y-104462144D01*
G04 #@! TO.C,R8*
X205630000Y-87012144D02*
X205630000Y-93552144D01*
X205630000Y-93552144D02*
X205960000Y-93552144D01*
X205960000Y-87012144D02*
X205630000Y-87012144D01*
X208040000Y-87012144D02*
X208370000Y-87012144D01*
X208370000Y-87012144D02*
X208370000Y-93552144D01*
X208370000Y-93552144D02*
X208040000Y-93552144D01*
G04 #@! TO.C,C8*
X203099000Y-82756144D02*
X203099000Y-82188144D01*
X203139000Y-82990144D02*
X203139000Y-81954144D01*
X203179000Y-83149144D02*
X203179000Y-81795144D01*
X203219000Y-83277144D02*
X203219000Y-81667144D01*
X203259000Y-83387144D02*
X203259000Y-81557144D01*
X203299000Y-83483144D02*
X203299000Y-81461144D01*
X203339000Y-83570144D02*
X203339000Y-81374144D01*
X203379000Y-83650144D02*
X203379000Y-81294144D01*
X203419000Y-81432144D02*
X203419000Y-81221144D01*
X203419000Y-83723144D02*
X203419000Y-83512144D01*
X203459000Y-81432144D02*
X203459000Y-81153144D01*
X203459000Y-83791144D02*
X203459000Y-83512144D01*
X203499000Y-81432144D02*
X203499000Y-81089144D01*
X203499000Y-83855144D02*
X203499000Y-83512144D01*
X203539000Y-81432144D02*
X203539000Y-81029144D01*
X203539000Y-83915144D02*
X203539000Y-83512144D01*
X203579000Y-81432144D02*
X203579000Y-80972144D01*
X203579000Y-83972144D02*
X203579000Y-83512144D01*
X203619000Y-81432144D02*
X203619000Y-80918144D01*
X203619000Y-84026144D02*
X203619000Y-83512144D01*
X203659000Y-81432144D02*
X203659000Y-80867144D01*
X203659000Y-84077144D02*
X203659000Y-83512144D01*
X203699000Y-81432144D02*
X203699000Y-80819144D01*
X203699000Y-84125144D02*
X203699000Y-83512144D01*
X203739000Y-81432144D02*
X203739000Y-80773144D01*
X203739000Y-84171144D02*
X203739000Y-83512144D01*
X203779000Y-81432144D02*
X203779000Y-80729144D01*
X203779000Y-84215144D02*
X203779000Y-83512144D01*
X203819000Y-81432144D02*
X203819000Y-80687144D01*
X203819000Y-84257144D02*
X203819000Y-83512144D01*
X203859000Y-81432144D02*
X203859000Y-80646144D01*
X203859000Y-84298144D02*
X203859000Y-83512144D01*
X203899000Y-81432144D02*
X203899000Y-80608144D01*
X203899000Y-84336144D02*
X203899000Y-83512144D01*
X203939000Y-81432144D02*
X203939000Y-80571144D01*
X203939000Y-84373144D02*
X203939000Y-83512144D01*
X203979000Y-81432144D02*
X203979000Y-80535144D01*
X203979000Y-84409144D02*
X203979000Y-83512144D01*
X204019000Y-81432144D02*
X204019000Y-80501144D01*
X204019000Y-84443144D02*
X204019000Y-83512144D01*
X204059000Y-81432144D02*
X204059000Y-80468144D01*
X204059000Y-84476144D02*
X204059000Y-83512144D01*
X204099000Y-81432144D02*
X204099000Y-80437144D01*
X204099000Y-84507144D02*
X204099000Y-83512144D01*
X204139000Y-81432144D02*
X204139000Y-80407144D01*
X204139000Y-84537144D02*
X204139000Y-83512144D01*
X204179000Y-81432144D02*
X204179000Y-80377144D01*
X204179000Y-84567144D02*
X204179000Y-83512144D01*
X204219000Y-81432144D02*
X204219000Y-80350144D01*
X204219000Y-84594144D02*
X204219000Y-83512144D01*
X204259000Y-81432144D02*
X204259000Y-80323144D01*
X204259000Y-84621144D02*
X204259000Y-83512144D01*
X204299000Y-81432144D02*
X204299000Y-80297144D01*
X204299000Y-84647144D02*
X204299000Y-83512144D01*
X204339000Y-81432144D02*
X204339000Y-80272144D01*
X204339000Y-84672144D02*
X204339000Y-83512144D01*
X204379000Y-81432144D02*
X204379000Y-80248144D01*
X204379000Y-84696144D02*
X204379000Y-83512144D01*
X204419000Y-81432144D02*
X204419000Y-80225144D01*
X204419000Y-84719144D02*
X204419000Y-83512144D01*
X204459000Y-81432144D02*
X204459000Y-80204144D01*
X204459000Y-84740144D02*
X204459000Y-83512144D01*
X204499000Y-81432144D02*
X204499000Y-80182144D01*
X204499000Y-84762144D02*
X204499000Y-83512144D01*
X204539000Y-81432144D02*
X204539000Y-80162144D01*
X204539000Y-84782144D02*
X204539000Y-83512144D01*
X204579000Y-81432144D02*
X204579000Y-80143144D01*
X204579000Y-84801144D02*
X204579000Y-83512144D01*
X204619000Y-81432144D02*
X204619000Y-80124144D01*
X204619000Y-84820144D02*
X204619000Y-83512144D01*
X204659000Y-81432144D02*
X204659000Y-80107144D01*
X204659000Y-84837144D02*
X204659000Y-83512144D01*
X204699000Y-81432144D02*
X204699000Y-80090144D01*
X204699000Y-84854144D02*
X204699000Y-83512144D01*
X204739000Y-81432144D02*
X204739000Y-80074144D01*
X204739000Y-84870144D02*
X204739000Y-83512144D01*
X204779000Y-81432144D02*
X204779000Y-80058144D01*
X204779000Y-84886144D02*
X204779000Y-83512144D01*
X204819000Y-81432144D02*
X204819000Y-80044144D01*
X204819000Y-84900144D02*
X204819000Y-83512144D01*
X204859000Y-81432144D02*
X204859000Y-80030144D01*
X204859000Y-84914144D02*
X204859000Y-83512144D01*
X204899000Y-81432144D02*
X204899000Y-80017144D01*
X204899000Y-84927144D02*
X204899000Y-83512144D01*
X204939000Y-81432144D02*
X204939000Y-80004144D01*
X204939000Y-84940144D02*
X204939000Y-83512144D01*
X204979000Y-81432144D02*
X204979000Y-79992144D01*
X204979000Y-84952144D02*
X204979000Y-83512144D01*
X205020000Y-81432144D02*
X205020000Y-79981144D01*
X205020000Y-84963144D02*
X205020000Y-83512144D01*
X205060000Y-81432144D02*
X205060000Y-79971144D01*
X205060000Y-84973144D02*
X205060000Y-83512144D01*
X205100000Y-81432144D02*
X205100000Y-79961144D01*
X205100000Y-84983144D02*
X205100000Y-83512144D01*
X205140000Y-81432144D02*
X205140000Y-79952144D01*
X205140000Y-84992144D02*
X205140000Y-83512144D01*
X205180000Y-81432144D02*
X205180000Y-79944144D01*
X205180000Y-85000144D02*
X205180000Y-83512144D01*
X205220000Y-81432144D02*
X205220000Y-79936144D01*
X205220000Y-85008144D02*
X205220000Y-83512144D01*
X205260000Y-81432144D02*
X205260000Y-79929144D01*
X205260000Y-85015144D02*
X205260000Y-83512144D01*
X205300000Y-81432144D02*
X205300000Y-79922144D01*
X205300000Y-85022144D02*
X205300000Y-83512144D01*
X205340000Y-81432144D02*
X205340000Y-79916144D01*
X205340000Y-85028144D02*
X205340000Y-83512144D01*
X205380000Y-81432144D02*
X205380000Y-79911144D01*
X205380000Y-85033144D02*
X205380000Y-83512144D01*
X205420000Y-81432144D02*
X205420000Y-79907144D01*
X205420000Y-85037144D02*
X205420000Y-83512144D01*
X205460000Y-81432144D02*
X205460000Y-79903144D01*
X205460000Y-85041144D02*
X205460000Y-83512144D01*
X205500000Y-85045144D02*
X205500000Y-79899144D01*
X205540000Y-85048144D02*
X205540000Y-79896144D01*
X205580000Y-85050144D02*
X205580000Y-79894144D01*
X205620000Y-85051144D02*
X205620000Y-79893144D01*
X205660000Y-85052144D02*
X205660000Y-79892144D01*
X205700000Y-85052144D02*
X205700000Y-79892144D01*
X208254775Y-84197144D02*
X208254775Y-83697144D01*
X208504775Y-83947144D02*
X208004775Y-83947144D01*
X208320000Y-82472144D02*
G75*
G02*
X203080000Y-82472144I-2620000J0D01*
G01*
X203080000Y-82472144D02*
G75*
G02*
X208320000Y-82472144I2620000J0D01*
G01*
G04 #@! TO.C,C3*
X222980000Y-87927144D02*
X222980000Y-87302144D01*
X222980000Y-90142144D02*
X222980000Y-89517144D01*
X227020000Y-87302144D02*
X222980000Y-87302144D01*
X227020000Y-87927144D02*
X227020000Y-87302144D01*
X227020000Y-90142144D02*
X222980000Y-90142144D01*
X227020000Y-90142144D02*
X227020000Y-89517144D01*
G04 #@! TO.C,J1*
X191120000Y-93877144D02*
X191120000Y-88737144D01*
X193780000Y-88737144D02*
X191120000Y-88737144D01*
X193780000Y-93877144D02*
X191120000Y-93877144D01*
X193780000Y-93877144D02*
X193780000Y-88737144D01*
X193780000Y-95147144D02*
X193780000Y-96477144D01*
X193780000Y-96477144D02*
X192450000Y-96477144D01*
G04 #@! TO.C,R6*
X224290000Y-84252144D02*
X230830000Y-84252144D01*
X224290000Y-84582144D02*
X224290000Y-84252144D01*
X224290000Y-86662144D02*
X224290000Y-86992144D01*
X224290000Y-86992144D02*
X230830000Y-86992144D01*
X230830000Y-84252144D02*
X230830000Y-84582144D01*
X230830000Y-86992144D02*
X230830000Y-86662144D01*
G04 #@! TO.C,C2*
X223580000Y-90602144D02*
X223580000Y-94642144D01*
X224205000Y-90602144D02*
X223580000Y-90602144D01*
X224205000Y-94642144D02*
X223580000Y-94642144D01*
X226420000Y-90602144D02*
X225795000Y-90602144D01*
X226420000Y-90602144D02*
X226420000Y-94642144D01*
X226420000Y-94642144D02*
X225795000Y-94642144D01*
G04 #@! TO.C,R10*
X210290000Y-80402144D02*
X216830000Y-80402144D01*
X210290000Y-80732144D02*
X210290000Y-80402144D01*
X210290000Y-82812144D02*
X210290000Y-83142144D01*
X210290000Y-83142144D02*
X216830000Y-83142144D01*
X216830000Y-80402144D02*
X216830000Y-80732144D01*
X216830000Y-83142144D02*
X216830000Y-82812144D01*
G04 #@! TO.C,C10*
X199770000Y-96382144D02*
X204930000Y-96382144D01*
X199770000Y-96422144D02*
X204930000Y-96422144D01*
X199771000Y-96342144D02*
X204929000Y-96342144D01*
X199772000Y-96302144D02*
X204928000Y-96302144D01*
X199774000Y-96262144D02*
X204926000Y-96262144D01*
X199777000Y-96222144D02*
X204923000Y-96222144D01*
X199781000Y-96182144D02*
X201310000Y-96182144D01*
X199785000Y-96142144D02*
X201310000Y-96142144D01*
X199789000Y-96102144D02*
X201310000Y-96102144D01*
X199794000Y-96062144D02*
X201310000Y-96062144D01*
X199800000Y-96022144D02*
X201310000Y-96022144D01*
X199807000Y-95982144D02*
X201310000Y-95982144D01*
X199814000Y-95942144D02*
X201310000Y-95942144D01*
X199822000Y-95902144D02*
X201310000Y-95902144D01*
X199830000Y-95862144D02*
X201310000Y-95862144D01*
X199839000Y-95822144D02*
X201310000Y-95822144D01*
X199849000Y-95782144D02*
X201310000Y-95782144D01*
X199859000Y-95742144D02*
X201310000Y-95742144D01*
X199870000Y-95701144D02*
X201310000Y-95701144D01*
X199882000Y-95661144D02*
X201310000Y-95661144D01*
X199895000Y-95621144D02*
X201310000Y-95621144D01*
X199908000Y-95581144D02*
X201310000Y-95581144D01*
X199922000Y-95541144D02*
X201310000Y-95541144D01*
X199936000Y-95501144D02*
X201310000Y-95501144D01*
X199952000Y-95461144D02*
X201310000Y-95461144D01*
X199968000Y-95421144D02*
X201310000Y-95421144D01*
X199985000Y-95381144D02*
X201310000Y-95381144D01*
X200002000Y-95341144D02*
X201310000Y-95341144D01*
X200021000Y-95301144D02*
X201310000Y-95301144D01*
X200040000Y-95261144D02*
X201310000Y-95261144D01*
X200060000Y-95221144D02*
X201310000Y-95221144D01*
X200082000Y-95181144D02*
X201310000Y-95181144D01*
X200103000Y-95141144D02*
X201310000Y-95141144D01*
X200126000Y-95101144D02*
X201310000Y-95101144D01*
X200150000Y-95061144D02*
X201310000Y-95061144D01*
X200175000Y-95021144D02*
X201310000Y-95021144D01*
X200201000Y-94981144D02*
X201310000Y-94981144D01*
X200228000Y-94941144D02*
X201310000Y-94941144D01*
X200255000Y-94901144D02*
X201310000Y-94901144D01*
X200285000Y-94861144D02*
X201310000Y-94861144D01*
X200315000Y-94821144D02*
X201310000Y-94821144D01*
X200346000Y-94781144D02*
X201310000Y-94781144D01*
X200379000Y-94741144D02*
X201310000Y-94741144D01*
X200413000Y-94701144D02*
X201310000Y-94701144D01*
X200449000Y-94661144D02*
X201310000Y-94661144D01*
X200486000Y-94621144D02*
X201310000Y-94621144D01*
X200524000Y-94581144D02*
X201310000Y-94581144D01*
X200565000Y-94541144D02*
X201310000Y-94541144D01*
X200607000Y-94501144D02*
X201310000Y-94501144D01*
X200625000Y-98976919D02*
X201125000Y-98976919D01*
X200651000Y-94461144D02*
X201310000Y-94461144D01*
X200697000Y-94421144D02*
X201310000Y-94421144D01*
X200745000Y-94381144D02*
X201310000Y-94381144D01*
X200796000Y-94341144D02*
X201310000Y-94341144D01*
X200850000Y-94301144D02*
X201310000Y-94301144D01*
X200875000Y-99226919D02*
X200875000Y-98726919D01*
X200907000Y-94261144D02*
X201310000Y-94261144D01*
X200967000Y-94221144D02*
X201310000Y-94221144D01*
X201031000Y-94181144D02*
X201310000Y-94181144D01*
X201099000Y-94141144D02*
X201310000Y-94141144D01*
X201172000Y-94101144D02*
X203528000Y-94101144D01*
X201252000Y-94061144D02*
X203448000Y-94061144D01*
X201339000Y-94021144D02*
X203361000Y-94021144D01*
X201435000Y-93981144D02*
X203265000Y-93981144D01*
X201545000Y-93941144D02*
X203155000Y-93941144D01*
X201673000Y-93901144D02*
X203027000Y-93901144D01*
X201832000Y-93861144D02*
X202868000Y-93861144D01*
X202066000Y-93821144D02*
X202634000Y-93821144D01*
X203390000Y-94141144D02*
X203601000Y-94141144D01*
X203390000Y-94181144D02*
X203669000Y-94181144D01*
X203390000Y-94221144D02*
X203733000Y-94221144D01*
X203390000Y-94261144D02*
X203793000Y-94261144D01*
X203390000Y-94301144D02*
X203850000Y-94301144D01*
X203390000Y-94341144D02*
X203904000Y-94341144D01*
X203390000Y-94381144D02*
X203955000Y-94381144D01*
X203390000Y-94421144D02*
X204003000Y-94421144D01*
X203390000Y-94461144D02*
X204049000Y-94461144D01*
X203390000Y-94501144D02*
X204093000Y-94501144D01*
X203390000Y-94541144D02*
X204135000Y-94541144D01*
X203390000Y-94581144D02*
X204176000Y-94581144D01*
X203390000Y-94621144D02*
X204214000Y-94621144D01*
X203390000Y-94661144D02*
X204251000Y-94661144D01*
X203390000Y-94701144D02*
X204287000Y-94701144D01*
X203390000Y-94741144D02*
X204321000Y-94741144D01*
X203390000Y-94781144D02*
X204354000Y-94781144D01*
X203390000Y-94821144D02*
X204385000Y-94821144D01*
X203390000Y-94861144D02*
X204415000Y-94861144D01*
X203390000Y-94901144D02*
X204445000Y-94901144D01*
X203390000Y-94941144D02*
X204472000Y-94941144D01*
X203390000Y-94981144D02*
X204499000Y-94981144D01*
X203390000Y-95021144D02*
X204525000Y-95021144D01*
X203390000Y-95061144D02*
X204550000Y-95061144D01*
X203390000Y-95101144D02*
X204574000Y-95101144D01*
X203390000Y-95141144D02*
X204597000Y-95141144D01*
X203390000Y-95181144D02*
X204618000Y-95181144D01*
X203390000Y-95221144D02*
X204640000Y-95221144D01*
X203390000Y-95261144D02*
X204660000Y-95261144D01*
X203390000Y-95301144D02*
X204679000Y-95301144D01*
X203390000Y-95341144D02*
X204698000Y-95341144D01*
X203390000Y-95381144D02*
X204715000Y-95381144D01*
X203390000Y-95421144D02*
X204732000Y-95421144D01*
X203390000Y-95461144D02*
X204748000Y-95461144D01*
X203390000Y-95501144D02*
X204764000Y-95501144D01*
X203390000Y-95541144D02*
X204778000Y-95541144D01*
X203390000Y-95581144D02*
X204792000Y-95581144D01*
X203390000Y-95621144D02*
X204805000Y-95621144D01*
X203390000Y-95661144D02*
X204818000Y-95661144D01*
X203390000Y-95701144D02*
X204830000Y-95701144D01*
X203390000Y-95742144D02*
X204841000Y-95742144D01*
X203390000Y-95782144D02*
X204851000Y-95782144D01*
X203390000Y-95822144D02*
X204861000Y-95822144D01*
X203390000Y-95862144D02*
X204870000Y-95862144D01*
X203390000Y-95902144D02*
X204878000Y-95902144D01*
X203390000Y-95942144D02*
X204886000Y-95942144D01*
X203390000Y-95982144D02*
X204893000Y-95982144D01*
X203390000Y-96022144D02*
X204900000Y-96022144D01*
X203390000Y-96062144D02*
X204906000Y-96062144D01*
X203390000Y-96102144D02*
X204911000Y-96102144D01*
X203390000Y-96142144D02*
X204915000Y-96142144D01*
X203390000Y-96182144D02*
X204919000Y-96182144D01*
X204970000Y-96422144D02*
G75*
G02*
X199730000Y-96422144I-2620000J0D01*
G01*
X199730000Y-96422144D02*
G75*
G02*
X204970000Y-96422144I2620000J0D01*
G01*
G04 #@! TO.C,C1*
X222980000Y-95052144D02*
X222980000Y-95677144D01*
X222980000Y-95052144D02*
X227020000Y-95052144D01*
X222980000Y-97267144D02*
X222980000Y-97892144D01*
X222980000Y-97892144D02*
X227020000Y-97892144D01*
X227020000Y-95052144D02*
X227020000Y-95677144D01*
X227020000Y-97267144D02*
X227020000Y-97892144D01*
G04 #@! TO.C,U1*
D16*
X211795000Y-83627144D02*
X211795000Y-101527144D01*
X211795000Y-101527144D02*
X213045000Y-101527144D01*
X215045000Y-101527144D02*
X216295000Y-101527144D01*
X216295000Y-83627144D02*
X211795000Y-83627144D01*
X216295000Y-101527144D02*
X216295000Y-83627144D01*
X213045000Y-101527144D02*
G75*
G02*
X215045000Y-101527144I1000000J0D01*
G01*
G04 #@! TO.C,R3*
D15*
X224290000Y-98152144D02*
X230830000Y-98152144D01*
X224290000Y-98482144D02*
X224290000Y-98152144D01*
X224290000Y-100562144D02*
X224290000Y-100892144D01*
X224290000Y-100892144D02*
X230830000Y-100892144D01*
X230830000Y-98152144D02*
X230830000Y-98482144D01*
X230830000Y-100892144D02*
X230830000Y-100562144D01*
G04 #@! TO.C,U2*
D17*
X165045000Y-96471272D02*
X165045000Y-88476000D01*
X165545000Y-87976000D02*
X166555000Y-87976000D01*
D18*
X166555000Y-85495000D02*
X166555000Y-99465000D01*
D17*
X166555000Y-96975000D02*
X165544728Y-96971272D01*
D18*
X185605000Y-83590000D02*
X168460000Y-83590000D01*
X185605000Y-101370000D02*
X168460000Y-101370000D01*
X187510000Y-99465000D02*
X187510000Y-85495000D01*
D17*
X165045000Y-88476000D02*
G75*
G02*
X165545000Y-87976000I500000J0D01*
G01*
X165544728Y-96971272D02*
G75*
G02*
X165044998Y-96471272I292J500022D01*
G01*
D18*
X166555000Y-85495000D02*
G75*
G02*
X168460000Y-83590000I1905000J0D01*
G01*
X168456000Y-101370000D02*
G75*
G02*
X166551000Y-99465000I1J1905001D01*
G01*
X185605000Y-83590000D02*
G75*
G02*
X187510000Y-85495000I0J-1905000D01*
G01*
X187510000Y-99465000D02*
G75*
G02*
X185605000Y-101370000I-1905000J0D01*
G01*
D19*
X167223000Y-101580000D02*
G75*
G02*
X166719000Y-101580000I-252000J0D01*
G01*
X166719000Y-101580000D02*
G75*
G02*
X167223000Y-101580000I252000J0D01*
G01*
X167946000Y-100363000D02*
G75*
G02*
X167442000Y-100363000I-252000J0D01*
G01*
X167442000Y-100363000D02*
G75*
G02*
X167946000Y-100363000I252000J0D01*
G01*
G04 #@! TO.C,C9*
D15*
X199230000Y-100602144D02*
X199230000Y-104642144D01*
X199855000Y-100602144D02*
X199230000Y-100602144D01*
X199855000Y-104642144D02*
X199230000Y-104642144D01*
X202070000Y-100602144D02*
X201445000Y-100602144D01*
X202070000Y-100602144D02*
X202070000Y-104642144D01*
X202070000Y-104642144D02*
X201445000Y-104642144D01*
G04 #@! TD*
M02*
