M48
; DRILL file KiCad 10.0.6 date 2026-09-21T18:59:28
; FORMAT={-:-/ absolute / metric / decimal}
; #@! TF.CreationDate,2026-09-21T18:59:28-05:00
; #@! TF.GenerationSoftware,Kicad,Pcbnew,10.0.6
; #@! TF.FileFunction,Plated,1,2,PTH
FMAT,2
METRIC
; #@! TA.AperFunction,Plated,PTH,ComponentDrill
T1C0.750
; #@! TA.AperFunction,Plated,PTH,ComponentDrill
T2C0.800
; #@! TA.AperFunction,Plated,PTH,ComponentDrill
T3C1.000
%
G90
G05
T1
X122.38Y-90.655
X122.38Y-92.655
X122.38Y-94.655
X231.05Y-90.622
X231.05Y-92.622
X231.05Y-94.622
T2
X122.06Y-85.755
X122.06Y-99.655
X126.21Y-81.855
X126.26Y-103.505
X127.18Y-88.805
X127.18Y-96.555
X128.43Y-91.405
X128.43Y-93.905
X129.68Y-85.755
X129.68Y-88.805
X129.68Y-96.555
X129.68Y-99.655
X132.38Y-88.795
X132.38Y-96.415
X133.83Y-81.855
X133.88Y-103.505
X135.575Y-85.08
X135.575Y-87.62
X135.575Y-90.16
X135.575Y-92.7
X135.575Y-95.24
X135.575Y-97.78
X135.575Y-100.32
X136.03Y-81.855
X136.06Y-103.505
X143.195Y-85.08
X143.195Y-87.62
X143.195Y-90.16
X143.195Y-92.7
X143.195Y-95.24
X143.195Y-97.78
X143.195Y-100.32
X143.65Y-81.855
X143.68Y-103.505
X146.43Y-81.385
X146.43Y-89.005
X146.43Y-91.185
X146.43Y-98.805
X146.48Y-102.805
X148.98Y-102.805
X149.58Y-81.405
X149.58Y-83.905
X149.58Y-96.305
X149.58Y-98.805
X151.08Y-87.605
X151.08Y-90.105
X152.33Y-103.555
X152.78Y-81.405
X152.78Y-83.905
X152.78Y-93.185
X152.78Y-100.805
X154.83Y-103.555
X198.6Y-81.722
X200.65Y-84.472
X200.65Y-92.092
X200.65Y-101.372
X200.65Y-103.872
X201.1Y-81.722
X202.35Y-95.172
X202.35Y-97.672
X203.85Y-86.472
X203.85Y-88.972
X203.85Y-101.372
X203.85Y-103.872
X204.45Y-82.472
X206.95Y-82.472
X207.0Y-86.472
X207.0Y-94.092
X207.0Y-96.272
X207.0Y-103.892
X209.75Y-81.772
X209.78Y-103.422
X210.235Y-84.957
X210.235Y-87.497
X210.235Y-90.037
X210.235Y-92.577
X210.235Y-95.117
X210.235Y-97.657
X210.235Y-100.197
X217.37Y-81.772
X217.4Y-103.422
X217.855Y-84.957
X217.855Y-87.497
X217.855Y-90.037
X217.855Y-92.577
X217.855Y-95.117
X217.855Y-97.657
X217.855Y-100.197
X219.55Y-81.772
X219.6Y-103.422
X221.05Y-88.862
X221.05Y-96.482
X223.75Y-85.622
X223.75Y-88.722
X223.75Y-96.472
X223.75Y-99.522
X225.0Y-91.372
X225.0Y-93.872
X226.25Y-88.722
X226.25Y-96.472
X227.17Y-81.772
X227.22Y-103.422
X231.37Y-85.622
X231.37Y-99.522
T3
X160.98Y-90.13
X160.98Y-92.67
X160.98Y-95.21
X192.45Y-90.067
X192.45Y-92.607
X192.45Y-95.147
M30
